<?xml version="1.0" encoding="utf-8"?>
<!-- Generator: Adobe Illustrator 19.0.0, SVG Export Plug-In . SVG Version: 6.00 Build 0)  -->
<svg version="1.1" id="Layer_1" xmlns="http://www.w3.org/2000/svg" xmlns:xlink="http://www.w3.org/1999/xlink" x="0px" y="0px"
	 viewBox="-65 0 250 250" style="enable-background:new -65 0 250 250;" xml:space="preserve">
<g>
	<path d="M60.1,0c4.6,3.3,9.5,6.3,12.7,11.1c1.7,2.6,3,5.6,4.5,8.4c0.3,0.7,0.6,1.1,1.5,1.2c5.6,1,10.3,3.4,13.9,8
		c0.3,0.3,0.8,0.6,1.2,0.7c3.7,0.7,7.1,2.1,10.1,4.2c0.3,0.2,0.8,0.5,1.2,0.4c5.8-0.8,11,0.9,15.7,4.2c0.7,0.5,1.2,0.4,1.8,0.1
		c6.7-3.2,13.8-3.9,21.1-2.4c1.3,0.3,2.7,0.4,4,0.7c0.3,0.1,0.8,0.4,0.8,0.6c0.8,4.9,1.9,9.9,1.3,14.9c-0.4,3.7-1.5,7.2-3.1,10.6
		c-0.3,0.7-0.2,1.1,0.2,1.7c3.3,4.7,5,9.9,4.2,15.7c0,0.4,0.1,0.8,0.3,1.1c2.1,3.1,3.6,6.5,4.3,10.3c0.1,0.4,0.4,0.9,0.7,1.2
		c4.6,3.6,7,8.4,8.1,14c0.1,0.5,0.5,1.1,1,1.2c7.7,2.7,13.4,7.8,17.7,14.7c0.1,0.1,0.1,0.2,0.2,0.3c1.7,2.3,1.7,2.3,0,4.6
		c-1.1,1.5-2.2,3.1-3.4,4.6c-3.7,4.8-8.5,8.1-14.2,10.1c-0.9,0.3-1.3,0.8-1.5,1.8c-1,5.5-3.5,10.1-7.9,13.6
		c-0.3,0.3-0.6,0.8-0.7,1.2c-0.7,3.7-2.1,7.1-4.3,10.3c-0.2,0.3-0.4,0.8-0.3,1.1c0.8,5.8-0.9,11-4.2,15.7c-0.4,0.6-0.5,1-0.2,1.7
		c3.4,6.9,4,14.1,2.4,21.6c-0.3,1.2-0.4,2.5-0.6,3.7c-0.1,0.3-0.5,0.8-0.8,0.8c-3.5,0.5-7,1.2-10.5,1.4c-5.2,0.4-10-0.9-14.7-3.1
		c-0.8-0.4-1.4-0.3-2.1,0.2c-4.6,3.2-9.7,4.8-15.4,4c-0.4-0.1-0.9,0.1-1.2,0.3c-3.1,2.1-6.5,3.5-10.1,4.2c-0.5,0.1-1,0.4-1.3,0.8
		c-3.5,4.5-8.2,7-13.8,8c-0.8,0.2-1.3,0.5-1.6,1.3c-2.4,6.8-6.6,12.2-12.6,16.2c-1.3,0.9-2.5,1.9-3.8,2.8c-0.3,0.2-0.9,0.3-1.1,0.2
		c-3.2-2.5-6.5-4.8-9.5-7.5c-3.3-3-5.5-7-7-11.2c-0.4-1-0.9-1.5-2-1.8c-5.4-1-10.1-3.5-13.5-7.9c-0.2-0.3-0.7-0.6-1.1-0.7
		c-3.8-0.7-7.2-2.1-10.4-4.3c-0.3-0.2-0.8-0.3-1.1-0.3c-5.8,0.8-11-0.9-15.7-4.2c-0.4-0.3-1.1-0.4-1.5-0.2c-7,3.3-14.2,4-21.7,2.4
		c-1.2-0.3-2.5-0.4-3.7-0.6c-0.3-0.1-0.8-0.4-0.8-0.7c-0.5-3.6-1.2-7.1-1.4-10.7c-0.4-5.1,1-9.9,3.1-14.6c0.4-0.8,0.3-1.3-0.2-2
		c-3.2-4.6-4.8-9.7-4.1-15.4c0.1-0.4-0.1-1-0.3-1.4c-2.1-3.1-3.5-6.5-4.2-10.3c-0.1-0.4-0.3-0.9-0.6-1.1c-4.6-3.5-7-8.3-8-13.8
		c-0.2-0.9-0.5-1.3-1.3-1.5c-6.9-2.4-12.3-6.8-16.3-12.8c-0.8-1.2-1.8-2.4-2.6-3.6c-0.2-0.3-0.2-0.9-0.1-1.1
		c2.5-3.2,4.8-6.5,7.5-9.5c2.3-2.6,5.2-4.4,8.4-5.8c1.2-0.5,2.4-0.9,3.5-1.5c0.4-0.2,0.7-0.7,0.8-1.1c1-5.7,3.4-10.5,8.1-14.1
		c0.3-0.3,0.6-0.8,0.7-1.2c0.7-3.7,2.1-7.1,4.3-10.2c0.2-0.3,0.4-0.8,0.3-1.1c-0.8-5.8,0.8-10.9,4.1-15.6c0.5-0.7,0.5-1.2,0.2-1.9
		c-3.3-6.8-3.9-14-2.4-21.3c0.3-1.3,0.4-2.5,0.6-3.8c0.1-0.3,0.4-0.8,0.7-0.8c4.9-0.7,9.7-1.9,14.7-1.4c3.6,0.4,7.1,1.4,10.4,2.9
		c0.9,0.4,1.6,0.4,2.4-0.2c4.6-3.2,9.6-4.7,15.3-4c0.4,0.1,0.9-0.1,1.2-0.3c3.1-2.1,6.5-3.5,10.1-4.2c0.5-0.1,1.1-0.4,1.4-0.9
		c3.5-4.5,8.3-6.9,13.8-7.9c0.8-0.1,1.1-0.4,1.4-1.1c2.4-6.9,6.7-12.3,12.8-16.4C57.1,2.2,58.5,1.1,60.1,0z M127.6,100.7
		c-0.3-0.7-0.6-1.4-0.8-2.2c-0.8-2.3-1.6-4.4-4.2-5.2c-0.5-0.2-1-0.6-1.4-1c-3.4-2.5-5.7-5.9-7.2-9.7c-0.3-0.8-0.7-1.2-1.6-1.4
		c-2-0.3-3.9-0.8-5.8-1.4c-0.4-0.1-1-0.7-1.1-1.1c-0.5-1.9-1-3.8-1.4-5.8c-0.2-0.9-0.5-1.3-1.3-1.6c-4.6-1.8-8.5-4.6-10.9-9
		c-1-1.9-2.4-2.9-4.2-3.6c-0.8-0.3-1.6-0.6-2.5-0.9c-0.4-0.1-0.8-0.2-1.2-0.1c-5.5,1.9-10.9,1.3-16.2-0.9c-0.7-0.3-1.1-0.2-1.7,0.2
		c-1.6,1.1-3.3,2.1-4.9,3.1c-0.8,0.5-1.4,0.5-2.2,0c-1.5-1-3.1-1.8-4.5-2.9c-0.9-0.7-1.6-0.7-2.6-0.3c-4.5,1.9-9.1,2.6-13.8,1.2
		c-2.2-0.7-3.9-0.2-5.8,0.6c-0.7,0.3-1.4,0.6-2,0.9c-0.3,0.2-0.7,0.4-0.9,0.8c-2.5,5.3-6.7,8.7-12.1,10.8c-0.7,0.3-1,0.7-1.1,1.4
		c-0.3,1.8-0.8,3.6-1.2,5.5c-0.2,1-0.7,1.5-1.7,1.7C11.5,80.2,9.8,80.7,8,81c-1,0.1-1.4,0.6-1.7,1.4c-2.1,5.2-5.5,9.3-10.7,11.8
		c-1,0.5-3.2,5.9-2.8,7c1.9,5.5,1.3,10.8-0.9,16c-0.3,0.8-0.2,1.2,0.2,1.9c1.1,1.6,2.2,3.3,3.1,5.1c0.2,0.4,0.2,1.2,0,1.6
		c-0.9,1.7-1.9,3.3-3,4.9c-0.6,0.8-0.7,1.5-0.3,2.4c1.9,4.5,2.7,9.2,1.3,13.9c-0.7,2.2-0.2,3.9,0.6,5.8c0.3,0.6,0.4,1.2,0.8,1.7
		c0.4,0.5,0.8,1.2,1.4,1.4c4.9,2.5,8.2,6.4,10.1,11.5c0.4,1.1,1.1,1.5,2.2,1.7c1.7,0.3,3.5,0.8,5.2,1.1c0.9,0.2,1.3,0.7,1.4,1.5
		c0.4,1.9,1,3.7,1.2,5.6c0.1,0.9,0.5,1.2,1.3,1.6c4.6,1.8,8.5,4.6,10.9,9c1.1,2.1,2.7,3,4.7,3.8c0.6,0.2,1.2,0.5,1.9,0.7
		c0.5,0.1,1,0.2,1.4,0.1c5.5-1.9,10.8-1.3,16,0.9c0.8,0.3,1.2,0.2,1.9-0.2c1.6-1.1,3.3-2.1,4.9-3.1c0.7-0.5,1.3-0.4,1.9,0
		c1.6,1.1,3.3,2,4.9,3.1c0.7,0.5,1.1,0.5,1.9,0.2c4.5-1.9,9.3-2.8,14.1-1.4c2.2,0.7,4,0.3,5.9-0.6c0.7-0.3,1.4-0.6,2-0.9
		c0.4-0.2,0.8-0.5,1-0.9c2.5-5.2,6.7-8.6,12-10.7c0.7-0.3,1-0.7,1.1-1.4c0.4-1.9,0.8-3.7,1.2-5.6c0.2-0.9,0.6-1.4,1.5-1.6
		c1.9-0.4,3.7-0.9,5.6-1.2c0.8-0.2,1.2-0.5,1.6-1.3c2.1-5.2,5.4-9.4,10.6-11.9c0.4-0.2,0.7-0.5,0.9-0.9c0.7-1.6,1.4-3.3,2-4.9
		c0.1-0.3,0.1-0.7,0-1.1c-2-5.5-1.4-10.9,0.9-16.2c0.3-0.7,0.2-1.1-0.2-1.7c-1.1-1.7-2.2-3.4-3.2-5.2c-0.2-0.4-0.2-1.2,0-1.7
		c0.9-1.6,1.8-3.2,2.9-4.7c0.7-0.9,0.7-1.6,0.3-2.6c-2.1-5.1-2.6-10.2-0.8-15.5C127.4,101.2,127.5,101,127.6,100.7z M76.3,20.3
		c0.1-0.1,0.2-0.2,0.2-0.3c-0.1-0.2-0.1-0.5-0.2-0.7c-1.3-2.5-2.5-5.2-4-7.5c-2.9-4.5-7.5-7.3-11.7-10.4c-0.2-0.2-0.8-0.1-1,0.1
		c-1.2,0.8-2.3,1.6-3.4,2.4c-5.5,3.8-9.6,8.7-12,14.9c-0.2,0.4-0.3,0.9-0.4,1.3c0.9-0.5,1.7-1,2.6-1.5c0.1,0.6,0.2,1,0.2,1.4
		c2.1-4.8,4.9-8.9,9.6-11.2c0.6,2,1.1,3.9,1.8,5.7c1.2,3.5,1.6,6.9-0.1,10.4c-0.8,1.7-1.6,3.4-2.4,5.2c0.8-0.4,1.5-0.7,2.1-1
		c0.1,0.6,0.2,1.2,0.4,2.2c0.8-1.6,1.5-2.9,2.3-4.4c0.8,1.5,1.5,2.8,2.2,4.1c0.1,0,0.2-0.1,0.2-0.1c0.1-0.7,0.2-1.4,0.2-1.9
		c0.6,0.3,1.3,0.7,2.2,1.1c-0.9-2-1.8-3.8-2.6-5.7c-1-2.3-1.5-4.8-0.7-7.3c0.8-2.8,1.8-5.5,2.6-8.3c4.6,2.4,7.4,6.5,9.5,11.3
		c0.1-0.7-0.2-1.5,0.9-1.1c0-0.2,0-0.4,0-0.7C75.2,19,75.7,19.6,76.3,20.3z M156.1,122.4c-0.6,0.1-1.3,0.2-2.3,0.4
		c1.7,0.9,3,1.6,4.4,2.3c-1.5,0.8-2.8,1.5-4.3,2.3c0.9,0.2,1.5,0.4,2,0.5c-0.3,0.7-0.5,1.3-0.8,2c1.8-0.8,3.5-1.7,5.3-2.4
		c2.7-1.2,5.5-1.6,8.3-0.6c2.5,0.8,5,1.6,7.5,2.4c-2.4,4.7-6.5,7.5-11.1,9.3c0.4,0.6,0.8,1,1.3,1.8c-0.6,0.4-1.1,0.8-1.7,1.1
		c0.3,0.2,0.5,0.2,0.6,0.1c3.8-1.4,7.4-3.1,10.2-6c2.9-3.1,5.5-6.5,8.1-9.8c0.2-0.2,0.1-0.9-0.2-1.1c-1.1-1.6-2.3-3.2-3.4-4.7
		c-3.6-5-8.3-8.5-14-10.7c-0.4-0.2-0.8-0.3-1.5-0.5c0.7,0.9,1.3,1.5,1.8,2.1c-0.4,0.2-0.9,0.6-1.6,1c4.9,1.9,9,4.7,11.3,9.4
		c-1.8,0.6-3.5,1.1-5.3,1.6c-1.4,0.4-2.8,0.9-4.3,1.2c-2.7,0.5-5.2-0.6-7.7-1.6c-1.3-0.6-2.6-1.3-4.2-2c0.3,0.6,0.6,0.9,0.7,1.3
		C155.8,121.8,156,122.2,156.1,122.4z M-56.2,121c2.4-4.7,6.5-7.5,11.3-9.4c-0.7-0.4-1.2-0.8-1.7-1.1c0.6-0.6,1.2-1.2,2-1.9
		c-0.4,0-0.6,0-0.8,0c-3.9,1.4-7.4,3.4-10.5,6.2c-3.1,2.8-5.4,6.3-7.7,9.7c-0.2,0.3-0.1,0.9,0.1,1.1c0.9,1.3,1.8,2.6,2.7,3.9
		c3.7,5.4,8.6,9.3,14.8,11.7c0.4,0.1,0.7,0.2,1.1,0.4c0-0.1,0.1-0.1,0.1-0.2c-0.6-0.6-1.2-1.2-1.8-1.7c0.5-0.3,1.1-0.7,1.8-1.1
		c-4.9-1.9-9-4.7-11.4-9.4c1.8-0.6,3.7-1,5.3-1.7c4.2-1.8,8.1-1.4,12.1,0.6c1.2,0.6,2.5,1.2,4,2c-0.5-1-0.9-1.7-1.2-2.2
		c0.6-0.1,1.3-0.2,2.4-0.4c-1.7-0.9-3-1.6-4.5-2.3c1.5-0.8,2.8-1.5,4.4-2.3c-1-0.2-1.6-0.3-2.2-0.4c0.3-0.6,0.6-1.3,0.9-2.1
		c-1.5,0.7-2.8,1.3-4.1,2c-3.8,1.9-7.7,2.2-11.8,0.5C-52.5,122-54.3,121.6-56.2,121z M60.1,223.3c-0.8-1.5-1.5-2.8-2.2-4.2
		c-0.1,0-0.2,0.1-0.2,0.1c-0.1,0.7-0.2,1.4-0.3,2c-0.6-0.3-1.3-0.6-2.1-1c0.9,2,1.8,3.9,2.6,5.8c1,2.5,1.4,5.1,0.6,7.8
		c-0.8,2.6-1.6,5.2-2.5,7.8c-4.7-2.4-7.5-6.5-9.3-11.2c-0.4,0.7-0.8,1.2-1.1,1.6c-0.6-0.6-1.2-1.1-1.8-1.7c2.5,9,8.9,14.5,16.4,19.1
		c9.1-6.1,16.5-14.8,16.2-19.3c-0.7,0.8-1.3,1.5-1.9,2.3c0-0.3,0.1-0.6,0.1-0.9c-0.1,0-0.3,0.1-0.4,0.1c-0.2-0.4-0.3-0.8-0.6-1.5
		c-1.9,5-4.8,9.1-9.4,11.5c-0.7-2.1-1.2-4.1-2-6.1c-1.3-3.4-1.2-6.6,0.2-9.9c0.8-1.7,1.6-3.5,2.3-5c-0.6,0-1.2,0.1-1.7-0.1
		c-0.3-0.1-0.5-0.7-0.8-1.2C61.5,220.5,60.8,221.8,60.1,223.3z M146,62.6c0.5-1.3,1-2.5,1.5-3.7c2.7-7,1.8-14,0.4-21
		c-0.1-0.3-0.5-0.5-0.7-0.6c-1.2-0.2-2.5-0.4-3.7-0.6c-5.1-1-10.2-1.1-15.3,0.4c-1.9,0.6-3.7,1.4-5.6,2c2.7,0.5,2.9,0.8,1.9,2.4
		c5-2.2,9.9-3.1,14.9-1.5c-0.9,1.7-1.9,3.3-2.6,5c-1.6,4-4.5,6.7-8.6,8c-1.4,0.5-2.9,1-4.2,1.5c0.5,0.4,1.2,0.7,1.6,1.2
		c0.1,0.2-0.4,0.9-0.7,1.6c1.6-0.5,3-1,4.6-1.5c-0.5,1.6-0.9,3-1.4,4.6c0.5-0.2,0.9-0.3,1.2-0.5c0,0.1,0.1,0.2,0.1,0.2
		c0.1-0.3,0.3-0.6,0.5-0.9c0.3,0.8,0.5,1.5,0.9,2.3c0.5-1.5,1-2.9,1.5-4.3c1.3-3.7,3.4-6.8,7.2-8.4c2-0.8,3.9-2,5.8-3
		c1.5,5,0.8,9.9-1.2,14.7c0.3-0.2,0.6-0.4,1.1-0.7C145.4,60.8,145.7,61.6,146,62.6z M-3.6,54.5c-1.2-0.4-2.3-0.7-3.3-1.1
		c-3.3-1.3-6.7-2.6-8.5-6c-1.3-2.4-2.6-4.9-3.9-7.4c2.4-0.8,4.9-1.1,7.4-0.7c2.5,0.4,4.9,1.2,7,1.7c0.1-0.5,0-1.3,0.3-1.5
		c0.6-0.3,1.3-0.2,2-0.2c0-0.1,0.1-0.3,0.1-0.4c-2.4-0.8-4.8-1.7-7.2-2.4c-5.9-1.5-11.7-0.4-17.5,0.7c-0.3,0-0.6,0.5-0.6,0.9
		c-0.2,1.2-0.4,2.4-0.6,3.6c-1.3,6.6-0.9,13.1,1.8,19.4c0.2,0.5,0.5,1,0.8,1.7c0.5-2.9,0.6-3.1,2.2-2.2c-2.2-5-3.1-9.9-1.5-14.8
		c2.4,1.2,4.7,2.4,7,3.6c2.1,1.1,3.7,2.5,4.7,4.6c0.9,2,1.6,4.1,2.5,6.1c0.1,0.4,0.3,0.7,0.5,1.3c0.3-0.9,0.5-1.6,0.7-2.2
		c0.5,0.3,1.1,0.7,1.9,1.2c-0.5-1.7-1-3.2-1.5-4.8c1.6,0.5,3,1,4.8,1.5c-0.6-0.9-0.9-1.4-1.3-1.9C-5.3,55.1-4.5,54.9-3.6,54.5z
		 M-25.9,187.9c0,0-0.2,0.1-0.2,0.3c-1.5,3.2-2.5,6.6-2.9,10.1c-0.5,4.6,0.5,9,1.1,13.5c0.1,1,0.6,1.3,1.5,1.4c1,0.1,2,0.2,2.9,0.4
		c6.7,1.4,13.3,0.9,19.6-1.9c0.5-0.2,0.9-0.5,1.4-0.7c0-0.1-0.1-0.2-0.1-0.2c-1,0.1-2,0.2-3,0.3c0.3-0.2,0.6-0.4,0.9-0.6
		c-0.1,0-0.2-0.1-0.2-0.1c0.1-0.4,0.2-0.9,0.4-1.5c-4.9,2.1-9.7,3-14.7,1.4c1-1.9,2-3.6,2.8-5.5c1.6-3.7,4.3-6.1,8.1-7.4
		c1.1-0.4,2.3-0.8,3.4-1.2c0.4-0.1,0.8-0.3,1.4-0.5c-0.9-0.3-1.5-0.6-2.1-0.8c0.3-0.5,0.6-1.1,1-1.9c-1.7,0.5-3.1,1-4.6,1.5
		c0.5-1.6,0.9-3,1.5-4.8c-1.6,1.3-2,1.1-2.7-1c-0.2,0.4-0.3,0.7-0.4,1c-0.6,1.7-1.3,3.4-1.9,5.1c-1.1,2.9-3.1,4.9-5.9,6.3
		c-2.1,1-4.2,2.2-6.4,3.3c-1.6-4.9-0.7-9.8,1.4-14.5c-0.6,0-1.2,0.2-1.3,0.1C-25.4,189.3-25.6,188.6-25.9,187.9z M122.5,210.8
		c0.4,0.3,0.6,0.4,0.8,0.6c3.1,1.4,6.4,2.4,9.8,2.8c4.8,0.6,9.4-0.5,14.1-1.2c0.3-0.1,0.8-0.6,0.8-1c0.3-1.6,0.5-3.3,0.8-4.9
		c1.1-6.3,0.4-12.3-2.2-18.1c-0.2-0.4-0.4-0.8-0.7-1.3c-0.2,0.9-0.3,1.6-0.7,2.2c-0.1,0.2-0.9,0.1-1.4,0.1c2,4.6,2.9,9.5,1.3,14.5
		c-1.6-0.8-3.1-1.8-4.7-2.4c-4.4-1.7-7.1-4.8-8.5-9.2c-0.3-1-0.6-2-1-2.9c-0.1-0.3-0.2-0.6-0.4-1c-0.3,0.8-0.5,1.5-0.8,2.3
		c-0.2-0.4-0.3-0.7-0.5-1c0,0.1-0.1,0.2-0.1,0.3c-0.3-0.1-0.6-0.2-1.1-0.4c0.5,1.5,0.9,3,1.4,4.5c-1.6-0.5-3-1-4.7-1.5
		c0.6,0.9,1,1.5,1.3,1.9c-0.5,0.2-1.3,0.4-2.2,0.7c2,0.7,3.8,1.4,5.6,2.1c3.2,1.2,5.4,3.3,6.9,6.5c0.9,2,2.1,4,3.1,6
		c-5,1.6-9.9,0.7-14.6-1.4c0.1,0.5,0.3,1,0.2,1.3C124.6,211.4,123.5,210.6,122.5,210.8z M39.2,30.4c1.2-0.5,0.1-0.7-0.1-1
		c0.4-0.3,0.8-0.6,1.3-1c-6.7-0.2-13,0.8-18.9,3.2s-11.1,6.2-15.7,11c1.4-0.1,2.1,0.8,1.7,2.2c0.4-0.1,0.8-0.3,1.2-0.3
		c1.5,0,3-0.2,4.4,0.1s1.6,1.8,0.6,2.8c0-0.2,0-0.5-0.1-0.6c-0.3-0.5-0.6-1.3-1-1.5s-1.4-0.1-1.7,0.3c-0.3,0.5-0.4,1.3-0.3,1.9
		c0.5,1.6,1.9,2.3,3.4,1.9c1.7-0.5,2.9-2.1,2.6-3.7c-0.4-2-1.7-3.2-3.6-3.7c-0.5-0.1-1-0.2-1.6-0.3c4.8-5.6,17.7-10.9,24.1-9.9
		c-0.3,0.4-0.6,0.8-0.9,1.2c-1,1.6-1,3.3-0.2,5c0.9,1.7,3,2.1,4.8,1c1.4-0.9,1.8-2.5,0.8-4c-0.5-0.8-1.1-1.3-2.1-0.7
		s-1.2,1.6-0.6,2.4c0.2,0.2,0.4,0.5,0.6,0.8c-1.5-0.2-2.4-1.4-1.6-2.5c0.8-1.2,2-2.1,3.1-3.1c0.3-0.3,0.7-0.4,1.2-0.6
		C40.1,30.9,39.7,30.7,39.2,30.4z M-22.4,71c-8.2,5.7-15.6,23.7-14.2,34.3c0.3-0.4,0.6-0.8,1-1.2c0.2,0.3,0.3,0.5,0.4,0.8
		c0.2-0.2,0.4-0.3,0.5-0.5c0.3,0.4,0.5,0.8,0.8,1.3c0.3-0.5,0.4-0.9,0.6-1.2c0.8-1.3,1.6-2.5,3.1-3c1.4-0.5,2.4,0.2,2.4,1.6
		c-0.4-0.3-0.6-0.6-1-0.8c-0.9-0.5-1.5,0-2,0.6c-0.6,0.7-0.4,1.3,0.1,1.9c1.3,1.4,3.4,1.1,4.4-0.4c1.3-2.1,0.5-4.4-1.9-5.1
		c-1.5-0.5-2.9-0.3-4.2,0.6c-0.4,0.3-0.8,0.5-1.3,0.9c0.3-9.4,3.6-17.4,10.1-24.2c0.3,2.4,1,4.2,3.3,5c2.3,0.9,4.7-1,4.6-3.4
		c-0.1-1.3-1.8-2.8-3-2.5c-0.5,0.1-1.1,0.8-1.2,1.3c-0.3,1.2,0.3,1.7,2.1,2c-0.7,0.8-1.9,0.8-2.5-0.2c-0.4-0.6-0.6-1.4-0.6-2.1
		c0-1.3,0.3-2.6,0.5-3.9c-0.5,0.1-1,0.3-1.5,0.4c0.1-0.2,0.2-0.5,0.3-0.8c-0.3,0-0.5,0-0.8,0c0-0.1-0.1-0.3-0.1-0.4
		C-22.4,71.6-22.4,71.3-22.4,71z M79.7,221.8c13.8,0.4,25.3-4.4,34.8-14.4c-0.8,0.2-1.4,0.3-1.8,0.4c-0.1-0.8-0.1-1.6-0.2-2.5
		c-0.6,0.2-1.2,0.5-1.7,0.5c-1.3,0-2.7,0.1-3.9-0.3c-1.3-0.4-1.5-1.8-0.5-2.7c0.1,0.4,0.1,0.8,0.2,1.2c0.3,0.9,1.1,1.1,1.9,1
		c0.9-0.1,1.2-0.7,1.2-1.5c0-2-2-3.4-3.9-2.6c-1.2,0.5-2.2,1.3-2.3,2.7c-0.2,1.6,0.5,3,1.8,3.8c1,0.6,2.1,0.9,3.2,1.3
		c-4.5,5.3-17.8,10.8-23.9,9.8c0.3-0.4,0.7-0.9,0.9-1.3c1.1-1.9,0.9-4.2-0.5-5.6c-1.2-1.2-3.3-1.1-4.7,0.2c-1.1,1-1.1,2.7,0,3.9
		c0.5,0.6,1.2,0.8,1.9,0.3s1.2-1.1,0.7-2.1c-0.2-0.3-0.4-0.6-0.6-1c1.4,0.1,2.1,1.3,1.3,2.6c-0.7,1.1-1.9,2-2.9,2.9
		c-0.3,0.3-0.7,0.4-1,0.6c0.3,0.5,0.6,0.8,0.8,1.1s0.3,0.5,0.5,0.8C80.7,221.2,80.3,221.4,79.7,221.8z M143.7,173.7
		c-0.5-1.2-0.8-2.3-1.4-3.3c-0.8-1.3-2.2-1.9-3.7-1.8c-1.4,0.2-2.2,1.1-2.7,2.3c-0.7,1.9,0.6,3.9,2.6,3.9c0.8,0,1.4-0.4,1.5-1.3
		c0.1-1.3-0.3-1.7-2.2-2c0.8-0.9,2-0.9,2.6,0.3c0.4,0.8,0.6,1.8,0.6,2.7c0,1-0.3,2.1-0.5,3.2c0.8,0,1.6,0.1,2.5,0.1
		c-0.1,0.5-0.3,1.1-0.5,1.8c10-9.5,14.8-21,14.4-34.8c-0.4,0.5-0.7,1-1.1,1.5c-0.2-0.4-0.3-0.7-0.4-1c-0.1,0.1-0.1,0.2-0.2,0.3
		c-0.4-0.2-0.7-0.5-1.2-0.8c-0.2,0.3-0.4,0.8-0.7,1.2c-0.9,1-1.8,2.1-2.9,2.8c-1.3,0.8-2.6-0.1-2.5-1.5c0.4,0.3,0.6,0.5,1,0.7
		c0.9,0.5,1.6,0.1,2-0.7c0.2-0.5,0.2-1.4-0.1-1.7c-1.2-1.5-3.5-1.2-4.5,0.4c-1.3,2-0.4,4.3,1.8,5.1c1.6,0.5,3.1,0.2,4.5-0.7
		c0.3-0.2,0.6-0.4,1-0.7C153.2,159,149.9,167,143.7,173.7z M140.4,72.7c0.2,1.1,0.5,2.2,0.5,3.3c-0.1,1-0.4,2-1,2.8
		c-0.6,0.9-1.6,0.7-2.2-0.2c0.4,0,0.8,0,1.1-0.1c1-0.3,1.1-1,1-1.9s-0.6-1.2-1.4-1.3c-1.6,0-3,1.5-2.9,3.1c0.2,2.2,2.4,3.7,4.5,2.9
		c1.6-0.6,2.6-1.7,3-3.4c0.1-0.5,0.2-1.1,0.4-1.7c7,7.6,9.7,15.2,10,24.1c-0.5-0.3-1-0.7-1.5-1c-1.7-1-3.5-0.9-5.2,0.2
		c-1.4,0.9-1.6,3-0.6,4.6c0.9,1.3,2.4,1.7,3.9,0.7c0.8-0.5,1.2-1.1,0.7-2.1c-0.6-1-1.5-1.2-2.4-0.6c-0.2,0.2-0.5,0.3-0.8,0.6
		c0.2-1.6,1.6-2.4,2.9-1.4c1.1,0.8,1.9,1.9,2.8,2.9c0.2,0.3,0.4,0.6,0.5,0.9c0.7-0.5,1.3-0.9,1.9-1.3c-0.1,0.1-0.3,0.2-0.4,0.3
		c0.3,0.1,0.6,0.1,0.9,0.2c0.2,0.1,0.2,0.4,0.5,0.9c0.3-13.7-4.3-25.1-14.1-34.6c-0.1,0.6-0.1,1-0.1,1.2
		C141.8,72.4,141.2,72.5,140.4,72.7z M-33.4,149.6c0.5,0.3,0.9,0.6,1.3,0.9c1.7,1.1,3.9,1.1,5.4,0c1.4-1.1,1.7-3.1,0.6-4.7
		c-0.9-1.3-2.5-1.5-4-0.6c-1.1,0.7-1.1,1.7-0.1,2.6c1.1,1,1.8,0.1,2.7-0.5c-0.1,1.6-1.4,2.3-2.7,1.5c-1.1-0.8-2-2-2.9-3.1
		c-0.2-0.2-0.4-0.6-0.5-0.9c-0.4,0.4-0.7,0.6-1,0.8c-0.3,0.2-0.6,0.3-1,0.4c-0.2-0.3-0.5-0.7-0.9-1.2c-0.3,13.7,4.3,25.1,14.2,34.5
		c0-0.6,0-1.1,0-1.4c0.8-0.1,1.5-0.3,2.3-0.4c-0.2-0.6-0.5-1.3-0.5-1.9c0-1.2-0.1-2.4,0.2-3.5c0.4-1.5,1.9-1.7,2.8-0.7
		c-0.4,0.1-0.8,0.1-1.2,0.2c-0.9,0.3-1.2,1.1-0.9,1.8c0.2,0.5,0.7,1.1,1.2,1.3c1.2,0.3,2.9-1.1,3-2.4c0.3-2.6-2.3-4.5-4.7-3.5
		c-1.6,0.7-2.5,1.9-2.9,3.5c-0.1,0.5-0.2,0.9-0.3,1.4C-29.8,167-33.1,159-33.4,149.6z M11.3,208.5c2.3-0.2,4.1-1,5-3.1
		c1-2.3-0.7-4.8-3.2-4.7c-1.4,0-2.9,1.6-2.7,3c0.1,0.8,0.5,1.4,1.4,1.3c0.5-0.1,1.2-0.2,1.5-0.6c0.3-0.4,0.3-1,0.4-1.6
		c0.9,1,0.7,2.4-0.7,2.8c-1.2,0.3-2.6,0.2-3.9,0.2c-0.5,0-1.1-0.3-1.5-0.4c-0.2,0.8-0.3,1.5-0.5,2.3c-0.4,0-0.8-0.1-1.4-0.1
		c9.5,9.9,20.9,14.6,34.5,14.2c-0.5-0.4-1-0.7-1.4-1.1c0.4-0.1,0.7-0.2,0.9-0.3c-0.1-0.1-0.2-0.2-0.3-0.2c0.3-0.4,0.5-0.8,0.8-1.3
		c-0.4-0.2-0.9-0.4-1.2-0.7c-1-0.9-2.1-1.8-2.8-2.9c-0.8-1.3,0.2-2.6,1.5-2.4c-0.2,0.3-0.5,0.6-0.7,0.9c-0.5,0.8-0.2,1.6,0.6,2
		c0.5,0.2,1.3,0.3,1.8,0c1.1-0.8,1.3-2.9,0.4-3.9c-1.7-2-4.9-1.4-5.8,1c-0.5,1.5-0.4,2.9,0.4,4.3c0.3,0.4,0.6,0.9,0.9,1.4
		C26.2,218.3,18.2,215,11.3,208.5z M84.5,31.7C94,32,102,35.3,108.8,41.8c-2.5,0.3-4.4,1.2-5.2,3.5c-0.4,1.1-0.2,2.2,0.7,3.1
		c0.9,1,2,1.4,3.4,1.1c1-0.2,2.1-1.8,2.1-2.8c-0.1-0.8-0.4-1.3-1.3-1.4c-1.3-0.1-1.7,0.4-2,2.2c-0.8-0.6-0.8-1.5-0.3-2
		c0.6-0.6,1.5-1.1,2.3-1.1c1.4-0.1,2.8,0.2,4.1,0.4c0.1-0.7,0.2-1.4,0.4-2.1c0,0,0.1,0,0.2,0c0.4,0,0.7,0.1,1.3,0.2
		c-9.5-9.9-21-14.6-34.7-14.3c0.6,0.4,1.1,0.8,1.6,1.1c-0.4,0.1-0.7,0.2-1.1,0.3c0.3,0.2,0.5,0.4,0.6,0.5c-0.4,0.2-0.8,0.4-1.4,0.8
		c0.5,0.3,0.9,0.4,1.2,0.7c1,1,2.2,1.9,3,3c0.8,1.2-0.1,2.5-1.5,2.5c0.3-0.4,0.5-0.7,0.8-1c0.5-0.8,0.1-1.5-0.6-1.9
		c-0.5-0.3-1.3-0.3-1.7-0.1c-1.3,0.8-1.4,3.1-0.2,4.2c1.9,1.8,4.7,1.1,5.6-1.4C86.7,35.1,85.9,33.4,84.5,31.7z M16.9,63.8
		c2.5-0.7,5.1-1.3,7.6-2.3c4-1.5,7.9-3.2,11.8-4.8c2.4-1,4.7-2.1,7-3.2c1.3-0.7,2.5-1.6,3.8-2.3c0-0.1-0.1-0.1-0.1-0.2
		c-0.4,0.1-0.9,0.1-1.3,0.2c-0.1-0.4-0.2-0.8-0.4-1.5c0-0.1,0.2-0.5,0.3-1c-1,0-1.9,0.1-2.7,0c-1-0.2-2-0.4-2.8-0.9
		c-1.2-0.7-1.2-2.2,0-2.8c0,0.2-0.1,0.4,0,0.5c0.2,0.6,0.3,1.3,0.7,1.7c0.4,0.3,1.4,0.4,1.7,0.1c0.4-0.4,0.7-1.2,0.6-1.8
		C43,43.7,41.6,42.7,40,43c-2.1,0.3-3.3,1.8-3,3.7c0.4,2.4,2,3.7,4.3,4.5c-6.6,3.3-13.3,6-20.1,8.5c0.2-1.4,0.6-2.7,0.6-4
		c-0.1-2.6-2.3-4.1-4.5-3.4c-2,0.6-3.4,2.9-1.3,5.1c0.8,0.8,1.7,0.7,2.3-0.2c0.9-1.2,0.1-2-0.8-2.7c1.4-0.2,2.4,0.9,1.9,2.2
		s-1.5,2.4-2.4,3.5c-0.2,0.3-0.6,0.5-0.6,0.6c0.4,0.6,0.7,1,1,1.4C17.8,62.6,17.8,62.7,16.9,63.8z M125.5,85.8
		c0.9,0.4,1.4,0.6,1.9,0.8c1.9,0.6,3.6,0.3,5-1.2c1.2-1.2,1.1-3.2-0.3-4.6c-1.1-1.2-2.8-1.1-4.1,0.1c-0.9,0.9-0.8,1.9,0.3,2.5
		c1.2,0.7,1.9-0.2,2.5-1.1c0.3,1.4-0.8,2.6-2.2,2c-1.3-0.5-2.4-1.4-3.5-2.2c-0.3-0.2-0.6-0.6-0.8-0.9c-0.5,0.5-0.9,0.8-1.4,1.3
		c0,0.1,0,0.5,0.1,0.9c-0.5-0.6-1-1.1-1.5-1.6c-0.1,0-0.2,0.1-0.4,0.1c1,3.2,2,6.5,3.2,9.7c0.8,2.2,2,4.3,2.9,6.5
		c1.1,2.7,2.1,5.5,3.3,8.2c1,2.1,2.3,4,3.5,6.1c0.1-0.7,0.1-1.4,0.2-1.5c0.7-0.2,1.4-0.2,2.3-0.4c0-0.3-0.1-0.5-0.1-0.8
		c-0.1-1.6-0.1-3.2,0.9-4.5c0.9-1.2,2.2-1.2,2.8,0c-0.2,0-0.4-0.1-0.5,0c-0.6,0.2-1.4,0.3-1.7,0.7c-0.3,0.4-0.3,1.4,0,1.8
		c0.4,0.4,1.2,0.6,1.9,0.5c1.8-0.2,2.7-1.5,2.4-3.1c-0.3-2-1.8-3.3-3.6-3.1c-1.5,0.2-2.8,0.9-3.6,2.2c-0.4,0.6-0.7,1.4-1.1,2.3
		C130.9,99.7,128.1,93,125.5,85.8z M-10.8,82.4c0.3,0.4,0.6,0.7,0.9,1c0.8,0.6,1.6,0.3,2.1-0.3c0.3-0.4,0.4-1.3,0.2-1.7
		c-0.9-1.6-3.2-1.8-4.5-0.4c-1.6,1.8-1.2,4.2,0.9,5.3c1.4,0.8,2.9,0.8,4.4,0.2c0.4-0.1,0.7-0.3,1.1-0.5c0.1,0.1,0.2,0.1,0.3,0.2
		C-8,93-10.6,99.8-14,106.3c-1-2.6-2.3-3.9-4.4-4.2c-1.9-0.3-3.6,1.1-3.8,3.2c-0.2,1.7,1.2,3.1,3,3c0.8,0,1.5-0.3,1.6-1.2
		c0.1-0.9-0.2-1.7-1.2-1.9c-0.4-0.1-0.9,0-1.4,0c0.8-1.2,2.3-1.2,2.9,0.2c0.5,1.3,0.6,2.9,0.8,4.3c0.1,0.3,0,0.7,0,0.8
		c1,0.1,1.7,0.1,2.5,0.2c-0.1,0.6-0.1,1-0.2,1.4c0.1,0.1,0.2,0.1,0.3,0.2c1.4-2.6,2.9-5.2,4.2-7.8c1.7-3.6,3.1-7.4,4.6-11.1
		c1.6-3.7,2.9-7.4,3.6-11.5c-1,1.1-0.9,0.8-1.5,0.7c-0.9-0.1-0.8-0.9-1.3-1.3c-0.4,0.5-0.8,1.1-1.3,1.4c-1,0.7-2,1.5-3.2,1.8
		C-10.1,84.9-11,83.9-10.8,82.4z M134.1,143.9c0.8,2.2,2,3.8,4.3,4.2c1.2,0.2,2.3-0.1,3-1c0.8-1,1.2-2.2,0.7-3.5
		c-0.4-1.2-2.4-2.2-3.5-1.6c-0.5,0.2-0.9,1-0.9,1.5c0,1.2,0.6,1.5,2.4,1.5c-0.6,1-1.7,1.2-2.6,0.2c-0.5-0.6-0.9-1.3-1-2.1
		c-0.2-1.2-0.2-2.4-0.2-3.4c-0.6-0.1-1.1-0.5-1.5-0.3c-1.2,0.4-0.7-0.7-1.1-1.2c-0.8,1.4-1.8,2.6-2.3,3.9
		c-2.7,6.1-5.4,12.3-7.9,18.5c-1,2.4-1.5,5.1-2.3,7.6c1.1-0.9,1.1-0.9,1.6-0.4c0.4,0.4,0.9,0.6,1.4,1c0.2-0.2,0.4-0.6,0.7-0.8
		c1.2-0.8,2.3-1.8,3.6-2.3c1.4-0.5,2.5,0.7,2.1,2c-0.1-0.2-0.2-0.4-0.4-0.5c-0.6-0.3-1.2-0.7-1.7-0.7c-0.5,0.1-1.2,0.7-1.2,1.1
		c0,0.6,0.4,1.3,0.8,1.7c1.4,1.2,2.9,1,3.9-0.3c1.3-1.8,1.3-3.7-0.3-4.8c-2-1.5-4.1-1.3-6.3-0.2
		C128.1,157.3,130.9,150.6,134.1,143.9z M73.1,51c-0.1,0.1-0.1,0.2-0.2,0.3c3,1.5,5.9,3.2,8.9,4.6c3.5,1.6,7,2.9,10.5,4.4
		s7.2,2.7,11,3.3c-0.1-0.6-1.5-0.5-0.6-1.5c0.4-0.4,0.7-0.9,1.2-1.4c-0.3-0.2-0.7-0.4-0.9-0.8c-0.8-1.2-1.8-2.3-2.2-3.6
		c-0.5-1.3,0.7-2.4,2-2c-0.3,0.3-0.7,0.5-0.9,0.8c-0.6,0.7-0.4,1.5,0.2,2c0.4,0.3,1.3,0.6,1.7,0.4c1.5-0.6,1.9-2.9,0.9-4.1
		c-0.9-1.1-2.4-1.7-3.7-1.3c-1.4,0.4-2.6,1.9-2.6,3.6c0,1.2,0.4,2.5,0.6,3.6c-2.6-0.3-18.4-6.9-20-8.4c2.4-1,3.3-1.7,3.9-3.2
		c1-2.4-0.2-4.5-2.7-4.9c-2-0.3-3.7,1.5-3.2,3.5c0.2,0.8,0.8,1.2,1.7,1c1.5-0.3,1.5-1.4,1.4-2.6c1.2,0.9,1.1,2.4-0.2,3
		c-1.1,0.5-2.4,0.6-3.6,0.8c-0.5,0.1-1.1-0.1-1.6-0.1c0,0.9,0,1.6,0,2.5C74.2,51.1,73.6,51,73.1,51z M124.6,187.2
		c-0.3-4.7-0.6-9.1-0.8-13.6c-0.3,0.3-0.6,0.6-0.9,1c-0.6-0.5-1.1-0.9-1.7-1.4c-0.1,0.1-0.3,0.1-0.4,0.2c0.3,4.4,0.5,8.9,0.8,13.4
		c-4.3-0.9-8.7-1-13.2-0.5c0.2,0.1,0.5,0.2,0.7,0.3c-0.2,0.1-0.3,0.3-0.5,0.4c0.4,0.1,0.7,0.2,1,0.3c-0.3,0.5-0.5,1-0.9,1.6
		c4.5-0.1,8.9,0,13.3,1c-1.6,4.3-4,8-6.5,11.7c0.8,0,1.3,0,1.6,0c0.2,0.8,0.3,1.3,0.4,1.8c0.2,0,0.3,0.1,0.5,0.1
		c1.8-3.1,3.8-6,5.2-9.3c1.2-2.9,2.7-5.1,5.9-5.9c0.5-0.1,0.9-0.4,1.4-0.6c2.7-1.6,5.4-3.2,8.1-4.8c0-0.1-0.1-0.3-0.1-0.4
		c-0.5-0.1-1.1-0.2-1.8-0.4c0-0.3,0-0.9,0-1.6C132.9,183.2,129.2,185.5,124.6,187.2z M-14,144c3.2,6.6,6.1,13.3,8.6,20.5
		c-0.8-0.3-1.2-0.5-1.6-0.7c-1.6-0.6-3.1-0.5-4.5,0.4c-2.1,1.4-2.1,4.3,0,5.7c1.3,0.8,3.4,0.3,3.9-1.1c0.2-0.4,0-1.3-0.3-1.6
		c-0.8-1-1.7-0.7-2.9,0.6c-0.3-1.3,0.6-2.4,2-2c1.1,0.3,2.1,1,3.1,1.7c0.6,0.4,0.9,1,1.4,1.5c0.9-1.6,1.5-1.8,2.7-1
		c-0.1-0.5-0.1-0.9-0.2-1.3c-0.7-2.4-1.3-4.9-2.2-7.2c-1.4-3.7-2.9-7.4-4.6-11c-1.5-3.3-3.3-6.5-4.9-9.7c-0.1-0.3-0.4-0.5-0.6-0.8
		c0,0.7,0.1,1.2,0.1,1.6c-0.9,0-1.7,0-2.5,0c0,0.3,0.2,0.7,0.1,1.1c-0.2,1.4-0.3,2.9-0.9,4.2c-0.6,1.4-2.2,1.4-2.8,0.2
		c0.4,0,0.8,0,1.2,0c0.9-0.1,1.3-0.8,1.2-1.6c-0.1-0.5-0.5-1.3-1-1.4c-1.6-0.6-3.4,0.8-3.6,2.5c-0.2,2.4,1.9,4.1,4.2,3.6
		C-15.9,147.6-14.7,146-14,144z M101.7,188.2c0.5-0.7,0.9-1.3,1.1-1.5c-1.5,0.4-3.6,0.8-5.6,1.5c-4.6,1.8-9.2,3.6-13.8,5.5
		c-2.4,1-4.8,2.2-7.2,3.4c-1,0.5-2,1.2-3,1.9c0.5,0.2,1.1,0.2,1.2,0.4c0.2,0.7,0.2,1.4,0.3,2.2c0.6,0,1.2-0.2,1.9-0.1
		c1.1,0.2,2.3,0.4,3.3,0.9c1.3,0.7,1.3,2.3,0.1,2.8c0-0.4,0-0.8,0-1.2c-0.1-0.9-0.9-1.3-1.6-1.2c-0.5,0-1.2,0.5-1.4,0.9
		c-0.6,1.5,0.7,3.5,2.4,3.6c2.5,0.2,4.3-1.9,3.6-4.3c-0.4-1.6-1.4-2.7-2.9-3.3c-0.4-0.2-0.8-0.3-1.5-0.6c7-3.2,13.7-6.1,20.5-8.4
		c-0.2,1.4-0.6,2.7-0.6,3.9c0.1,2.1,1.8,3.8,3.7,3.6c1.4-0.1,2.4-0.8,3-2.1c0.5-1.2-0.1-2.2-0.8-3.1c-0.8-1-1.9-0.8-2.5,0.3
		c-0.7,1.2,0.1,1.9,1.1,2.5c-1.4,0.4-2.6-0.7-2.1-2c0.4-1.2,1.3-2.3,2.1-3.4c0.3-0.4,0.8-0.7,1.1-1c-0.4-0.4-0.8-0.8-1.1-1.1
		c0.1-0.1,0.1-0.2,0.2-0.2C102.6,188.1,102.3,188.2,101.7,188.2z M17.4,195.9c0.3-0.3,0.7-0.5,0.9-0.8c0.7-0.8,0.3-1.5-0.2-2.1
		c-0.6-0.7-1.2-0.7-1.9-0.2c-1.6,1.1-1.7,3.2-0.3,4.5c1.8,1.6,4.1,1.2,5.3-0.8c0.8-1.4,0.9-2.9,0.2-4.4c-0.2-0.4-0.3-0.8-0.6-1.5
		c7.2,2.7,13.9,5.4,20.8,8.6c-0.8,0.3-1.3,0.5-1.8,0.7c-1.5,0.7-2.4,1.9-2.7,3.5c-0.5,2.4,1.7,4.5,4,4c1.4-0.3,2.5-2,2.1-3.5
		c-0.2-0.9-0.8-1.3-1.8-1.1c-1.4,0.3-1.4,1.4-1.3,2.5c-1-0.8-1.2-1.9-0.2-2.6c0.6-0.5,1.4-0.9,2.2-1c1.1-0.2,2.3-0.1,3.5-0.2
		c-0.1-0.8-0.2-1.6-0.4-2.4c0.3,0,0.9,0,1.7,0c-0.3-0.2-0.4-0.4-0.6-0.5c-1.1-0.7-2.1-1.4-3.2-1.9c-6.6-2.8-13.1-5.7-19.7-8.4
		c-2.1-0.8-4.4-1.2-6.1-1.7c0.2,0.3,0.6,0.9,1,1.5c-0.5,0-0.8,0-1.2,0c0.1,0.1,0.1,0.2,0.2,0.3c-0.4,0.3-0.7,0.7-1.1,1.1
		c0.3,0.3,0.7,0.5,0.9,0.8c0.8,1.2,1.8,2.3,2.3,3.6C19.9,195.2,18.7,196.3,17.4,195.9z M-18.4,182.7c0.3,0.3,0.5,0.5,0.7,0.6
		c3.7,2.6,7.6,4.9,11.8,6.5c0.4,0.2,1,0.5,1.2,0.9c1.6,4,3.6,7.7,6,11.2c0.4,0.5,0.7,1,1.2,1.7c0.3-0.9,0.5-1.5,0.7-2.2
		c0.5,0.1,0.9,0.2,1.5,0.3c-2.6-3.9-5-7.6-6.6-11.9c4.5-1,8.9-1.1,13.3-1c-0.4-0.6-0.7-1.1-1-1.7c0.5,0,0.8-0.1,1.3-0.1
		c-0.3-0.2-0.4-0.3-0.7-0.5c0.2,0,0.3,0,0.5-0.1s0.3-0.2,0.4-0.3c0-0.1-0.1-0.3-0.1-0.4c-4.4,0.2-8.8,0.5-13.4,0.8
		c0.8-4.4,1.1-8.8,0.8-13.5c-0.7,0.6-1.2,1.1-1.7,1.5c-0.4-0.3-0.7-0.6-1.2-1.1c0.2,4.7,0.1,9.1-0.9,13.5c-4.3-1.6-8-4-11.8-6.5
		C-16.3,182.5-16.1,182.4-18.4,182.7z M115.5,48.5c2.6,3.8,5,7.5,6.6,12.1c-4.6,0.3-9,0.6-13.5,1c0.7,0.6,1.4,1.1,2,1.6
		c-0.5,0-1.1,0-1.7,0c0.1,0.1,0.1,0.2,0.2,0.3c-0.2,0.2-0.4,0.3-1,0.7c4.7,0.3,9.2,0.1,13.8-0.8c-1,4.6-1.1,9.1-0.8,13.5
		c0.1,0,0.2,0,0.3,0c0.1-0.2,0.2-0.5,0.3-0.8c0.1,0.2,0.2,0.3,0.3,0.4c0.3-0.3,0.6-0.8,0.7-0.8c0.4,0.1,0.7,0.5,1.3,0.9
		c-0.1-4.6,0-9,1.1-13.7c4.1,2.3,7.9,4.4,11.7,6.6c-0.9-1.8,1-1.4,1.8-1.9c-0.1-0.1-0.2-0.3-0.3-0.3c-3.8-2.7-7.8-5.1-12.1-6.8
		c-0.5-0.2-1-0.6-1.2-1c-1.6-4.1-3.8-7.9-6.3-11.5c-0.2-0.4-0.5-0.7-0.9-1.1C117.2,48.8,117.2,48.8,115.5,48.5z M74.9,218.8
		c0-0.1,0.1-0.2,0.1-0.4c-4.4-0.8-8.8-1.7-13.2-3.8c3-3.5,5.9-6.8,8.9-10.3c-1,0.2-1.9,0.4-2.5,0.5c0.3-0.6,0.7-1.4,1-2.3
		c-0.2-0.1-0.3-0.2-0.5-0.3c-3,3.3-5.9,6.6-8.8,9.9c-2.9-3.2-5.8-6.5-8.8-9.9c-0.2,0.1-0.3,0.2-0.5,0.4c0.4,0.9,0.8,1.8,1.1,2.3
		c-0.5-0.1-1.4-0.3-2.3-0.5c1.4,1.8,3,3.3,4.4,5c1.5,1.7,2.8,3.5,4.2,5.3c-4.3,2-8.6,2.9-12.5,3.7c0.4,0.2,0.9,0.6,1.4,0.9
		c-0.3,0.2-0.5,0.4-0.8,0.6c-0.3,0.5-0.6,0.9-0.9,1.4c0.1,0.1,0.1,0.3,0.2,0.4c3.7-1,7.4-1.8,10.9-3.2c2.5-1,4.6-1.2,7.1,0
		c3.5,1.6,7.3,2.4,11.1,2.9c-0.3-0.7-0.6-1.4-0.8-2.1C74.3,219.1,74.6,219,74.9,218.8z M139.5,116.5c-0.6-0.2-1.3-0.4-2-0.6
		c-0.1,0.1-0.1,0.2-0.2,0.3c1.6,1.6,3.1,3.2,4.8,4.6c1.7,1.5,3.5,2.8,5.3,4.3c-3.8,2.6-7.1,5.6-10.1,8.9c0.1,0.1,0.1,0.2,0.2,0.3
		c0.9-0.4,1.7-0.9,2.2-1.1c-0.1,0.6-0.3,1.4-0.4,2.3c0.1,0.1,0.2,0.1,0.3,0.2c3.1-3.2,6.2-6.3,10.4-8.8c1.3,4.5,2.4,8.7,3.6,12.9
		c0.4-0.4,0.8-0.8,1.3-1.4c0.1,0.5,0.2,0.8,0.2,1.1c0.1-0.1,0.1-0.2,0.2-0.3c0.3,0.2,0.5,0.3,1,0.6c-0.7-4.9-2-9.5-3.8-13.9
		c-0.2-0.5-0.2-1.3,0-1.8c0.8-2.5,1.8-4.9,2.5-7.4c0.6-2.1,0.9-4.2,1.4-6.6c-0.5,0.3-0.8,0.5-1.1,0.7c-0.1-0.1-0.1-0.2-0.2-0.3
		c-0.1,0.3-0.1,0.5-0.2,0.8c-0.3,0.3-0.6,0.5-0.9,0.8c-0.2-0.6-0.5-1.2-0.7-1.7c-0.8,4.1-1.7,8.4-3.8,12.8c-3.5-3-6.8-5.9-10.1-8.8
		C139.5,115.3,139.5,116,139.5,116.5z M45.2,31.5c4.4,1.1,8.7,2.1,12.8,4c-2.4,3.9-5.5,7-8.7,10.2c0.8,0.1,1.4,0.2,1.8,0.3
		c-0.1,0.7-0.1,1.3-0.2,1.9c0.1,0.1,0.3,0.2,0.4,0.3c3-3.3,6-6.7,9-10.1c2.4,3.7,5.5,6.9,9,10.1c-0.1-0.6-0.1-1-0.2-1.3
		c-0.1-0.3-0.2-0.6-0.4-0.8c-0.2-0.3-0.5-0.5-0.5-0.6c0.7,0.1,1.6,0.3,2.4,0.4c0-0.1,0.1-0.2,0.1-0.3c-3.2-3.1-6.2-6.2-8.8-10.4
		c4.5-1.3,8.7-2.4,13-3.6c-0.8-0.4-1.5-0.8-2.1-1.1c0.5-0.1,1.1-0.3,1.9-0.5c-0.4-0.1-0.6-0.1-0.8-0.2c0.3-0.2,0.6-0.4,0.9-0.5
		c-0.1-0.1-0.2-0.2-0.3-0.3c-4.7,0.7-9.3,1.9-13.7,3.8c-0.5,0.2-1.2,0.2-1.7,0c-2.5-0.8-5-1.8-7.5-2.6c-2.1-0.6-4.2-0.9-6.3-1.4
		c0,0.1-0.1,0.2-0.1,0.3c0.3,0.2,0.5,0.4,0.8,0.6c-0.2,0.1-0.3,0.1-0.6,0.3c0.7,0.2,1.3,0.3,1.7,0.4C46.6,30.8,45.9,31.1,45.2,31.5z
		 M2.4,46.8C2.2,47,2,47.1,1.9,47.3C-0.8,51-3,55-4.7,59.2c-0.2,0.4-0.5,1-1,1.1c-4.1,1.6-7.9,3.7-11.5,6.3
		c-0.4,0.3-0.8,0.6-1.1,0.9c0,0.1,0.1,0.2,0.1,0.3c0.8-0.2,1.7-0.4,2.2-0.5c-0.2,0.5-0.5,1.3-0.7,2.1c3.9-2.3,7.6-4.8,12.2-6.3
		c0.3,4.6,0.6,9,1,13.5c0.6-0.8,1.2-1.4,1.6-2c0,0.4,0,1.1,0,2c0.2-0.3,0.3-0.5,0.4-0.7c0,0.2,0,0.4,0.1,0.5
		c0.1,0.2,0.2,0.3,0.3,0.4c0.2,0,0.3-0.1,0.5-0.1c-0.2-4.4-0.5-8.8-0.8-13.5c4.3,1.1,8.7,1,13.1,0.8c0-0.1,0-0.2,0-0.3
		c-0.3-0.1-0.6-0.2-1-0.3c0.3-0.1,0.4-0.2,0.5-0.2c0-0.1,0-0.1,0-0.2c-0.7,0-1.4,0-1.7,0c0.5-0.4,1.2-1,2.1-1.8
		C6.8,61.1,2.4,61.3-2,60.1c1.6-4.3,3.9-8,6.5-11.8c-0.8,0.2-1.2,0.3-1.7,0.4C2.8,48.1,2.6,47.5,2.4,46.8z M-35.3,111.1
		c-0.2-0.3-0.4-0.6-0.6-0.9c-0.1,0.1-0.2,0.2-0.3,0.3c0.7,4.7,1.9,9.2,3.8,13.6c0.3,0.8,0.3,1.3,0,2.1c-1.9,4.3-3,8.7-3.8,13.3
		c0,0.1,0.1,0.2,0.2,0.4c0.3-0.3,0.5-0.6,0.7-0.8c0.1,0.2,0.1,0.4,0.2,0.8c0.2-0.8,0.3-1.4,0.5-2c0.4,0.7,0.7,1.4,1.3,2.4
		c0.9-4.7,1.8-9,3.8-13.2c3.9,2.4,7,5.5,10.2,8.8c0-1,0-1.7,0-2.2c0.7,0.2,1.4,0.4,2.1,0.6c0.1-0.1,0.2-0.3,0.3-0.4
		c-3.3-3-6.6-5.9-9.8-8.7c3.2-2.9,6.5-5.8,9.9-8.8c-0.1-0.1-0.2-0.3-0.3-0.4c-0.7,0.1-1.3,0.3-2.1,0.4c0-0.5,0-1.1,0-2
		c-1.7,1.7-3.3,3.3-4.9,4.7c-1.7,1.5-3.5,2.8-5.2,4.1c-0.2,0-0.3-0.1-0.5-0.1c-1.2-4.3-2.4-8.5-3.6-12.8c-0.4,0.8-0.7,1.4-1.1,2.1
		c-0.1-0.6-0.3-1.2-0.5-2C-35.2,110.7-35.3,110.9-35.3,111.1z M-17.9,125c0.1,0.2,0.1,0.3,0.1,0.3c0.3,0.3,0.6,0.7,0.9,1
		c3,3.3,5.2,7,6.4,11.3c0.8,2.5-0.2,5.4,1.8,7.8c0.1-1,0.2-2,0.3-2.6c1,1.6,0.7,3.6,0.5,5.5c2.7-9-0.7-16.4-6.1-23.3
		c5.4-7,8.8-14.4,6.2-23.3c-0.1,2-0.2,3.9-0.3,5.9c-0.1,0-0.1,0-0.2,0c-0.1-0.9-0.2-1.7-0.3-2.8c-0.5,0.8-1,1.3-1.1,1.8
		c-0.2,0.7,0,1.5-0.1,2.2c-0.5,2.3-0.9,4.7-1.8,6.9C-12.9,119.4-15.3,122.3-17.9,125z M137.9,124.9c-0.2-0.2-0.5-0.5-0.7-0.8
		c-4.4-4.9-7.3-10.3-7.2-17.1c0-0.4-0.2-0.9-0.4-1.3c-0.1-0.2-0.5-0.3-0.8-0.5c-0.1,0.6-0.2,1.4-0.3,2.2c-0.1,0-0.2,0-0.3,0
		c0-1.9,0-3.8,0-5.7c-0.1,0-0.2,0-0.3,0c-1,3.4-1.1,6.8-0.4,10.3c1,4.6,3.2,8.6,6.1,12.2c0.5,0.6,0.6,1,0,1.7s-1.2,1.5-1.7,2.3
		c-3.2,4.9-5.4,10.1-4.8,16.1c0.1,1.4,0.4,2.8,0.7,4.2c0.1,0,0.2,0,0.2,0c0.1-1.9,0.2-3.7,0.3-5.6c0.1,0,0.1,0,0.2,0
		c0.1,0.8,0.2,1.5,0.4,2.3c0.2-0.3,0.3-0.7,0.3-0.7c1.3,0,0.9-1,0.9-1.6c0-3.9,1-7.5,3-10.8C134.3,129.7,136.1,127.4,137.9,124.9z
		 M40,193.7c0,0.1,0,0.1,0,0.2c0.2,0,0.7,0.1,0.7,0.1c0,1.2,1,0.9,1.6,0.9c3.9,0,7.6,1,10.9,3c2.4,1.5,4.7,3.3,7.1,5
		c0.5-0.4,1.1-1,1.7-1.5c4.7-3.9,9.8-6.5,16.1-6.5c0.5,0,1-0.2,1.4-0.4c0.2-0.1,0.3-0.5,0.5-0.8c-0.7-0.1-1.5-0.2-1.9-0.3
		c1.5-1.1,3.5-0.5,5.4-0.5c-2.9-1.1-5.9-1.3-8.8-0.8c-5.1,0.7-9.6,3.2-13.6,6.3c-0.7,0.6-1.1,0.6-1.9,0c-3.6-2.9-7.6-5.1-12.1-6.1
		c-3.5-0.8-6.9-0.6-10.3,0.6c1.9,0,3.8-0.7,5.4,0.4C41.6,193.5,40.8,193.6,40,193.7z M36.8,57.3c9,2.6,16.4-0.8,23.2-6.2
		c9.5,7.7,17.9,8.2,23.3,6.2c-2-0.1-3.9-0.2-5.9-0.3c0-0.1,0-0.1,0-0.2c0.9-0.1,1.9-0.2,2.8-0.3c-0.3-0.3-0.7-0.2-0.7-0.3
		c-0.3-1.2-1.2-0.8-2-0.8c-3.8-0.1-7.4-1-10.6-3c-2.4-1.5-4.6-3.3-7.1-5c-0.3,0.3-0.7,0.7-1.1,1.1c-4.2,3.7-8.8,6.3-14.5,6.9
		c-2.2,0.2-2.2,0.2-4.5,1.3c1.1,0.1,1.9,0.2,2.8,0.2c0,0.1,0,0.1,0,0.2C40.7,57.1,38.7,57.2,36.8,57.3z M25.6,62.5
		c-0.4,0-0.7-0.2-1-0.1c-0.4,0.1-0.8,0.3-1.1,0.6c-4.6,4.7-10.5,6.5-16.8,6.9c-2,0.1-1.7-0.1-1.8,1.9c-0.3,5.9-2,11.3-5.9,15.9
		c-1.2,1.4-1.3,1.4-1.5,3.2c0.4-0.2,0.7-0.5,1.3-0.9c-0.4,0.8-0.5,1.3-0.9,1.7c-0.3,0.4-0.8,0.7-1.2,1s-0.7,0.6-1.1,0.9
		c0.1,0.1,0.2,0.2,0.2,0.3c2.6-1.4,4.8-3.3,6.5-5.6c3.1-4.1,4.6-8.9,5.2-14c0.1-1.1,0.5-1.4,1.6-1.5c1.4-0.1,2.8-0.4,4.2-0.7
		c6-1.5,11.1-4.3,14.6-9.6c0.3-0.5,0.6-1,0.9-1.5c-0.1-0.1-0.2-0.1-0.3-0.2c-0.2,0.3-0.5,0.5-0.7,0.8c-0.4,0.5-0.7,1.1-1.2,1.6
		c-0.3,0.3-0.7,0.3-1.1,0.5C25.5,63.1,25.5,62.7,25.6,62.5z M28.6,189.6c0.1-0.1,0.2-0.2,0.3-0.3c-1.4-1.7-2.7-3.5-4.3-5
		c-4.4-4.2-10-5.9-15.9-6.6c-0.8-0.1-1-0.4-1.2-1.2c-0.7-3-1.2-6-2.2-8.9c-1.5-4.4-4.5-7.9-8.4-10.4c-0.4-0.2-0.8-0.4-1.2-0.7
		c-0.1,0.1-0.2,0.2-0.3,0.3c1.3,1.1,3.1,1.7,3.3,3.7c-0.3-0.3-0.7-0.5-1.4-1.1c0.2,1,0.2,1.8,0.6,2.2c4.1,4,5.9,9,6.7,14.5
		c0.2,1.3,0.2,2.7,0.4,4.2c0.5,0,1,0,1.5,0c5.8,0.4,11.2,1.8,15.7,5.7c1.4,1.2,1.4,1.2,3.5,1.7c-0.4-0.5-0.7-1-1.1-1.4
		c0.1-0.1,0.2-0.2,0.3-0.3C26.1,187.3,27.3,188.4,28.6,189.6z M124.7,156.4c-2.4,1.1-5.4,3.7-7.1,6c-3,4.2-4.5,9-5.1,14.1
		c-0.1,0.8-0.3,1.1-1.1,1.1c-1.5,0.2-3,0.4-4.5,0.8c-6.2,1.5-11.4,4.5-14.9,10c-0.2,0.4-0.4,0.7-0.6,1.1c0.1,0.1,0.3,0.3,0.4,0.4
		c0.8-2,2.3-3.3,4.2-4c-0.3,0.3-0.6,0.6-0.8,0.9c-0.3,0.3-0.5,0.7-0.8,1c0.3,0,0.6-0.2,0.6-0.2c0.8,0.8,1.2,0,1.7-0.4
		c3.6-3.6,8-5.6,13-6.4c1.8-0.3,3.7-0.4,5.5-0.6c0.1-1.4,0.2-2.6,0.3-3.9c0.6-5.2,2.3-9.9,5.9-13.8c1.2-1.3,1.2-1.3,1.1-2.9
		c-0.6,0.5-1.1,1-1.7,1.5c-0.1-0.1-0.2-0.2-0.2-0.2C121.9,159.4,123.2,158,124.7,156.4z M91.6,60.7c-0.1,0.1-0.2,0.2-0.3,0.2
		c1.4,1.6,2.6,3.4,4.1,4.9c4.4,4.3,10,6,15.9,6.8c0.9,0.1,1.2,0.4,1.3,1.3c0.5,4.5,1.8,8.8,4.2,12.7c1.9,3,4.5,5.3,7.7,6.9
		c-0.9-1.3-3-1.7-3-3.8c0.2,0.1,0.3,0.3,0.5,0.4c0.2,0.2,0.5,0.3,0.8,0.5c-0.1-0.4-0.2-0.6-0.3-0.9c-0.1-0.4-0.1-1-0.3-1.3
		c-4.8-4.7-6.6-10.6-6.9-17.1c-0.1-1.3-0.5-1.6-1.7-1.6c-5.9-0.3-11.4-1.9-16-5.9c-0.8-0.7-1.5-2.1-3.1-1.3c0.5,0.6,1,1.2,1.5,1.8
		c-0.1,0.1-0.1,0.1-0.2,0.2C94.4,63.3,93,62,91.6,60.7z M31.8,54.4c0.4-0.6,0.8-1.2,1-1.6c0.7,0.2,1.4,0.3,2,0.4
		c0.1-0.1,0.2-0.1,0.2-0.2c-6.9-5.1-8.8-11.7-5.9-19.8c-0.1,0-0.2,0.1-0.4,0.1c-0.5,0.5-0.9,1-1.3,1.4c-0.6-0.2-1.2-0.5-2-0.8
		c-0.3,2-0.6,3.7-0.9,5.5c-1.5-1-3-2.1-4.5-3.2c-0.3,0.5-0.5,0.8-0.7,1.1c0.2,0.1,0.5,0.3,0.7,0.5c0,0.1,0,0.2,0,0.3c-1,0-2,0-3.2,0
		c3.3,2.1,6.5,4,8.3,7.5c1.9,3.5,1.6,7.1,1.9,10.8c0.6-1.1,1.2-2.3,1.7-3.2c-0.1-0.3,0-0.2,0-0.1c0,0.6,0,1.2,0,1.9
		c0.4,0,0.7-0.1,1.1-0.1c0.1-0.6,0.1-1.1,0.2-1.8C30.8,53.6,31.2,53.9,31.8,54.4z M-8.6,92.2c0-0.1,0.1-0.3,0.1-0.4
		c-8.5,1.3-14.6-2-18.3-9.6c0,1.2,0,2.4,0,3.5c-0.2-0.3-0.5-0.8-0.7-1.2c-0.3,0.2-0.6,0.4-1.1,0.7c1.1,1.5,2.2,3,3.2,4.4
		c-1.9,0.3-3.7,0.7-5.4,1c0.1,0.6,0.2,1,0.3,1.3c0.2,0,0.5-0.1,1.1-0.2c-0.8,0.9-1.4,1.6-2,2.3c8-2.7,14.6-0.7,19.7,6.2
		c0.1-0.1,0.1-0.2,0.2-0.3c-0.2-0.7-0.3-1.4-0.5-2c0.5-0.3,1-0.6,1.6-1c-0.4-0.6-0.7-1-1.1-1.5c0.7-0.1,1.2-0.2,1.7-0.2
		c0-0.4,0-0.8,0.1-1.1c-0.4,0-0.8,0-1.1,0s-0.6,0-1-0.1c0.1,0.1,0.1,0.1,0.2,0.2C-10.8,93.5-9.7,92.9-8.6,92.2z M151.8,156.4
		c0-0.1,0-0.3,0-0.4c-8,2.9-14.6,1-19.7-5.9c-0.1,0.1-0.1,0.2-0.2,0.4c0.2,0.7,0.4,1.4,0.6,1.9c-0.5,0.3-1,0.6-1.6,1
		c0.4,0.6,0.7,1,1.1,1.5c-0.6,0.1-1.2,0.2-1.8,0.3c0,0.5,0,0.8,0,1.1c0.7,0,1.4,0,2.1,0c0-0.1-0.1-0.1-0.1-0.2
		c-1.1,0.6-2.3,1.3-3.4,1.9c0,0.1,0,0.3,0,0.4c8.5-1.2,14.5,2.1,18.2,10.1c0.1-1.5,0.1-2.4,0.1-3.4c0.5,1.3,1,0,1.5,0.2
		c0.1-0.1,0.1-0.2,0.2-0.3c-1.1-1.5-2.1-3-3.2-4.4c1.8-0.3,3.6-0.6,5.6-1c-0.4-0.6-0.7-0.9-0.9-1.2c-0.1-0.3-0.2-0.7-0.1-0.9
		C150.8,157.1,151.3,156.8,151.8,156.4z M132,99.9c5.2-6.7,11.9-8.5,19.9-5.6c0-0.1,0-0.3,0-0.4c-1-0.8-2-1.7-2.8-2.4
		c1.6,0.3,1.6,0.3,2-0.9c-1.8-0.3-3.6-0.6-5.4-0.9c1.1-1.5,2.1-3,3.3-4.6c-0.9-0.3-1.5-0.5-2-0.6c0-0.7,0.1-1.4,0.1-2.1
		c-0.1-0.1-0.2-0.1-0.3-0.2c-3.6,7.8-9.6,11-18.1,9.8c0,0.1,0,0.3,0.1,0.4c1.1,0.6,2.2,1.3,3.3,1.9c0-0.1,0.1-0.1,0.1-0.2
		c-0.7,0-1.5,0-2.2,0c0.1,0.4,0.1,0.8,0.2,1.2c0.6,0.1,1.1,0.1,1.7,0.2c-0.4,0.5-0.7,1-1.1,1.5c0.6,0.4,1.2,0.7,1.7,1
		c-0.2,0.3-0.4,0.4-0.4,0.7C132,99,132.1,99.4,132,99.9z M28.8,217c0.1,0,0.3-0.1,0.4-0.1c-2.9-8-1-14.6,5.9-19.7
		c-0.1-0.1-0.2-0.1-0.3-0.2c-0.7,0.2-1.4,0.4-2.1,0.5c-0.3-0.5-0.6-1-1-1.6c-0.5,0.4-1,0.7-1.5,1.1c-0.1-0.7-0.2-1.2-0.2-1.8
		c-0.4,0.1-0.8,0.1-1.1,0.1c0,0.7,0,1.3,0,2c0.1-0.1,0.1-0.1,0.2-0.2c-0.7-1.1-1.3-2.2-2-3.4c-0.1,0-0.3,0-0.4,0
		c1.3,8.5-2,14.5-9.8,18.1c0.1,0.1,0.2,0.1,0.3,0.2c0.7-0.1,1.5-0.1,2.3-0.2c-0.1,0.4-0.1,0.7-0.2,1.2c1,1.1,1.9,0.1,2.7-0.5
		c0.9-0.6,1.7-1.3,2.6-2c0.3,1.9,0.7,3.7,1,5.5c2-0.5,0.5-1.7,0.7-2.2C27.1,215,27.9,216,28.8,217z M-26.8,168
		c3.7-7.5,9.8-10.8,18.3-9.6c0-0.1,0-0.3,0-0.4c-1.1-0.6-2.3-1.3-3.4-1.9l-0.1,0.1c0.7,0,1.5,0.1,2.2,0.1c0-0.4-0.1-0.7-0.1-1.2
		c-0.5-0.1-1.1-0.2-1.7-0.3c0.4-0.5,0.7-0.9,1.1-1.5c-0.6-0.4-1.1-0.7-1.6-1c0.1-0.6,0.3-1.3,0.5-2c-0.1-0.1-0.2-0.1-0.2-0.2
		c-5.1,6.8-11.6,8.7-19.6,5.8c0,0.1,0,0.2,0,0.4c0.5,0.5,1,0.9,1.6,1.5c-0.2,0.4-0.5,1-1,1.8c2,0.3,3.8,0.6,5.6,0.9
		c-0.6,0.7-1.2,1.4-1.7,2.2s-1,1.6-1.5,2.4c0.5,0.3,0.8,0.4,1,0.6c0.3-0.5,0.6-0.9,0.7-1.2C-26.8,165.6-26.8,166.8-26.8,168z
		 M94.6,34c-0.6,0.3-0.9,0.4-1.2,0.6c0.1,0.4,0.2,0.8,0.2,1.1c-0.8-0.8-1.5-1.5-2.3-2.3c-0.1,0-0.2,0-0.4,0c3,8.1,0.9,14.6-5.9,19.7
		c0.1,0.1,0.2,0.1,0.3,0.2c0.7-0.2,1.4-0.4,2-0.5c0.3,0.5,0.7,1,1.1,1.6c0.5-0.4,1-0.7,1.5-1c0.1,0.7,0.2,1.2,0.3,1.7
		c0.4,0.1,0.8,0.1,1.1,0.1c0-0.8,0-1.5,0-2.3c-0.1,0.1-0.2,0.1-0.2,0.2c0.7,1.1,1.3,2.3,2,3.4c0.1,0,0.2,0,0.4,0
		c-1.3-8.5,2.1-14.5,9.6-18.2c-1.2,0-2.4,0-3.5,0c0.3-0.2,0.8-0.5,1.2-0.7c-0.2-0.3-0.4-0.6-0.7-1.1c-1.5,1.1-3,2.2-4.5,3.2
		C95.2,37.8,94.9,35.9,94.6,34z M95.5,210.7c1.5,1.1,3,2.1,4.5,3.2c0.3-0.6,0.4-0.9,0.6-1.2c-0.2-0.2-0.4-0.3-0.8-0.6
		c0.7,0,1.2,0,1.7,0s1-0.1,1.9-0.2c-8.1-3.7-11.3-9.8-10.1-18.3c-0.1,0-0.3,0.1-0.4,0.1c-0.6,1.2-1.3,2.3-1.9,3.5
		c0.1,0,0.1,0.1,0.2,0.1c0-0.8,0-1.5,0-2.2c-0.4,0.1-0.7,0.1-1.1,0.2c-0.1,0.6-0.2,1.1-0.3,1.7c-0.5-0.4-1-0.7-1.5-1.1
		c-0.3,0.6-0.6,1.2-0.8,1.6c-0.7-0.2-1.4-0.4-2.1-0.5c2.6,2.8,5.3,5.2,6.4,9c1.1,3.7,0.2,7.3-0.7,11.2c1-1,1.8-1.8,2.6-2.6
		c-0.1,0.4-0.2,0.8-0.2,1.2c0.4,0.1,0.7,0.2,1.2,0.4C94.9,214.3,95.2,212.5,95.5,210.7z M77.9,225.3c3.3-7.5-2.3-25.8-8.5-27.8
		c0.1,0.7,0.2,1.3,0.3,1.8c-0.7-0.2-1.5-0.4-2.3-0.5c7.5,7.5,10,16.4,8,26.7c0.6-0.5,1.2-1,1.6-1.4
		C77.1,224.2,77.4,224.7,77.9,225.3z M0,43.5c8.8,5.8,13.1,14,13.2,24.5c0.4-0.8,0.9-1.5,1.3-2.2c0,0.3,0.1,0.8,0.1,1.2
		c0.1-0.1,0.2-0.2,0.3-0.2c0.3,0.2,0.5,0.4,0.8,0.5C17.5,59.5,9,43.8,1.9,41.8c0.2,0.6,0.3,1.2,0.4,1.7C1.5,43.5,0.7,43.5,0,43.5z
		 M13.2,182.2c0,10.6-4.4,18.7-13.3,24.5c0.8,0,1.5,0,2.4,0c-0.3,0.3-0.5,0.5-0.7,0.7c0.1,0,0.2,0,0.3,0c0,0.3,0,0.7-0.1,1
		c7.2-2.2,16.4-19.4,13.7-25.5c-0.2,0.2-0.5,0.3-0.8,0.5c-0.1-0.1-0.1-0.2-0.2-0.2c0,0.4-0.1,0.9-0.1,1.2
		C14.1,183.8,13.6,183,13.2,182.2z M45.1,24.7c-0.9,0.7-1.6,1.1-2.3,1.6c0.1,0.1,0.3,0.2,0.4,0.3c-0.3-0.5-0.7-1-1.1-1.6
		c-3.2,8,1.7,24.1,8.5,28c-0.1-0.8-0.2-1.5-0.3-2c0.7,0.2,1.5,0.4,2.4,0.7c0.1-0.1,0.1-0.2,0.2-0.3C45.3,44.1,42.7,35.3,45.1,24.7z
		 M-40.1,107.4c0.6,0.4,1.1,0.7,1.4,0.9c-0.5,0.5-1,1.1-1.5,1.7c10.5-2.1,19.3,0.5,26.8,8c-0.2-0.9-0.5-1.7-0.6-2.4
		c0.5,0.1,1.2,0.2,2.1,0.3C-18.8,107.8-31.2,104.6-40.1,107.4z M141.7,65c-5.9,8.9-14,13.2-24.5,13.3c0.8,0.4,1.5,0.9,2.2,1.3
		c-0.3,0-0.7,0.1-1.2,0.1c0.1,0.1,0.2,0.2,0.2,0.3c-0.2,0.3-0.4,0.5-0.6,0.8c7.3,2.1,23.7-6.8,25.5-13.8c-0.3,0-0.6,0-1,0.1
		c0-0.1-0.1-0.2-0.1-0.4c-0.2,0.3-0.3,0.5-0.6,0.9C141.7,66.5,141.7,65.7,141.7,65z M-40.1,142.9c7.3,3.3,24.3-1.8,27.9-8.4
		c-0.7,0.1-1.3,0.1-1.8,0.1c0.2-0.6,0.4-1.5,0.6-2.3c-7.5,7.5-16.3,10.1-26.7,8c0.6,0.5,1.1,1.1,1.6,1.5
		C-39,142.2-39.5,142.5-40.1,142.9z M75.3,24.9c2.1,10.4-0.6,19.2-8,26.7c0.8-0.2,1.6-0.4,2.2-0.6c0,0.5-0.1,1.2-0.2,1.9
		c6.8-4.1,11.8-20.7,8.4-27.9c-0.4,0.5-0.7,1-1,1.4C76.4,26,75.8,25.4,75.3,24.9z M132.3,134.5c4.4,6.9,21.7,12,27.9,8.4
		c-0.6-0.3-1.1-0.7-1.5-0.9c0.5-0.4,1.1-1,1.7-1.6c-10.4,2.1-19.2-0.5-26.8-8.3c0.1,0.8,0.2,1.2,0.3,1.6c0.1,0.4,0.3,0.9,0.4,1.1
		C133.7,134.7,133.1,134.6,132.3,134.5z M120.2,206.8c-8.9-5.9-13.2-14-13.2-24.6c-0.4,0.7-0.9,1.5-1.4,2.2c0-0.4-0.1-0.8-0.1-1.1
		c-0.1,0.1-0.2,0.1-0.3,0.2c-0.2-0.2-0.5-0.4-0.7-0.6c-2.2,7,6.8,23.8,13.7,25.5c0-0.3,0-0.6,0-0.9c0-0.3-0.2-0.5-0.2-0.7
		C118.6,206.8,119.4,206.8,120.2,206.8z M117.9,169.5c0.2,0.3,0.4,0.6,0.8,1.1c0,0,0.4,0.1,0.7,0.1c-0.7,0.4-1.4,0.9-2.2,1.3
		c10.6,0.1,18.8,4.3,24.4,13.4c0.1-0.1,0.2-0.2,0.2-0.2c0-0.8-0.1-1.7-0.1-2.4c0.5,0.2,1.1,0.3,1.8,0.5
		C140.9,176,125.6,167.7,117.9,169.5z M2.5,169.6c-7.9-1.9-24,6.8-25.7,13.8c0.6-0.2,1.3-0.3,1.7-0.5c0,0.7,0,1.5,0,2.7
		c5.8-9.3,14-13.7,24.6-13.4c0-0.1-0.1-0.2-0.1-0.3c-0.7-0.4-1.5-0.9-2-1.2C1.4,170.5,1.8,170.1,2.5,169.6z M105.6,65.8
		c0.5,0.8,0.9,1.5,1.3,2.2c0-10.6,4.4-18.7,13.5-24.5c-1.1,0-1.9,0-2.6,0c0.1-0.5,0.3-1.2,0.4-1.9c-7.9,3.5-16.3,19.2-13.8,25.6
		c0.2-0.2,0.5-0.4,0.8-0.6c0.1,0.1,0.1,0.1,0.2,0.2C105.5,66.6,105.6,66.2,105.6,65.8z M44.8,225.4c-2.1-10.4,0.5-19.2,8-26.7
		c-0.8,0.2-1.6,0.4-2.3,0.6c0.1-0.6,0.1-1.2,0.2-1.9c-6.8,4.3-12.1,22.3-8.3,27.9c0.3-0.5,0.6-1.1,0.9-1.5
		C43.7,224.2,44.3,224.8,44.8,225.4z M3,78.2c-10.6,0-18.7-4.4-24.5-13.6c0,1.2,0,2,0,2.8c-0.5-0.1-1.1-0.3-1.8-0.5
		C-20,74.7-4.1,83.2,2.2,80.6c-0.2-0.3-0.3-0.5-0.7-1c-0.1,0-0.5-0.1-0.8-0.1C1.4,79.1,2.2,78.7,3,78.2z M158.7,108.3
		c0.4-0.3,1-0.6,1.6-0.9c-7.1-3.4-24.4,1.8-27.9,8.3c0.6,0,1.2-0.1,1.8-0.1c-0.2,0.8-0.3,1.6-0.6,2.8c7.6-8,16.4-10.5,26.8-8.4
		C159.8,109.4,159.2,108.8,158.7,108.3z M115.9,180.9c-2.3,0.3-4.6,0.5-6.9,0.9c-0.3,0-0.8,0.4-0.9,0.6c-0.1,0.9,0,1.9,0,2.9
		c2.8,0,5.4,0,8.1,0c0.9,0,1.3-0.2,1.4-1.1c0.1-1,0.7-1.6,1.7-1.7c0.9-0.1,1.2-0.6,1.1-1.4c-0.1-0.6-0.1-1.2-0.1-1.9c0-2,0-4,0-6.2
		c-0.8,0-1.5,0.1-2.1,0c-0.9-0.1-1.4,0.2-1.5,1.2C116.4,176.5,116.1,178.7,115.9,180.9z M3.4,173.1c-1.1,0-1.8-0.1-2.6,0
		C0.5,173.2,0,173.6,0,174c-0.1,2.4-0.1,4.9-0.1,7.3c0,0.7,0.1,1.2,0.9,1.3c1.1,0.1,1.7,0.7,1.8,1.8c0.1,0.8,0.6,1,1.4,1
		c2.1-0.1,4.1-0.1,6.2-0.1c1.9,0,1.8,0,1.9-1.9c0-1.1-0.3-1.6-1.4-1.7c-2.2-0.2-4.3-0.5-6.5-0.7C4,178.4,3.7,175.8,3.4,173.1z
		 M115.9,69.3c0.2,1.9,0.3,3.8,0.6,5.6c0.3,2.4,0.4,2.4,2.9,2.2c0.7-0.1,0.8-0.3,0.8-0.9c0-2.4,0-4.8,0.1-7.2c0-0.8-0.2-1.3-1-1.4
		c-1.1-0.1-1.6-0.7-1.8-1.7c-0.1-0.3-0.2-0.6-0.3-0.9c-3.1,0-6.1,0-9.1,0c0,0.5-0.1,1-0.1,1.4c0,2.1-0.4,1.9,1.8,2.2
		C111.9,69,113.9,69.1,115.9,69.3z M14.4,34.6C6.3,32.8-7,41.5-10.4,50.9c0.7-0.5,1.3-0.9,1.6-1c0.2,0.7,0.4,1.4,0.6,2.3
		c0.2-0.1,0.3-0.1,0.3-0.2c0.2-0.3,0.4-0.6,0.5-1c3.3-5.6,7.6-10.1,13.8-12.5c1.7-0.7,3.9-0.3,5-2.4c-0.5,0-1-0.1-1.4-0.1
		C11.2,34.3,13.1,35.3,14.4,34.6z M150.4,79.6c0.1,0,0.3,0,0.4-0.1c0.3-4.9-0.9-9.4-3.6-13.5c-3.3-5-9.9-10.7-12.9-11.1
		c0.4,0.6,0.9,1.2,1.1,1.5c-0.7,0.2-1.4,0.3-2.5,0.6c1.7,1.1,3.1,1.8,4.4,2.8c5.2,3.8,9.1,8.5,10.4,15c0.1,0.5,0.4,0.9,0.7,1.3
		c0.2,0.2,0.6,0.3,0.8,0.4c0-0.4,0-0.9,0.1-1.5c0.5,0.7,0.9,1.5,1,2.3C150.3,78,150.3,78.8,150.4,79.6z M-14.4,55.2
		c-8.2,1.5-18.7,17.9-15.9,24.3c0.2-0.8,0.1-1.6,0.3-2.4c0.1-0.7,0.5-1.3,0.7-2c0.1,0,0.2,0.1,0.3,0.1c0,0.5,0,0.9,0.1,1.3
		c1.7-0.6,1.5-2.2,1.9-3.5c2-6.8,6.7-11.4,12.7-15c0.4-0.3,0.9-0.5,1.7-0.9c-1.1-0.3-1.9-0.5-2.6-0.7
		C-15.1,56.1-14.7,55.7-14.4,55.2z M-16.3,116.6c-2.1,2-4.2,3.9-6.2,5.9c-0.2,0.2-0.2,0.8-0.1,1c0.7,1,0.7,2,0,3
		c-0.2,0.2-0.1,0.9,0.1,1.1c2,1.9,4,3.8,6,5.8c0.3-0.2,0.6-0.4,0.8-0.7c1.8-1.8,1.8-1.3,0.3-3.2c-1.2-1.6-2.5-3-3.7-4.5
		c1.7-2.1,3.3-4.1,4.9-6.1C-14.9,118.1-15.6,117.4-16.3,116.6z M68.5,48.7c0.1-0.1,0.2-0.3,0.3-0.4c-1.9-1.8-3.9-3.5-5.7-5.4
		c-0.6-0.6-1.1-0.8-1.8-0.3c-0.8,0.6-1.6,0.7-2.4,0c-0.7-0.6-1.3-0.4-1.7,0.4c-0.2,0.3-0.5,0.6-0.8,0.9c-1.6,1.5-3.2,3-5,4.7
		c1,1,1.8,1.7,2.7,2.5c2.1-1.7,4.1-3.3,6.2-5c1.3,1.1,2.5,2.3,3.9,3.3c2.6,1.9,1.8,2.2,4.3-0.5C68.4,48.8,68.4,48.8,68.5,48.7z
		 M139,125.1c-1.6,2-3.2,4-4.9,6.1c0.9,1,1.6,1.7,2.2,2.5c2.2-2.1,4.2-4,6.3-6c0.2-0.2,0.3-0.7,0.1-0.9c-0.9-1.1-0.8-2.2,0-3.4
		c0.1-0.2,0-0.7-0.1-0.8c-2-2-4.1-3.9-6.2-5.9c-0.5,0.4-0.9,0.9-1.4,1.3c-0.9,0.6-0.9,1.3-0.2,2C136.3,121.7,137.6,123.4,139,125.1z
		 M63.6,224.8c0.3,1.2,0.7,2.3-0.9,2.7c10.1,4,26.1,0.7,29.2-6.3c-1.5,0.7-2.2,2.6-4.1,2.3c0.3-0.4,0.6-0.7,0.8-1
		c0-0.1-0.1-0.2-0.1-0.3c-0.6,0.1-1.4,0-1.9,0.3c-6.4,4.1-13.2,4.5-20.4,2.9C65.3,225.2,64.5,225,63.6,224.8z M11.8,214.2
		c-0.4-0.2-0.9-0.4-0.9-0.4c0.2-0.9-0.5-0.9-1-1c-0.6-0.2-1.2-0.3-1.8-0.4c-6.4-1.9-10.9-6.1-14.4-11.5c-0.5-0.8-1-1.7-1.7-2.8
		c-0.3,1.1-0.5,1.8-0.7,2.4c-0.4-0.2-0.9-0.6-1.6-1c2.7,8.9,16.6,18.1,25.2,16.3c-1.7-0.7-3.7,0.2-4.9-1.5
		C10.5,214.2,11,214.2,11.8,214.2z M51.3,202c2,1.8,4,3.6,5.9,5.5c0.6,0.5,1,0.7,1.6,0.3c0.9-0.7,1.7-0.7,2.7,0
		c0.3,0.2,1,0.3,1.2,0.1c2-2,3.9-4.1,5.9-6.2c-0.4-0.4-0.8-0.8-1.1-1.2c-0.7-1-1.5-1.1-2.4-0.2c-1.6,1.4-3.3,2.7-5,4.1
		c-0.6-0.5-1.1-1.1-1.7-1.6c-0.7-0.6-1.3-1.2-2-1.6C53.4,199,54.3,198.6,51.3,202z M157.2,96.4c0.2,0.5,0.5,0.8,0.4,0.9
		c-0.4,0.9-0.4,0.9,0,1.6c3.1,4.7,4,9.8,3.5,15.3c-0.2,2.4-0.8,4.9-1.2,7.4c0.7-0.4,1.4-0.8,2-1.2c0.1,0.4,0.2,1.1,0.4,2.1
		c4.1-10,0.9-25.3-6.1-29.3c0.3,1.5,2.6,2,2,3.9C157.9,97,157.7,96.8,157.2,96.4z M12,64.9c-2.9,0-5.7,0-8.5,0
		c-0.3,0-0.7,0.5-0.8,0.8c-0.3,0.8-0.6,1.7-1.6,1.8c-1.2,0.2-1.5,0.8-1.2,1.9C0,69.9,0,70.4,0,70.9c0,2,0,4,0,6
		c3.2,0.5,3.4,0.4,3.8-2.6c0.2-1.7,0.3-3.4,0.4-5c2.7-0.3,5.2-0.6,7.8-0.8C12,67.2,12,66.2,12,64.9z M108.7,36c0,0.1,0,0.1-0.1,0.2
		c0.2,0.1,0.4,0.1,0.4,0.2c0,1.1,0.8,1.1,1.6,1.3c0.6,0.1,1.3,0.3,1.9,0.5c6.3,2,10.7,6.3,14.1,11.7c0.5,0.7,0.9,1.5,1.4,2.4
		c0.3-1,0.5-1.8,0.7-2.4c0.4,0.2,0.9,0.6,1.7,1.1c-4-9.8-18.2-19-24.9-16.2c1,0.2,2,0.1,2.9,0.4c0.8,0.2,1.6,0.7,2.4,1.1
		C110.2,36.1,109.4,36.1,108.7,36z M128.1,198c-0.5,0.9-0.9,1.5-1.3,2.1c-4,6.3-9.1,11.1-16.6,12.6c-0.4,0.1-0.8,0.4-1.1,0.7
		c-0.2,0.2-0.3,0.5-0.4,0.7c0.4,0,1,0.1,1.4,0.1c-1.1,1.7-3.1,0.6-4.5,1.5c5.9,0.5,11-1.3,15.6-4.9c3.8-3,8.6-8.7,9.1-11.4
		c-0.6,0.4-1.2,0.8-1.5,1C128.6,199.7,128.4,199,128.1,198z M156.2,156.7c0.1,0.1,0.2,0.1,0.3,0.2c7-5,10.3-21.1,5.8-29.1
		c-0.1,0.9-0.2,1.7-0.3,2.1c-0.6-0.4-1.3-0.8-2.2-1.4c0.1,0.5,0.1,0.7,0.2,0.9c2.2,7.8,2.1,15.3-2.4,22.3c-0.3,0.4-0.1,1.2-0.1,1.8
		c0,0,0.1,0,0.2,0.1c0.3-0.2,0.5-0.5,0.8-0.7c0.1,0.1,0.2,0.1,0.3,0.2c-0.3,0.7-0.6,1.4-1,2C157.2,155.6,156.7,156.1,156.2,156.7z
		 M-30.4,170.7c-2.1,7.8,7.8,22.9,16.2,24.8c-0.4-0.6-0.8-1.2-1-1.5c0.7-0.2,1.4-0.4,2.4-0.7c-0.4-0.2-0.6-0.3-0.8-0.4
		c-6.9-4-12.3-9.3-14-17.5c-0.1-0.4-0.4-0.8-0.7-1.1c-0.2-0.2-0.5-0.3-0.8-0.5c0.1,0.8,0.1,1.5,0.2,2.1
		C-30.3,174.5-30.1,172.5-30.4,170.7z M-39.7,121.7c0-0.3,0.1-0.4,0-0.5c-0.1-0.3-0.2-0.6-0.3-1c-1.7-6.8-1.9-13.4,1.6-19.8
		c0.4-0.8,1-1.5,1.2-2.3c0.1-0.4,0-1.3-0.3-1.5c-0.7-0.3-0.9-0.4-0.5-1c0.3-0.5,0.8-0.9,1.2-1.4c0.3-0.3,0.5-0.6,0.7-0.9
		c-8.1,5.7-9.7,18.7-6.1,29.2c0.2-1.1,0.3-1.8,0.4-2.3C-41.3,120.7-40.5,121.2-39.7,121.7z M134.3,195.5
		c8.7-2.4,18.2-16.8,16.2-24.8c-0.2,0.8-0.2,1.6-0.3,2.3c-0.2,0.8-0.5,1.5-0.8,2.3c-0.1,0-0.2-0.1-0.2-0.1c0-0.5-0.1-1-0.1-1.9
		c-0.2,0.5-0.3,0.9-0.3,0.9c-1-0.3-1,0.6-1.1,1.1c-1.2,6-4.6,10.5-9.2,14.2c-1.7,1.3-3.5,2.4-5.3,3.7c0.8,0.2,1.6,0.5,2.2,0.6
		C135.1,194.2,134.7,194.8,134.3,195.5z M28.2,221.3c4,7,19.7,10.3,29.3,6.1c-1-0.2-1.7-0.3-2.1-0.4c0.4-0.6,0.8-1.3,1.4-2.2
		c-1.7,0.4-2.9,0.8-4.2,1c-6.6,1.2-13,0.7-18.9-3.1c-0.4-0.3-0.9-0.4-1.4-0.4c-0.2,0-0.4,0.3-0.6,0.5c0,0.1,0.2,0.3,0.5,0.6
		C30.2,223.9,29.8,221.6,28.2,221.3z M-37.1,153.8c-0.1-1,0-1.8-0.3-2.3c-3.9-6-4.4-12.5-3.1-19.2c0.2-1.2,0.6-2.4,0.9-3.6
		c-0.6,0.2-1.1,0.4-1.7,0.5c-0.1,0.3-0.3,0.7-0.4,1c-0.1-0.7-0.3-1.5-0.5-2.5c-4.1,9.9-0.6,26.4,6.1,29.3c-0.4-1.5-2.7-1.9-2.1-4
		C-37.8,153.2-37.6,153.4-37.1,153.8z M92.1,29.1c-5-7.3-19.9-10.4-29.4-6.2c1,0.2,1.7,0.3,2.4,0.5c-1.5,0-1,1.3-1.4,1.8
		c2.7-0.4,5.4-0.9,8.2-1.1c4.8-0.4,9.3,0.5,13.5,3c1,0.6,1.8,1.6,3.1,0.6c-0.2-0.2-0.3-0.4-0.5-0.7C90,26.4,90.4,28.6,92.1,29.1z
		 M28,29.1c1.7-0.4,2.1-2.8,4.1-2.1c-0.2,0.3-0.3,0.5-0.4,0.6c1.5,1,2.4-0.3,3.5-0.9c0.1,0,0.1-0.1,0.2-0.1
		c6.3-3.3,12.9-3.3,19.6-1.6c0.5,0.1,1,0.3,1.8,0.5c-0.7-1-1.1-1.7-1.5-2.3c0.4-0.1,1.1-0.2,2.1-0.4C47.6,18.7,33.3,21.7,28,29.1z
		 M62.1,21.7c3.6-0.6,6.9-1.2,10.4-1.8c-2-3.8-4-7.4-7.8-9.9c-0.3,1-0.4,1.6-0.6,2.3c-0.6,2.2-1.4,4.4-1.9,6.6
		C62,19.9,62.1,20.9,62.1,21.7z M-23.1,190.7c-1.2,4-2.5,8-1.4,12.5c2.9-1.6,5.6-3,8.2-4.6c0.7-0.4,1.2-1.2,1.8-1.8
		C-17.5,194.7-20.2,192.7-23.1,190.7z M131.7,50.5c3.4-2.4,4-6.7,6.3-9.8c-2.5-1.2-9.5-0.3-12.3,1.4
		C127.6,44.8,129.6,47.6,131.7,50.5z M-55,129.7c2.5,4,6.2,6,9.9,7.9c0.6-3.5,1.2-6.8,1.8-10.4C-47.4,126.6-50.8,129.1-55,129.7z
		 M131.7,199.7c-2.1,3-4.1,5.7-6.1,8.6c4,1.2,8,2.5,12.5,1.4C135.7,206.4,135.1,202.1,131.7,199.7z M72.5,230.3
		c-3.5-0.6-6.8-1.2-10.4-1.8c-0.6,4.1,1.9,7.6,2.5,11.7C68.6,237.7,70.6,234,72.5,230.3z M175.1,120.5c-2.5-4-6.2-6-9.9-7.9
		c-0.6,3.4-1.2,6.8-1.8,10.4C167.5,123.7,171,121.1,175.1,120.5z M-55,120.6c4.2,0.5,7.6,3.2,11.6,2.4c-0.6-3.6-1.2-6.9-1.8-10.3
		C-48.8,114.6-52.5,116.5-55,120.6z M47.6,230.3c1.9,3.7,3.9,7.4,7.7,9.8c0.9-2.9,1.8-5.7,2.6-8.5c0.3-1,0-2.1,0-3.1
		C54.4,229.1,51,229.7,47.6,230.3z M47.6,20c3.5,0.6,6.8,1.2,10.4,1.8c0.6-4.1-1.9-7.5-2.5-11.6C51.5,12.6,49.5,16.3,47.6,20z
		 M175,129.8c-1-0.3-1.7-0.5-2.4-0.7c-2.1-0.6-4.3-1.4-6.4-1.9c-0.9-0.2-1.9,0-2.8,0c0.6,3.6,1.2,6.9,1.8,10.4
		C168.9,135.7,172.6,133.7,175,129.8z M144.6,47c-3.3,2.5-7.6,3.1-10,6.5c2.9,2.1,5.7,4,8.6,6.1C144.4,55.6,145.9,51.7,144.6,47z
		 M-14.5,53.5c-2.4-3.4-6.7-4-10-6.5c-1.1,4.6,0.2,8.6,1.4,12.5C-20.2,57.6-17.5,55.6-14.5,53.5z M-18,209.7
		c4.6,1.1,8.6-0.2,12.5-1.4c-2.1-2.9-4-5.7-6-8.6C-14.9,202.1-15.5,206.4-18,209.7z M-17.9,40.5c1.5,2.7,2.8,5.3,4.2,7.8
		c0.5,0.9,1.4,1.6,2.1,2.3c2.1-3,4.1-5.8,6.1-8.6C-9.4,40.7-13.4,39.4-17.9,40.5z M143.2,190.7c-2.9,2-5.7,4-8.6,6.1
		c2.4,3.4,6.6,4,10,6.5C145.8,198.6,144.5,194.6,143.2,190.7z M71.8,211.9c-1.1,1.5-2.2,2.9-3.4,4.4c2.3,0.5,4.4,0.9,6.6,1.4
		c-0.1-4.6-1.4-8.6-3.6-12.3c-1.7,1.6-3.2,3-4.9,4.6C68.4,210.7,70.1,211.3,71.8,211.9z M152.6,139.9c-0.5-2.1-0.9-4.2-1.4-6.4
		c-1.6,1.2-3,2.3-4.4,3.4c-0.6-1.8-1.2-3.4-1.8-5.2c-1.6,1.7-3.1,3.2-4.6,4.8C142.7,138.4,149.5,140.4,152.6,139.9z M71.8,38.4
		c-1.8,0.6-3.4,1.2-5.3,1.8c1.7,1.6,3.3,3.1,5,4.6c2.2-3.7,3.4-7.7,3.6-12.3c-2.3,0.5-4.3,0.9-6.6,1.4
		C69.6,35.6,70.7,36.9,71.8,38.4z M-32.5,139.9c3.1,0.6,10.5-1.7,12-3.5c-1.4-1.5-2.9-3.1-4.4-4.8c-0.6,1.9-1.2,3.5-1.8,5.2
		c-1.5-1.1-2.8-2.2-4.4-3.4C-31.6,135.8-32,137.8-32.5,139.9z M7,194.8c-1.8,0.2-3.5,0.5-5.5,0.8c1.3,2,2.5,3.8,3.7,5.7
		c3.1-3.4,5.1-7,6.1-11.3c-2.3,0-4.4,0-6.7,0C5.5,191.6,6.2,193.1,7,194.8z M146.8,113.4c1.5,1.1,2.8,2.2,4.4,3.4
		c0.5-2.3,0.9-4.4,1.4-6.7c-4.6,0.2-8.6,1.4-12.2,3.6c1.6,1.7,3,3.2,4.6,4.9C145.7,116.8,146.2,115.1,146.8,113.4z M48.3,38.4
		c1.1-1.5,2.2-2.8,3.4-4.4c-2.3-0.5-4.4-0.9-6.7-1.4c0.2,4.6,1.4,8.5,3.5,12.1c1.6-1.6,3.1-3,4.8-4.6C51.7,39.5,50.1,39,48.3,38.4z
		 M53.5,210.1c-1.7-1.7-3.2-3.2-4.7-4.7c-2.1,2.3-4.3,9.8-3.5,12.2c2-0.4,4.1-0.9,6.4-1.4c-1.2-1.6-2.3-3-3.4-4.4
		C50.1,211.3,51.7,210.7,53.5,210.1z M124.8,76.5c4.3-1.1,8-3.1,11.4-6.2c-2-1.3-3.7-2.4-5.7-3.7c-0.3,2-0.5,3.7-0.7,5.5
		c-1.7-0.8-3.2-1.6-4.9-2.4C124.8,72.1,124.8,74.1,124.8,76.5z M130.4,183.7c2-1.3,3.8-2.5,5.7-3.7c-3.4-3-7-5.1-11.4-6.2
		c0,2.3,0,4.4,0,6.8c1.8-0.9,3.3-1.6,5-2.4C129.9,180,130.2,181.7,130.4,183.7z M-32.5,110.1c0.5,2.3,0.9,4.4,1.4,6.6
		c1.6-1.2,3-2.3,4.4-3.4c0.6,1.7,1.1,3.4,1.8,5.2c1.6-1.7,3.1-3.2,4.7-4.9C-24,111.5-27.9,110.3-32.5,110.1z M7,55.5
		c-0.8,1.7-1.6,3.2-2.4,5c2.4,0,4.5,0,6.8,0c-1.2-4.3-3.1-8.1-6.3-11.4c-1.3,2-2.4,3.7-3.7,5.7C3.5,55,5.2,55.2,7,55.5z
		 M108.7,189.8c1.1,4.4,3.1,8.1,6.2,11.4c1.3-1.9,2.4-3.7,3.7-5.7c-2-0.3-3.7-0.5-5.5-0.7c0.8-1.7,1.6-3.2,2.4-5
		C113.1,189.8,111.1,189.8,108.7,189.8z M-10.3,66.6c-2,1.3-3.8,2.5-5.7,3.7c3.4,3.1,7,5,11.3,6.2c0-2.3,0-4.5,0-6.8
		c-1.7,0.9-3.3,1.6-4.9,2.4C-9.8,70.3-10,68.6-10.3,66.6z M113.1,55.5c1.8-0.2,3.5-0.5,5.5-0.7c-1.3-2-2.4-3.8-3.7-5.7
		c-3.1,3.4-5,7-6.1,11.3c2.3,0,4.4,0,6.7,0C114.6,58.6,113.9,57.1,113.1,55.5z M-10.3,183.7c0.3-2,0.5-3.7,0.8-5.5
		c1.7,0.8,3.2,1.6,4.9,2.4c0-2.4,0-4.5,0-6.8c-4.4,1.1-8,3.1-11.3,6.2C-14,181.2-12.3,182.4-10.3,183.7z M26.3,198.6
		c-2.2-0.6-7.5,0.1-9,1.3c-0.2,0.2-0.3,0.7-0.3,0.9c0.7,2,1.3,3.9,2.1,5.8c0.3,0.8,1.1,1.4,1.6,2.2c0.1-0.1,0.1-0.1,0.2-0.2
		c-0.1-0.4-0.3-0.7-0.5-1.2c0.4,0.1,0.6,0.2,0.8,0.3c-0.4-0.7-0.8-1.5-1.1-2.1c0.9,0.5,1.8,0.9,2.8,1.4c-0.8-1.8-1.5-3.3-2.3-5
		c2-0.3,3.6-0.5,5.2-0.7c0-0.1,0-0.2,0-0.2c-0.9-0.5-1.8-0.9-2.7-1.4c0.8-0.1,1.8-0.1,2.9-0.2c-0.6-0.2-0.9-0.3-1.5-0.4
		C25.1,198.9,25.6,198.8,26.3,198.6z M-16.1,90.6c0.1,0.1,0.2,0.1,0.3,0.2c0.4-0.9,0.9-1.8,1.3-2.7c0.1,0.7,0.2,1.5,0.3,2.4
		c0.1-0.3,0.2-0.5,0.3-0.9c0.2,0.6,0.3,1.1,0.4,1.5c0.2-0.6,0.4-1.2,0.4-1.8c-0.3-1.8-0.4-3.7-1-5.5c-0.8-2.8-0.4-2.3-3-1.6
		c-2.4,0.6-4.7,1.5-6.5,3.5c0.5,0,0.9,0,1.2,0c0,0.1,0,0.2,0,0.3c0.7-0.4,1.3-0.7,1.9-1c-0.4,0.8-0.8,1.7-1.4,2.8
		c1.7-0.8,3.3-1.5,5-2.4C-16.6,87.4-16.3,89-16.1,90.6z M143.5,85.9c-2.2-2.4-5.1-3.3-8.1-3.9c-0.2,0-0.6,0.2-0.6,0.4
		c-1.1,2.8-2,5.7-1.3,9.1c0.2-0.8,0.4-1.3,0.6-2c0.1,0.4,0.1,0.6,0.3,1c0.2-1,0.3-1.7,0.4-2.3c0.4,0.8,0.9,1.7,1.5,2.8
		c0.3-2,0.5-3.7,0.8-5.6c1.8,0.8,3.3,1.5,5,2.4c-0.6-1.1-1-1.9-1.5-2.9c0.8,0.4,1.5,0.8,2.3,1.3c-0.1-0.3-0.2-0.4-0.4-0.8
		C142.9,85.6,143.2,85.8,143.5,85.9z M140.4,165.3c0.5-0.8,1-1.7,1.7-3c-1.9,0.9-3.3,1.6-5.1,2.4c-0.3-2-0.6-3.6-0.9-5.5
		c-0.6,1.2-1.1,2.1-1.5,2.9c-0.1-0.6-0.2-1.3-0.4-2.3c-0.1,0.4-0.2,0.7-0.3,1c-0.2-0.7-0.3-1.2-0.4-1.8c-0.7,2,0,7.3,1.2,9
		c0.1,0.2,0.6,0.4,0.9,0.3c1.8-0.5,3.6-1.1,5.3-1.8c1-0.4,1.9-1.2,2.8-1.8c-0.1-0.1-0.1-0.2-0.2-0.3c-0.4,0.2-0.9,0.3-1.5,0.6
		c0.3-0.4,0.4-0.6,0.6-0.9C141.8,164.5,141,164.9,140.4,165.3z M28.6,40.9c1.7,0.6,3.3,1.2,5.1,1.9c-1.2,1.6-2.2,2.9-3.3,4.5
		c1.1-0.3,2.1-0.6,2.8-0.8c-0.3,0.8-0.7,1.8-1.2,2.9c2.3-1.4,4.7-4.6,5.6-7.7c-2.3-2.1-7.1-3.8-8.8-3.2c0.5,0.2,0.9,0.4,1.6,0.6
		c-0.5,0.1-0.9,0.1-1.4,0.2c0.9,0.3,1.6,0.5,2.3,0.7C30.4,40.2,29.6,40.5,28.6,40.9z M99,42.5c0.5,0.9,0.9,1.7,1.2,2.3
		c-0.8-0.5-1.7-1-2.8-1.6c0.9,1.8,1.6,3.3,2.4,5.1c-2,0.3-3.6,0.5-5.3,0.7c0,0.1,0,0.2-0.1,0.2c0.9,0.4,1.8,0.9,2.7,1.3
		c-0.8,0.1-1.5,0.2-2.4,0.3c0.3,0.1,0.4,0.2,0.7,0.3c-0.5,0.2-1,0.3-1.7,0.5c3.4,0.7,6.3-0.2,9.2-1.3c0.2-0.1,0.3-0.6,0.2-0.9
		c-0.5-1.6-0.9-3.3-1.6-4.8c-0.5-1.1-1.3-2.1-2-3.1c-0.1,0.1-0.2,0.1-0.2,0.2c0.1,0.3,0.2,0.7,0.3,1.2C99.3,42.6,99.1,42.6,99,42.5z
		 M143.6,147.5c-3.1,1.4-5.9,2.9-7.6,5.8c0.5-0.3,0.9-0.7,1.6-1.1c-0.3,0.5-0.4,0.7-0.7,1.2c0.8-0.6,1.3-1.1,1.8-1.5
		c-0.2,0.9-0.5,1.8-0.7,2.9c1.5-1.2,2.9-2.2,4.4-3.3c0.7,1.8,1.2,3.4,1.8,5c0.1,0,0.2,0,0.4,0c0.2-1,0.4-2.1,0.6-3
		c0.2,0.8,0.5,1.7,0.8,2.7c0.1-0.5,0.1-0.9,0.2-1.4c0.3,0.7,0.5,1.2,0.7,1.7C147,153,145.4,150.3,143.6,147.5z M28.6,211.9
		c0.2,0.1,0.3,0.2,0.3,0.2c3.2-0.1,5.8-1.5,8.3-3.2c0.2-0.1,0.2-0.7,0.1-0.9c-0.8-1.5-1.6-3-2.5-4.4c-0.6-0.9-1.6-1.7-2.4-2.5
		c-0.1,0.1-0.1,0.1-0.2,0.2c0.3,0.9,0.7,1.8,0.9,2.5c-0.7-0.2-1.7-0.4-2.8-0.7c1.2,1.6,2.2,2.9,3.3,4.4c-1.8,0.7-3.4,1.2-5.2,1.9
		c1.1,0.4,2,0.7,3,1c-0.9,0.2-1.6,0.4-2.4,0.7c0.4,0.1,0.8,0.1,1.3,0.2C29.7,211.5,29.2,211.7,28.6,211.9z M-16.8,164.8
		c-1.8-0.8-3.3-1.5-5.1-2.4c0.6,1.1,1.1,2,1.6,2.9c-0.7-0.4-1.5-0.8-2.3-1.3c0.2,0.3,0.4,0.5,0.7,1c-0.6-0.3-1.1-0.4-1.5-0.6
		c0.1,0.2,0.1,0.3,0.1,0.3c2.2,2.1,5.1,3,8,3.6c0.2,0,0.7-0.4,0.8-0.6c0.5-1.9,1.1-3.7,1.4-5.6c0.2-0.9,0-1.9,0-2.9
		c-0.1,0-0.2,0-0.4,0c-0.1,0.5-0.2,0.9-0.4,1.5c-0.1-0.3-0.2-0.6-0.3-0.9c-0.1,0.9-0.2,1.7-0.3,2.3c-0.4-0.8-0.9-1.7-1.5-2.9
		C-16.3,161.2-16.5,162.8-16.8,164.8z M86.5,207.5c1.2-1.6,2.2-2.9,3.3-4.5c-1.1,0.3-2.1,0.6-3,0.8c0.5-0.6,1-1.2,1.5-1.8l-0.1-0.1
		c-0.3,0.2-0.5,0.3-0.9,0.6c0.3-0.5,0.5-0.9,0.7-1.3c-2.8,1.8-4.2,4.5-5.4,7.4c3.7,2.5,7.4,3.8,8.9,3.2c-0.5-0.2-1-0.4-1.6-0.6
		c0.6-0.1,0.9-0.1,1.3-0.1c-1-0.3-1.9-0.6-2.6-0.8c0.9-0.2,2-0.5,3.3-0.9C89.8,208.7,88.2,208.2,86.5,207.5z M-22.3,98.8
		c-0.7-1.9-1.2-3.4-1.9-5.3c-0.4,1.3-0.6,2.2-0.9,3.2c-0.2-0.7-0.4-1.5-0.7-2.5c-0.1,0.5-0.2,0.7-0.2,1.1c-0.2-0.6-0.4-1-0.6-1.4
		c-0.1,3.2,1.3,5.9,2.9,8.4c0.1,0.2,0.8,0.3,1,0.2c1.4-0.7,2.9-1.5,4.2-2.4c1.1-0.8,1.9-1.8,2.9-2.7c-0.1-0.1-0.2-0.2-0.2-0.3
		c-1,0.4-1.9,0.8-2.7,1.2c0.2-0.8,0.4-1.7,0.7-2.8C-19.4,96.6-20.7,97.6-22.3,98.8z M-23.4,147.5c-2.1,2.5-3.8,7-3.3,9
		c0.2-0.5,0.4-1,0.6-1.6c0.1,0.4,0.2,0.7,0.2,1.1c0.2-0.8,0.4-1.5,0.7-2.2c0.4,0.9,0.7,1.8,1,2.8c0.6-1.8,1.2-3.4,1.9-5.2
		c1.6,1.2,2.9,2.2,4.5,3.3c-0.4-1.2-0.6-2.1-0.9-2.9c0.9,0.4,1.8,0.8,2.8,1.2C-16.9,151.1-19.5,149.2-23.4,147.5z M20.8,41.3
		c-2.4,2.5-3.3,5.4-3.9,8.4c0,0.2,0.4,0.7,0.7,0.8c1.8,0.5,3.6,1,5.4,1.3c1,0.2,2.1,0,3.2,0c0-0.1,0-0.2,0-0.3
		c-0.5-0.1-0.9-0.2-1.5-0.4c0.3-0.2,0.5-0.3,0.7-0.4c-0.9-0.1-1.8-0.2-2.3-0.3c0.8-0.4,1.7-0.8,2.7-1.3c0-0.1-0.1-0.2-0.1-0.3
		c-1.6-0.2-3.3-0.5-5.1-0.8c0.8-1.8,1.5-3.3,2.3-5c-1.1,0.6-1.9,1-2.6,1.4C20.3,43.7,20.5,42.7,20.8,41.3z M91.4,38.4
		c0-0.1-0.1-0.2-0.1-0.3c-3.3,0.2-6.2,1.6-8.8,3.5c1.7,4.1,3.9,7,5.5,7.5c-0.4-0.8-0.8-1.8-1.2-2.7c0.8,0.2,1.8,0.5,2.9,0.7
		c-1.2-1.6-2.2-2.9-3.3-4.4c1.9-0.7,3.4-1.2,5.2-1.8c-1-0.4-1.8-0.7-2.8-1.1c0.8-0.2,1.5-0.4,2.3-0.7c-0.5-0.1-0.8-0.1-1.3-0.2
		C90.5,38.7,90.9,38.6,91.4,38.4z M103.4,200c-3.1-1.1-6.1-2.2-9.4-1.3c0.5,0.1,1.1,0.2,1.8,0.4c-0.4,0.1-0.6,0.2-1,0.3
		c0.9,0.1,1.7,0.3,2.2,0.4c-0.8,0.4-1.7,0.9-2.6,1.3c0,0.1,0,0.2,0.1,0.2c1.7,0.2,3.3,0.5,5.2,0.7c-0.8,1.8-1.5,3.3-2.4,5.1
		c1.2-0.7,2-1.1,2.9-1.6c-0.3,0.6-0.7,1.3-1.1,2.1c0.3-0.2,0.5-0.3,0.7-0.4c-0.2,0.6-0.4,1-0.5,1.4
		C101.8,206.3,102.7,203.3,103.4,200z M138.8,98.4c-0.9-0.4-1.9-0.8-3-1.3c2,2.9,4.8,4.4,7.7,5.7c2.2-2.6,3.8-6.8,3.3-8.9
		c-0.2,0.5-0.4,0.9-0.7,1.5c-0.1-0.5-0.1-0.8-0.2-1.1c-0.2,0.8-0.5,1.5-0.7,2.3c-0.3-1-0.6-1.8-1-2.8c-0.6,1.8-1.2,3.4-1.9,5.2
		c-1.6-1.2-2.9-2.2-4.4-3.3C138.3,96.6,138.6,97.5,138.8,98.4z M64.1,224c3,1.2,6.2,1.4,9.4,1.4c0.2,0,0.6-0.3,0.7-0.5
		c0.2-0.9,0.4-1.7,0.6-2.7c-1.1-0.2-2-0.5-2.9-0.7s-1.9-0.4-2.8-0.6c-3.6-0.8-3.6-0.8-5,2.7C64.1,223.8,64.1,223.9,64.1,224z
		 M-21,63.9c0.8,1.2,1.4,2.1,2,2.9c2.5-1.6,4.8-3,7.2-4.5c0.2-0.1,0.5-0.5,0.4-0.6c-0.3-1.2-0.7-2.4-1.2-4
		C-15.6,59.8-18.3,61.8-21,63.9z M157.3,139.7c2.9,0.1,3.3-0.2,3.1-3c0-0.5,0-0.9-0.1-1.4c-0.4-2.1-0.8-4.2-1.2-6.4
		c-1.3,0.7-2.3,1.2-3.3,1.7c-0.2,0.1-0.5,0.6-0.4,0.9C156,134.2,156.6,137,157.3,139.7z M158.9,121.2c1.2-3.2,1.5-6.4,1.5-9.7
		c0-0.2-0.3-0.5-0.5-0.6c-0.9-0.2-1.7-0.4-2.6-0.5c-0.7,2.9-1.3,5.5-1.9,8.2c-0.1,0.3,0.2,0.8,0.4,1
		C156.8,120.2,157.8,120.7,158.9,121.2z M45.5,222.3c0.1,3.2,0.2,3.3,3.2,3.1c0.4,0,0.8,0,1.2-0.1c2-0.4,4.1-0.8,6.3-1.2
		c-0.7-1.3-1.2-2.4-1.8-3.4c-0.1-0.2-0.6-0.4-0.9-0.3C50.9,221,48.2,221.7,45.5,222.3z M-12.6,192.3c0.4-1.3,0.8-2.4,1-3.5
		c0.1-0.2-0.1-0.7-0.3-0.8c-2.4-1.5-4.8-3-7.3-4.5c-0.5,0.7-1,1.5-1.5,2.2c-0.1,0.2,0,0.7,0.2,0.8
		C-18.2,188.8-15.6,190.8-12.6,192.3z M139.2,66.8c0.4-0.6,0.8-1.2,1.3-1.8c0.5-0.6,0.5-1.1-0.2-1.6c-1.4-1.2-2.8-2.4-4.3-3.5
		c-1-0.7-2.1-1.2-3.3-2c-0.5,1.6-0.9,2.8-1.3,4C134.1,63.6,136.6,65.1,139.2,66.8z M118.4,46c1.6,2.5,3,4.9,4.5,7.2
		c0.1,0.2,0.6,0.4,0.9,0.4c1.1-0.3,2.2-0.7,3.4-1c-1.6-3.2-3.7-5.9-6.2-8.3C120.1,44.9,119.3,45.4,118.4,46z M1.7,204.3
		c-1.6-2.5-3-4.8-4.4-7.1c-0.2-0.2-0.6-0.5-0.8-0.4c-1.1,0.3-2.3,0.7-3.5,1c1.5,3.1,3.4,5.7,5.8,7.9c0.2,0.2,0.6,0.2,0.8,0.1
		C0.3,205.3,1,204.8,1.7,204.3z M132.7,192.3c3.1-1.5,5.6-3.5,7.9-5.8c0.2-0.2,0.2-0.6,0.1-0.7c-0.5-0.8-1-1.6-1.5-2.3
		c-2.5,1.6-4.9,3-7.2,4.5c-0.2,0.1-0.4,0.5-0.4,0.8C131.9,189.9,132.3,191,132.7,192.3z M-0.9,44.2c-2.6,2.5-4.6,5.1-6.2,8.3
		c1.3,0.4,2.4,0.8,3.5,1c0.2,0.1,0.7-0.1,0.8-0.3c1.5-2.4,3-4.7,4.5-7.3C0.9,45.4,0,44.8-0.9,44.2z M118.4,204.3
		c0.9,0.6,1.7,1.2,2.6,1.7c2.6-2.4,4.6-5.1,6.2-8.3c-1.2-0.4-2.3-0.7-3.4-1c-0.3-0.1-0.7,0.1-0.9,0.4
		C121.4,199.4,120,201.8,118.4,204.3z M-38.8,121.3c1.2-0.6,2.2-1.1,3.2-1.7c0.2-0.1,0.4-0.6,0.4-0.8c-0.6-2.8-1.3-5.5-1.9-8.4
		c-0.8,0.2-1.5,0.3-2.2,0.4s-0.9,0.4-0.9,1.1C-40.3,115-39.9,118.1-38.8,121.3z M-38.8,129c-1.1,3.2-1.6,6.4-1.5,9.6
		c0,0.2,0.3,0.6,0.5,0.7c0.9,0.2,1.7,0.4,2.6,0.5c0.7-2.8,1.3-5.5,1.9-8.1c0.1-0.3-0.1-0.9-0.3-1C-36.6,130.1-37.6,129.6-38.8,129z
		 M56.2,26.3c-3.2-1.1-6.4-1.6-9.6-1.5c-0.2,0-0.6,0.2-0.6,0.4c-0.2,0.9-0.4,1.8-0.6,2.7c2.9,0.7,5.5,1.3,8.2,1.9
		c0.3,0.1,0.9-0.1,1-0.4C55.1,28.4,55.6,27.4,56.2,26.3z M74.8,27.9c-0.2-0.9-0.3-1.7-0.5-2.6c-0.1-0.2-0.4-0.5-0.6-0.5
		c-3.3-0.1-6.5,0.3-9.7,1.5c0.6,1.1,1,2.1,1.6,3.1c0.2,0.3,0.7,0.5,1,0.4C69.2,29.2,71.9,28.6,74.8,27.9z M56.8,54.5
		c0.1,0.6,0.3,1.1,0.1,1.3c-0.7,0.8-1.6,0.3-2.6,0.3c1.2,1,2.5,1.8,3.8,2.7c1.3,1,2.6,1,3.9,0c1.2-0.9,2.5-1.7,3.8-2.5
		c0-0.1-0.1-0.2-0.1-0.3c-1,0.4-2,0.6-2.7-0.5c0.1-0.2,0.2-0.5,0.4-0.7c-0.6,0.1-1,0.3-1.4,0.6c-1.3,1.2-2.6,1.2-3.9,0
		C57.8,55.1,57.3,54.8,56.8,54.5z M54.3,193.9c0.1,0.1,0.1,0.2,0.2,0.3c0.6-0.1,1.3-0.4,1.8-0.2c0.4,0.2,0.5,0.9,0.8,1.6
		c-0.2,0-0.2,0-0.1,0c2.1-1.9,4.1-2,6.2,0c0,0,0.1,0,0.3-0.1c-0.1-0.2-0.2-0.5-0.3-0.7c0.6-1.1,1.6-0.9,2.7-0.7
		c-1.7-1.3-3.5-2.4-5.3-3.4c-0.2-0.1-0.6-0.1-0.8,0C57.9,191.7,56.1,192.8,54.3,193.9z M129.1,119.6c-0.1-0.1-0.2-0.2-0.3-0.2
		c-1.1,1.8-2.2,3.6-3.3,5.5c-0.1,0.2-0.1,0.4,0,0.6c1.1,1.9,2.2,3.7,3.3,5.5c0.1-0.1,0.3-0.1,0.4-0.2c-0.1-0.6-0.3-1.1-0.4-1.9
		c0.5-0.2,1.1-0.4,1.7-0.7c-0.4-0.6-0.8-1.3-1.3-2.1c-0.5-0.7-0.5-1.2,0-1.9c0.5-0.7,0.9-1.5,1.4-2.2c-1,1-1.1-0.6-1.7-0.6
		C129,120.8,129.1,120.2,129.1,119.6z M-8.9,131c0.9-1.4,1.6-2.6,2.5-3.8c1.1-1.4,1-2.7,0-4.1c-0.9-1.2-1.7-2.5-2.5-3.7
		c0.1,2.5-0.2,3-1.7,2.5c0.5,0.8,0.9,1.6,1.4,2.3c0.5,0.7,0.5,1.3,0,2s-0.9,1.5-1.3,2.2c0.5,0,1-0.1,1.3,0.1
		C-7.9,129.1-9.4,130-8.9,131z M110.9,78.9c0.4-0.5,0.8-0.9,1.3-1.4c-0.8-0.2-1.6-0.5-2.4-0.6c-0.9-0.1-1.3-0.6-1.4-1.4
		c-0.1-0.9-0.4-1.7-0.7-2.8c-0.3,0.7-0.5,1.2-0.7,1.7c-0.8-0.7-1.4-1.4-2.1-2c0.2,2.1,0.7,4.1,1.3,6.1c0,0.2,0.2,0.4,0.4,0.5
		c2.1,0.5,4.2,1.1,6.2,1.6c0-0.1,0.1-0.3,0.1-0.4C112.2,79.8,111.6,79.4,110.9,78.9z M12.5,72.7c-0.3,1.2-0.5,2-0.7,2.8
		c-0.1,0.8-0.5,1.2-1.3,1.4c-0.9,0.1-1.7,0.4-2.9,0.7c0.7,0.3,1.1,0.4,1.2,0.5c0.1,0.5,0.1,0.7,0.1,1c-0.5,0.3-1.1,0.7-1.8,1.1
		c0,0.1,0.1,0.2,0.1,0.3c1.4-0.3,2.8-0.7,4.2-0.8c1.9-0.2,2.9-1.2,3.1-3.1c0.2-1.4,0.5-2.7,0.8-4.1c-0.1,0-0.3-0.1-0.4-0.1
		c-0.5,0.9-0.9,1.8-1.3,2.6c0-0.3,0.1-0.7,0.1-1.3c-0.3,0.3-0.5,0.4-0.7,0.6C12.9,73.8,12.8,73.4,12.5,72.7z M7.9,172.5
		c0,0.1,0,0.2,0,0.3c0.5,0.1,1.1,0.3,1.6,0.3c1.5,0.1,2.4,0.9,2.5,2.5c0,0.6,0.2,1.1,0.4,1.7c0.4-0.5,0.2-1.5,1.4-0.9
		c0-0.4-0.1-0.8-0.1-1.1c0.4,0.9,0.9,1.7,1.4,2.6c0.1,0,0.2-0.1,0.3-0.1c-0.2-2.1-0.7-4.2-1.4-6.3c0-0.1-0.1-0.2-0.2-0.3
		c-2.1-0.6-4.2-1.1-6.3-1.6c0,0.1-0.1,0.3-0.1,0.4c0.5,0.3,1,0.5,1.4,0.9c0.3,0.2,0.4,0.6,0.5,1c0,0.1-0.4,0.3-0.6,0.4
		C8.3,172.4,8.1,172.4,7.9,172.5z M107.4,177.3c0.1,0,0.2,0,0.3,0c0.2-0.9,0.5-1.7,0.6-2.6c0.1-0.8,0.6-1.2,1.4-1.3
		c0.9-0.1,1.7-0.4,2.9-0.7c-0.7-0.3-1.2-0.5-1.8-0.7c0.7-0.7,1.3-1.4,2-2c0,0,0-0.1-0.1-0.1c-2,0.4-4,0.9-6,1.3
		c-0.2,0.1-0.5,0.4-0.5,0.6c-0.5,1.9-0.9,3.8-1.3,5.7c0,0.1,0.1,0.3,0.2,0.7c0.6-1.1,1-1.9,1.4-2.8c0,0.3,0,0.7,0.1,1.1
		c0.2-0.1,0.3-0.3,0.3-0.4h0.1C107.1,176.4,107.3,176.8,107.4,177.3z M152.9,150.8c-2.1,0.8-4,1.5-6,0.5c0.4,1.7,0.7,3.3,1.2,5.2
		c1.2-0.5,2.5-0.9,3.7-1.4c0.2-0.1,0.3-0.4,0.4-0.6C152.4,153.4,152.6,152.2,152.9,150.8z M85.8,217.8c3.9,0,5.2-1.1,5.4-4.7
		c-1.7-0.4-3.3-0.7-5-1.1C87,213.9,86.9,214.7,85.8,217.8z M-6.7,163.3c-0.6-3.7-3.3-5.7-5.8-4.2c0,1.6,0,3.2,0,4.9
		C-10.7,162.7-8.7,162.8-6.7,163.3z M143.8,77.6c-0.7,2.3-1.7,3.9-3.7,4.7c1.5,0.9,2.9,1.8,4.5,2.8c0.5-1.1,1.1-2.1,1.6-3.2
		c0.1-0.3,0.1-0.7,0-0.9C145.4,79.8,144.6,78.8,143.8,77.6z M21.2,197.6c1.7,0,3.4,0,5.4,0c-0.2-1.3-0.3-2.5-0.5-3.8
		c0-0.3-0.3-0.6-0.6-0.7c-1.1-0.5-2.3-0.9-3.6-1.5C22.3,193.9,22.6,195.9,21.2,197.6z M91.5,37.1c-0.4-1.1-0.8-2.3-1.2-3.5
		c-0.1-0.3-0.4-0.5-0.7-0.6c-1.2-0.3-2.4-0.5-3.8-0.8c0.9,2.1,1.5,4,0.6,6C88,37.9,89.6,37.5,91.5,37.1z M126.7,87
		c1.1,4,2.5,5.1,5.7,4.3c0-0.8,0-1.7,0-2.5s0.1-1.7,0.2-2.6C130.5,87.4,130.2,87.5,126.7,87z M100.2,209.4c2.4,2.3,5.2,2.1,7.1-0.6
		c-1.9-0.7-3.6-1.6-4.3-3.7C102,206.5,101.1,208,100.2,209.4z M-19.9,82.3c-2.1-0.7-3-2.5-3.8-4.5c-2.8,3-2.9,4.6-0.6,7.2
		C-22.8,84.1-21.4,83.2-19.9,82.3z M-27.9,156.3c0.4-1.6,0.7-3.3,1.1-5c-2,1-3.9,0.3-5.8-0.5C-32.5,155-31.4,156.1-27.9,156.3z
		 M132.5,164c0-1.7,0-3.4,0-5.1c-3.4-0.6-5.5,1-5.7,4.4C128.9,162.8,130.8,162.7,132.5,164z M-6.4,86.9c-2.3,0.6-4.3,0.7-6-0.6
		c0,1.8,0,3.4,0,5.3c1.3-0.2,2.5-0.3,3.6-0.5c0.3-0.1,0.7-0.3,0.9-0.6C-7.4,89.4-7,88.3-6.4,86.9z M17.1,205
		c-0.7,2.2-2.5,3.1-4.4,3.8c2.9,2.8,5,2.9,7.2,0.5C19,208,18.1,206.6,17.1,205z M17.2,45.2c1-1.5,1.8-2.9,2.8-4.5
		c-1.1-0.5-2.2-1.1-3.4-1.6C16.4,39,16,39,15.8,39.2c-1.1,0.7-2.1,1.4-3.3,2.2C14.6,42.1,16.4,43,17.2,45.2z M36.4,203.4
		c0.2-1.9,1.8-3,3.5-4.2c-3.3-2.1-5.6-1.8-7,0.8C34.1,201.3,35.3,202.4,36.4,203.4z M98.9,52.6c-1.7,0-3.4,0-5,0
		c-0.8,3.3,1.1,5.7,4.3,5.6C97.7,56.3,97.6,54.4,98.9,52.6z M87.4,200c-0.9-0.7-1.9-1.5-2.9-2.2c-0.2-0.1-0.5-0.2-0.7-0.1
		c-1.2,0.5-2.4,1-3.8,1.6c1.9,1.2,3.5,2.4,3.7,4.2C84.8,202.4,86,201.2,87.4,200z M87.3,50.2c-1.3-1.2-2.5-2.3-3.6-3.3
		c-0.2,1.8-1.8,2.9-3.5,4.1C83.8,53.1,85.1,52.9,87.3,50.2z M36.4,46.9c-1.1,1-2.4,2.2-3.7,3.4c0.9,0.7,1.7,1.4,2.7,2.1
		c0.3,0.2,0.7,0.3,1,0.2c1.2-0.4,2.3-1,3.6-1.5C36.9,48.6,36.7,48.4,36.4,46.9z M-14.1,105c2.1-3.8,1.8-5.6-0.8-7
		c-1.2,1.3-2.4,2.4-3.4,3.5C-16.4,101.6-15.2,103.2-14.1,105z M144.3,165.3c-1.5,0.9-2.9,1.8-4.3,2.7c2,0.9,2.5,1.6,3.7,4.4
		C146.5,170,146.7,167.8,144.3,165.3z M-27.8,94c-3.6,0.1-5.1,1.9-4.7,5.5c1.8-0.9,3.7-1.4,5.8-0.4c-0.3-0.9-0.6-1.7-0.7-2.5
		C-27.6,95.7-27.7,94.8-27.8,94z M21.9,58.4c3.7-0.6,5.1-2.4,4.3-5.7c-1.6,0-3.3,0-5.1,0C22.6,54.4,22.4,56.4,21.9,58.4z
		 M93.9,197.6c1.7,0,3.4,0,5.1,0c-1.3-1.8-1.2-3.7-0.7-5.8C94.4,192.6,93.2,194.2,93.9,197.6z M28.9,37.1c1.7,0.4,3.3,0.7,5,1.1
		c-1-2-0.3-3.9,0.5-5.8C30.5,32.4,29.2,33.5,28.9,37.1z M134.9,97.8c-0.7,0.9-1.5,1.9-2.2,2.9c-0.1,0.2-0.2,0.5-0.1,0.7
		c0.5,1.2,1,2.4,1.6,3.8c1.2-2,2.5-3.5,4.2-3.7C137.3,100.3,136.2,99.2,134.9,97.8z M135,152.3c1.2-1.3,2.4-2.5,3.4-3.5
		c-1.8-0.2-3-1.8-4.1-3.5C132,148.5,132.2,150,135,152.3z M103,45.2c0.7-2.2,2.5-3,4.4-3.8c-2.9-2.8-4.8-2.9-7.2-0.5
		C101.1,42.3,102,43.7,103,45.2z M152.7,99.4c0-3.9-1.4-5.5-4.7-5.4c-0.4,1.6-0.7,3.2-1.1,4.9C149,98,150.9,98.6,152.7,99.4z
		 M-14.8,152.5c0.7-0.9,1.5-1.9,2.3-2.9c0.1-0.2,0.2-0.6,0.1-0.8c-0.4-1.2-0.9-2.3-1.5-3.7c-1.2,1.9-2.4,3.5-4.2,3.7
		C-17.2,149.9-16.1,151.1-14.8,152.5z M-23.7,172.7c0.7-2.2,1.7-3.9,3.8-4.7c-1.5-0.9-2.9-1.8-4.5-2.8c-0.5,1.1-1.1,2.2-1.6,3.3
		c-0.1,0.3-0.1,0.7,0.1,0.9C-25.2,170.5-24.5,171.5-23.7,172.7z M33.9,212c-1.8,0.4-3.4,0.8-5,1.1c0.6,3.9,1.8,4.8,5.4,4.6
		C33.2,214.4,33.1,213.9,33.9,212z M129.1,70.9c0.2-1.6,0.4-3.1,0.5-4.6c-0.6,0-1.2,0.1-1.6-0.1c-0.4-0.2-0.6-0.8-0.9-1.3
		c-0.2,0.5-0.4,0.9-0.5,1.3c-0.5-0.1-1-0.2-1.5-0.2c0.4,0.8,0.7,1.4,1,2c-0.4,0.3-0.8,0.5-1.3,0.8C126.3,69.5,127.6,70.2,129.1,70.9
		z M-9,179.3c-0.2,1.6-0.3,3.1-0.5,4.8c0.5-0.2,0.9-0.4,1.4-0.6c0.4,0.6,0.7,1.2,1.1,1.8c0.2-0.5,0.3-1,0.5-1.4
		c0.5,0.1,1,0.2,1.4,0.3c-1-1-1.1-1.9,0.3-2.8C-6.2,180.7-7.5,180-9,179.3z M118.5,57c0.2-0.6,0.3-0.9,0.5-1.5
		c-1.7,0.2-3.1,0.3-4.8,0.5c0.7,1.5,1.4,2.8,2.2,4.3c0.9-1.4,1.8-1.2,2.9,0.1c-0.2-0.9-0.3-1.4-0.4-1.8c0.5-0.2,0.9-0.3,1.4-0.4
		C119.6,57.7,119,57.4,118.5,57z M-0.2,58.1c0.6,0.2,1,0.3,1.5,0.5c-0.1,0.5-0.2,0.9-0.4,1.5c0.8-0.4,1.5-0.8,2-1.1
		c0.3,0.4,0.5,0.8,0.8,1.3c0.8-1.5,1.4-2.9,2.2-4.3c-1.7-0.2-3.1-0.3-4.6-0.5C1.6,57.2,1.6,57.2-0.2,58.1z M128.2,183.5
		c0.5,0.2,0.9,0.3,1.5,0.5c-0.2-1.7-0.4-3.1-0.5-4.7c-1.4,0.7-2.8,1.4-4.3,2.2c1.6,0.8,1.1,1.8,0.1,2.9c0.7-0.2,1.2-0.4,1.6-0.5
		c0.2,0.5,0.3,0.9,0.5,1.4C127.5,184.7,127.9,184.1,128.2,183.5z M-5,65.9c-0.6,0.2-1,0.3-1.5,0.5C-6.7,65.9-6.8,65.5-7,65
		c-0.4,0.7-0.8,1.3-1.1,1.8c-0.5-0.2-0.9-0.3-1.4-0.5c0.2,1.6,0.3,3.1,0.5,4.8c1.4-0.7,2.8-1.4,4.3-2.2c-0.5-0.3-0.9-0.6-1.3-0.8
		C-5.7,67.3-5.4,66.7-5,65.9z M2.9,191.2c-0.6-0.3-1.2-0.6-2-1c0.1,0.5,0.3,1,0.4,1.4c-0.5,0.2-0.9,0.3-1.4,0.5
		c0.7,0.4,1.3,0.8,1.9,1.1c-0.2,0.5-0.4,0.9-0.6,1.5c1.7-0.2,3.2-0.4,4.8-0.6c-0.8-1.5-1.4-2.8-2.2-4.2
		C3.4,190.4,3.1,190.8,2.9,191.2z M114.3,194.2c1.6,0.2,3.1,0.3,4.8,0.5c-0.2-0.6-0.4-1-0.5-1.4c0.5-0.3,1.1-0.7,1.8-1.1
		c-0.5-0.2-1-0.3-1.4-0.5c0.1-0.5,0.2-0.9,0.4-1.3c-1.1,1-2,0.8-2.9-0.3C115.6,191.4,115,192.7,114.3,194.2z M147.3,131.4
		c-0.6-0.1-1-0.2-1.7-0.4c0.6,1.7,1,3.1,1.5,4.6c1.3-1,2.4-2,3.7-3c-1.6-0.5-1.4-1.5-0.7-2.9c-0.7,0.4-1,0.6-1.5,0.8
		c-0.3-0.4-0.5-0.9-0.8-1.3C147.7,130.1,147.5,130.8,147.3,131.4z M55.4,215.3c-0.4-0.7-0.6-1.1-0.8-1.5c0.4-0.3,0.8-0.5,1.4-0.8
		c-0.9-0.2-1.6-0.4-2.2-0.6c0.1-0.5,0.2-1,0.4-1.6c-1.7,0.5-3.1,1-4.6,1.5c1,1.3,2,2.5,3.1,3.8C53.1,214.1,54.1,214.7,55.4,215.3z
		 M-25.6,119.1c-0.5-1.5-1-2.9-1.5-4.4c-1.3,1.1-2.5,2-3.8,3c0.6,0.2,1.1,0.3,1.5,0.5c-0.2,0.7-0.4,1.4-0.6,2.2
		c0.5-0.3,0.9-0.5,1.4-0.7c0.3,0.5,0.5,0.9,0.8,1.4C-27.5,119-27.5,119-25.6,119.1z M66.1,39.4c1.4-0.5,2.9-0.9,4.4-1.5
		c-1-1.3-2-2.5-3-3.8c-0.4,2-1.5,1.3-2.7,0.8c0.3,0.6,0.5,1,0.8,1.5c-0.5,0.3-0.9,0.5-1.4,0.9C66.1,37.6,66.1,37.6,66.1,39.4z
		 M64.1,213c0.6,0.3,1,0.6,1.4,0.8c-0.2,0.5-0.4,0.9-0.6,1.3c1.3-0.8,2.2-0.5,2.7,0.9c1-1.3,1.9-2.4,2.9-3.7c-1.5-0.5-3-1-4.6-1.5
		c0.1,0.6,0.2,1.1,0.4,1.7C65.7,212.6,65,212.7,64.1,213z M-27.1,135.6c0.5-1.6,1-3,1.5-4.6c-1.8,0.6-2.1-0.4-2.1-2
		c-0.4,0.8-0.6,1.2-0.9,1.6c-0.5-0.2-0.9-0.5-1.3-0.7c0.1,0.6,0.4,1.2,0.2,1.6c-0.1,0.5-0.6,0.8-1,1.2
		C-29.5,133.7-28.4,134.6-27.1,135.6z M150.1,120.4c-0.6-1.2-1-2.4,0.8-2.8c-1.3-1-2.4-1.9-3.7-3c-0.5,1.5-1,3-1.5,4.6
		c0.7-0.2,1.1-0.3,1.7-0.4c0.2,0.7,0.3,1.3,0.6,2.2c0.3-0.5,0.5-0.9,0.8-1.4C149.1,119.9,149.5,120.1,150.1,120.4z M49.6,38
		c1.5,0.5,3,1,4.6,1.5c-0.2-0.7-0.3-1.2-0.4-1.7c0.7-0.2,1.4-0.3,2.3-0.6c-0.6-0.3-1-0.6-1.4-0.8c0.3-0.5,0.5-0.9,0.7-1.4
		c-0.9,0.3-1.6,0.5-2.2,0.6c-0.2-0.5-0.3-0.9-0.5-1.5C51.5,35.6,50.6,36.7,49.6,38z M38.5,208c-0.2,0.6-0.4,1.2-0.5,1.7
		c1,0.6,2.1,1.2,3.3,1.9c0.3-1.1,0.7-2.3,1-3.4C40.9,208.2,39.6,208.1,38.5,208z M134.5,173c0.4-1.4,0.7-2.6,1-3.6
		c-0.5-0.4-1.1-0.7-1.5-1c-0.8,0.9-1.7,1.9-2.7,2.9C132.3,171.8,133.5,172.4,134.5,173z M143.2,107.4c1.1-0.3,2.3-0.7,3.4-1
		c-0.7-1.2-1.3-2.3-1.9-3.3c-0.6,0.2-1.2,0.3-1.7,0.5C143,104.7,143.1,105.9,143.2,107.4z M137.3,164.1c1.5-0.8,2.6-1.4,3.7-1.9
		c0-0.2,0-0.3,0-0.5c-1.2-0.7-2.4-1.3-3.6-2c-0.1,0.1-0.3,0.2-0.4,0.3C137,161.3,137.1,162.6,137.3,164.1z M23.6,44.2
		c-0.2,0-0.4,0-0.6,0.1c-0.6,1.1-1.2,2.2-2,3.6c1.6,0.2,2.9,0.3,4.1,0.4c0.1-0.2,0.2-0.3,0.3-0.5C24.8,46.6,24.2,45.4,23.6,44.2z
		 M38.5,42.2c1.1-0.1,2.4-0.2,3.8-0.2c-0.3-1.1-0.7-2.3-1-3.4c-1.2,0.7-2.3,1.3-3.3,1.9C38.1,41.1,38.3,41.6,38.5,42.2z
		 M-26.4,106.3c1.1,0.3,2.3,0.7,3.3,1c0.1-1.5,0.2-2.8,0.3-3.8c-0.6-0.2-1.2-0.4-1.7-0.5C-25.1,104-25.7,105.1-26.4,106.3z
		 M-17.3,90.5c0.2-0.1,0.3-0.2,0.5-0.3c-0.1-1.3-0.3-2.5-0.4-4.1c-1.4,0.8-2.5,1.4-3.6,2c0,0.1,0,0.3,0,0.4
		C-19.6,89.2-18.4,89.9-17.3,90.5z M25.4,202.5c-0.1-0.2-0.2-0.3-0.3-0.5c-1.2,0.1-2.5,0.2-4.1,0.4c0.8,1.4,1.4,2.5,2.1,3.6
		c0.2,0,0.3,0,0.5,0C24.2,204.8,24.8,203.6,25.4,202.5z M78.8,38.6c-0.3,1.1-0.7,2.3-1,3.4c1.5,0.1,2.7,0.2,3.8,0.2
		c0.2-0.6,0.4-1.2,0.5-1.7C81.1,40,80,39.3,78.8,38.6z M106.3,196.5c-1.1,0.9-2,1.8-2.8,2.5c0.3,0.6,0.6,1.1,0.8,1.6
		c1.1-0.3,2.4-0.6,3.7-1C107.4,198.6,106.8,197.5,106.3,196.5z M-14.4,173c1-0.5,2.1-1.2,3.1-1.7c-0.9-1.1-1.8-2-2.5-2.9
		c-0.5,0.3-1.1,0.6-1.5,0.9C-15,170.5-14.7,171.6-14.4,173z M77.8,208.2c0.3,1.1,0.7,2.3,1,3.4c1.2-0.7,2.4-1.3,3.4-1.9
		c-0.2-0.5-0.4-1.1-0.6-1.7C80.5,208.1,79.3,208.2,77.8,208.2z M-23,142.9c-1.1,0.3-2.3,0.7-3.4,1c0.7,1.2,1.3,2.3,1.9,3.3
		c0.6-0.2,1.2-0.4,1.7-0.5C-22.9,145.6-23,144.3-23,142.9z M146.6,143.9c-1.1-0.3-2.3-0.7-3.4-1c-0.1,1.4-0.2,2.7-0.2,3.8
		c0.6,0.2,1.2,0.4,1.7,0.5C145.2,146.2,145.9,145.1,146.6,143.9z M137.3,86.1c-0.1,1.6-0.2,2.9-0.3,4.2c0.2,0.1,0.3,0.1,0.5,0.2
		c1.2-0.7,2.4-1.3,3.5-2c0-0.2,0-0.3,0-0.5C139.8,87.5,138.7,86.9,137.3,86.1z M13.9,196.5c-0.6,1-1.2,2.1-1.7,3.1
		c1.3,0.3,2.6,0.7,3.7,0.9c0.3-0.5,0.7-1.1,0.9-1.5C15.8,198.2,14.9,197.4,13.9,196.5z M13.8,53.9c1.1-1,2.1-1.9,3.2-2.8
		c-1,0.1-1-0.7-1-1.4c-1.3,0.3-2.5,0.6-3.8,1C12.7,51.7,13.3,52.9,13.8,53.9z M-16.8,160.1c-0.2-0.1-0.3-0.2-0.5-0.3
		c-1.2,0.7-2.4,1.3-3.6,2c0,0.1,0,0.3,0.1,0.4c1.1,0.6,2.2,1.2,3.6,1.9C-17,162.5-16.9,161.3-16.8,160.1z M135.4,80.9
		c-0.3-1.1-0.6-2.3-0.9-3.6c-1,0.6-2.1,1.2-3.1,1.7c0.9,1.1,1.8,2,2.5,2.9C134.4,81.5,134.9,81.2,135.4,80.9z M107.9,50.7
		c-1.4-0.4-2.6-0.7-3.7-1c-0.3,0.5-0.6,1.1-0.9,1.5c0.9,0.8,1.8,1.6,2.9,2.6C106.8,52.8,107.4,51.7,107.9,50.7z M90.2,204.2
		c-0.2,0-0.4-0.1-0.6-0.1c-0.7,1-1.4,2-2.1,3.1c1.1,0.4,2.1,0.8,3.2,1.2c0.1,0,0.3,0,0.7-0.1C91,206.8,90.6,205.5,90.2,204.2z
		 M-15.3,80.9c0.6,0.3,1.1,0.7,1.5,0.9c0.8-0.9,1.7-1.9,2.6-2.9c-1-0.6-2.1-1.1-3.1-1.7C-14.7,78.6-15,79.8-15.3,80.9z M97.1,44.3
		c-0.2,0-0.3,0-0.5-0.1c-0.6,1.2-1.3,2.4-1.9,3.7c0.1,0.1,0.2,0.3,0.3,0.4c1.3-0.1,2.5-0.3,4-0.5C98.3,46.4,97.7,45.4,97.1,44.3z
		 M139.1,154.8c0,0.2,0,0.4,0,0.5c1.3,0.4,2.6,0.8,4,1.2c0.1-0.1,0.2-0.3,0.3-0.4c-0.4-1.2-0.8-2.4-1.2-3.9
		C141,153.2,140.1,154,139.1,154.8z M96.6,206c0.2,0,0.3,0,0.5,0c0.6-1.1,1.2-2.2,2-3.7c-1.6-0.1-2.9-0.2-4.2-0.3
		c-0.1,0.1-0.2,0.3-0.2,0.4C95.3,203.6,96,204.8,96.6,206z M-22.1,98.1c1.3-1.1,2.2-1.9,3.3-2.9c-1.6-0.8-2.8-1.4-4.5-1.2
		C-22.9,95.4-22.6,96.5-22.1,98.1z M87.1,43c1.1,1.2,1.9,2.2,2.7,3.1c0.2,0,0.3-0.1,0.5-0.1c0.4-1.3,0.8-2.6,1.1-3.9
		c-0.1-0.1-0.2-0.2-0.4-0.3C89.8,42.1,88.6,42.5,87.1,43z M-23.3,156.1c0.1,0.1,0.2,0.3,0.4,0.4c1.3-0.4,2.6-0.8,3.9-1.2
		c0-0.2,0-0.3,0-0.5c-0.9-0.8-1.9-1.6-3.1-2.6C-22.6,153.7-22.9,154.9-23.3,156.1z M29.9,46c0.2,0,0.3,0.1,0.5,0.1
		c0.8-1,1.7-1.9,2.7-3.2c-1.6-0.5-2.7-0.8-3.9-1.1c-0.1,0.1-0.2,0.2-0.4,0.3C29.1,43.4,29.5,44.7,29.9,46z M139.2,95
		c0,0.2,0,0.4-0.1,0.5c1,0.8,1.9,1.6,3.1,2.6c0.4-1.5,0.8-2.7,1.1-3.9c-0.1-0.1-0.2-0.2-0.4-0.3C141.8,94.2,140.5,94.6,139.2,95z
		 M28.7,208.2c0.1,0.1,0.3,0.2,0.4,0.3c1.2-0.4,2.4-0.8,3.9-1.2c-1.1-1.2-1.9-2.2-2.7-3.1c-0.2,0-0.3,0.1-0.5,0.1
		C29.5,205.6,29.1,206.9,28.7,208.2z M8.2,173.8c0,2.9,0.3,3.3,3.1,3.2C11.2,174.6,10.8,174.1,8.2,173.8z M8.2,76.4
		c2.6-0.2,3.3-1,3.1-3.2C8.2,73.4,8.2,73.4,8.2,76.4z M108.8,73.2c0.1,2.5,0.8,3.2,3.1,3.2C112,73.5,111.9,73.4,108.8,73.2z
		 M57.8,196.3c2.6,2.2,1.8,2.2,4.4,0C60.6,194.6,59.6,194.6,57.8,196.3z M-11,122.9c-2.1,2.1-2.1,3,0,4.5
		C-9.5,125.2-9.5,125.1-11,122.9z M108.8,177c2.8,0.1,3.5-0.6,3-3.2C109.4,174.2,108.9,174.6,108.8,177z M131.2,122.8
		c-1.7,2.1-1.7,3,0.1,4.5C133.4,124.6,133.4,125.7,131.2,122.8z M62.3,54c-2.3-2-2.8-2-4.5,0.1C59.8,55.6,60.4,55.6,62.3,54z
		 M-37.4,100.7c-0.1-0.1-0.3-0.1-0.4-0.2c-0.7,1.8-1.3,3.7-2.1,5.8c1.1-0.2,1.8-0.3,2.5-0.5C-37.4,104-37.4,102.3-37.4,100.7z
		 M133.7,113c-0.9-1.5-1.9-3-2.8-4.4c-0.1,0-0.3,0.1-0.4,0.1c0.4,1.9,0.9,3.8,1.3,5.9C132.6,114,133.1,113.5,133.7,113z M16.7,185.7
		c1.7,0.4,3.4,0.8,5,1.2c0.1-0.1,0.1-0.2,0.2-0.3c-1.7-1.1-3.3-2.1-5.2-3.3C16.7,184.3,16.7,184.9,16.7,185.7z M131.8,135.5
		c-0.5,2.2-0.9,4.1-1.3,5.9c0.1,0,0.3,0.1,0.4,0.1c0.9-1.4,1.8-2.9,2.7-4.4C133.1,136.7,132.7,136.3,131.8,135.5z M84.5,223
		c0-0.1-0.1-0.2-0.1-0.4c-1.1,0-2.2,0-3.3,0c-2,0-2.1,0.1-1.9,2.4C81,224.3,82.8,223.7,84.5,223z M121.5,86.9
		c0.1-0.1,0.3-0.1,0.4-0.2c-0.4-1.7-0.8-3.4-1.2-5.1c-0.8,0-1.4,0.1-2.4,0.1C119.4,83.6,120.4,85.3,121.5,86.9z M43.7,195.6
		c0,0.1-0.1,0.3-0.1,0.4c1.5,0.9,2.9,1.8,4.4,2.7c0.5-0.5,1-1,1.7-1.8C47.4,196.4,45.6,196,43.7,195.6z M-0.5,168.5
		c0.8,0,1.4,0,2.5,0c-1.2-1.9-2.2-3.5-3.3-5.1c-0.1,0.1-0.2,0.1-0.4,0.2C-1.3,165.3-0.9,166.9-0.5,168.5z M142.7,69.8
		c1.3,1.4,2.5,2.6,3.7,3.9c0.1-0.1,0.2-0.1,0.3-0.2c-0.8-1.8-1.7-3.6-2.6-5.7C143.5,68.6,143.1,69.2,142.7,69.8z M40.8,222.7
		c-1.8,0-3.5,0-5.1,0c0,0.1-0.1,0.2-0.1,0.4c1.8,0.7,3.6,1.3,5.6,2.1C41,224.1,40.9,223.4,40.8,222.7z M2,81.7c-1.1,0-1.8,0-2.5,0
		c-0.4,1.7-0.8,3.3-1.1,5c0.1,0.1,0.3,0.1,0.4,0.2C-0.3,85.2,0.8,83.6,2,81.7z M159.9,144.3c-0.1-0.1-0.3-0.3-0.4-0.4
		c-0.6,0.3-1.8,0.6-1.8,1c-0.2,1.5-0.1,3.1-0.1,4.6c0.1,0,0.2,0.1,0.4,0.1C158.6,147.8,159.3,146.1,159.9,144.3z M157.9,100.6
		c-0.1,0-0.2,0.1-0.3,0.1c0,1.7,0,3.4,0,5.1c0.7,0.1,1.4,0.2,2.4,0.4C159.3,104.2,158.6,102.4,157.9,100.6z M-22.5,180.5
		c-1.3-1.2-2.6-2.3-4-3.5c0.8,1.7,1.6,3.5,2.5,5.5C-23.4,181.6-23,181.1-22.5,180.5z M146.6,177c-0.1-0.1-0.2-0.2-0.3-0.3
		c-1.2,1.3-2.4,2.5-3.6,3.8c0.4,0.6,0.8,1.1,1.4,2C145,180.4,145.8,178.7,146.6,177z M70.5,196.9c0.7,0.8,1.2,1.3,1.7,1.8
		c1.5-1,3-1.9,4.5-2.8c0-0.1-0.1-0.2-0.1-0.4C74.6,196,72.8,196.4,70.5,196.9z M16.6,66.5c0.1,0.1,0.2,0.2,0.3,0.3
		c1.6-1,3.2-2,4.9-3.1c-0.1-0.1-0.1-0.3-0.2-0.4c-1.7,0.4-3.3,0.8-5,1.1C16.6,65.2,16.6,65.9,16.6,66.5z M43.6,54.3
		c0,0.1,0.1,0.3,0.1,0.4c1.9-0.4,3.8-0.9,5.9-1.4c-0.7-0.8-1.2-1.3-1.7-1.8C46.5,52.5,45.1,53.4,43.6,54.3z M-10.4,108.8
		c-0.2,0-0.3-0.1-0.5-0.1c-0.9,1.5-1.8,2.9-2.7,4.4c0.6,0.5,1,1,1.8,1.6C-11.2,112.5-10.8,110.7-10.4,108.8z M121.8,163.5
		c-0.1-0.1-0.2-0.1-0.4-0.2c-1,1.7-2.1,3.3-3.2,5.2c1.1,0,1.8,0,2.4,0C121.1,166.8,121.5,165.1,121.8,163.5z M-39.9,144
		c0.8,2.1,1.5,3.9,2.1,5.6c0.1,0,0.2-0.1,0.3-0.1c0-1.7,0-3.3,0-5.1C-38.2,144.3-38.8,144.2-39.9,144z M103.5,183.3
		c-1.9,1.2-3.6,2.3-5.2,3.3c0.1,0.1,0.1,0.2,0.2,0.3c1.7-0.4,3.4-0.8,5-1.2C103.5,184.9,103.5,184.3,103.5,183.3z M103.2,66.8
		c0.2-0.1,0.3-0.2,0.5-0.3c-0.2-0.7-0.2-1.8-0.6-2c-1.5-0.5-3.1-0.8-4.6-1.1c-0.1,0.1-0.1,0.2-0.2,0.4
		C99.9,64.8,101.6,65.8,103.2,66.8z M111.8,38.6c-0.1,0.1-0.1,0.2-0.2,0.3c1.3,1.2,2.5,2.4,3.8,3.6c0.6-0.5,1.1-0.9,2-1.5
		C115.3,40.1,113.6,39.3,111.8,38.6z M79.3,27.6c1.8,0,3.5,0,5.1,0c0-0.1,0.1-0.2,0.1-0.4c-1.8-0.7-3.6-1.3-5.6-2.1
		C79.1,26.2,79.2,26.8,79.3,27.6z M111.7,211.3c0.1,0.1,0.1,0.2,0.2,0.4c1.8-0.8,3.5-1.6,5.6-2.6c-0.9-0.6-1.4-1-2-1.4
		C114.2,209,112.9,210.2,111.7,211.3z M35.6,27.2c0,0.1,0.1,0.2,0.1,0.3c1.7,0,3.4,0,5.1,0c0.1-0.7,0.2-1.4,0.4-2.4
		C39.1,25.9,37.4,26.6,35.6,27.2z M8.4,38.9c-0.1-0.1-0.1-0.2-0.2-0.4c-1.8,0.8-3.5,1.6-5.5,2.5c0.9,0.6,1.4,1,2,1.4
		C5.9,41.3,7.2,40.1,8.4,38.9z M-13.5,137.2c1,1.5,1.9,2.9,2.8,4.4c0.1-0.1,0.3-0.1,0.4-0.2c-0.4-1.9-0.8-3.7-1.3-5.8
		C-12.5,136.3-12.9,136.7-13.5,137.2z M8.3,211.7c0.1-0.1,0.1-0.2,0.2-0.3c-1.3-1.2-2.5-2.4-3.8-3.7c-0.6,0.4-1.1,0.8-2,1.4
		C4.8,210.1,6.5,210.9,8.3,211.7z M-26.5,73.3c0.1,0.1,0.2,0.1,0.4,0.2c1.2-1.2,2.4-2.5,3.6-3.8c-0.4-0.6-0.8-1.1-1.4-2
		C-24.9,69.8-25.7,71.6-26.5,73.3z M76.4,54.7c0-0.1,0.1-0.3,0.1-0.4c-1.4-0.9-2.9-1.8-4.4-2.7c-0.5,0.6-1,1.1-1.7,1.8
		C72.7,53.8,74.5,54.3,76.4,54.7z M24.6,215.8c-0.2-1.3-0.4-2.3-0.6-3.5c-1,0.7-1.9,1.3-3,2C22.3,214.8,23.4,215.3,24.6,215.8z
		 M-30.6,89.7c1.3-0.2,2.3-0.4,3.6-0.6c-0.7-1.1-1.3-1.9-2.1-3C-29.7,87.4-30.1,88.4-30.6,89.7z M147.2,89.1
		c1.2,0.2,2.3,0.4,3.6,0.6c-0.5-1.3-1-2.3-1.5-3.6C148.5,87.1,147.9,88,147.2,89.1z M150.8,160.5c-1.4,0.3-2.4,0.5-3.6,0.7
		c0.7,1.1,1.3,1.9,2,2.9C149.8,162.9,150.2,161.9,150.8,160.5z M99.1,36c-1.3-0.5-2.3-1-3.6-1.5c0.2,1.3,0.4,2.3,0.6,3.5
		C97.2,37.3,98,36.7,99.1,36z M96.1,212.2c-0.2,1.3-0.4,2.3-0.6,3.6c1.3-0.5,2.3-1,3.6-1.5C98.1,213.6,97.2,213,96.1,212.2z M21,36
		c1.1,0.8,2,1.3,3,2c0.2-1.3,0.4-2.3,0.6-3.5C23.4,35,22.3,35.4,21,36z M-29.1,164.2c0.8-1.1,1.4-2,2.1-3c-1.3-0.2-2.3-0.4-3.5-0.6
		C-30.1,161.8-29.7,162.9-29.1,164.2z M127.3,190.4c-1.3,0.1-1.9,0.7-2,2c0.9,0.3,1.8,0.6,2.9,0.9
		C127.8,192.1,127.5,191.2,127.3,190.4z M127.1,60.3c0.4-1.4,0.7-2.2,1-3.3c-1.1,0.4-2,0.6-3.4,1.1
		C125.7,58.9,126.3,59.5,127.1,60.3z M60.1,221.5c0.6-1.1,1-1.9,1.6-3.1c-1.2,0-2,0-3.2,0C59.1,219.6,59.5,220.4,60.1,221.5z
		 M153.3,126.8c1.3-0.7,2.1-1.1,3.1-1.6c-1-0.5-1.9-1-3.1-1.6C153.3,124.7,153.3,125.6,153.3,126.8z M-8,193.2
		c1.1-0.4,2-0.6,3.3-1.1c-0.9-0.8-1.5-1.5-2.3-2.3C-7.4,191.2-7.7,192.1-8,193.2z M-7,60.3c0.8-0.8,1.5-1.4,2.3-2.2
		C-6.1,57.7-7,57.4-8.1,57C-7.7,58.2-7.4,59-7,60.3z M-36.2,125.1c1,0.6,1.8,1,2.6,1.4c0.9-0.9,0.9-1.8,0-2.8
		C-34.4,124.2-35.2,124.6-36.2,125.1z M61.7,31.9c-0.7-1.2-1.1-2-1.6-3c-0.5,1.1-1,1.9-1.6,3C59.6,31.9,60.5,31.9,61.7,31.9z
		 M-0.3,66.6c0.1,0.1,0.2,0.2,0.3,0.3c1.6-0.2,1.6-0.2,1.9-1.9c-0.1-0.1-0.2-0.2-0.3-0.3C0.9,65.3,0.3,66-0.3,66.6z M-23.7,123.7
		c0,1,0,1.8,0,2.8C-22.6,125.6-22.7,124.7-23.7,123.7z M143.7,126.5c0-1,0-1.8,0-2.8C142.8,124.7,142.8,125.6,143.7,126.5z
		 M58.6,41.4c1.1,1,1.9,1.1,2.8,0C60.5,41.4,59.6,41.4,58.6,41.4z M58.7,208.8c1,0,1.8,0,2.8,0C60.5,207.9,59.7,207.8,58.7,208.8z
		 M120.3,67c-0.7-0.8-1.3-1.4-2-2.2C118.2,66.3,118.8,66.9,120.3,67z M1.9,185.5c0-1.6-0.7-2.2-2.2-2.2
		C0.5,184.1,1.1,184.7,1.9,185.5z M120.3,183.6c-1.8-0.1-2,0.1-1.9,1.6C119,184.7,119.7,184.1,120.3,183.6z M38.7,33.2
		c0.7,0.3,1.2,0.5,1.8,0.8c-0.1-0.6-0.1-1-0.2-1.6C39.8,32.7,39.4,32.9,38.7,33.2z M-17.1,108.2c-0.7,0.5-1.2,0.8-1.7,1.1
		c0.5,0.3,0.9,0.5,1.4,0.7C-17.3,109.4-17.2,109-17.1,108.2z M-6.9,80.6c0.2,0.7,0.3,1.2,0.5,1.9c0.4-0.6,0.7-1,1-1.5
		C-5.9,80.8-6.3,80.7-6.9,80.6z M15.6,58.2c0.1,0.5,0.2,0.9,0.4,1.5c0.5-0.4,0.9-0.7,1.5-1.1C16.7,58.5,16.2,58.4,15.6,58.2z"/>
	<path id="XMLID_90_" d="M61.6,4.2c2,1.3,3.8,2.4,5.7,3.5c-0.1,0.1-0.1,0.3-0.2,0.4c-1.5-0.8-3-1.7-4.5-2.5
		c-0.8,3.6-1.6,7.1-2.4,10.6c-0.1,0-0.2,0-0.2,0c-0.8-3.5-1.6-6.9-2.4-10.5c-2.8,1.2-5.4,2.9-7.5,5.3c2.3-2.8,5-5.1,8.5-6.5
		c0.5,3.2,0.9,6.4,1.3,9.5c0.1,0,0.3,0,0.4,0C60.7,10.8,61.1,7.7,61.6,4.2z"/>
	<path id="XMLID_89_" d="M179.6,127.7c-3.7-0.8-7.2-1.6-10.6-2.4c0-0.1,0-0.2,0-0.3c3.5-0.8,7-1.6,10.6-2.4
		c-1.3-2.9-3.1-5.6-5.6-7.8c3,2.3,5.3,5.1,6.9,8.8c-3.3,0.5-6.4,0.9-9.5,1.3c0,0.1,0,0.3,0,0.4c3.1,0.4,6.2,0.9,9.5,1.3
		c-1,2.7-2.7,4.8-4.7,6.8C177.3,131.5,178.5,129.6,179.6,127.7z"/>
	<path id="XMLID_88_" d="M-51.2,124.9c-3.1-0.4-6.2-0.9-9.6-1.3c1.2-2,2.4-3.8,3.5-5.6c0.1,0.1,0.3,0.2,0.4,0.2
		c-0.8,1.5-1.7,3-2.5,4.4c3.6,0.8,7.1,1.6,10.5,2.3c0,0.1,0,0.2,0,0.3c-3.5,0.8-6.9,1.6-10.5,2.4c1.2,2.9,3,5.6,5.5,7.8
		c-3-2.3-5.3-5.1-6.8-8.8c3.3-0.5,6.4-0.9,9.5-1.3C-51.2,125.2-51.2,125.1-51.2,124.9z"/>
	<path id="XMLID_87_" d="M49.8,239c2.2,2.5,4.9,4.3,7.8,5.6c0.8-3.6,1.6-7.1,2.4-10.6c0.1,0,0.2,0,0.3,0c0.8,3.5,1.6,6.9,2.4,10.7
		c1.9-1.2,4-2.5,6.3-3.9c-2.3,2.3-4.5,3.9-7.3,5.1c-0.5-3.2-0.9-6.4-1.3-9.5c-0.1,0-0.2,0-0.4,0c-0.4,3.1-0.9,6.2-1.4,9.5
		C54.9,244.3,52.1,242,49.8,239z"/>
	<path id="XMLID_86_" d="M146.5,40.9c1.7,4,1.9,8.1,1.2,12.3c0.6-3.7-0.1-7.3-1.4-10.7c-3,1.9-6.1,3.9-9.1,5.8
		c-0.1-0.1-0.2-0.1-0.2-0.2c1.9-3,3.8-6.1,5.8-9.2c-3.2-1.3-6.7-1.9-10.4-1.4c4.1-0.7,8-0.4,12,1.2c-2,2.6-3.8,5.1-5.7,7.6
		c0.1,0.1,0.2,0.2,0.3,0.3C141.4,44.7,143.9,42.8,146.5,40.9z"/>
	<path id="XMLID_85_" d="M-27.4,53.8c-1-4.3-0.6-8.6,1-12.9c2.5,1.9,5,3.7,7.4,5.6c0.1-0.1,0.2-0.2,0.3-0.3
		c-1.8-2.4-3.6-4.8-5.5-7.4c4.3-1.7,8.6-2.1,12.8-1.2c-1.8,0-3.7-0.2-5.7,0c-1.9,0.2-3.8,0.8-5.6,1.2c2,3.2,4,6.2,5.9,9.3
		c-0.1,0.1-0.1,0.2-0.2,0.2c-3-1.9-6.1-3.8-9.2-5.8C-27.5,46-28.1,49.8-27.4,53.8z"/>
	<path id="XMLID_84_" d="M-22.6,211.4c3.4,1.3,6.9,1.9,10.7,1.4c-4.2,0.8-8.2,0.4-12.3-1.2c2-2.6,3.8-5.1,5.7-7.6
		c-0.1-0.1-0.2-0.2-0.3-0.3c-2.5,1.8-4.9,3.7-7.6,5.7c-1.7-4.2-2-8.5-1.1-13c-0.4,5.7-0.1,7.8,1.3,11.4c3-1.9,6.1-3.9,9.1-5.8
		c0.1,0.1,0.2,0.1,0.2,0.2C-18.7,205.2-20.6,208.2-22.6,211.4z"/>
	<path id="XMLID_83_" d="M146.5,209.4c-2.6-2-5-3.8-7.4-5.6c-0.1,0.1-0.2,0.2-0.3,0.3c1.8,2.4,3.6,4.8,5.5,7.4
		c-4,1.7-8,1.9-12.2,1.2c3.8,0.6,7.3-0.2,10.7-1.4c-2-3.1-3.9-6.1-5.8-9.2c0.1-0.1,0.1-0.2,0.2-0.2c3.1,1.9,6.1,3.9,9.2,5.9
		c1.2-3.3,2-6.9,1.4-10.6C148.4,201.3,148.1,205.4,146.5,209.4z"/>
	<path id="XMLID_82_" d="M17.9,35c2.9-2.2,6.3-3.2,9.8-3.8c-1.7,0.5-3.4,1-5,1.6C21.1,33.5,19.5,34.3,17.9,35z"/>
	<path id="XMLID_81_" d="M-34,92.7c0.7-3.5,1.8-6.9,3.6-9.4c-1,2.9-2.2,6.2-3.4,9.5C-33.8,92.8-33.9,92.8-34,92.7z"/>
	<path id="XMLID_80_" d="M93,219c3-1.2,6.3-2.5,9.3-3.7C100.6,216.9,95.5,218.7,93,219z"/>
	<path id="XMLID_79_" d="M154,157.8c-0.7,3.5-1.9,6.9-3.9,9.8C151.4,164.4,152.8,161,154,157.8z"/>
	<path id="XMLID_78_" d="M153.8,91.5c-1.3-3.1-2.7-6.4-4.1-9.5C151.7,84.8,153.2,88.1,153.8,91.5z"/>
	<path id="XMLID_77_" d="M-33.9,157.4c0.6,1.9,1.2,3.9,1.9,5.7s1.7,3.5,2.5,5.3C-31.8,165.1-33.3,161.4-33.9,157.4z"/>
	<path id="XMLID_76_" d="M27.6,219c-4-0.6-7.6-2.1-10.8-4.5c1.7,0.9,3.4,1.8,5.2,2.5C23.8,217.8,25.7,218.4,27.6,219z"/>
	<path id="XMLID_75_" d="M92.9,31.2c3.4,0.6,7.1,2,10.1,4.1C99.7,34,96.1,32.5,92.9,31.2z"/>
	<path id="XMLID_74_" d="M29.5,57.6c1.7-0.7,3.4-1.3,5.1-2c0,0.1,0.1,0.2,0.1,0.3c-1.7,0.7-3.4,1.4-5.1,2
		C29.6,57.8,29.6,57.7,29.5,57.6z"/>
	<path id="XMLID_73_" d="M127,93.6c0.8,1.8,1.6,3.6,2.4,5.4c-0.1,0-0.2,0.1-0.3,0.1c-0.8-1.8-1.6-3.6-2.4-5.4
		C126.8,93.6,126.9,93.6,127,93.6z"/>
	<path id="XMLID_72_" d="M-9.4,99.7c0.7-1.7,1.3-3.4,2-5.1c0.1,0,0.2,0.1,0.3,0.1c-0.7,1.7-1.4,3.4-2,5.1
		C-9.3,99.8-9.4,99.7-9.4,99.7z"/>
	<path id="XMLID_71_" d="M126.7,156.6c0.8-1.8,1.6-3.6,2.3-5.4c0.1,0,0.2,0.1,0.3,0.1c-0.8,1.8-1.6,3.6-2.4,5.4
		C126.9,156.7,126.8,156.7,126.7,156.6z"/>
	<path id="XMLID_70_" d="M89.5,57.4c-1.4-0.5-2.7-1-4.1-1.5c0-0.1,0.1-0.2,0.1-0.2c1.4,0.5,2.7,1,4.1,1.5
		C89.5,57.2,89.5,57.3,89.5,57.4z"/>
	<path id="XMLID_69_" d="M123.7,188.8c-1.4-0.3-2.8-0.6-4.2-0.9v-0.1c1.1,0.1,2.3,0.3,3.5,0.4c-0.1-1.2-0.2-2.4-0.4-3.5h0.1
		C123.1,186,123.4,187.4,123.7,188.8L123.7,188.8z"/>
	<path id="XMLID_68_" d="M123.7,188.8c1-0.2,2.1-0.4,3.1-0.6c-1.9,0.6-3.2,1.8-3.7,3.7C123.3,190.8,123.5,189.8,123.7,188.8
		L123.7,188.8z"/>
	<path id="XMLID_67_" d="M-7.7,155.2c-0.6-1.5-1.2-3.1-1.7-4.6c0.1,0,0.2-0.1,0.3-0.1c0.6,1.5,1.2,3,1.8,4.6
		C-7.5,155.1-7.6,155.1-7.7,155.2z"/>
	<path id="XMLID_66_" d="M85,194.6c2.2-0.9,4.4-1.8,6.6-2.7c0,0.1,0.1,0.2,0.1,0.3c-2.2,0.9-4.4,1.8-6.6,2.7
		C85,194.8,85,194.7,85,194.6z"/>
	<path id="XMLID_65_" d="M28.6,191.8c1.8,0.8,3.6,1.6,5.3,2.3c0,0.1-0.1,0.2-0.1,0.3c-1.8-0.8-3.5-1.6-5.3-2.3
		C28.5,192,28.6,191.9,28.6,191.8z"/>
	<path id="XMLID_64_" d="M-6.6,188.1c0.9,0.3,1.8,0.5,2.9,0.9c0.4-1.4,0.7-2.6,1-3.9c0,0,0,0,0.1,0c-0.1,1-0.2,2-0.3,3.1
		c1.2-0.1,2.4-0.2,3.7-0.4c-1.6,0.4-3,0.8-4.5,1.1c0.3,1,0.6,1.9,0.8,2.8C-3.6,189.9-4.7,188.7-6.6,188.1z"/>
	<path id="XMLID_63_" d="M123.7,61.4c-0.3,1.4-0.5,2.8-0.8,4.2h-0.1c0.1-1.1,0.2-2.2,0.4-3.5c-1,0.1-2,0.2-3,0.3v-0.1
		C121.3,62,122.5,61.7,123.7,61.4L123.7,61.4z"/>
	<path id="XMLID_62_" d="M123.7,61.4c-0.2-1-0.4-2-0.6-3c0.6,2.1,2.1,3.2,4.1,3.9C126,62,124.8,61.7,123.7,61.4L123.7,61.4z"/>
	<path id="XMLID_61_" d="M62.6,216.8c-2-1.4-3.8-0.4-5.7,0.2c1-0.5,2-1,3-1.6c-0.3-0.6-0.5-1.1-0.8-1.9c0.4,0.3,0.7,0.5,1,0.7
		c0.3-0.4,0.7-0.8,1.1-1.4c-0.3,1-1,1.9-0.8,2.6C60.7,216.1,61.9,216.3,62.6,216.8z"/>
	<path id="XMLID_60_" d="M147.9,126.2c0.4-0.3,0.8-0.7,1.3-1.1c-0.5-0.4-0.9-0.7-1.3-1.1c0-0.1,0-0.1,0.1-0.2
		c0.7,0.4,1.5,0.8,2.3,1.2c0.6-1.1,1.1-2.1,1.6-3.1c-1,2.1-1.3,4.2,0.3,6.2c-0.1,0-0.2,0-0.4,0c-0.2-0.4-0.4-0.7-0.5-1.1
		c-0.2-0.4-0.4-0.7-0.5-1.1c-0.3-0.8-0.8-0.8-1.4-0.4c-0.4,0.3-0.9,0.5-1.3,0.8C148,126.3,148,126.3,147.9,126.2z"/>
	<path id="XMLID_59_" d="M60.1,34.8c0.4,0.9,0.8,1.6,1.1,2.3l-0.1,0.1c-0.3-0.4-0.7-0.8-1-1.3c-0.4,0.5-0.7,0.9-1,1.3
		c-0.1,0-0.1-0.1-0.2-0.1C59.3,36.4,59.6,35.7,60.1,34.8c-1.1-0.6-2.2-1.1-3.2-1.6c2.1,1.1,4.3,1.2,6.4,0
		C62.3,33.7,61.3,34.2,60.1,34.8z"/>
	<path id="XMLID_58_" d="M-3.6,61.4c1.2,0.3,2.5,0.5,3.7,0.8v0.1c-1-0.1-1.9-0.2-3-0.3c0.1,1.1,0.2,2.2,0.3,3.3h-0.1
		C-3,64-3.3,62.7-3.6,61.4L-3.6,61.4z"/>
	<path id="XMLID_57_" d="M-3.6,61.4C-4.7,61.7-5.9,62-7,62.3c2.2-0.6,3.7-2.1,4.3-4.3C-3.1,59.1-3.4,60.3-3.6,61.4L-3.6,61.4z"/>
	<path id="XMLID_56_" d="M-31.8,121.9c0.5,1,1,2,1.6,3.2c1.1-0.6,2-1.1,2.9-1.6l0.1,0.1c-0.6,0.5-1.2,0.9-1.9,1.5
		c0.5,0.4,0.9,0.7,1.3,1c0,0.1-0.1,0.1-0.1,0.2c-0.7-0.4-1.4-0.7-2.3-1.1c-0.6,1.1-1.1,2.1-1.6,3.1c-0.1,0-0.1,0-0.2-0.1
		c0.4-1,1.1-2.1,1.1-3.1c0-1.1-0.7-2.1-1.1-3.2C-31.9,122-31.9,121.9-31.8,121.9z"/>
	<path id="XMLID_55_" d="M-12.8,128.7c1.6,1.5,4.2,6.9,4.1,9C-10.1,134.6-11.5,131.5-12.8,128.7z"/>
	<path id="XMLID_54_" d="M-8.7,112.6c-0.4,3.5-2.3,6.4-4.4,9.6C-11.5,118.7-10.1,115.6-8.7,112.6z"/>
	<path id="XMLID_53_" d="M133.2,128.1c-1.5,3.3-3,6.4-4.4,9.6C129.2,134,131.2,131.1,133.2,128.1z"/>
	<path id="XMLID_52_" d="M132.5,120.9c-1.4-1.3-3.7-6.3-3.7-8.6C130.1,115.4,131.3,118.2,132.5,120.9z"/>
	<path id="XMLID_51_" d="M63,198.3c3-2,6-3.9,9.6-4.4C69.5,195.3,66.3,196.7,63,198.3z"/>
	<path id="XMLID_50_" d="M47.5,193.8c3.6,0.5,6.6,2.4,9.6,4.4C53.9,196.8,50.7,195.3,47.5,193.8z"/>
	<path id="XMLID_49_" d="M72.7,56.4c-3.6-0.4-6.5-2.3-9.5-4.3C66.5,53.6,69.6,55,72.7,56.4z"/>
	<path id="XMLID_48_" d="M56.9,52.1c-3,2-5.9,3.8-9.4,4.3C50.5,55,53.6,53.6,56.9,52.1z"/>
	<path id="XMLID_47_" d="M20.7,67.6c-3.6,2.5-7.5,3.3-10.9,3.8C13.1,70.3,16.8,69,20.7,67.6z"/>
	<path id="XMLID_46_" d="M2.5,85.9c1.4-3.9,2.7-7.7,3.8-10.8C5.8,78.4,5,82.3,2.5,85.9z"/>
	<path id="XMLID_45_" d="M20.7,182.6c-4-1.4-7.8-2.7-10.9-3.8C13.1,179.3,17.1,180.2,20.7,182.6z"/>
	<path id="XMLID_44_" d="M5.4,171.3c-1-2.2-2.1-4.3-3.1-6.5C4.2,166.6,4.9,168.9,5.4,171.3L5.4,171.3z"/>
	<path id="XMLID_43_" d="M5.4,171.3c0.4,1.5,0.7,3.1,1.1,4.6c-0.1,0-0.3,0.1-0.4,0.1C5.9,174.4,5.6,172.8,5.4,171.3L5.4,171.3z"/>
	<path id="XMLID_42_" d="M117.5,164.7c-1.3,3.8-2.6,7.5-3.6,10.6C114.2,172,115.2,168.2,117.5,164.7z"/>
	<path id="XMLID_41_" d="M110.3,178.9c-3.2,1.1-6.9,2.4-10.9,3.8C103.1,180.2,107,179.3,110.3,178.9z"/>
	<path id="XMLID_40_" d="M117.6,85.7c-2.5-3.5-3.3-7.5-3.7-10.9C114.9,78,116.2,81.8,117.6,85.7z"/>
	<path id="XMLID_39_" d="M99.4,67.6c3.9,1.4,7.6,2.6,10.7,3.7C106.8,70.9,102.9,70.1,99.4,67.6z"/>
	<path id="XMLID_38_" d="M12.9,56.7c0.4,1.4,0.8,2.8,1.3,4.2C14,61,13.9,61,13.8,61c-0.4-1.4-0.9-2.8-1.3-4.2
		C12.7,56.8,12.8,56.8,12.9,56.7z"/>
	<path id="XMLID_37_" d="M12.5,193.5c0.4-1.4,0.9-2.8,1.3-4.2c0.1,0,0.2,0.1,0.3,0.1c-0.4,1.4-0.8,2.8-1.2,4.2
		C12.7,193.5,12.6,193.5,12.5,193.5z"/>
	<path id="XMLID_36_" d="M42.8,35.9c-0.1-1.4-0.2-2.7-0.3-4.1c0.1,0,0.2,0,0.3,0c0.1,1.4,0.3,2.7,0.4,4.1
		C43.1,35.9,42.9,35.9,42.8,35.9z"/>
	<path id="XMLID_35_" d="M-29.2,108.2c-1.4-0.1-2.7-0.2-4.1-0.4c0-0.1,0-0.2,0-0.3c1.4,0.1,2.7,0.2,4.1,0.3
		C-29.1,108-29.2,108.1-29.2,108.2z"/>
	<path id="XMLID_34_" d="M128.5,77.9c-1.4,0.4-2.8,0.8-4.2,1.2c0-0.1-0.1-0.2-0.1-0.3c1.4-0.4,2.8-0.9,4.2-1.3
		C128.4,77.7,128.4,77.8,128.5,77.9z"/>
	<path id="XMLID_33_" d="M-18,138.1c-1.1,0.6-2.2,1.2-3.3,1.8c-0.1-0.1-0.1-0.2-0.2-0.3c1.1-0.6,2.2-1.2,3.3-1.8
		C-18.1,137.9-18,138-18,138.1z"/>
	<path id="XMLID_32_" d="M72.8,47c0.6-1.2,1.3-2.5,1.9-3.7c0.1,0,0.2,0.1,0.3,0.1c-0.6,1.2-1.3,2.5-1.9,3.7C73,47.1,72.9,47,72.8,47
		z"/>
	<path id="XMLID_31_" d="M149.3,142c1.3,0.1,2.6,0.2,3.9,0.3c0,0.1,0,0.2,0,0.3c-1.3-0.1-2.6-0.2-3.9-0.3
		C149.3,142.2,149.3,142.1,149.3,142z"/>
	<path id="XMLID_30_" d="M107.3,193.7c-0.4-1.5-0.9-2.9-1.3-4.4c0.1,0,0.2-0.1,0.3-0.1c0.5,1.5,0.9,2.9,1.4,4.4
		C107.5,193.6,107.4,193.6,107.3,193.7z"/>
	<path id="XMLID_29_" d="M111.2,200.2c0.9,1.1,1.8,2.1,2.7,3.2c-0.1,0.1-0.2,0.1-0.2,0.2c-0.9-1.1-1.8-2.1-2.7-3.2
		C111.1,200.3,111.2,200.2,111.2,200.2z"/>
	<path id="XMLID_28_" d="M128.4,172.7c-1.4-0.4-2.9-0.9-4.3-1.3c0-0.1,0.1-0.2,0.1-0.3c1.4,0.4,2.9,0.8,4.3,1.2
		C128.5,172.4,128.4,172.6,128.4,172.7z"/>
	<path id="XMLID_27_" d="M135.7,176.3c0.9,0.8,1.9,1.6,2.8,2.5c-0.1,0.1-0.1,0.1-0.2,0.2c-1-0.8-2-1.6-2.9-2.4
		C135.5,176.5,135.6,176.4,135.7,176.3z"/>
	<path id="XMLID_26_" d="M-8.3,172.3c1.4-0.4,2.8-0.8,4.2-1.2c0,0.1,0.1,0.2,0.1,0.3c-1.4,0.4-2.8,0.9-4.1,1.3
		C-8.2,172.5-8.2,172.4-8.3,172.3z"/>
	<path id="XMLID_25_" d="M-15,176.3c-1.1,0.9-2.1,1.8-3.2,2.7c-0.1-0.1-0.1-0.1-0.2-0.2c1-0.9,2.1-1.8,3.1-2.7
		C-15.1,176.1-15.1,176.2-15,176.3z"/>
	<path id="XMLID_24_" d="M106,61c0.4-1.4,0.8-2.8,1.2-4.2c0.1,0,0.2,0.1,0.3,0.1c-0.4,1.4-0.9,2.8-1.3,4.2C106.2,61,106.1,61,106,61
		z"/>
	<path id="XMLID_23_" d="M114,46.8c-0.9,1.1-1.8,2.2-2.7,3.2c-0.1-0.1-0.2-0.1-0.3-0.2c0.9-1.1,1.8-2.2,2.7-3.2
		C113.8,46.7,113.9,46.8,114,46.8z"/>
	<path id="XMLID_22_" d="M43.2,214.5c-0.1,1.4-0.3,2.7-0.4,4.1c-0.1,0-0.2,0-0.3,0c0.1-1.4,0.2-2.7,0.3-4.1
		C42.9,214.5,43.1,214.5,43.2,214.5z"/>
	<path id="XMLID_21_" d="M45.1,207c0.6-1.2,1.2-2.3,1.8-3.5c0.1,0.1,0.2,0.1,0.3,0.2c-0.6,1.2-1.2,2.3-1.8,3.5
		C45.2,207.1,45.1,207.1,45.1,207z"/>
	<path id="XMLID_20_" d="M-18.2,71.2c1.1,0.9,2.3,1.9,3.4,2.8c-0.1,0.1-0.1,0.2-0.2,0.2c-1.1-0.9-2.3-1.9-3.4-2.8
		C-18.4,71.4-18.3,71.3-18.2,71.2z"/>
	<path id="XMLID_19_" d="M-8.3,77.6c1.4,0.4,2.8,0.9,4.3,1.3c0,0.1-0.1,0.2-0.1,0.3C-5.5,78.8-7,78.4-8.4,78
		C-8.4,77.8-8.4,77.7-8.3,77.6z"/>
	<path id="XMLID_18_" d="M142.1,110.4c-1.3,0.7-2.7,1.4-4,2.1c0-0.1-0.1-0.2-0.1-0.3c1.3-0.7,2.7-1.4,4-2.1
		C142,110.2,142,110.3,142.1,110.4z"/>
	<path id="XMLID_17_" d="M153.4,107.9c-1.3,0.1-2.7,0.2-4,0.4c0-0.1,0-0.2,0-0.4c1.3-0.1,2.7-0.2,4-0.3
		C153.4,107.7,153.4,107.8,153.4,107.9z"/>
	<path id="XMLID_16_" d="M4.2,37.6c-2.9,2.1-5.7,4.2-8.2,6.1C-3.3,42.1,1.9,38.1,4.2,37.6z"/>
	<path id="XMLID_15_" d="M147.6,69.2c-2.2-2.9-4.4-5.9-6.5-8.6C143.7,62.9,146.2,65.6,147.6,69.2z"/>
	<path id="XMLID_14_" d="M-27.4,69.2c1.2-3.5,3.7-6.1,6.4-8.6C-23.2,63.5-25.3,66.4-27.4,69.2z"/>
	<path id="XMLID_13_" d="M70.3,227.8c4.1,0.4,8.1-0.5,12.1-1.3C78.6,228.3,74.5,228.3,70.3,227.8z"/>
	<path id="XMLID_12_" d="M-4.6,205.7c1.5,1.3,2.9,2.6,4.3,3.7c1.4,1.1,3,2,4.7,3C2.4,212.5-2.8,208.6-4.6,205.7z"/>
	<path id="XMLID_11_" d="M162.6,114.9c0.6-4.2-0.3-8.2-1.4-12.3c1.6,1.5,2.5,9.5,1.6,12.2C162.7,114.8,162.7,114.8,162.6,114.9z"/>
	<path id="XMLID_10_" d="M124.6,44.1c-2.9-2.1-5.8-4.4-8.7-6.6C119.5,38.9,122.2,41.5,124.6,44.1z"/>
	<path id="XMLID_9_" d="M124.7,206c-2.3,2.6-5.1,5.2-8.8,6.7C119,210.4,122,208.1,124.7,206z"/>
	<path id="XMLID_8_" d="M162.7,135.4c0.5,4.1,0.5,8.2-1.3,12.1C162.2,143.5,163.1,139.5,162.7,135.4z"/>
	<path id="XMLID_7_" d="M-20.9,189.7c-2.6-2.5-5.2-5.1-6.6-8.7C-25.3,183.9-23.1,186.9-20.9,189.7z"/>
	<path id="XMLID_6_" d="M-41.4,102.6c-0.5,4.2-1,8.2-1.4,11.5C-43.2,110.7-43,106.7-41.4,102.6z"/>
	<path id="XMLID_5_" d="M147.8,180.8c-1.6,4-4.4,6.8-7,9.1C142.9,187.2,145.3,184.1,147.8,180.8z"/>
	<path id="XMLID_4_" d="M37.7,226.5c4,0.8,8,1.7,12.1,1.3C45.6,228.3,41.6,228.3,37.7,226.5z"/>
	<path id="XMLID_3_" d="M-42.6,135.5c-0.4,4.1,0.4,8,1.3,12C-43,143.7-43.1,139.6-42.6,135.5z"/>
	<path id="XMLID_2_" d="M82.5,23.8c-4-0.9-8-1.7-12.1-1.3C74.5,21.9,78.5,22,82.5,23.8z"/>
	<path id="XMLID_1_" d="M49.8,22.5c-4.1-0.4-8.1,0.4-12.1,1.3C41.6,22,45.7,21.9,49.8,22.5z"/>
</g>
<path d="M127.6,100.6c-0.3-0.7-0.6-1.4-0.8-2.2c-0.8-2.3-1.6-4.4-4.2-5.2c-0.5-0.2-1-0.6-1.4-1c-3.4-2.5-5.7-5.9-7.2-9.7
	c-0.3-0.8-0.7-1.2-1.6-1.4c-2-0.3-3.9-0.8-5.8-1.4c-0.4-0.1-1-0.7-1.1-1.1c-0.5-1.9-1-3.8-1.4-5.8c-0.2-0.9-0.5-1.3-1.3-1.6
	c-4.6-1.8-8.5-4.6-10.9-9c-1-1.9-2.4-2.9-4.2-3.6c-0.8-0.3-1.6-0.6-2.5-0.9c-0.4-0.1-0.8-0.2-1.2-0.1c-5.5,1.9-10.9,1.3-16.2-0.9
	c-0.7-0.3-1.1-0.2-1.7,0.2C64.5,58,62.8,59,61.2,60c-0.8,0.5-1.4,0.5-2.2,0c-1.5-1-3.1-1.8-4.5-2.9c-0.9-0.7-1.6-0.7-2.6-0.3
	c-4.5,1.9-9.1,2.6-13.8,1.2c-2.2-0.7-3.9-0.2-5.8,0.6c-0.7,0.3-1.4,0.6-2,0.9c-0.3,0.2-0.7,0.4-0.9,0.8c-2.5,5.3-6.7,8.7-12.1,10.8
	c-0.7,0.3-1,0.7-1.1,1.4c-0.3,1.8-0.8,3.6-1.2,5.5c-0.2,1-0.7,1.5-1.7,1.7c-1.8,0.4-3.5,0.9-5.3,1.2c-1,0.1-1.4,0.6-1.7,1.4
	c-2.1,5.2-5.5,9.3-10.7,11.8c-1,0.5-3.2,5.9-2.8,7c1.9,5.5,1.3,10.8-0.9,16c-0.3,0.8-0.2,1.2,0.2,1.9c1.1,1.6,2.2,3.3,3.1,5.1
	c0.2,0.4,0.2,1.2,0,1.6c-0.9,1.7-1.9,3.3-3,4.9c-0.6,0.8-0.7,1.5-0.3,2.4c1.9,4.5,2.7,9.2,1.3,13.9c-0.7,2.2-0.2,3.9,0.6,5.8
	c0.3,0.6,0.4,1.2,0.8,1.7c0.4,0.5,0.8,1.2,1.4,1.4c4.9,2.5,8.2,6.4,10.1,11.5c0.4,1.1,1.1,1.5,2.2,1.7c1.7,0.3,3.5,0.8,5.2,1.1
	c0.9,0.2,1.3,0.7,1.4,1.5c0.4,1.9,1,3.7,1.2,5.6c0.1,0.9,0.5,1.2,1.3,1.6c4.6,1.8,8.5,4.6,10.9,9c1.1,2.1,2.7,3,4.7,3.8
	c0.6,0.2,1.2,0.5,1.9,0.7c0.5,0.1,1,0.2,1.4,0.1c5.5-1.9,10.8-1.3,16,0.9c0.8,0.3,1.2,0.2,1.9-0.2c1.6-1.1,3.3-2.1,4.9-3.1
	c0.7-0.5,1.3-0.4,1.9,0c1.6,1.1,3.3,2,4.9,3.1c0.7,0.5,1.1,0.5,1.9,0.2c4.5-1.9,9.3-2.8,14.1-1.4c2.2,0.7,4,0.3,5.9-0.6
	c0.7-0.3,1.4-0.6,2-0.9c0.4-0.2,0.8-0.5,1-0.9c2.5-5.2,6.7-8.6,12-10.7c0.7-0.3,1-0.7,1.1-1.4c0.4-1.9,0.8-3.7,1.2-5.6
	c0.2-0.9,0.6-1.4,1.5-1.6c1.9-0.4,3.7-0.9,5.6-1.2c0.8-0.2,1.2-0.5,1.6-1.3c2.1-5.2,5.4-9.4,10.6-11.9c0.4-0.2,0.7-0.5,0.9-0.9
	c0.7-1.6,1.4-3.3,2-4.9c0.1-0.3,0.1-0.7,0-1.1c-2-5.5-1.4-10.9,0.9-16.2c0.3-0.7,0.2-1.1-0.2-1.7c-1.1-1.7-2.2-3.4-3.2-5.2
	c-0.2-0.4-0.2-1.2,0-1.7c0.9-1.6,1.8-3.2,2.9-4.7c0.7-0.9,0.7-1.6,0.3-2.6c-2.1-5.1-2.6-10.2-0.8-15.5
	C127.4,101.1,127.5,100.9,127.6,100.6z"/>
</svg>
