<?xml version="1.0" encoding="utf-8"?>
<!-- Generator: Adobe Illustrator 19.0.0, SVG Export Plug-In . SVG Version: 6.00 Build 0)  -->
<svg version="1.1" id="Layer_1" xmlns="http://www.w3.org/2000/svg" xmlns:xlink="http://www.w3.org/1999/xlink" x="0px" y="0px"
	 viewBox="0 0 130 130" style="enable-background:new 0 0 130 130;" xml:space="preserve">
<g>
	<path d="M88,98.7c1-0.8,1.8-1.4,2.6-2.1c0.2-0.2,0.4-0.1,0.6-0.1c7,0.4,13.5-1.3,19.9-3.7c0.4-0.1,0.5-0.3,0.5-0.8
		c-1.5-11-5.9-20.6-14.1-28.3c-0.2-0.2-0.8-0.4-0.1-0.8c0,0,0-0.2,0-0.2c-0.4-0.6-0.2-1.3-0.5-1.9c-0.2-0.4-0.3-0.5-0.7-0.2
		c-0.1,0.1-0.3,0.3-0.4,0c-0.1-0.2,0-0.3,0.1-0.4c0.4-0.3,0.2-0.8,0.1-1.1c-0.1-0.3-0.5-0.3-0.9-0.2c-0.6,0.2-1.3,0.3-1.8,0.8
		c-0.2,0.3-0.5,0.2-0.8,0c-1.7-1.2-3.4-2.4-5.2-3.5c-0.2-0.1-0.3-0.2-0.2-0.4c0.2-0.7,0.3-1.5,0.5-2.3c2.8,1.5,5.4,3.2,7.9,5
		c0.8,0.6,1.5,1.1,2.2,1.7c2.5,2,4.8,4.1,6.8,6.6c2.8,3.4,4.6,7.4,6,11.5c1.5,4.5,2.6,9.1,3.3,13.8c0.1,0.3,0.1,0.7-0.1,1
		c-0.1,0.1-0.1,0.3,0,0.4c0.6,0.5,0,0.6-0.3,0.7c-3.5,1.7-7.2,2.8-11,3.6c-0.6-0.4-1.1,0.2-1.6,0.3c-3.6,0.8-7.3,0.7-11,0.6
		C89.4,98.8,88.8,98.7,88,98.7z M105,68.9c0.1,0,0.2-0.1,0.2-0.2c0-0.2-0.1-0.2-0.2-0.2c-0.1,0-0.2,0.1-0.3,0.2
		C104.7,68.8,104.8,68.9,105,68.9z"/>
	<path d="M4.5,85.3c0.1,0,0.3,0,0.4,0c0.4,0.3,0.9,0,1.3,0.1c0.1,0.1,0.1,0.2,0.2,0.2c0.1,0.3-0.3,0.7,0.2,0.8l0,0
		c0.1,0.3,0.2,0.6,0.3,0.8c0.5,1.2,0.9,2.6,1.7,3.7c0,0.1,0,0.1,0.1,0.2c0.1,0.5,0.3,0.9,0.6,1.2c0,0.1,0.1,0.1,0.1,0.2
		c0.2,0.5,0,1-0.2,1.5C9,94.2,8.9,94.3,9,94.4c0,0.2,0.2,0.3,0.3,0.5c0,0,0,0.1,0,0.1c0.1,0.4,0.5,0.3,0.8,0.4c0,0,0,0,0.1,0
		c0.1,0.1,0.3,0.3,0.2,0.4c-0.3,0.6,0.1,0.5,0.4,0.6l0,0c0.1,0.2,0.3,0.3,0.6,0.3c0.1,0.1,0.2,0.2,0.2,0.3c0.1,0.4,0.4,0.8,0.7,1.1
		c0.1,0.2,0.2,0.4,0.3,0.6c0,0.2,0.1,0.3,0.2,0.3c0,0,0,0.1,0,0.1c0,0.2,0.1,0.3,0.2,0.3c0,0,0,0.1,0,0.1c0.2,0.3,0.1,0.7,0.5,0.9
		c0,0,0,0.1,0.1,0.1c0,0.1,0,0.3,0.2,0.3c0.1,0.1,0.1,0.1,0.2,0.2c0.1,0.2,0.3,0.3,0.5,0.4c0,0,0,0.1,0,0.1c0.1,0.3,0.1,0.5,0,0.7
		c0,0,0,0,0,0.1c-0.1,0.2-0.2,0.5-0.3,0.7c-0.1,0.1-0.2,0.2-0.3,0.3c-0.6,0.4-1-0.2-1.6-0.1c0,0,0-0.1,0-0.1c0-0.2-0.2-0.3-0.3-0.5
		c0,0,0-0.1,0-0.1c0-0.2-0.1-0.3-0.2-0.3c-0.3-0.4-0.6-0.9-0.9-1.3c-0.2-0.5-0.5-1-0.9-1.3c-0.1-0.2-0.3-0.5-0.4-0.7
		c-0.1-0.4-0.3-0.8-0.6-1c-0.1-0.2-0.2-0.3-0.3-0.5c0-0.1,0-0.3-0.2-0.3c0,0,0-0.1,0-0.1c0-0.1-0.1-0.3-0.2-0.3
		c0-0.1-0.1-0.1-0.1-0.2c-0.1-0.5-0.3-0.9-0.7-1.2c0-0.1-0.1-0.1-0.1-0.2c-0.1-0.4-0.3-0.8-0.6-1.1c0-0.1-0.1-0.1-0.1-0.2
		c0-0.1,0-0.3-0.2-0.3c0-0.1-0.1-0.1-0.1-0.2c0-0.1,0-0.3-0.2-0.3c0-0.1-0.1-0.1-0.1-0.2c-0.1-0.3-0.1-0.6-0.4-0.8
		c0-0.1-0.1-0.3-0.1-0.4c-0.2-0.8-0.6-1.6-1-2.4c-0.3-0.7-0.4-1.4-0.8-2c0-0.1,0-0.2-0.1-0.2c0.1-0.3-0.1-0.5-0.2-0.8
		c-0.4-1.1-0.6-2.3-1.1-3.3c0-0.1,0-0.2,0-0.2c0-0.3-0.1-0.5-0.2-0.8c0-0.1,0-0.2,0-0.2c0-0.3,0-0.5-0.2-0.7c0-0.1,0-0.2,0-0.2
		c0.1-0.3,0-0.6-0.2-0.8c0-0.1,0-0.2-0.1-0.4c0.1-0.3,0-0.6-0.2-0.8c0-0.1,0-0.2-0.1-0.4c0-0.3,0-0.6-0.2-0.9c0-0.1,0-0.2,0-0.2
		c0-0.3,0.1-0.7,0.1-1c0-0.1,0-0.2,0-0.2c0.1-0.2,0-0.3-0.1-0.3l0,0c0-0.1,0-0.2-0.2-0.3c0-0.1,0-0.2,0-0.3c0.4-0.5,0.5-0.9,0.2-1.5
		c0,0,0-0.1,0-0.1c-0.5-0.3-0.6-0.9-0.6-1.5c-0.1-0.7-0.1-1.4-0.2-2.1c0-0.2,0.1-0.5-0.2-0.6c0-2.1,0-4.3,0-6.4
		c0-3.3,0.5-6.5,1.1-9.7c0.6-3.2,1.4-6.4,2.5-9.5c0.9-2.4,1.8-4.8,3-7C7,35.8,7.4,34.9,7.9,34c0.1-0.1,0.1-0.4,0.3-0.3
		c0.2,0.1,0.3,0.3,0.1,0.5C8,34.7,7.8,35,8.1,35.4C8.2,35.7,8,36,7.9,36.3c-0.1,0.4-0.4,0.2-0.7,0.2c-0.4-0.1-0.7,0.3-0.5,0.7
		C7,37.5,6.7,38,7.1,38.3c0.4,0.2,0.8-0.1,1.1-0.1c0.5,0,0.5,0.3,0.3,0.6c-0.3,0.8-0.6,1.5-0.9,2.2c-1.2,2.9-2.2,6-3,9.1
		c0,0.1,0,0.3-0.2,0.3C4.2,50.2,4,50,4,49.7c0-0.2,0.1-0.4-0.2-0.4c-0.3,0-0.6-0.1-0.8,0.2c-0.2,0.2,0,0.4,0.1,0.5
		c0.3,0.3,0.2,0.6-0.1,0.8c-0.3,0.2-0.4,0.6-0.4,0.9c0,0.5-0.2,0.8-0.8,0.7c-0.2,0-0.6-0.1-0.6,0.3c0,0.3,0.2,0.5,0.5,0.6
		c0.5,0.1,1.1,0.6,1.4-0.3c0.4-0.1,0.7,0,0.7,0.5c0,0.2-0.1,0.4-0.1,0.6c-0.2,0.3-0.3,0.6-0.2,0.9c0,0.2,0,0.4-0.1,0.6
		c-0.2,0.4-0.3,0.8-0.2,1.2c0,0.3,0,0.5-0.1,0.8C3.1,58,3,58.6,3.1,59.2c0,0.3,0,0.5,0,0.8c-0.1,0.3-0.2,0.7-0.1,1
		c0,0.1,0,0.3,0,0.4c-0.1,0.1-0.1,0.3-0.1,0.4c-0.1,2.2-0.1,4.3,0,6.5c0,0.1,0,0.3,0.1,0.4c0,0.1,0,0.3,0,0.4
		c-0.1,0.5-0.1,1,0.1,1.5c0,0.1,0,0.2,0,0.3C3,71.6,3.2,72.3,3.3,73c0,0.1,0,0.2,0,0.2c-0.1,0.5,0.1,1,0.2,1.4c0,0.1,0,0.2,0,0.4
		c0,0.1,0,0.3,0,0.4c0.2,1,0.2,1-0.8,0.9c-0.2,0-0.4-0.1-0.5,0.2c0,0,0,0,0,0.1C2,76.8,2,77.1,2.1,77.4c0,0.1,0,0.2,0,0.3
		C2.3,78.1,2.8,77.8,3,78l0,0c0.1,0.3,0.4,0.3,0.6,0.3c0.4,0,0.6,0.1,0.8,0.4c0,0.1,0,0.2,0,0.2c-0.1,0.3,0,0.6,0.2,0.8
		c0,0.1,0,0.2,0.1,0.4c-0.1,0.3,0,0.5,0.2,0.7c0,0.1,0,0.2,0.1,0.2c0,0.9,0.4,1.6,0.6,2.4c0.1,0.2,0.3,0.5,0.1,0.7
		c-0.3,0.2-0.3-0.3-0.5-0.3c-0.2-0.1-0.3-0.1-0.5-0.1c-0.2,0-0.4,0-0.5-0.1c-0.6-0.3-0.6-0.3-0.6,0.3c0,0.2,0,0.4-0.1,0.6
		c-0.1,0.4,0,0.7,0.3,0.9c0.2,0.2,0.4,0.2,0.5,0C4.4,85.5,4.5,85.4,4.5,85.3z M4.2,48.9c-0.2,0.1-0.3,0.2-0.3,0.5
		c0,0,0.1,0.1,0.1,0.1c0.2,0,0.3-0.1,0.4-0.3c0.1-0.1,0.1-0.1,0.1-0.3C4.3,48.8,4.2,48.8,4.2,48.9z"/>
	<path d="M101.4,11.2C101.4,11.2,101.4,11.2,101.4,11.2c0.1,0.2,0.2,0.3,0.4,0.3c0,0,0,0,0.1,0c0.3,0.4,0.8,0.6,1.2,0.9
		c0.1,0.1,0.1,0.1,0.2,0.2c0.1,0.1,0.2,0.2,0.3,0.2c0,0,0,0.1,0.1,0.1c0.1,0.2,0.2,0.3,0.4,0.3c0,0,0,0,0.1,0
		c0.1,0.2,0.2,0.3,0.4,0.3c0.1,0.1,0.1,0.1,0.2,0.2c0.1,0.2,0.2,0.3,0.4,0.3c0.1,0.1,0.1,0.1,0.2,0.2c0.2,0.3,0.6,0.6,0.9,0.7
		c0.2,0.1,0.3,0.3,0.5,0.4c0.1,0.2,0.2,0.3,0.4,0.4c0.1,0.1,0.1,0.1,0.2,0.2c0.2,0.3,0.5,0.6,0.8,0.7c0.2,0.2,0.5,0.4,0.7,0.7
		c0.4,0.5,0.9,1,1.5,1.4c0.4,0.4,0.8,0.8,1.1,1.2c0.3,0.4,0.4,0.6-0.2,1c-1,0.4-0.9,0.5-0.6,1.6c0,0.1,0.1,0.2,0.1,0.2
		c0.1,0.5-0.2,0.4-0.4,0.2c0,0,0-0.1-0.1-0.1c-0.9-1.2-2-2.3-3.2-3.2c0,0-0.1-0.1-0.1-0.1c-0.3-0.4-0.7-0.8-1.2-1
		c0,0-0.1-0.1-0.1-0.1c-0.2-0.3-0.5-0.6-0.9-0.8l0,0c-0.2-0.3-0.4-0.5-0.8-0.6c0,0,0,0-0.1,0c-0.3-0.4-0.7-0.8-1.2-1
		c0,0,0-0.1-0.1-0.1c-0.4-0.5-0.9-0.8-1.5-1.1c0,0,0,0-0.1,0c-0.1-0.2-0.3-0.3-0.5-0.4c-1.2-0.8-2.3-1.6-3.5-2.3
		c-5-3.1-10.3-5.4-15.9-6.9c-0.8-0.2-1.6-0.5-2.5-0.5c-0.1,0-0.2,0-0.2,0c-0.3-0.2-0.6-0.3-0.9-0.2c-0.1,0-0.2,0-0.2,0
		c-0.3-0.2-0.7-0.3-1-0.2c-0.1,0-0.2,0-0.2,0c-0.4-0.2-0.8-0.3-1.3-0.2c-0.1,0-0.2,0-0.2,0c-0.7-0.2-1.4-0.3-2.1-0.4
		c-1.6-0.2-3.2-0.3-4.8-0.4c-0.4,0-0.5-0.3-0.3-0.6c0.2-0.4,0.2-0.8,0.2-1.2c0-0.4-0.1-0.5-0.6-0.5c-0.8,0.1-1.5,0.1-2.3,0.2
		C62,0.8,59.1,1,56.2,1.1c-0.8,0-0.8,0.1-0.6,0.9c0.2,0.5-0.1,0.9-0.6,0.8c-0.4,0-0.8,0.2-1.2,0c-0.3-0.1-0.5,0.2-0.6,0.4
		c0,0.2-0.1,0.4-0.3,0.5c-0.1,0-0.1,0.1-0.2,0.1c-0.1,0-0.3,0.1-0.3,0.2c-0.1,0-0.3,0.1-0.4,0.1c-0.3,0-0.6,0-0.8,0.2
		c-0.1,0-0.2,0-0.4,0.1c-0.3-0.1-0.6,0-0.8,0.2c-0.1,0-0.2,0-0.2,0c-0.3-0.1-0.5,0.1-0.7,0.1c-0.6,0.1-1.3,0.5-2,0.2l0,0
		c-0.1-0.2-0.3-0.3-0.4-0.5c0-0.1-0.1-0.1-0.1-0.2c0-0.2,0-0.3-0.2-0.3l0,0l0,0c-0.1-0.3,0.1-0.7-0.3-0.8c0,0,0,0-0.1-0.1
		c-0.1-0.3,0.1-0.3,0.3-0.4c0.6-0.2,1.2-0.2,1.8-0.6c0.1,0,0.2,0,0.2,0c0.3,0,0.5-0.1,0.8-0.2c0.1,0,0.2,0,0.2,0
		c0.3,0.1,0.6,0,0.8-0.2c0.1,0,0.2,0,0.2,0c0.3,0.1,0.6,0,0.9-0.2c0.1,0,0.2,0,0.2,0c0.4,0,0.7,0,1-0.2c0.1,0,0.2,0,0.2,0
		c0.1,0,0.2,0,0.2,0c2.5-0.4,5-0.8,7.6-0.9c0.1,0,0.3,0,0.3-0.2c2.6,0,5.2,0,7.8,0c0.3,0.4-0.2,0.8,0.1,1.1c0,0.1,0,0.3,0.1,0.4
		c0.1,0.3,0.3,0.3,0.6,0.3c0.5,0,0.5-0.5,0.7-0.9c0.5,0.9,0.8,1,1.4,0.4c0.2-0.1,0.4-0.2,0.5-0.4c0.4-0.5,1-0.5,1.5-0.4
		c0.8,0.1,1.6,0.3,2.3,0.4l0,0c0,0.3-0.2,0.4-0.5,0.4c-0.2,0-0.4,0.1-0.4,0.4c-0.1,0.1-0.1,0.3,0,0.4c0.4,0.3,1.2,0,1.2-0.5
		c0-0.3,0.2-0.4,0.3-0.6c0.1,0,0.3,0,0.4-0.1c0.3,0.2,0.7,0.3,1.1,0.2c0.1,0,0.2,0,0.2,0c0.3,0.2,0.6,0.3,0.9,0.2c0.1,0,0.2,0,0.2,0
		c0.2,0.2,0.5,0.3,0.8,0.2c0.1,0,0.2,0,0.2,0c0.2,0.2,0.5,0.3,0.8,0.2c0.1,0,0.2,0,0.2,0c0.9,0.4,1.9,0.7,2.8,0.8
		c0.1,0,0.2,0,0.2,0.1c0.1,0.2,0.3,0.2,0.5,0.2c0.1,0,0.2,0,0.2,0.1c0.1,0.2,0.3,0.3,0.5,0.2c0.1,0,0.2,0,0.2,0.1
		c0.1,0.1,0.2,0.2,0.3,0.2c1.3,0.4,2.5,1,3.7,1.4c1.1,0.4,2.1,1.1,3.3,1.4c0,0,0,0,0.1,0c1.1,0.7,2.3,1.3,3.5,1.9c0,0,0,0,0.1,0.1
		C97.5,8.8,97.7,8.9,98,9C98,9,98.1,9,98.1,9.1c0.3,0.3,0.7,0.5,1.1,0.7c0.1,0,0.1,0.1,0.2,0.1c0.5,0.4,1,0.8,1.6,1.1c0,0,0,0,0.1,0
		C101.2,11.1,101.2,11.2,101.4,11.2z M77.2,3.5c0.3,0,0.6,0,0.7-0.4C78,2.7,78.1,2.2,78,1.9c-0.2-0.3-0.4,0.3-0.7,0.4
		c-0.1,0-0.3,0-0.4,0.1c-0.3,0.1-0.5,0.4-0.4,0.7C76.6,3.4,76.8,3.5,77.2,3.5z"/>
	<path d="M95.3,56.7c-1.2-0.9-2.3-1.7-3.3-2.6c-0.1-0.1-0.2-0.2-0.3-0.3c-0.6-2.3-2-4.2-3.5-6c-3-3.3-6.5-5.9-10.3-8.1
		c-1.5-0.9-3.2-1.3-5-1.6c-4.7-0.9-9.5-0.9-14.3-0.7c-0.6,0-1.2,0.1-1.7,0.1c-0.3,0-0.4,0-0.3-0.3c0.3-0.7,0.6-1.5,0.8-2.2
		c0.1-0.3,0.3-0.3,0.5-0.3c4.2-0.5,8.5-0.5,12.7,0c0.2,0,0.3,0.1,0.4,0.4c0.2,0.7,0,1.4,0.1,2.1c0,0.3,0.3,0.4,0.5,0.4
		c0.3,0,0.2-0.3,0.2-0.4c0.1-0.9,0.4-1.5,1.2-2c0.1-0.1,0.3-0.1,0.4,0c0.6,0.1,1.2,0.2,1.8,0.4c1.1,0.3,2.3,0.6,3.4,1
		c6.8,2.8,12.1,7.1,15.2,13.9c0.8,1.7,1.2,3.4,1.4,5.2C95.3,55.9,95.3,56.2,95.3,56.7z M82.3,39.2c-0.3,0-0.6,0.1-0.6,0.4
		c0,0.3,0.2,0.7,0.4,0.7c0.4,0,0.8-0.2,0.9-0.6C83.1,39.3,82.6,39.4,82.3,39.2z"/>
	<path d="M74.9,103.5c-1.5,0.5-3.1,0.7-4.7,0.9c-1.2,0.2-2.4,0.3-3.6,0.3c-0.2,0-0.3,0-0.5-0.1c0.5-0.2,1-0.4,1.5-0.7
		c0.2-0.1,0.3-0.2,0.2-0.5c-0.1-0.3,0-0.6-0.1-0.9c-0.1-0.8,0.4-0.9,1-1c6.7-1.3,13-3.7,18.6-7.8c0.5-0.3,0.9-0.7,1.4-1.1
		c0.6-0.6,1.3-0.7,2.1-0.7c0.6,0,1.2-0.3,1.6-0.6c0.3-0.2,0.5-1.1,0.1-1.6c-0.3-0.5-0.1-0.7,0.2-1.1c2-2.3,3.8-4.8,5-7.7
		c0.2-0.5,0.4-1,0.7-1.6c0.6,1.2,1.2,2.3,1.8,3.5c0.1,0.3-0.1,0.5-0.2,0.7c-2,4.4-4.8,8.1-8.4,11.3c-4.7,4.3-10.3,7-16.4,8.6
		C75.3,103.5,75.2,103.4,74.9,103.5c0.5-0.4,1-0.7,1.2-1.3c0.2-0.4,0.1-0.5-0.3-0.6c-0.7-0.2-1.2,0.5-1.9,0.4
		c-0.1,0-0.1,0.2-0.1,0.2C74.4,102.5,74.4,103.2,74.9,103.5z M92.8,91.8C92.7,91.9,92.7,91.9,92.8,91.8C92.8,92,92.8,92,92.8,91.8
		C92.8,91.9,92.8,91.9,92.8,91.8C92.8,91.8,92.8,91.8,92.8,91.8z M92.9,92.1C92.9,92.1,92.8,92.1,92.9,92.1
		C92.9,92.2,92.9,92.2,92.9,92.1C92.9,92.1,92.9,92.1,92.9,92.1C92.9,92.1,92.9,92.1,92.9,92.1z"/>
	<path id="XMLID_420_" d="M37.1,69.7c-0.1-1.2-0.2-2.3-0.3-3.4c0-0.2,0.1-0.3,0.2-0.4c5.6-4.1,11.5-7.8,18.3-9.4
		c6.4-1.6,12.9-1.4,19.3,0.1c0.1,0,0.2,0.1,0.4,0.1c-0.3,0.7-0.6,1.3-0.7,2c-0.1,0.4-0.4,0.2-0.6,0.2c-2.2-0.3-4.3-0.5-6.5-0.5
		c-8.6,0.1-16.4,2.6-23.8,6.8C41.3,66.5,39.2,67.9,37.1,69.7z"/>
	<path d="M128.9,52.8c0,0.1,0,0.2,0,0.2c0,0.1,0,0.3,0,0.4c0.5,2.5,0.8,5,0.9,7.5c0,0.2,0,0.3,0.2,0.5c0,2.4,0,4.8,0,7.2
		c-0.2,0.2-0.2,0.5-0.2,0.8c-0.1,2-0.4,4.1-0.7,6.1c-0.1,0.5-0.3,1-0.2,1.5c0,0.1,0,0.2,0,0.2c-0.2,0.3-0.3,0.7-0.2,1
		c0,0.1,0,0.2,0,0.2c-0.2,0.2-0.2,0.4-0.2,0.6c-0.6,2.9-1.5,5.8-2.5,8.6c-0.5,1.3-1,2.7-1.7,4c-0.6-0.5-1.1-1.1-2-1.1
		c-0.4,0-0.4-0.2-0.2-0.5c1-2.4,2-4.8,2.7-7.4c0.3-1.2,0.8-2.4,0.9-3.6c0-0.1,0-0.2,0-0.2c0.2-0.2,0.2-0.4,0.2-0.6
		c0.8-3.6,1.2-7.3,1.4-11c0.1-3.3,0-6.5-0.4-9.8c-0.1-0.5-0.4-1.1,0.2-1.5c0.1-0.1,0-0.3-0.2-0.4c-0.4-0.1-0.4-0.5-0.4-0.8
		c-0.3-1.3-0.3-2.6-0.8-3.9c0-0.1,0-0.2,0-0.2c-0.1-0.6-0.2-1.2-0.5-1.8c0-0.1,0-0.2,0-0.2c-0.1-1.1-0.6-2-0.8-3.1
		c-0.2-0.6,0.1-0.9,0.7-0.8c0.3,0.1,0.5,0.2,0.8,0.2c0.7-0.1,1.1,0.1,1.3,0.7c0.3,0.8,0.5,1.6,0.7,2.5c0.3,1,0.4,2.1,0.8,3.1
		c0,0.1,0,0.2,0,0.2C128.6,52.1,128.6,52.4,128.9,52.8z M128.2,56.1c0-0.2-0.1-0.3-0.3-0.3c-0.2,0-0.4,0.1-0.4,0.3
		c0,0.2,0.2,0.3,0.4,0.3C128.1,56.4,128.2,56.3,128.2,56.1z"/>
	<path d="M30.6,84.8c-0.2-0.4-0.5-0.8-0.7-1.3c-0.2-0.3-0.3-0.5,0.1-0.7c0.2-0.1,0.2-0.3,0-0.4c-0.6-0.2-0.6-0.7-0.6-1.2
		c0.1-0.8-0.2-1.5-0.4-2.2c-0.1-0.4-0.3-0.7-0.8-0.8c-1-0.2-1.3-0.9-0.9-1.8c0.4-0.7,0.2-1.1-0.6-1.1c-0.3,0-0.3-0.2-0.3-0.4
		c-1-3.9-1.5-7.9-1.2-12c0.1-2.3,0.5-4.7,1.1-6.9c0.1-0.2,0.1-0.4,0.2-0.7c0.6,0.9,1.6,1,2.3,1.5c0.8,0.5,1,0.8,0.7,1.8
		c-0.2,0.8-0.5,1.7-0.6,2.5c-0.3,2.6-0.3,5.2,0.2,7.8c1.2,6.6,3.8,12.6,7.1,18.4c0.1,0.2,0.3,0.3,0.2,0.6c-1.4-0.2-2.7-0.3-4.1-0.6
		c-0.7-0.1-0.8-0.8-1.1-1.3c0.1-0.2,0-0.2-0.1-0.3c-0.1-0.1-0.1-0.1-0.2-0.2c0-0.3,0.2-0.2,0.4-0.3c0.2,0,0.5-0.1,0.4-0.4
		c-0.1-0.3-0.4-0.2-0.6-0.1C31.1,84.9,30.8,84.8,30.6,84.8z M31,82.8c0.4,0,1-0.8,1-1.3c0-0.2,0-0.5-0.3-0.5
		c-0.3-0.1-0.3,0.2-0.5,0.3c-0.2,0.3-0.2,0.8-0.5,1.2C30.7,82.6,30.8,82.8,31,82.8z M30.3,79.8c0,0.4,0.3,0.3,0.5,0.3
		c0.2,0,0.4,0.1,0.4-0.2c0-0.3-0.4-0.5-0.6-0.5C30.2,79.3,30.3,79.6,30.3,79.8z M28.2,66c-0.2,0.1-0.6,0.1-0.6,0.5
		c0,0.1,0.1,0.2,0.2,0.2C28.2,66.6,28.1,66.3,28.2,66z"/>
	<path id="XMLID_413_" d="M73.2,92.5c-1.1,0.3-2.1,0.7-3.2,1c-0.3,0.1-0.5-0.1-0.7-0.2c-3.9-2.1-7.5-4.6-10.8-7.6
		c-4.1-3.8-7.6-8-10.1-13c-1.2-2.3-2.1-4.8-2.8-7.3c-0.1-0.5-0.1-0.7,0.4-0.9c0.4-0.1,0.8-0.3,1.1-0.6c0.5-0.4,0.6-0.2,0.8,0.3
		c2.4,6.7,5.8,12.8,10.8,17.9c3.9,3.9,8.5,6.9,13.2,9.6c0.3,0.2,0.7,0.4,1,0.6C73.1,92.4,73.2,92.4,73.2,92.5z"/>
	<path d="M30.7,55.2c-0.3-1.1-0.5-1.2-1.4-0.9c-0.3,0.1-1.8-0.3-2.1-0.5c-0.2-0.2,0-0.4,0.1-0.7c1.2-3.6,3-6.9,5.1-10
		c3.7-5.4,8.2-9.9,13.3-14c0,0,0.1,0,0.2-0.1c-0.4,1.6-0.8,3.2-1.1,4.7c-0.2,0.7-0.5,1.3-1,1.8c-5.3,5.3-9.7,11.3-12.5,18.3
		C31,54.3,30.9,54.7,30.7,55.2z M41,35c-0.2,0-0.2,0.3-0.3,0.4c-0.1,0.2,0,0.3,0.2,0.3c0.2,0,0.4-0.1,0.4-0.3
		C41.3,35.2,41.2,35.1,41,35z M32.5,49.1c0-0.1-0.1-0.2-0.2-0.2c-0.2,0-0.3,0.1-0.3,0.3c0,0.1,0.1,0.2,0.2,0.2
		C32.4,49.3,32.5,49.2,32.5,49.1z"/>
	<path id="XMLID_409_" d="M58,17.5c0,0.2-0.2,0.3-0.4,0.5c-2.6,3.1-5,6.4-7,9.9c-2.2,4-3.4,8.3-4.1,12.7c-0.6,3.3-0.8,6.6-0.8,9.9
		c0,0.4-0.1,0.5-0.5,0.6c-0.5,0.1-1,0.2-1.5,0.3c-0.4,0.1-0.5,0-0.6-0.4c-0.1-1.4-0.2-2.8-0.1-4.2c0.1-6.3,1.5-12.3,4.2-18
		c0.3-0.5,0.8-1,0.8-1.6c0-0.1,0.1-0.2,0.3-0.2c0.7,0.1,0.6-0.4,0.5-0.8c-0.1-0.4,0-0.6,0.2-0.9c1.7-2.9,3.7-5.7,6-8.2
		c0.5-0.6,1.1-1.1,1.6-1.7c0.2-0.3,0.5-0.3,0.6,0.1c0,0.1,0.1,0.3,0.2,0.3C58,16.2,57.8,16.9,58,17.5z"/>
	<path id="XMLID_408_" d="M82.2,30.8c2,0.9,3.8,2.1,5.4,3.5c1.3,1.2,2.8,2.2,4,3.6c1.9,2.1,3.6,4.3,5.1,6.7c0.3,0.5,0.5,1,0.1,1.5
		c-0.1,0.2-0.2,0.4,0,0.5c0.2,0.2,0.5,0.2,0.7,0.1c0.5-0.3,0.6,0.1,0.7,0.3c2.2,4,3.8,8.3,4.9,12.7c0.4,1.6,0.8,3.3,1,5.2
		c-0.9-0.8-1.6-1.5-2.4-2.2c-0.1-0.1-0.1-0.3-0.2-0.4c-0.3-1-0.6-2.1-0.9-3.1c-0.1-0.2-0.2-0.5,0-0.6c0.4-0.3,0.4-0.7,0.1-1
		c-0.1-0.1-0.1-0.1-0.1-0.2c-0.1-0.4-0.3-0.6-0.7-0.7c-0.4-0.1-0.4-0.4-0.5-0.7c-1.5-3.7-3.3-7.3-5.6-10.6c-2.8-4-6.1-7.5-10.1-10.2
		c-0.1-0.1-0.2-0.1-0.2-0.2c0.2-0.2,0.5-0.2,0.7-0.3c0.1-0.1,0.2-0.2,0.2-0.4c0-0.1-0.1-0.3-0.3-0.2c-0.7,0.3-1.1-0.4-1.6-0.6
		c-0.3-0.1-0.5-0.3-0.5-0.6c0-0.3-0.2-0.4-0.4-0.3c-0.5,0.1-0.9,0.2-0.7-0.6c0-0.1-0.1-0.2-0.1-0.2c-0.3-0.3-0.1-0.5,0.1-0.7
		c0.2-0.3,0.4-0.3,0.7-0.1C81.8,30.9,82,31,82.2,30.8z"/>
	<path id="XMLID_407_" d="M37.4,59.4c0.3-1.2,0.6-2.3,0.8-3.4c0.1-0.2,0.2-0.3,0.4-0.5c4.2-2.7,8.8-4.7,13.6-6.1
		c3-0.9,6.1-1.5,9.3-1.7c2.8-0.2,5.7-0.1,8.5,0.2c0.2,0,0.5,0,0.3,0.3c-0.1,0.2-0.2,0.3,0.1,0.4c0.2,0.1,0.4,0,0.5-0.2
		c0.1-0.5,0.4-0.4,0.7-0.3c1.3,0.2,2.5,0.5,3.8,0.9c0.4,0.1,0.4,0.2,0.3,0.5c-0.2,0.5-0.3,1.1-0.3,1.7c0,0.3-0.1,0.4-0.4,0.3
		c-1.8-0.4-3.5-0.6-5.3-0.8c-0.7-0.1-1-0.7-0.6-1.3c0.3-0.5,0.2-0.6-0.3-0.7c-0.6-0.1-1.2,0-1.5-0.8c-0.1-0.2-0.4-0.1-0.4,0.1
		c-0.1,0.7-0.5,1.3-1.1,1.6c0,0-0.1,0.1-0.1,0.2c0.1,0.8-0.5,0.7-1,0.7c-9.9,0-18.8,2.7-26.9,8.5C37.6,59.2,37.6,59.2,37.4,59.4z"/>
	<path id="XMLID_406_" d="M57.8,31.8c-1,2-1.8,4.1-2.5,6.2c-0.1,0.3-0.1,0.7-0.6,0.3c-0.2-0.1-1.1,0.5-1.2,0.9
		c-0.2,0.4-0.3,0.5-0.7,0.2c-0.1-0.1-0.2-0.2-0.3-0.1c-0.2,0.1,0,0.3,0,0.4c0.2,0.2,0.2,0.5,0.2,0.7c0,0.6,0.1,1.1,0.5,1.5
		c0.2,0.2,0.1,0.3,0,0.5c-0.4,0.6-0.3,1,0.4,1.3c0.3,0.2,0.1,0.4,0.1,0.5c0,0.3-0.2,0.4-0.4,0.3c-0.4-0.1-0.5,0-0.5,0.4
		c0,1.2-0.1,1.3-1.2,1.7c-0.1,0-0.2,0.1-0.2,0.3c0,0.2,0.1,0.2,0.2,0.2c0.3,0.1,0.7,0.1,1,0.2c0.3,0.1,0.6,0.1,0.7,0.5
		c0.1,0.4-0.3,0.4-0.5,0.6c-0.7,0.3-1.3,0.6-2,0.9c0.1-1.7,0.2-3.3,0.4-4.9c0.1-0.5,0.7-0.4,0.7-0.8c0-0.3-0.6-0.3-0.5-0.9
		c0.3-1.6,0.6-3.3,1-4.9c1.4-5.3,3.9-9.9,7.1-14.3c0.2-0.2,0.3-0.5,0.6-0.5c0.1,0,0.2-0.1,0.2-0.1c0.7-1.7,2.2-2.8,3.5-4
		c0.1,0,0.1,0,0.2,0c-0.1,0.2-0.1,0.4,0.1,0.5c0.1,0.2,0.2,0.2,0.3,0.1c0.1,0,0.1-0.1,0.2-0.1c0.2-0.1,0.2-0.2,0-0.3
		c-0.1-0.2-0.1-0.3-0.3-0.3c0-0.1-0.1-0.2-0.1-0.3c1-0.8,1-0.8,1.9,0.1c1.6,1.6,3,3.2,4.5,4.9c0,0.1,0,0.1-0.1,0.1
		c-0.3,0.1-0.8,0.1-0.8,0.5c-0.1,0.4,0.5,0.3,0.7,0.5c0.2,0.2,0.4,0.3,0.3,0.6c-0.1,0.3-0.3,0.1-0.5,0.1c-0.9,0.2-1.5-0.1-2-0.9
		c-0.2-0.4-0.6-0.7-0.9-1c-0.5-0.6-0.5-1,0.2-1.5c0.2-0.2,0.4-0.3,0.6-0.5c0.1-0.1,0.2-0.3,0.1-0.4c-0.1-0.2-0.3-0.2-0.4-0.1
		c-0.3,0.2-0.5,0.2-0.8,0.3c-0.3,0-0.3,0.3-0.4,0.6c-0.1,0.3-0.3,0.5-0.6,0.1c-0.8-0.8-0.8-0.8-1.6,0.1c-2.5,2.9-4.6,6-6.2,9.5
		c-0.3,0-0.4-0.4-0.7-0.5c-0.2-0.1-0.3-0.2-0.5-0.1c-0.1,0.1-0.2,0.2-0.1,0.3c0,0.2,0.2,0.4,0.4,0.5C57.2,31.7,57.5,31.7,57.8,31.8z
		"/>
	<path id="XMLID_405_" d="M79.3,86.8c0.7,0.2,1.5,0.5,2.3,0.8c-0.8,0.6-1.5,1.2-2.3,1.8c-0.2,0.1-0.3,0.1-0.5,0
		c-0.8-0.4-1.8-0.7-2.5-1.4c-0.2-0.3-0.3-0.6-0.5-0.9c-0.2-0.3-0.3-0.5-0.7-0.5c-0.5,0.1-0.3,0.4-0.3,0.7c-0.5,0-0.9-0.3-1.2-0.6
		c-4.4-2.3-8.5-5-11.9-8.6c-3.9-4.3-6.6-9.2-8.8-14.5c-0.2-0.6-0.4-1.2-0.7-1.7c-0.2-0.4,0-0.5,0.3-0.6c0.5-0.1,0.9-0.2,1.3-0.4
		c0.5-0.3,0.6-0.1,0.8,0.4c0.5,1.6,1.1,3.1,1.9,4.6c2.4,5,5.7,9.4,9.8,13.1c0.3,0.2,0.5,0.4,0.1,0.7c-0.1,0.1-0.2,0.3-0.1,0.5
		c0.1,0.2,0.3,0.2,0.4,0.2c0.8-0.2,1.4,0.1,2,0.6c2.1,1.6,4.3,3,6.6,4.1c0.5,0.2,0.5,0.7,0.7,1c0.1,0.1-0.1,0.2-0.2,0.3
		c-0.2,0.1-0.4,0.2-0.2,0.4c0.1,0.2,0.3,0.3,0.5,0.2c0.6-0.3,1.4,0,1.9-0.6c0,0,0.2,0.1,0.3,0.1c0,0.3,0.1,0.5,0.1,0.8
		c0,0.3,0.2,0.4,0.5,0.4c0.3,0,0.3-0.2,0.3-0.5C79.4,87.1,79.3,87,79.3,86.8z"/>
	<path id="XMLID_404_" d="M46.6,127.4c-0.2-0.1-0.3-0.1-0.5-0.1c-0.1-0.1-0.2-0.1-0.3-0.1c-0.1-0.1-0.3-0.2-0.5-0.2
		c-0.2-0.1-0.4-0.3-0.6-0.2c-0.1,0-0.3-0.1-0.4-0.1c-0.1-0.1-0.2-0.2-0.3-0.2c-0.2-0.1-0.3-0.1-0.5-0.2c0-0.1-0.1-0.2-0.2-0.1
		c-0.2-0.1-0.3-0.1-0.5-0.2c0-0.1-0.1-0.2-0.2-0.1c-0.1,0-0.3-0.1-0.4-0.1c0-0.1-0.1-0.2-0.2-0.1c-0.1,0-0.3-0.1-0.4-0.1
		c-0.1-0.1-0.1-0.1-0.3-0.1c-0.1-0.1-0.2-0.1-0.4-0.2c-0.3-0.3-0.7-0.4-1.2-0.5c-0.5-0.2-1-0.4-1.4-0.6c-0.1-0.1-0.2-0.2-0.3-0.2
		c-0.5-0.2-1-0.5-1.5-0.7c-0.1-0.1-0.2-0.2-0.3-0.2c-0.4-0.2-0.8-0.4-1.2-0.6c-0.1-0.1-0.2-0.2-0.3-0.2c-0.1,0-0.1-0.1-0.2-0.1
		c-0.1-0.1-0.2-0.2-0.3-0.2c-0.4-0.2-0.8-0.4-1.2-0.6c0-0.1-0.1-0.2-0.2-0.1c0,0,0,0-0.1,0c-0.1-0.1-0.2-0.2-0.3-0.2
		c-0.1-0.1-0.2-0.1-0.3-0.2c-0.1-0.1-0.2-0.2-0.3-0.2c-0.3-0.2-0.6-0.4-0.9-0.6c-0.1-0.1-0.2-0.2-0.3-0.2c-1.1-0.7-2.1-1.4-3.2-2.2
		c-0.1-0.2-0.2-0.3-0.4-0.3c-0.3-0.2-0.6-0.4-0.9-0.6c0.3-1.2,0-1.8-1-2.1c0-0.1,0-0.2,0-0.2c0.2-0.2,0.4-0.3,0.7-0.2
		c0.2,0,0.4,0.2,0.4-0.1c0-0.2-0.2-0.3-0.4-0.4c-0.5-0.2-0.8,0.2-1.1,0.3c-0.1-0.1-0.2-0.2-0.3-0.3c0.1-0.1,0.1-0.3,0.2-0.4
		c-0.1-0.5-0.3-0.5-0.7-0.3c-0.1,0-0.2,0-0.2,0.1c-0.4,0.1-0.5-0.2-0.7-0.4c0-0.1,0-0.2-0.1-0.2c-0.3-0.2-0.6-0.4-1-0.5
		c-0.1-0.1-0.2-0.2-0.3-0.2c0,0,0,0-0.1,0c0-0.1-0.1-0.2-0.2-0.2c0-0.1-0.1-0.2-0.1-0.3c0-0.2,0-0.4-0.2-0.4c-0.3,0-0.3,0.2-0.2,0.4
		c0,0.1,0,0.2-0.1,0.4c-0.1,0.1-0.3,0.1-0.5,0.1c-0.4-0.5-1-0.9-0.9-1.6c0.2-0.4,0.6-0.3,0.9-0.3c0.2,0,0.6,0,0.2-0.4
		c0,0,0-0.1,0-0.1c0-0.2-0.1-0.4-0.1-0.6c0-0.1,0.1-0.1,0.1-0.2c0.1-0.1,0.3-0.1,0.4-0.2c2.8,2.9,5.9,5.4,9.2,7.7
		c0.1,0.1,0.2,0.2,0.3,0.2l0,0c0,0,0,0,0,0c0.1,0.2,0.2,0.2,0.4,0.3c0.9,0.6,1.8,1.3,2.8,1.8c0,0.1,0.1,0.2,0.2,0.1c0,0,0,0,0.1,0
		c0.1,0.1,0.2,0.2,0.3,0.2c0.9,0.6,1.8,1.1,2.7,1.5c0.1,0.1,0.2,0.2,0.3,0.2c0.1,0,0.1,0.1,0.2,0.1c0.1,0.1,0.2,0.2,0.3,0.2
		c0.7,0.4,1.4,0.7,2.1,1c0.1,0.1,0.2,0.2,0.3,0.2c0.1,0,0.3,0.1,0.4,0.1c0,0.1,0.1,0.2,0.2,0.1c0.1,0,0.3,0.1,0.4,0.1
		c0,0.1,0.1,0.2,0.2,0.1c0.3,0.1,0.6,0.2,0.8,0.3c0.1,0.1,0.2,0.2,0.4,0.1c0.2,0.2,0.5,0.2,0.8,0.3c0,0.1,0.1,0.2,0.3,0.1
		c0.4,0.1,0.7,0.4,1.2,0.4c0.1,0.1,0.1,0.2,0.3,0.1c0.2,0.1,0.4,0.1,0.6,0.2c0,0.1,0.1,0.2,0.2,0.1c0.2,0,0.4,0.1,0.5,0.1
		c0.1,0.2,0.3,0.2,0.5,0.2c0.1,0,0.2,0,0.2,0.1c0.2,0.2,0.4,0.3,0.6,0.2c0.1,0,0.2,0,0.2,0c0.2,0.2,0.4,0.3,0.6,0.2
		c0.1,0,0.2,0,0.2,0.1c0.1,0.1,0.2,0.1,0.3,0.1c0.1,0,0.2,0.1,0.2,0.1c0.1,0.1,0.1,0.1,0.3,0.1c0.3,0.1,0.5,0.1,0.8,0.2
		c0.1,0.1,0.1,0.1,0.3,0.1c0.2,0,0.4,0.1,0.6,0.1c0.1,0.1,0.1,0.1,0.2,0.1c0.1,0,0.2,0.1,0.3,0.1c0.1,0.1,0.2,0.2,0.4,0.1
		c0.1,0,0.3,0,0.4,0c0.3,0.1,0.6,0.2,0.9,0.1c0.2,0,0.4,0.1,0.6,0.1c0.2,0.2,0.5,0.2,0.8,0.2c0,0,0,0,0.1,0c0,0.1,0,0.1,0,0.2
		c-0.1,0.1-0.2,0.2-0.4,0.4c-0.3,0.2-0.2,0.7-0.5,0.9c-0.1,0.1-0.2,0.2-0.3,0.3c-0.2,0-0.3,0-0.5-0.1c-0.1-0.1-0.1-0.1-0.2-0.2
		c0-0.2-0.3-0.3-0.3-0.5c0.1-0.2,0.2-0.4,0-0.5c-0.3-0.6-0.5-0.6-1.1-0.1l0,0c-0.1,0-0.2,0.1-0.3,0.2c-0.1,0-0.1,0.1-0.2,0.1
		c-0.2,0-0.3,0-0.5,0c-0.2-0.1-0.3-0.1-0.5,0c-0.2-0.1-0.3,0-0.3,0.2c-0.3,0.1-0.5,0.4-0.8,0.4c-0.1-0.1-0.2,0-0.3,0.1
		c-0.3,0-0.5,0-0.8,0c-0.1-0.1-0.1-0.1-0.3-0.1c-0.2-0.1-0.4-0.1-0.6-0.2C46.9,127.4,46.8,127.3,46.6,127.4z"/>
	<path d="M75.7,39.5c1,0.8,1.8,1.5,2.7,2.1c0.2,0.2,0.3,0.4,0.4,0.7c0.5,3.6,0.7,7.2,0.4,10.8c-0.3,3.8-1,7.4-2.3,11
		c-2.1,5.3-5.2,10-9,14.3c-0.1,0.1-0.2,0.1-0.3,0.2c-0.4-0.6-0.8-1.1-1.4-1.4c-0.4-0.2-0.3-0.4,0-0.7c2-2.3,3.9-4.7,5.4-7.4
		c3.6-6.2,5.4-12.8,5.5-20c0-0.4-0.1-0.9,0.6-0.6c0.2,0.1,0.4-0.1,0.4-0.3c0-0.5,0.3-0.7,0.5-1c0.3-0.4,0.3-0.9,0.6-1.3
		c0.1-0.1-0.1-0.3-0.3-0.4c-0.1,0-0.3,0-0.4,0c-0.3-0.2-0.8,0.6-1-0.2c-0.1-0.4-0.7-0.6-0.4-1.1c0.1-0.1-0.1-0.3-0.2-0.5
		c-0.1-0.2-0.2-0.4-0.1-0.5c0.4-0.6-0.1-1-0.3-1.5C75.9,41.2,75.9,40.4,75.7,39.5z M77.6,42c-0.1-0.2-0.3-0.4-0.5-0.4
		c-0.2,0-0.4,0-0.4,0.3c0,0.3,0.4,0.2,0.6,0.3C77.5,42.2,77.6,42.2,77.6,42z"/>
	<path id="XMLID_401_" d="M95.5,91.7c0.7-1,1.3-1.8,1.9-2.6c0.2-0.2,0.4-0.2,0.7-0.3c1.5-0.2,3-0.5,4.4-0.9c0.7-0.2,0.7-0.5,0.6-1.1
		c-0.6-3.2-1.8-6.2-3.5-9c-3.4-5.6-8.1-9.9-13.4-13.6c-0.4-0.3-0.6-0.5-0.4-1c0.2-0.4,0.3-0.8,0.4-1.3c0.1-0.5,0.3-0.5,0.7-0.2
		c2.6,1.8,5,3.8,7.3,5.9c4.4,4,7.5,8.9,9.7,14.4c0.9,2.3,1.6,4.6,1.9,7c0,0.3,0.1,0.6-0.4,0.6C102.3,90.3,99,91,95.5,91.7z"/>
	<path id="XMLID_400_" d="M43.6,88c-1.3,0-2.7,0-4,0c-0.3,0-0.4-0.2-0.5-0.4c-0.5-1.1-0.9-2.1-1.4-3.2c-0.1-0.2-0.1-0.4,0.1-0.6
		c0.3-0.3,0.2-0.8,0.2-1.2c-0.1-0.4-0.4-0.5-0.8-0.4c-0.3,0.1-0.5-0.1-0.6-0.4c-1.9-4.8-3.5-9.6-4.2-14.7c-0.1-0.5-0.1-1.1-0.1-1.6
		c0-0.3,0-0.5,0.3-0.6c0.3-0.1,0.6-0.1,0.8,0.1c0.1,0.1,0.1,0.2,0.2,0.3c0.4,0.6,1.4,0.9,2,0.6c0.3-0.1,0.2-0.4,0-0.5
		c-0.4-0.3-0.5-0.6-0.5-1.1c0-0.1,0-0.1,0-0.2c-0.1-0.3-0.1-0.8-0.5-0.9c-0.4,0-0.3,0.5-0.4,0.7c-0.1,0.1-0.1,0.4-0.3,0.4
		c-0.2,0-0.3-0.2-0.3-0.3c-0.1-0.5-0.5-0.7-0.9-0.8c-0.4-0.1-0.4-0.3-0.3-0.5c0.1-0.6,0.2-1.3,0.4-1.9c0-0.1,0.1-0.2,0.2-0.4
		c0,0.3,0,0.4,0.1,0.6c0.1,0.2,0.3,0.3,0.4,0.1c0.1-0.5,0.8-0.5,1-0.9c0.1-0.2,0.4-0.1,0.6,0c0.4,0.1,0.9,0.5,1-0.4
		c0-0.3,0.3-0.3,0.5-0.2c0.3,0.1,0.1,0.3,0.1,0.4c-0.5,2.8-0.7,5.5-0.4,8.3c0.5,5.8,2.3,11.1,5.2,16.1c0.7,1.2,1.4,2.3,2.2,3.3
		C43.7,87.9,43.6,87.9,43.6,88z"/>
	<path id="XMLID_399_" d="M71.6,81.5c2.9-3.2,5.3-6.6,7.4-10.3c2.6-4.8,4.2-10,4.7-15.5c0.3-3.4,0.5-6.7,0.4-10.1c0-0.1,0-0.2,0-0.5
		c0.9,0.8,1.7,1.4,2.5,2.1c0.2,0.2,0.1,0.5,0.2,0.7c0.1,5.2-0.7,10.3-2.2,15.2c-1.7,5.5-4.2,10.6-7.5,15.3c-0.9,1.3-1.9,2.6-2.9,3.9
		c-0.2,0.3-0.4,0.4-0.8,0.1C72.8,82.1,72.2,81.8,71.6,81.5z"/>
	<path d="M81.1,89.3c5.5-4.5,9.2-10.4,12-16.9c0.1-0.2,0.2-0.4,0.3-0.7c0.6,0.8,1.2,1.6,1.7,2.4c0.1,0.2,0.1,0.3,0,0.5
		c-0.5,1.8-1.2,3.5-2,5.1c0-0.1-0.1-0.1-0.1-0.2c-0.1-0.2-0.2-0.4-0.5-0.3c-0.2,0-0.4,0.1-0.5,0.3c-0.1,0.3,0.2,0.3,0.3,0.5
		c0.1,0.1,0.3,0.2,0.4,0.2c-3.1,6.4-7.7,11.4-14.2,14.6c-0.4,0.2-0.5,0.2-0.6-0.3c-0.2-0.9-0.4-1.8-1.5-2c-0.1,0-0.2-0.1-0.2-0.2
		c0-0.2,0.2-0.2,0.3-0.3c0.9-0.5,1.8-1,2.6-1.6c0.4-0.3,0.8-0.6,1.2-0.9c0.2,0.2,0.1,0.5,0.2,0.7c0.1,0.2,0.3,0.4,0.5,0.2
		C81.6,90.2,81.6,89.6,81.1,89.3z M80,91.8c-0.4,0-0.7,0.2-0.6,0.5c0.1,0.5,0.7,0.2,1,0.4c0.2,0.1,0.5-0.2,0.4-0.4
		C80.8,91.7,80.3,91.9,80,91.8z M93.6,76.3c0-0.2-0.1-0.3-0.3-0.3c-0.4,0-0.5,0.4-0.6,0.7c-0.1,0.2,0.1,0.3,0.3,0.3
		C93.5,76.9,93.5,76.5,93.6,76.3z M93.5,74.2c0-0.3-0.2-0.4-0.4-0.5c-0.2,0-0.3,0.1-0.3,0.3c0,0.2,0.1,0.4,0.3,0.5
		C93.4,74.6,93.5,74.4,93.5,74.2z M85.1,87.8c-0.1-0.3-0.3-0.3-0.5-0.3c-0.2,0-0.3,0-0.3,0.2c0.1,0.3,0.3,0.4,0.5,0.5
		C85,88.2,85.1,88,85.1,87.8z"/>
	<path d="M11.1,28.6C11.2,28.6,11.2,28.5,11.1,28.6c0.5-0.5,0.9-1.1,1.2-1.7c0,0,0,0,0-0.1c0.2-0.1,0.3-0.2,0.3-0.5
		c0.1-0.1,0.1-0.1,0.2-0.2c0.1-0.1,0.2-0.1,0.2-0.3c0,0,0,0,0-0.1c0.2-0.1,0.3-0.2,0.3-0.5c0.1-0.1,0.1-0.1,0.2-0.2
		c0.2-0.1,0.3-0.2,0.3-0.4c0,0,0.1-0.1,0.1-0.1c0.2-0.1,0.3-0.3,0.4-0.5c0,0,0,0,0-0.1c0.2-0.1,0.3-0.2,0.4-0.4
		c0.1-0.2,0.3-0.3,0.4-0.5c0.2-0.1,0.3-0.2,0.4-0.4c0.1-0.1,0.1-0.1,0.2-0.2c0.2-0.1,0.3-0.5,0.6-0.4c0.7,0.1,1-0.4,1-0.9
		c0.1-0.6,0.5-1,0.9-1.4c0.2-0.2,0.4-0.3,0.5-0.6c0.1-0.1,0.3-0.3,0.4-0.4c0.3-0.1,0.5-0.4,0.7-0.6c0,0,0.1,0,0.1-0.1
		c0.2,0,0.5-0.1,0.7-0.1c0.4,0,0.9-0.1,1.1-0.5c0.2-0.4,0.5-0.5,0.9-0.5c0.3,0,0.6,0,0.8,0c0.3-0.1,0.4-0.3,0.1-0.5
		c-0.2-0.2-0.4-0.2-0.7-0.2c-0.3,0-0.7,0.2-1,0c0-0.3,0.4-0.4,0.5-0.7c0.1-0.1,0.1-0.1,0.2-0.2c0.2,0,0.3-0.2,0.4-0.4
		c0.1-0.1,0.1-0.1,0.2-0.2c0.7-0.4,1.3-0.9,1.8-1.5c0.1-0.1,0.1-0.1,0.2-0.2c0.2,0,0.4-0.1,0.4-0.3c0,0,0.1,0,0.1,0
		c0.2-0.1,0.4-0.3,0.6-0.3c0.5,0.1,0.7-0.1,0.8-0.5c0-0.2,0.2-0.4,0.5-0.3c0.3,0,0.2,0.3,0.2,0.5c0,0.1,0,0.3,0,0.4
		c0.1,0.2,0,0.6,0.3,0.7c0.4,0.1,0.6-0.1,0.8-0.4c0.2-0.1,0.4-0.3,0.3-0.6c0-0.2,0-0.4,0-0.6c0-0.2,0.1-0.4,0.4-0.4
		c0.9,0,1.1-0.3,0.7-1.2c-0.1-0.3,0-0.4,0.1-0.5c0,0,0.1,0,0.1,0c0.4-0.1,0.8-0.4,1.1-0.7C31.9,9,32,9,32,9c0.2,0,0.4-0.1,0.6-0.3
		c0,0,0.1,0,0.1-0.1C33.9,8,35,7.4,36.2,6.7c0,0,0.1,0,0.1,0c0.5,0,0.8-0.3,1.2-0.5c0.6-0.3,1.1-0.2,1.6,0.3C39.4,6.8,40,6.8,40.4,7
		c0.1,0,0.2-0.1,0.2-0.2c0.2,0,0.3-0.2,0.5-0.1c0.3,0.1,0.7,0.1,0.7,0.3c0.1,0.3-0.3,0.3-0.5,0.4C40,8,38.8,8.5,37.6,9.1
		c-1.4,0.7-2.8,1.3-4.1,2.3c0,0-0.1,0-0.1,0.1c-0.6,0.2-1.1,0.5-1.5,0.9c-0.1,0-0.1,0.1-0.2,0.1c-0.1,0-0.3,0.1-0.3,0.2
		c0,0-0.1,0-0.1,0c-0.7,0.2-1.2,0.7-1.7,1.1c-2.4,1.8-4.8,3.6-7,5.7c-0.2,0-0.3,0.2-0.4,0.3c0,0-0.1,0-0.1,0c-0.1,0-0.2,0.1-0.3,0.2
		c-0.1,0-0.2,0.1-0.3,0.1c-0.3-0.1-0.7-0.1-0.8-0.3c-0.4-0.5-0.8-0.6-1.3-0.2c0,0,0,0-0.1,0c-0.2,0-0.3,0.1-0.3,0.3
		c0,0.1,0,0.3,0.2,0.3c0.2,0.1,0.3-0.1,0.4-0.2c0.1-0.1,0.1-0.3,0.3-0.3c0.5,0.1,0.6,0.5,0.8,0.8c0.2,0.3,0.2,0.4-0.1,0.7
		c-0.4,0.5-1,0.8-1.3,1.4c-0.1,0.2-0.3,0.3-0.4,0.5c-0.4,0.2-0.7,0.6-0.8,1c-0.1,0.1-0.1,0.1-0.2,0.2c-0.2,0.1-0.4,0.3-0.5,0.6
		c-0.1,0.1-0.1,0.1-0.2,0.2c-0.2,0.1-0.4,0.3-0.5,0.6c0,0,0,0,0,0.1c-0.4,0.3-0.8,0.7-1,1.2c0,0-0.1,0-0.1,0.1
		c-0.2,0.1-0.3,0.2-0.3,0.4c0,0,0,0,0,0.1c-0.2,0.1-0.3,0.2-0.3,0.5c-0.1,0.1-0.1,0.1-0.2,0.2c-0.1,0.1-0.2,0.2-0.2,0.3
		c0,0,0,0,0,0.1c-0.3,0.2-0.5,0.5-0.6,0.8c0,0,0,0,0,0.1c-0.4,0.3-0.6,0.8-0.9,1.1c-0.2,0.3-0.3,0.7-0.8,0.9c0,0,0,0-0.1,0
		C11.1,30.8,11.5,29.6,11.1,28.6z M24.9,15c-0.2,0-0.4,0.1-0.2,0.3c0.2,0.3,0.3,0.6,0.5,0.9c0.2,0.3,0.5,0.1,0.7-0.1
		c0.1-0.2,0.5-0.3,0.3-0.5C25.7,15.3,25.3,15.2,24.9,15z"/>
	<path d="M79.6,128.3c-0.1,0-0.2,0-0.2,0c-0.3-0.1-0.6,0-0.9,0.2c-0.1,0-0.2,0-0.2,0c-0.4-0.1-0.7,0-1,0.2c-0.1,0-0.2,0-0.2,0
		c-0.3-0.1-0.5,0-0.8,0.1c-2.2,0.4-4.4,0.7-6.6,0.8c-0.2,0-0.5,0.1-0.5-0.1c-0.4-0.7-0.8-0.4-1.3-0.2c0,0,0-0.1-0.1-0.1
		c-0.7-0.5-0.6,0.3-0.8,0.5c-1.8,0-3.6,0-5.5,0c-0.3-0.2-0.6-0.2-0.9-0.2c-0.6-0.1-1.2,0-1.8-0.3l0,0c-0.2-0.4,0-0.7,0.4-0.9
		c0.3-0.1,0.4-0.3,0.4-0.6c0-0.5,0.2-0.4,0.5-0.2c0.2,0.2,0.4,0.4,0.6,0.5l0,0c0.2,0.4,0.5,0.4,0.8,0l0,0c0.3-0.1,0.2-0.3,0.2-0.5
		c-0.1-0.6,0.2-0.6,0.6-0.6c1.5,0,3,0.1,4.5,0c1,0,2,0,3-0.2c0.2,0,0.3,0,0.5,0c1,0.1,2.1-0.1,3.1-0.3c1.5-0.2,3.1-0.3,4.6-0.8
		c0.1,0,0.2,0,0.2,0c0.1,0,0.2,0,0.3,0c1.8-0.4,3.5-0.8,5.2-1.4c0.5-0.2,0.9-0.2,1.4,0c0.1,0,0.2,0,0.2,0c0.3,0.4,0.7,0.3,1.2,0.2
		c0.1,0,0.1,0,0.2,0c0.7-0.2,1.3-0.4,1.3-1.2c0-0.5,0.3-0.7,0.7-0.8c1.3-0.3,2.4-1.6,3.9-1.2c0.5-0.6,0.9-0.1,1.4,0
		c0.6,0.1,0.7,0.7,0.8,1.1c0.1,0.4-0.4,0.4-0.6,0.5c-3.8,1.9-7.6,3.4-11.7,4.5C81.5,127.8,80.5,127.9,79.6,128.3z M67.5,128.1
		c-0.1,0-0.2,0-0.2,0.1c0,0.2,0.1,0.3,0.3,0.3c0.1,0,0.3,0,0.2-0.2C67.8,128.1,67.6,128.1,67.5,128.1z"/>
	<path id="XMLID_389_" d="M57.4,86.4c-1.3,0.5-2.5,1-3.7,1.5c-1.2,0.4-2.3,1-3.5,1.4c-7.9,2.8-16,2.9-24,0.7
		c-0.7-0.2-1.4-0.5-2.1-0.7c-0.2-0.1-0.4-0.2-0.3-0.5c0.2-2.3,0.5-4.6,1.7-6.6c0.1-0.2,0.1-0.5,0.4-0.4c0.2,0.1,0.6,0.1,0.7,0.5
		c0.1,0.3,0.2,0.5,0.4,0.7c0.4,0.4,0.5,0.8,0.1,1.3c-0.2,0.3-0.4,0.7,0.1,1c0.3,0.1,0.2,0.3,0.1,0.5c-0.1,0.4-0.3,0.9-0.4,1.3
		c-0.1,0.3-0.1,0.5,0.3,0.7c2.4,1,4.8,1.5,7.4,1.8c4,0.3,8-0.2,11.8-1.2c0.3-0.1,0.9-0.5,0.8,0.4c0,0.2,0.2,0.2,0.4,0.2
		c0.3,0,0.6-0.1,0.9,0c0.3,0,0.4-0.2,0.4-0.5c-0.1-0.6,0.1-0.8,0.7-1c2-0.7,4-1.5,5.9-2.6c0.4-0.2,0.6-0.1,0.8,0.2
		C56.5,85.3,56.9,85.8,57.4,86.4z"/>
	<path id="XMLID_388_" d="M27.9,98.5c0.4-0.5,0.9-0.4,1.3-0.4c1.1,0.1,2.2-0.5,3.3-0.2c0.4,0.1,0.8,0.1,1.1,0.4
		c0.2,0.2,0.4,0.3,0.7,0.2c0.2,0,0.3-0.1,0.4-0.3c0.1-0.2,0-0.3-0.2-0.4c-0.1-0.1-0.3-0.2-0.3-0.3c-0.1-0.4-0.3-0.8-0.1-1.1
		c0.2-0.3,0.6-0.1,0.8-0.1c6.5,0.7,12.8-0.6,18.8-3c0.5-0.2,0.9-0.4,0.9,0.4c0,0.1,0,0.2,0.1,0.2c0.7,0.3,0.7,1,1,1.5
		c0.3,0.5,0.1,0.5-0.2,0.7c-1.6,0.7-3.2,1.3-4.8,1.8c-6.2,1.9-12.4,2.2-18.8,1.3C30.5,99.1,29.2,98.9,27.9,98.5z"/>
	<path id="XMLID_387_" d="M63,9.7c0.1-0.1,0.1-0.1,0.2-0.1c0.6-0.1,1.2-0.1,1.4-1c0.1-0.4,0.5-0.1,0.7,0c2.2,1.4,4.2,3.1,6.1,4.9
		c4,3.9,7.2,8.4,9.8,13.3c0.3,0.6,0.1,0.8-0.4,1c-0.3,0.1-0.6,0.2-0.8,0.3c-0.4,0.1-0.8,0-1-0.4c-1.4-3.2-3.7-5.8-5.8-8.5
		c-1.9-2.4-3.9-4.6-6.3-6.5c-0.4-0.3-0.2-0.5,0-0.7c0.4-0.4,0.1-0.8,0-1.2c-0.1-0.4-0.8-0.7-0.9-0.5c-0.5,0.4-1.2,0.4-1.5,1.1
		c-0.1,0.2-0.2,0.3-0.3,0.4c-1.5,1-2.8,2.1-4.1,3.4c-0.5,0.4-0.9,0.4-1.3-0.1c-0.2-0.3-0.5-0.6-0.9-0.6c-0.3-0.1-0.4-0.2-0.1-0.4
		c0.8-0.8,1.7-1.5,2.5-2.3c0.2-0.2,0.3-0.2,0.5,0c0.4,0.5,0.8,0.5,1.2,0c0.1-0.1,0.3-0.1,0.4-0.1c0.7,0,0.9-0.5,0.9-1
		c0-0.1-0.1-0.3,0-0.4C63.8,9.8,63.4,9.8,63,9.7z"/>
	<path id="XMLID_386_" d="M111.9,105.8c0.1-0.1,0.1-0.1,0.2-0.2c0.3-0.2,0.5-0.4,0.6-0.7c0,0,0,0,0-0.1c0.3-0.2,0.5-0.4,0.6-0.7
		c0.1-0.1,0.1-0.1,0.2-0.2c0.6-0.6,1.2-1.3,1.6-2.1c0,0,0,0,0.1-0.1c0.4-0.3,0.7-0.7,0.9-1.2c0,0,0,0,0-0.1c0.2-0.1,0.3-0.3,0.4-0.4
		c1.3-1.8,2.4-3.7,3.5-5.7c0.5-1,1-2,1.5-2.9c0.1,0.5,0.5,0.5,0.8,0.6c0.2,0.1,0.5,0.1,0.3,0.4c-0.1,0.2-0.2,0.4,0.1,0.4
		c0.2,0.1,0.4-0.1,0.4-0.3c0-0.4,0.2-0.4,0.5-0.3c0.4,0.1,0.1,0.4,0.1,0.6c-0.1,0.3-0.3,0.6-0.4,0.9c-0.6,1.2-1.2,2.4-1.8,3.6
		c0,0,0,0-0.1,0.1c-0.8,1.2-1.6,2.4-2.3,3.6c0,0,0,0,0,0.1c-0.7,0.8-1.3,1.6-1.7,2.5c-0.1,0.1-0.1,0.1-0.2,0.2
		c-0.3,0.2-0.6,0.6-0.7,0.9c0,0-0.1,0-0.1,0.1c-0.2,0.1-0.3,0.2-0.3,0.4c0,0.1-0.1,0.1-0.1,0.2c-0.2,0.1-0.3,0.3-0.4,0.5
		c0,0,0,0,0,0.1c-0.3,0.2-0.5,0.4-0.6,0.7c-0.1,0.1-0.1,0.1-0.2,0.2c-0.6,0.5-1.1,1.1-1.5,1.7c-0.1,0.2-0.3,0.3-0.4,0.5
		c-0.5,0.4-0.9,0.8-1.3,1.3c-1.6,1.5-3.1,3-4.7,4.4c-0.7,0.6-1.3,1.1-2,1.7c-0.2,0-0.3,0.2-0.5,0.3c-0.2,0.1-0.3,0.4-0.5,0.2
		c-0.2-0.2-0.3-0.4-0.2-0.7c0.1-0.2,0.2-0.4,0.1-0.6c-0.2-0.6,0-0.9,0.6-1c0.1,0,0.1,0,0.2,0c0.3,0.1,0.4-0.1,0.5-0.3
		c0.2-0.6,0.6-1.1,0.9-1.6c0,0,0,0,0.1-0.1c0.1-0.1,0.2-0.2,0.3-0.2c0.7,0.2,1.1-0.4,1.7-0.5c0.2,0,0.3-0.1,0.3-0.3
		c0.1-0.6,0.5-0.6,0.9-0.4c0.6,0.4,0.8,0.1,1-0.4c0.2-0.4-0.1-0.7-0.2-1c-0.4-0.7-0.4-1.2,0.1-1.8c0.3-0.3,0.7-0.6,0.8-1
		c0.1-0.1,0.1-0.1,0.2-0.2C111.4,106.5,111.7,106.2,111.9,105.8z"/>
	<path id="XMLID_385_" d="M116.9,87.6c-0.2-0.5-0.8-0.4-0.8-0.9c0-0.3,0.2-0.7,0.4-1c3.2-8,4.5-16.4,3.9-25
		c-0.4-5.8-1.7-11.3-3.9-16.7c-1.3-3.3-3-6.4-4.9-9.4c-0.1-0.1-0.2-0.3-0.2-0.4c0.1-0.2,0.3,0,0.4-0.1c0.7-0.6,0.9,0,1.1,0.4
		c1.4,2.2,2.6,4.5,3.7,6.8c0.1,0.3,0.4,0.6,0.2,1c0,0,0,0.1,0,0.2c1.1,1.1,1.3,2.6,1.8,4c2.8,8,3.6,16.3,2.7,24.7
		c-0.6,5.4-2,10.7-4.1,15.7C117.2,87.1,117.1,87.3,116.9,87.6z"/>
	<path d="M19.7,96c-1.3-0.5-2.6-1.1-3.8-1.8c-0.3-0.2-0.4-0.3-0.4-0.7c0-4.2,0.6-8.3,1.9-12.3c0.2-0.5,0.5-0.8,0.9-1.1
		c0.4-0.3,0.8-0.3,1,0.2c0.1,0.2,0.3,0.4,0.6,0.3c0.5-0.1,0.6,0,0.4,0.5c-1,3-1.7,6-1.9,9.2c-0.2,2.6-0.6,2,1.8,3
		c3,1.3,6.2,2,9.4,2.5c0.3,0,0.6,0.1,1,0.2c-0.3,0.2-0.6,0.5-1.1,0.3c-0.8-0.3-1.5-0.1-2.2,0.1c-0.4,0.1-0.8,0.4-1.1-0.2
		c-0.2-0.4-1-0.4-1.2,0.1c-0.2,0.5-0.8,0.4-1,0.8c-0.1,0.2-0.4-0.2-0.4-0.3c-0.3-0.7-0.9-1.1-1.1-1.8c0-0.2-0.2-0.3-0.4-0.2
		c-0.4,0.1-0.4,0.5-0.6,0.8c-0.1,0.3,0.2,0.3,0.3,0.4c0.2,0.1,0.3,0.3,0.2,0.5c-0.1,0.2-0.3,0.2-0.5,0.1c-0.5-0.2-0.9-0.4-1.4-0.6
		c0,0,0.1-0.1,0.1-0.1c0.3,0,0.6-0.1,0.6-0.4c0-0.2-0.1-0.3-0.3-0.3c-0.4,0-0.5,0.2-0.6,0.5C19.8,95.8,19.8,95.9,19.7,96z M19,82.8
		c-0.1-0.2,0-0.7-0.5-0.7c-0.3,0-0.3,0.3-0.3,0.5c0,0.3,0,0.7,0.5,0.8C19,83.4,18.9,83.1,19,82.8z"/>
	<path id="XMLID_382_" d="M42.5,41c-0.1,2-0.2,3.8-0.3,5.5c0,0.4-0.1,0.6-0.3,0.9c-2.2,3.4-3.9,7-4.9,10.9c-0.1,0.2-0.1,0.4-0.3,0.5
		c-0.1,0.1-0.1,0.2,0,0.3c0.1,0,0.2,0.1,0.2,0c0.1-0.1,0.1-0.2,0-0.3c-0.3-0.2-0.5-0.6-0.8-0.1c-0.2,0.2-0.4,0.1-0.7,0.2
		c-0.2,0.1-0.5,0.1-0.5-0.2c0-0.3,0.3-0.2,0.4-0.2c0.2-0.1,0.4-0.2,0.6-0.3c0.1,0,0.1-0.1,0.2-0.2c-0.5-0.3-0.2-0.8-0.3-1.2
		c-0.1-0.3-0.5-0.1-0.8-0.1c-1,0.1-1,0.1-0.6-0.8c2-5.1,4.7-9.9,7.7-14.5C42.2,41.4,42.3,41.3,42.5,41z"/>
	<path id="XMLID_381_" d="M19.4,98.8c1.6,0,1.8,0.1,2.2,1.5c0,0.1,0.1,0.3,0.2,0.3c0.6,0,0.8,0.5,1.1,0.8c2.8,3.2,5.9,6.1,9.4,8.6
		c0.3,0.2,0.5,0.3,0.6,0.7c0,0.1,0.2,0.2,0.3,0.2c0.6,0,1,0.4,1.5,0.7c2.9,1.9,6,3.5,9.3,4.9c2.6,1.1,5.3,1.9,8,2.6
		c0.4,0.1,0.9,0.2,0.8,0.8c-0.1,0.5-0.4,0.5-0.8,0.4c-3.3-0.8-6.5-1.8-9.6-3.2c-7.7-3.4-14.3-8.2-19.9-14.4
		c-0.2-0.2-0.5-0.5-0.4-0.9c0-0.2-0.1-0.4-0.3-0.4c-0.5,0.1-0.6-0.3-0.8-0.5c-0.5-0.6-0.9-1.2-1.4-1.8C19.5,99,19.5,98.9,19.4,98.8z
		"/>
	<path id="XMLID_380_" d="M60.7,102.1c1.8,0.2,3.6,0,5.4-0.2c0.2,0,0.4-0.1,0.5,0.1c0.1,0.2-0.1,0.4-0.2,0.4c-0.5,0.2-0.5,0.7-0.8,1
		c-0.4,0.4-1,0.6-1.2,1.2c0,0.2-0.3,0.1-0.5,0.1c-1.2,0-2.4-0.1-3.6-0.2c-0.2,0-0.4,0-0.4-0.3c0-0.4-0.4-0.3-0.5-0.1
		c-0.3,0.4-0.6,0.2-1,0.2c-4.2-0.7-8.2-2.1-12.1-4.2c0.9-0.2,1.8-0.2,2.5-0.5c1.1-0.5,2-0.3,3.1,0.2c2.7,1.2,5.5,2,8.5,2.3
		c0.1,0.2,0.3,0.3,0.2,0.6c0,0.2,0.1,0.2,0.2,0.2c0.1,0,0.2,0,0.2-0.1c0-0.1,0-0.2-0.1-0.2C60.5,102.4,60.6,102.2,60.7,102.1z"/>
	<path id="XMLID_379_" d="M12.2,82.6c0.4,1.3,0.9,2.7,1.5,3.9c0.4,0.8,0.2,1.5-0.3,2.2c-0.6-1-1-2-1.3-3.1c-0.3-0.8-0.5-1.5-0.8-2.3
		c-0.2-0.7-0.6-1.4-0.8-2.1C8.4,74,7.7,66.6,8.4,59c0-0.1,0-0.3,0-0.4c0.6,0,0.9-0.3,1-0.9c0-0.1,0-0.2-0.1-0.3
		c-0.1-0.1-0.2,0-0.3,0.1c-0.2,0.2-0.3,0.4-0.5,0.5c0.2-2.3,0.7-4.5,1.2-6.7c0.1-0.3,0.2-0.4,0.5-0.6c0.2-0.2,0.6-0.3,0.8-0.2
		c0.2,0.1,0,0.5,0,0.7C9,59.1,8.8,67,10.2,74.9c0.4,2.5,1.1,4.9,1.9,7.3c-0.1,0-0.2,0-0.3-0.1c-0.2,0-0.4,0-0.5,0.2
		c0,0.1,0,0.2,0,0.2c0.1,0.2,0.3,0.2,0.5,0.1C11.9,82.6,12,82.5,12.2,82.6z"/>
	<path d="M63,94.9c3.7,0.3,7.3-0.2,10.8-1.5c0.1,0,0.1,0,0.2,0c0,0,0.1,0,0.1,0c-0.2,0.5-0.3,1-1,0.8c-0.2,0-0.4,0.1-0.4,0.3
		c0,0.2,0,0.4,0.2,0.5c0.2,0.1,0.3,0.2,0.4,0.4c0.2,0.3,0.4,0.2,0.5,0c0.1-0.1,0.3-0.3,0.4-0.2c0.6,0.4,1-0.2,1.5-0.3
		c0.3-0.1,0.6-0.3,0.9-0.4c0.5-0.2,0.8,0.1,1,0.5c0.2,0.4-0.1,0.6-0.4,0.7c-3.8,1.5-7.7,2-11.7,1.7c-1.1-0.1-2.1-0.2-3.2-0.3
		c-0.7-0.1-1.4-0.6-2.2-0.5c-0.2,0-0.4-0.2-0.3-0.3c0.3-0.4,0.2-1,0.5-1.4c0.2-0.2,0.4-0.3,0.7-0.2c0.4,0.1,0.9,0.2,1.3,0.2
		c0,0.1-0.1,0.2-0.2,0.2c-0.5,0.4-0.2,0.9-0.1,1.2c0.2,0.4,0.6,0.3,0.9,0.2c0.6-0.2,0.5-0.8,0.6-1.1c0.1-0.4-0.4,0-0.6-0.3
		C63,95,63,94.9,63,94.9z M69,95.7c0-0.1-0.1-0.2-0.2-0.2c-0.2,0-0.2,0.2-0.3,0.3c0,0.2,0.1,0.2,0.2,0.2C68.9,96,69,95.9,69,95.7z"
		/>
	<path id="XMLID_376_" d="M68.2,121.6c-1.7,0.1-3.3,0.1-4.9,0.1c0.3-0.4,0.4-0.9,1-0.3c0.2,0.2,0.5,0.1,0.6-0.2
		c0.1-0.5,0.5-0.5,0.9-0.5c5.2-0.1,10.4-0.9,15.4-2.4c3.4-1,6.6-2.4,9.8-4c0.6-0.3,1-0.2,1.2,0.4c0.1,0.3-0.2,0.3-0.4,0.4
		c-2.1,1.2-4.3,2.2-6.5,3c-5.1,1.9-10.3,3.1-15.7,3.6c-0.3,0-0.7,0.2-0.6-0.4c0-0.2-0.1-0.3-0.3-0.2c-0.3,0.1-0.7-0.1-0.9,0.3
		C67.7,121.3,67.9,121.4,68.2,121.6z"/>
	<path id="XMLID_375_" d="M107.7,28.9c-0.1,0-0.3,0-0.3-0.1c-0.1-0.7-0.7-0.7-1.1-1.1c-5.6-6.2-12.3-11-20-14.2
		c-0.2-0.1-0.6-0.1-0.5-0.4c0.1-0.4,0.3-0.5,0.7-0.6c0.3,0,0.5,0.1,0.7,0.2c8.2,3.5,15.1,8.7,20.9,15.4c0.1,0.1,0.4,0.3,0.2,0.5
		C108.3,28.8,108,28.9,107.7,28.9z"/>
	<path id="XMLID_374_" d="M126.1,42.8c0,0.1,0,0.2,0.1,0.2c0,0.3,0.1,0.5,0.2,0.8c0,0.1,0,0.3,0,0.4c-0.3,0.3-0.5,0.1-0.7,0
		c-0.1-0.1-0.2-0.2-0.2-0.2c0-0.2-0.1-0.3-0.2-0.3c-0.1,0-0.1-0.1-0.2-0.1c0-0.1-0.1-0.2-0.2-0.2c0-0.1,0-0.2,0-0.3
		c0.1,0,0.2-0.1,0.2-0.2c0,0,0.1-0.1,0.1-0.1c0.4-0.3,0.2-0.5-0.1-0.5c-0.2-0.1-0.5,0-0.6,0.3c0,0-0.1,0-0.1,0c-0.1,0-0.3,0-0.4,0
		c-0.2-0.1-0.4-0.3-0.6-0.4c-0.2-0.3-0.5-0.6-0.4-1c0-0.2-0.2-0.3-0.4-0.2c0-0.1-0.1-0.1-0.1-0.2c0-0.2,0-0.3-0.2-0.3
		c-0.1-0.2-0.1-0.3-0.2-0.5c0-0.1,0-0.2-0.1-0.2c0-0.3-0.3-0.6-0.4-0.9c0-0.2,0-0.3-0.2-0.3c0-0.1,0-0.1-0.1-0.2
		c0-0.2,0-0.3-0.2-0.3c-0.3-0.6-0.6-1.2-0.9-1.8c0.1-0.1,0.2-0.1,0.3-0.2c0.5,0,0.8,0.5,1.2,0.7c0.3,0.3,0.4,0.3,0.5-0.1
		c0-0.1,0-0.1,0.1-0.2c0.2-0.1,0.2-0.3,0.1-0.5c-0.1-0.3-0.4-0.5-0.7-0.7c-0.2-0.2-0.4-0.2-0.6-0.3c-0.1-0.1-0.3-0.3-0.3-0.5
		c0.2-0.1,0.3-0.2,0.3-0.3c0,0,0.1,0,0.1,0c0.5-0.1,0.9,0.2,1.4,0.4c0.1,0.2,0.2,0.3,0.3,0.5c0,0.2,0.1,0.3,0.2,0.3
		c0,0.1,0,0.1,0.1,0.2c0,0.2,0.1,0.3,0.2,0.3c0,0.2,0.1,0.3,0.2,0.4c0,0.1,0,0.3,0.1,0.3c0.1,0.3,0.1,0.6,0.2,0.9
		c-0.1,0.1,0,0.3,0.1,0.4c0,0,0,0.1,0.1,0.1c0,0.3,0.3,0.4,0.5,0.4c0,0,0,0.1,0,0.1c0,0.2,0.1,0.3,0.2,0.3c0.1,0.4,0.3,0.8,0.5,1.2
		c0,0.4,0.2,0.7,0.4,1c0,0.1,0.1,0.1,0.1,0.2c0,0.1,0,0.2,0.1,0.3c0,0.1,0,0.3,0,0.4c-0.2,0.2-0.1,0.3,0.1,0.4
		c0,0.1,0.1,0.1,0.1,0.2C125.8,42.5,125.9,42.7,126.1,42.8z"/>
	<path id="XMLID_373_" d="M41.1,14.6c-3,1.4-5.8,3.1-8.5,5c-0.9,0.6-1.8,1.3-2.7,2c-0.2,0.2-0.5,0.4-0.8,0.1c-0.4-0.3-0.4-0.6,0-0.9
		c3.2-2.5,6.5-4.8,10.1-6.5c0.8-0.4,1.6-0.8,2.5-1.2c0.3-0.1,0.7-0.5,1.1-0.1c0.1,0.1,0.3-0.1,0.4-0.3c0.3-0.3,0.6-0.6,1.1-0.4
		c0.5,0.2,0.5-0.6,0.9-0.6c-0.2,0.1-0.6,0.2-0.2,0.5c0.4,0.5,0.3,0.7-0.3,0.8c-0.7,0.2-1.4,0.8-2.2,0.7c-0.3,0-0.4,0.6-0.8,0.6
		c-0.3-0.1-0.2-0.7-0.6-0.5C40.7,14.1,41.3,14.4,41.1,14.6z"/>
	<path id="XMLID_372_" d="M70.3,26.9c-0.6,0.7-1.2,1.2-1.8,1.8c-0.5,0.5-1,0.4-1.6,0.3c-1.9-0.3-3.9-0.2-5.8,0c-0.1,0-0.3,0-0.5,0
		c0.6-0.8,1-1.6,1.3-2.4c0.1-0.2,0.3-0.2,0.5-0.3C64,26.1,68.6,26.4,70.3,26.9z"/>
	<path id="XMLID_371_" d="M19.6,75.8c1.2-2.4,2.7-4.5,4.7-6.6c0.1,1.2,0.1,2.3,0.5,3.3c0,0.1,0,0.2-0.1,0.3
		c-1.5,1.5-2.4,3.3-3.3,5.2c-0.3,0-0.5,0-0.8-0.1c-0.5-0.1-0.6-0.5-0.8-0.8c-0.2-0.3,0.1-0.4,0.3-0.5c0.1-0.1,0.1-0.2,0.1-0.3
		c0-0.1-0.1-0.2-0.2-0.1C19.6,76.4,19.7,76,19.6,75.8z"/>
	<path id="XMLID_370_" d="M15.3,39.6c-0.7-0.7-0.5-1.4-0.1-2.2c2.2-3.9,4.8-7.5,7.8-10.8c0.2-0.2,0.4-0.7,0.8-0.3
		c0.3,0.3,0.4,0.7,0,1.1c-3.3,3.6-6.1,7.6-8.4,12C15.4,39.4,15.4,39.5,15.3,39.6z"/>
	<path id="XMLID_369_" d="M45.7,12.5c0-0.2,0.2-0.4,0.4-0.5c0.1-0.1,0.3-0.2,0.3-0.2c0-0.8,0.7-0.8,1.2-1c3.9-1.3,7.9-2.1,11.9-2.5
		c0.2,0,0.5-0.1,0.7,0c-0.2,0.7-0.6,1.1-1.4,1.2c-4.3,0.4-8.4,1.4-12.4,2.8C46.2,12.5,46,12.7,45.7,12.5z"/>
	<path id="XMLID_368_" d="M121.4,97.3c0.6-1.2,1.2-2.4,1.8-3.6c0.1-0.3,0.3-0.6,0.4-0.9c0.1-0.2,0.3-0.4-0.1-0.6
		c-0.3-0.1-0.5-0.1-0.5,0.3c0,0.2-0.2,0.4-0.4,0.3c-0.3-0.1-0.1-0.3-0.1-0.4c0.1-0.3-0.2-0.4-0.3-0.4c-0.3-0.1-0.7-0.2-0.8-0.6
		c-0.5,1-1,2-1.5,2.9c-1,2-2.2,3.9-3.5,5.7c-0.1,0.2-0.2,0.4-0.4,0.4c0-0.2,0.1-0.4,0.2-0.6c3.4-4.9,5.9-10.2,7.8-15.8
		c0.5-1.5,1-2.9,1.2-4.5c0-0.2,0.1-0.4,0.3-0.5c-0.1,1.3-0.6,2.4-0.9,3.6c-0.7,2.5-1.7,5-2.7,7.4c-0.1,0.3-0.2,0.5,0.2,0.5
		c0.8,0,1.4,0.5,2,1.1c0.7-1.3,1.2-2.6,1.7-4c1-2.8,1.9-5.7,2.5-8.6c0-0.2,0.1-0.4,0.2-0.6c0.1,0.2,0.1,0.4,0,0.6
		c-0.6,2.7-1.4,5.3-2.3,7.9c-1.2,3.5-2.8,6.8-4.6,10C121.7,97.1,121.6,97.3,121.4,97.3z"/>
	<path id="XMLID_367_" d="M15.8,103c0,0,0.1,0.1,0.1,0.1c0,0.2,0.2,0.3,0.3,0.4c0.1,0.1,0.1,0.1,0.2,0.2c0,0.2,0.2,0.3,0.3,0.4
		c0.1,0.1,0.1,0.1,0.2,0.2c0,0.2,0.2,0.4,0.4,0.4c0.1,0.1,0.2,0.2,0.3,0.3c0,0.2,0.2,0.3,0.4,0.4c0.1,0.2,0.3,0.3,0.4,0.5
		c0.2,0.4,0.5,0.7,0.9,1c0.2,0.2,0.4,0.4,0.5,0.6c-0.1,0.5-0.4,0.2-0.6,0.2c-0.1-0.1-0.3-0.1-0.4-0.1c-0.3-0.3-0.5-0.3-0.7,0.1
		c-0.1,0.2-0.1,0.4-0.3,0.3c-0.4-0.2-0.4,0-0.5,0.3c0,0.2-0.2,0.2-0.3,0.2c-0.2-0.3-0.5-0.5-0.7-0.8c0-0.2-0.2-0.3-0.4-0.4
		c-0.1-0.1-0.1-0.1-0.2-0.2c0-0.2-0.2-0.3-0.3-0.4c-0.1-0.2-0.3-0.3-0.4-0.5c-0.1-0.3-0.2-0.5-0.5-0.6l0,0c-0.3-0.5,0-0.8,0.5-0.9
		c0.5-0.1,0.5-0.4,0.6-0.8c0-0.2,0-0.5,0-0.7C15.4,103.1,15.5,102.9,15.8,103z"/>
	<path id="XMLID_366_" d="M59.2,94c-0.2,0-0.4,0-0.4-0.2c-0.1-0.2,0-0.4,0.1-0.5c0.2-0.3,0.5-0.6,0.1-0.9c-0.1-0.1-0.3-0.2-0.4-0.1
		c-0.1,0.1-0.3,0.2-0.4,0c-0.2-0.3-0.7-0.1-0.6-0.5c0-0.3,0.5-0.4,0.7-0.5c0.6-0.2,1.2-0.3,1.7-0.9c0.4-0.4,1-0.6,1.5-0.9
		c0.2-0.1,0.3-0.2,0.4,0.1c0.3,0.6,0.8,1,1.4,1.4c0.3,0.2,0.3,0.3,0,0.4c-1.1,0.8-2.2,1.5-3.4,2.2C59.7,94,59.4,94,59.2,94z"/>
	<path id="XMLID_365_" d="M118.2,32.6c0.1-0.5,0.2-0.8-0.4-0.6c-0.3,0.1-0.7-0.9-0.5-1.2c0.2-0.4,0.3-0.7,0.1-1.1
		c-0.2-0.3,0.1-0.5,0.3-0.8c0.2-0.2,0.4,0,0.5,0.1c0.1,0.1,0.1,0.2,0.2,0.2c1.1,0,1.3,1,1.9,1.7c0.2,0.3,0.3,0.5,0.5,0.8
		c0.5,0.9,0.5,1.2-0.3,1.8c-0.1,0.1-0.3,0.2-0.5,0c-0.3-0.4-0.8-0.4-1.2-0.5C118.4,33.1,118.3,32.9,118.2,32.6z"/>
	<path id="XMLID_364_" d="M69.8,8.3c1.9,0.1,3.6,0.4,5.3,0.7c0.6,0.1,1.3,0.2,1.9,0.4c0.1,0,0.4,0,0.2,0.4c-0.1,0.3,0.2,0.3,0.4,0.3
		c0.3,0,0.6,0.1,0.5,0.5c-0.1,0.4-0.4,0.2-0.6,0.1c-2.1-0.5-4.2-0.9-6.3-1.1c-0.3,0-0.6-0.1-0.7-0.4C70.3,8.9,70.1,8.7,69.8,8.3z"/>
	<path id="XMLID_363_" d="M71.6,29.3c0.1-0.3,0-0.5-0.2-0.7c-0.2-0.2-0.3-0.4-0.4-0.5c-0.3-0.3-0.1-0.7-0.1-1c0-0.2,0.2-0.1,0.3-0.1
		c0.3,0.2,0.8,0,1,0.5c0.1,0.5,0.5,0.8,1,0.9c0.8,0.1,1.1,0.8,1.7,1.3c0.2,0.1,0.1,0.6,0,0.8c-0.2,0.3-0.4,0.1-0.6,0
		c-0.7-0.2-1.4-0.4-2.2-0.6C71.6,29.8,71.5,29.7,71.6,29.3z"/>
	<path id="XMLID_362_" d="M125.6,51.1c0.5,1.2,0.6,2.6,0.8,3.9c0.1,0.3,0,0.6,0.4,0.8c0.2,0,0.3,0.3,0.2,0.4c-0.6,0.4-0.3,1-0.2,1.5
		c0.4,3.2,0.5,6.5,0.4,9.8c-0.2,3.7-0.6,7.3-1.4,11c0,0.2-0.1,0.4-0.2,0.6c-0.2-0.6,0.1-1.2,0.2-1.7c0.3-1.9,0.6-3.7,0.8-5.6
		c0.3-2.4,0.4-4.8,0.4-7.1c-0.1-2.8-0.2-5.6-0.7-8.4c-0.2-1.5-0.4-2.9-0.8-4.4C125.5,51.4,125.5,51.3,125.6,51.1z"/>
	<path id="XMLID_361_" d="M12.1,46.5c-0.9-0.1-0.9-0.1-0.6-0.9c0.6-1.7,1.3-3.3,2.1-4.9c0.1-0.2,0.1-0.5,0.4-0.5
		c0.3,0,0.7-0.1,0.9,0.1c0.2,0.2-0.1,0.5-0.2,0.7c-0.4,0.8-0.8,1.7-1.1,2.5c-0.3,0.6-0.6,1.2-1.3,1.4c-0.4,0.1-0.3,0.5,0.1,0.8
		c0.3,0.2,0.1,0.4,0.1,0.6C12.4,46.4,12.3,46.6,12.1,46.5z"/>
	<path id="XMLID_360_" d="M79.6,128.3c0.9-0.4,1.8-0.5,2.8-0.8c4.1-1.1,7.9-2.6,11.7-4.5c0.2-0.1,0.7-0.1,0.6-0.5
		c-0.1-0.4-0.2-1-0.8-1.1c-0.5-0.1-1-0.6-1.4,0c-1.5-0.4-2.6,0.9-3.9,1.2c-0.4,0.1-0.7,0.3-0.7,0.8c0,0.8-0.7,1-1.3,1.2
		c0.1-0.2,0.2-0.3,0.4-0.3c0.5-0.1,0.7-0.4,0.7-0.9c0-0.4,0.2-0.7,0.6-0.8c1-0.5,2.1-0.9,3.1-1.4c0.3-0.1,0.5-0.2,0.8-0.1
		c0.1,0.1,0.3,0.1,0.4,0c0.3-0.3,0.6-0.1,0.9-0.1c0.7,0.2,1,0.5,1.3,1.1c0.1,0.2,0.3,0.3,0.5,0c0-0.1,0.1-0.1,0.1-0.2
		c0.2-0.1,0.3-0.2,0.5-0.1c0.1,0,0.1,0.1,0.1,0.2c0,0.2-0.2,0.3-0.3,0.4c-1.7,0.9-3.3,1.7-5.1,2.4c-2.4,1-4.9,1.9-7.4,2.7
		c-1.1,0.3-2.1,0.6-3.2,0.9C79.9,128.4,79.8,128.4,79.6,128.3z"/>
	<path id="XMLID_359_" d="M52.9,3.8c0.2-0.1,0.2-0.3,0.3-0.5c0.1-0.3,0.3-0.5,0.6-0.4c0.4,0.1,0.8,0,1.2,0c0.6,0,0.8-0.3,0.6-0.8
		c-0.2-0.8-0.2-0.8,0.6-0.9C59.1,1,62,0.8,65,0.7c0.8,0,1.5-0.1,2.3-0.2c0.4,0,0.6,0.1,0.6,0.5c0,0.4,0,0.8-0.2,1.2
		c-0.2,0.3-0.1,0.6,0.3,0.6c1.6,0.1,3.2,0.2,4.8,0.4c0.7,0.1,1.4,0.2,2.1,0.4c-0.2,0.2-0.5,0.2-0.7,0.1c-0.9-0.3-1.9-0.2-2.8-0.4
		c-0.7-0.1-1.3-0.2-2-0.1c-0.5,0.1-1-0.1-1.4-0.2c-0.5-0.1-0.5-0.5-0.4-0.9c0.1-0.2,0.2-0.4,0.2-0.6c0.1-0.7,0-0.8-0.7-0.7
		c-0.7,0.1-1.4,0.1-2.1,0.1c-1.3,0-2.5,0.1-3.7,0.3c-0.2,0.1-0.5,0-0.8,0c-1.4,0-2.7,0-4.1,0.1c-0.4,0-0.5,0.2-0.4,0.6
		C56,2.7,55.8,3,55,3.1c-0.4,0-0.7,0.2-1.1,0c-0.2-0.1-0.4,0.1-0.4,0.4C53.4,3.7,53.2,3.9,52.9,3.8z"/>
	<path d="M102.2,107c-0.1,0.5-0.2,0.9-0.6,1.2c-1.2,0.9-2.3,1.8-3.5,2.8c-0.5,0.4-0.8,0.1-1.1-0.1c-0.4-0.2-0.1-0.5,0.2-0.6
		c1-0.8,2.1-1.6,3.1-2.4c0.5-0.4,0.9-0.8,1.4-1.2c0.1-0.1,0.3-0.4,0.5-0.3C102.3,106.6,102.2,106.8,102.2,107z M100.4,108.9
		c0.1,0,0.3-0.1,0.2-0.3c0-0.2-0.2-0.3-0.4-0.3c-0.2,0-0.3,0.1-0.3,0.3C100,108.7,100.2,108.8,100.4,108.9z"/>
	<path id="XMLID_356_" d="M110.8,98.4c-1,1.4-2.1,2.7-3.2,4c-0.3,0.4-0.7,0.7-1.1,0.9c-0.3,0.1-0.5,0-0.7-0.2
		c-0.2-0.3,0-0.4,0.1-0.5c1.2-1.2,2.2-2.6,3.3-3.9c0.4-0.1,0.8-0.2,1.2-0.4C110.6,98.2,110.8,98.1,110.8,98.4z"/>
	<path id="XMLID_355_" d="M79,4.4c0.9,0,1.7,0.3,2.5,0.5c5.6,1.6,11,3.8,15.9,6.9c1.2,0.7,2.3,1.5,3.5,2.3c0.2,0.1,0.4,0.2,0.5,0.4
		c-0.3,0-0.5-0.2-0.7-0.3c-2.6-1.7-5.3-3.4-8.1-4.8c-3.5-1.7-7-3.1-10.7-4.1c-0.8-0.2-1.5-0.5-2.3-0.6C79.3,4.7,79.1,4.6,79,4.4z"/>
	<path id="XMLID_354_" d="M114.9,25c0.1,0.1,0.2,0.1,0.2,0.2c0.6,1,0.3,2.1,0.5,3.1c-0.3,0.2-0.4,0-0.5-0.2c-0.8-1-1.6-2.2-2.5-3.1
		c0-0.2-0.1-0.3-0.2-0.3c-0.1-0.2-0.3-0.3-0.4-0.5c0.1-0.2,0.2-0.3,0.2-0.5c0.3-0.1,0.5,0.2,0.7,0.3c0.1,0.2,0.4,0,0.4,0.3
		c-0.5,0.3-0.5,0.3-0.1,0.6c0.1,0,0.1,0.1,0.2,0.1c0.3,0.2,0.6,0.4,1,0c0.1,0,0.2,0,0.2-0.1C114.7,25,114.8,25,114.9,25z"/>
	<path d="M68.9,1.2c-0.3-0.4,0.2-0.8-0.1-1.1c1.4-0.2,2.8,0.1,4.2,0.3c0.9,0.1,1.8,0.2,2.6,0.4c0.2,0.1,0.3,0,0.4,0.3
		c-0.8-0.1-1.6-0.3-2.3-0.4c-0.6-0.1-1.1-0.1-1.5,0.4c-0.1,0.2-0.3,0.3-0.5,0.4c-0.7,0.5-1,0.4-1.4-0.4c-0.2,0.3-0.2,0.9-0.7,0.9
		c-0.2,0-0.5,0.1-0.6-0.3c0.1,0,0.3,0,0.4,0c0.2,0,0.4-0.1,0.4-0.3c0-0.2,0.1-0.4-0.1-0.5c-0.2-0.1-0.4-0.1-0.6-0.1
		C69,0.7,69.1,1,68.9,1.2z M69.7,0.3c-0.1-0.1-0.3-0.1-0.4,0C69.4,0.4,69.6,0.4,69.7,0.3z"/>
	<path id="XMLID_351_" d="M58.2,120.7c-0.5-0.3-0.8,0-1.2,0.3c-0.1,0.1-0.2,0.1-0.4,0c-0.9-0.1-1.7-0.3-2.6-0.4
		c-0.3,0-0.4-0.1-0.2-0.4c0.2-0.5,0.5-0.7,1.1-0.6c1.1,0.2,2.2,0.3,3.3,0.5c0.2,0,0.5-0.1,0.5,0.3C58.7,120.7,58.4,120.6,58.2,120.7
		z"/>
	<path id="XMLID_350_" d="M125.6,44.2c0.2,0.2,0.5,0.4,0.7,0c0.1,0.3,0,0.7,0.5,0.9c0.3,0.1,0.3,0.5,0.4,0.8c0.5,1.7,0.9,3.3,1.3,5
		c0,0.2,0.1,0.4,0,0.6c-0.4-1-0.5-2.1-0.8-3.1c-0.3-0.8-0.5-1.6-0.7-2.5c-0.2-0.7-0.6-0.8-1.3-0.7c-0.3,0-0.5-0.1-0.8-0.2
		c-0.7-0.1-0.9,0.1-0.7,0.8c0.3,1,0.7,2,0.8,3.1c-0.5-0.5-0.4-1.1-0.6-1.7c-0.2-0.5-0.2-1-0.4-1.4c-0.4-0.8,0.2-1,0.9-1.1
		c0.1,0,0.2,0,0.2,0.1C125.8,44.9,125.8,44.9,125.6,44.2z"/>
	<path d="M82.2,30.8c-0.2,0.2-0.4,0.1-0.6,0c-0.3-0.2-0.6-0.1-0.7,0.1c-0.1,0.2-0.4,0.5-0.1,0.7c0.1,0.1,0.1,0.2,0.1,0.2
		c-0.2,0.7,0.2,0.7,0.7,0.6c0.2-0.1,0.4,0.1,0.4,0.3c0,0.3,0.2,0.5,0.5,0.6c0.5,0.2,0.9,0.9,1.6,0.6c0.1,0,0.2,0.1,0.3,0.2
		c0,0.2-0.1,0.3-0.2,0.4c-0.2,0.1-0.5,0.1-0.7,0.3c-0.2-0.1-0.5-0.2-0.7-0.4c-0.1-0.1-0.3-0.3,0-0.4c0.5-0.2,0.2-0.3,0-0.4
		c-0.4-0.2-0.8-0.4-1-0.9c-0.2-0.4-0.6,0-0.8,0.1c-0.3,0.2-0.9,0.2-1.1-0.2c0,0,0-0.1,0-0.2c0.1-0.1,0.2-0.1,0.3-0.1
		c0.5,0.1,0.7-0.2,0.5-0.6c-0.3-0.5,0-0.9,0.2-1.2c0.3-0.4,0.7-0.2,1.1,0C82,30.7,82.1,30.8,82.2,30.8z M83.3,34.5
		c0.3,0.1,0.5,0.1,0.7-0.2C83.7,34.2,83.5,34.3,83.3,34.5z"/>
	<path id="XMLID_347_" d="M25.1,25.8c-0.2-0.2-0.7-0.3-0.7-0.5c0-0.4,0.3-0.6,0.7-0.7c0.6-0.2,1.1-0.5,1.2-1.1
		c0-0.2,0.1-0.3,0.2-0.4c0.1-0.1,0.3-0.4,0.5-0.2c0.2,0.1,0.1,0.3,0.1,0.5c0.1,1.2-1,1.6-1.7,2.4C25.3,25.8,25.2,25.8,25.1,25.8z"/>
	<path id="XMLID_346_" d="M58.3,94.6c-0.2,0.4-0.7,0.4-1,0.6c-0.3,0.2-0.3-0.1-0.5-0.3c-0.2-0.3-0.4-0.7-0.9-0.7
		c-0.2,0-0.3-0.2-0.2-0.3c0.3-0.2,0.5-0.6,0.9-0.5c0.5,0.1,0.9,0.6,1.5,0.5C58.3,94,58.3,94.4,58.3,94.6z"/>
	<path id="XMLID_345_" d="M74.9,103.5c-0.6-0.2-0.6-1-1.1-1.3c-0.1,0,0-0.2,0.1-0.2c0.7,0,1.2-0.6,1.9-0.4c0.4,0.1,0.5,0.2,0.3,0.6
		C75.9,102.8,75.5,103.1,74.9,103.5L74.9,103.5L74.9,103.5z"/>
	<path id="XMLID_344_" d="M110.9,106.9c-0.2,0.4-0.6,0.7-0.8,1c-0.5,0.6-0.6,1.1-0.1,1.8c0.2,0.3,0.4,0.5,0.2,1
		c-0.2,0.5-0.4,0.8-1,0.4c-0.3-0.2-0.8-0.2-0.9,0.4c0,0.2-0.1,0.3-0.3,0.3c-0.6,0.2-1,0.7-1.7,0.5c-0.1,0-0.2,0.1-0.3,0.2
		c0-0.3,0-0.6,0.4-0.5c0.6,0.2,0.4-0.1,0.3-0.4c0.9,0.3,1,0.2,1.4-0.6c0.2-0.5,0.7-0.4,1.1-0.4c0.2,0,0.4,0.4,0.6,0
		c0.2-0.3,0.3-0.6,0-0.9c-0.1-0.1-0.2-0.3-0.3-0.4c-0.2-0.6-0.3-1.2,0.3-1.6C110.2,107.6,110.4,107.1,110.9,106.9z"/>
	<path id="XMLID_343_" d="M33.5,11.4c1.3-0.9,2.7-1.6,4.1-2.3C38.8,8.5,40,8,41.3,7.4c0.2-0.1,0.6-0.1,0.5-0.4
		c-0.1-0.3-0.4-0.3-0.7-0.3c-0.2,0-0.3,0.1-0.5,0.1c0-0.6,0.4-0.4,0.7-0.3c0.3,0.1,0.9,0.2,0.9,0.6c0,0.3-0.5,0.4-0.8,0.5
		c-2.5,1-4.9,2.2-7.3,3.6C33.9,11.3,33.8,11.4,33.5,11.4z"/>
	<path id="XMLID_342_" d="M69.5,127c-1,0.2-2,0.2-3,0.2c-1.5,0-3,0-4.5,0c-0.5,0-0.8,0-0.6,0.6c0,0.2,0.1,0.4-0.2,0.5
		c-0.1-1.4-0.1-1.5,1.3-1.4c2.1,0.2,4.2,0,6.2,0C69,126.9,69.3,126.8,69.5,127z"/>
	<path id="XMLID_341_" d="M10.3,33.1c0-0.9,0.1-1,0.7-0.9c0.8,0.1,0.9,0.3,0.5,1c-0.1,0.2-0.2,0.3-0.3,0.5c-0.1,0.2-0.2,0.5-0.5,0.4
		c-0.3-0.1-0.4-0.4-0.4-0.7C10.3,33.3,10.3,33.2,10.3,33.1z"/>
	<path id="XMLID_340_" d="M67.7,129.5c0.5-0.2,0.9-0.5,1.3,0.2c0.1,0.2,0.4,0.1,0.5,0.1c2.2-0.1,4.4-0.4,6.6-0.8
		c0.3,0,0.5-0.1,0.8-0.1c-0.6,0.5-1.4,0.4-2.1,0.5c-1.8,0.3-3.6,0.6-5.5,0.6c-0.3,0-0.6,0.1-0.7-0.3c-0.1-0.2-0.3-0.2-0.5-0.1
		C68,129.7,67.8,129.8,67.7,129.5z"/>
	<path id="XMLID_339_" d="M129.9,61.4c-0.1-0.1-0.2-0.3-0.2-0.5c-0.1-2.5-0.4-5-0.9-7.5c0-0.1,0-0.3,0-0.4c0.5,0.8,0.5,1.7,0.6,2.6
		c0.3,1.7,0.5,3.4,0.5,5.1C130,60.9,129.9,61.1,129.9,61.4z"/>
	<path id="XMLID_338_" d="M128.9,77c-0.1-0.5,0.1-1,0.2-1.5c0.3-2,0.6-4,0.7-6.1c0-0.3,0-0.6,0.2-0.8c0.2,1.2,0,2.4-0.2,3.6
		c-0.1,1.3-0.4,2.6-0.6,4C129.1,76.5,129.1,76.8,128.9,77z"/>
	<path id="XMLID_337_" d="M63,94.9c0,0,0,0.1,0.1,0.1c0.1,0.2,0.7-0.1,0.6,0.3c-0.1,0.4,0,1-0.6,1.1c-0.4,0.1-0.8,0.2-0.9-0.2
		c-0.1-0.4-0.4-0.8,0.1-1.2c0.1-0.1,0.2-0.1,0.2-0.2C62.6,94.8,62.8,94.7,63,94.9z"/>
	<path id="XMLID_336_" d="M61,0.1c-0.1,0.1-0.2,0.2-0.3,0.2c-2.5,0.1-5.1,0.5-7.6,0.9c-0.1,0-0.2,0-0.2,0c0.7-0.5,1.6-0.4,2.4-0.6
		C57,0.3,58.6,0,60.3,0C60.5,0,60.8,0,61,0.1z"/>
	<path id="XMLID_335_" d="M77.7,125.8c-1.5,0.5-3.1,0.6-4.6,0.8c-1,0.1-2,0.4-3.1,0.3c0.7-0.3,1.5-0.3,2.3-0.4
		c1.6-0.2,3.2-0.4,4.7-0.8C77.3,125.8,77.5,125.7,77.7,125.8z"/>
	<path id="XMLID_334_" d="M24.8,114.7c0.9,0.3,1.2,0.9,1,2.1c-0.5-0.1-0.9-0.4-1.1-0.9c0.1-0.9-0.3-1.2-1.2-1
		c-0.2,0-0.3-0.1-0.1-0.3c0.2-0.1,0.5-0.1,0.7,0C24.3,114.8,24.6,114.8,24.8,114.7z"/>
	<path id="XMLID_333_" d="M22.5,15.8c-0.1,0.3-0.4,0.3-0.5,0.7c0.3,0.1,0.7,0,1,0c0.2,0,0.5,0,0.7,0.2c0.2,0.2,0.2,0.4-0.1,0.5
		c-0.3,0-0.5,0-0.8,0c-0.4,0-0.7,0.1-0.9,0.5c-0.2,0.4-0.6,0.6-1.1,0.5c-0.3,0-0.5,0-0.7,0.1c0.1-0.3,0.4-0.4,0.7-0.3
		c0.4,0.1,0.7-0.1,0.9-0.3c0.3-0.4,0.6-0.6,1.3-0.7c-0.2-0.1-0.3-0.1-0.3-0.1c-0.3,0-0.8,0.2-0.9-0.2C21.6,16.2,22,15.9,22.5,15.8z"
		/>
	<path id="XMLID_332_" d="M19.3,22.8c0.3-0.6,0.8-1,1.3-1.4c0.2-0.2,0.2-0.4,0.1-0.7c-0.2-0.3-0.3-0.8-0.8-0.8
		c-0.2,0-0.2,0.2-0.3,0.3c-0.1,0.1-0.2,0.2-0.4,0.2C19,20.3,19,20.2,19,20c0-0.2,0.1-0.3,0.3-0.3c0,0,0.1,0,0.1,0
		c0.5-0.4,0.9-0.4,1.3,0.2c0.1,0.2,0.5,0.2,0.8,0.3c-0.2,0.3-0.5,0.1-0.7,0.1c0,0.1-0.1,0.1-0.1,0.1c0.5,0.6,0.1,1-0.3,1.4
		C20.1,22.2,19.9,22.6,19.3,22.8z"/>
	<path id="XMLID_331_" d="M3.7,85.4c-0.3-0.2-0.4-0.5-0.3-0.9c0-0.2,0.1-0.4,0.1-0.6c0-0.7,0-0.7,0.6-0.3c0.2,0.1,0.3,0.1,0.5,0.1
		c0.2,0,0.3,0,0.5,0.1c0.2,0.1,0.2,0.6,0.5,0.3c0.2-0.2,0-0.5-0.1-0.7c-0.2-0.8-0.6-1.6-0.6-2.4C5.5,82,5.6,83,5.9,84
		c0.1,0.3-0.1,0.5-0.4,0.6c-0.2,0.1-0.4,0-0.5-0.2C4.8,83.7,4.3,84,3.9,84c-0.3,0-0.2,0.5-0.3,0.8C3.6,85,3.7,85.2,3.7,85.4z"/>
	<path id="XMLID_330_" d="M112.1,23.8c-0.1,0.2-0.2,0.3-0.2,0.5c-0.6-0.4-1.2-0.8-1.4-1.5c0.2,0.1,0.5,0.2,0.4-0.2
		c0-0.1-0.1-0.2-0.1-0.2c-0.4-1-0.4-1.1,0.6-1.6c0.7-0.3,0.5-0.6,0.2-1c0.4,0.1,0.5,0.3,0.5,0.6c0,0.3-0.3,0.4-0.5,0.5
		c-0.8,0.3-0.8,0.5-0.5,1.2c0.1,0.3,0.1,0.7,0.3,1C111.5,23.5,111.8,23.7,112.1,23.8z"/>
	<path id="XMLID_329_" d="M93.7,6.7c-1.1-0.4-2.2-1-3.3-1.4c-1.2-0.5-2.5-1-3.7-1.4c-0.1,0-0.2-0.1-0.3-0.2c0.5-0.1,1,0.2,1.4,0.4
		c1.9,0.7,3.7,1.5,5.5,2.3C93.5,6.4,93.7,6.4,93.7,6.7z"/>
	<path id="XMLID_328_" d="M3,68.6c-0.1-0.1-0.1-0.3-0.1-0.4c-0.1-2.2-0.1-4.3,0-6.5c0-0.1,0-0.3,0.1-0.4c0.3,0.8,0.1,1.7,0.1,2.6
		c-0.1,1.4,0.1,2.7,0,4.1C3.1,68.2,3.1,68.4,3,68.6z"/>
	<path id="XMLID_327_" d="M84.9,124.4c-0.5-0.2-0.9-0.1-1.4,0c-1.7,0.6-3.5,1-5.2,1.4c-0.1,0-0.2,0-0.3,0c0.5-0.5,1.1-0.4,1.7-0.5
		c1.3-0.3,2.6-0.7,3.9-1.1C84,124.1,84.6,123.7,84.9,124.4z"/>
	<path id="XMLID_326_" d="M29.1,13.1c-0.2,0.3-0.4,0.5-0.8,0.4c-0.4-0.1-0.2-0.4-0.3-0.7c0-0.1,0-0.3,0-0.4c0-0.2,0-0.5-0.2-0.5
		c-0.2,0-0.4,0.2-0.5,0.3c-0.1,0.5-0.3,0.6-0.8,0.5c-0.2,0-0.4,0.2-0.6,0.3c0,0,0-0.1,0-0.1c0.9-0.3,1.4-1.2,2.3-1.7
		c-0.1,0.5,0,0.8,0.1,1.2C28.4,13.3,28.4,13.3,29.1,13.1z"/>
	<path id="XMLID_325_" d="M115.6,28.3c-0.2-1,0-2.1-0.5-3.1c0.5,0.1,0.4,0.6,0.6,0.9c0.1,0.2,0,0.5,0.3,0.4c0.8-0.2,0.9,0.4,1.2,0.8
		c-0.3-0.1-0.8-0.4-0.9,0.3c-0.4,0,0-0.6-0.4-0.4c-0.3,0.1,0,0.4,0,0.7C115.9,28.1,115.8,28.3,115.6,28.3z"/>
	<path id="XMLID_324_" d="M57.9,129.2c0.2,0.1,0.3,0.3,0.2,0.5c-0.1,0.2-0.3,0.2-0.5,0.1c-0.6-0.1-1.2-0.2-1.6-0.7
		c-0.1-0.1-0.3-0.1-0.5-0.2c-0.2,0-0.3-0.2-0.3-0.4c0.1-0.2,0.3-0.3,0.5-0.2c0.4,0.4,1.2,0.3,1.5,0.9
		C57.5,129.5,57.8,129.7,57.9,129.2z"/>
	<path id="XMLID_323_" d="M19.6,75.8c0,0.2-0.1,0.6,0.4,0.4c0.1,0,0.2,0,0.2,0.1c0,0.1,0,0.2-0.1,0.3c-0.2,0.1-0.5,0.2-0.3,0.5
		c0.2,0.3,0.3,0.8,0.8,0.8c0.3,0,0.5,0.1,0.8,0.1c-0.5,0.3-1.1,0.3-1.4-0.2c-0.1-0.2-0.3-0.4-0.4-0.6C19.3,76.8,19.3,76.3,19.6,75.8
		z"/>
	<path id="XMLID_322_" d="M104.2,114.5c-0.6,0.1-0.8,0.4-0.6,1c0.1,0.2,0,0.4-0.1,0.6c-0.1,0.3,0,0.5,0.2,0.7
		c0.2,0.2,0.4-0.1,0.5-0.2c0.2-0.1,0.3-0.3,0.5-0.3c-0.2,0.5-0.6,0.6-1,0.9c-0.2,0.1-0.4,0.1-0.4-0.1c-0.1-0.3-0.2-0.7-0.1-1
		c0.1-0.3,0.1-0.6,0.1-0.9C103.3,114.7,103.7,114.3,104.2,114.5z"/>
	<path id="XMLID_321_" d="M65.4,2.8c-0.3,0-0.6,0-0.6-0.4c0-0.2,0.1-0.5,0.4-0.4c0.3,0.1,0.8,0.2,0.8,0.5C66,2.8,65.6,2.8,65.4,2.8z
		"/>
	<path id="XMLID_320_" d="M40.6,6.8c0,0.1-0.1,0.2-0.2,0.2c-0.4-0.2-1-0.2-1.3-0.6c-0.5-0.5-1-0.6-1.6-0.3c-0.4,0.2-0.8,0.5-1.2,0.5
		c0.8-0.6,1.6-1.2,2.6-0.7c0.4,0.2,0.8,0.5,1.3,0.7C40.3,6.7,40.4,6.8,40.6,6.8z"/>
	<path id="XMLID_319_" d="M18.8,19.2c-0.1,0.3-0.3,0.4-0.5,0.6c-0.4,0.4-0.8,0.8-0.9,1.4c-0.1,0.4-0.3,1-1,0.9
		c-0.3-0.1-0.4,0.3-0.6,0.4c0.1-0.5,0.3-0.9,0.9-0.8c0.4,0,0.4-0.4,0.5-0.7C17.5,20.2,18.1,19.7,18.8,19.2z"/>
	<path id="XMLID_318_" d="M30.7,9.8c-0.1,0.2-0.3,0.3-0.1,0.5c0.4,0.9,0.2,1.2-0.7,1.2c-0.3,0-0.4,0.2-0.4,0.4c0,0.2,0,0.4,0,0.6
		c-0.4-0.7-0.2-1.2,0.6-1.3c0.2,0,0.4,0,0.4-0.2c0.1-0.2,0.1-0.4-0.1-0.6C29.9,10,30,9.9,30.7,9.8z"/>
	<path id="XMLID_317_" d="M107.3,19.5c1.2,0.9,2.3,2,3.2,3.2c-0.2,0-0.4-0.2-0.5-0.3c-0.8-0.8-1.6-1.6-2.3-2.3
		C107.5,19.8,107.3,19.7,107.3,19.5z"/>
	<path id="XMLID_316_" d="M0.1,69.3c0.3,0.1,0.2,0.4,0.2,0.6c0.1,0.7,0.1,1.4,0.2,2.1c0.1,0.5,0.1,1.1,0.6,1.5
		c-0.5,0-0.7-0.2-0.8-0.6C0.1,71.7-0.1,70.5,0.1,69.3z"/>
	<path id="XMLID_315_" d="M81.1,89.3c0.5,0.3,0.5,1,0.1,1.4c-0.3,0.2-0.4,0.1-0.5-0.2c-0.1-0.2,0-0.5-0.2-0.7
		C80.7,89.5,80.9,89.3,81.1,89.3z"/>
	<path id="XMLID_314_" d="M8.5,91c-0.7-1.2-1.1-2.5-1.7-3.7c-0.1-0.3-0.2-0.5-0.3-0.8C7,86.6,6.9,87,7.1,87.3
		c0.5,1.1,0.9,2.2,1.4,3.3C8.5,90.7,8.6,90.9,8.5,91z"/>
	<path id="XMLID_313_" d="M20.2,109.6c0.3,0.4,0,0.4-0.2,0.4c-0.4,0-0.7-0.1-0.9,0.3c-0.6,0-0.6-0.6-1-0.8c-0.1-0.1,0-0.2,0-0.3
		C18.8,109.2,19.4,109.9,20.2,109.6z"/>
	<path id="XMLID_312_" d="M3.9,87.2c0.4,0.6,0.6,1.3,0.8,2c0.3,0.8,0.7,1.6,1,2.4c-0.5-0.5-0.7-1.2-0.9-1.8
		c-0.3-0.7-0.6-1.5-0.9-2.2C3.8,87.4,3.8,87.3,3.9,87.2z"/>
	<path id="XMLID_311_" d="M60.4,128.3c-0.3-0.1-0.4-0.3-0.6-0.5c-0.3-0.2-0.5-0.3-0.5,0.2c0,0.3-0.1,0.4-0.4,0.6
		c-0.3,0.2-0.5,0.5-0.4,0.9c-0.6-0.5-0.1-0.8,0.2-1.1c0.2-0.2,0.3-0.3,0.2-0.6c0-0.4,0.3-0.6,0.6-0.4
		C60,127.7,60.3,127.9,60.4,128.3z"/>
	<path id="XMLID_310_" d="M119.1,101c0.7-1.2,1.4-2.5,2.3-3.6c0,0.3-0.2,0.6-0.3,0.8c-0.5,0.9-1.1,1.7-1.6,2.6
		C119.3,100.9,119.2,101,119.1,101z"/>
	<path id="XMLID_309_" d="M16.9,108.7c0.2,0,0.3-0.1,0.3-0.2c0-0.3,0.1-0.5,0.5-0.3c0.2,0.1,0.3-0.1,0.3-0.3
		c0.1-0.4,0.4-0.4,0.7-0.1c-0.5,0.3-0.8,0.7-0.7,1.3c-0.3-0.1-0.6-0.3-0.5,0.3C17.1,109.3,17,109,16.9,108.7z"/>
	<path id="XMLID_308_" d="M15.8,103c-0.3,0-0.4,0.1-0.4,0.4c0,0.2,0,0.5,0,0.7c0,0.4-0.1,0.7-0.6,0.8c-0.5,0.1-0.7,0.4-0.5,0.9
		c-0.4-0.3-0.5-0.8,0.1-1c0.7-0.3,0.8-0.7,0.7-1.3c0-0.2,0-0.4,0.1-0.5C15.4,102.6,15.6,102.5,15.8,103z"/>
	<path id="XMLID_307_" d="M11.1,28.6c0.3,1,0,2.2,1.1,2.9c-1-0.3-1-0.3-1.1-1.3c0-0.3-0.1-0.7-0.2-1C10.9,29,10.8,28.7,11.1,28.6z"
		/>
	<path id="XMLID_306_" d="M2.5,82.9c0.5,1.1,0.7,2.2,1.1,3.3c0.1,0.2,0.3,0.5,0.2,0.8c-0.5-0.3-0.4-0.9-0.6-1.3
		c-0.3-0.8-0.5-1.5-0.8-2.3C2.4,83.2,2.3,83,2.5,82.9z"/>
	<path id="XMLID_305_" d="M76.8,1.2c-0.1,0.2-0.3,0.3-0.3,0.6c0,0.5-0.8,0.7-1.2,0.5c0,0,0,0,0.1,0c0.3-0.1,1-0.1,0.8-0.5
		c-0.1-0.3-0.6,0.1-0.9,0.1c0-0.3,0.2-0.3,0.4-0.4c0.2,0,0.4-0.1,0.5-0.4C76.3,1.1,76.6,1,76.8,1.2z"/>
	<path id="XMLID_304_" d="M36.2,6.7C35,7.4,33.9,8,32.7,8.6c0.3-0.5,0.8-0.6,1.2-0.8C34.6,7.4,35.3,6.8,36.2,6.7z"/>
	<path id="XMLID_303_" d="M97.3,8.6c-1.2-0.5-2.4-1.2-3.5-1.9c0.6,0,1,0.4,1.5,0.6C96,7.7,96.8,8,97.3,8.6z"/>
	<path id="XMLID_302_" d="M57.8,31.8c-0.3,0-0.6,0-0.9-0.1c-0.2-0.1-0.3-0.2-0.4-0.5c0-0.1,0-0.3,0.1-0.3c0.2-0.1,0.3,0.1,0.5,0.1
		c0.3,0.1,0.4,0.5,0.7,0.5C57.8,31.6,57.8,31.7,57.8,31.8z"/>
	<path id="XMLID_301_" d="M8.6,58c0.3-0.1,0.4-0.4,0.5-0.5c0.1-0.1,0.2-0.1,0.3-0.1c0.1,0.1,0.1,0.2,0.1,0.3c-0.1,0.6-0.4,0.9-1,0.9
		C8.4,58.4,8.4,58.2,8.6,58z"/>
	<path id="XMLID_300_" d="M93,80.3c-0.2,0-0.3-0.1-0.4-0.2c-0.1-0.2-0.4-0.2-0.3-0.5c0.1-0.2,0.3-0.2,0.5-0.3
		c0.3-0.1,0.4,0.1,0.5,0.3c0,0.1,0.1,0.1,0.1,0.2C93.2,80,93.1,80.2,93,80.3z"/>
	<path id="XMLID_299_" d="M97.8,120.8c-0.2,0.3-0.4,0.6-0.7,0.7c-0.2,0.1-0.4-0.1-0.3-0.3c0.1-0.4,0.3-0.6,0.7-0.7
		C97.7,120.4,97.8,120.5,97.8,120.8z"/>
	<path id="XMLID_298_" d="M23.5,115c0.9-0.3,1.4,0.1,1.2,1C24.3,115.6,23.9,115.3,23.5,115z"/>
	<path id="XMLID_297_" d="M96.1,62.2c0,0,0-0.1,0-0.1c0.1-0.2-0.1-0.6,0.3-0.7c0.2,0,0.3,0.1,0.3,0.3c0.1,0.3-0.1,0.7-0.2,0.9
		c0,0.1-0.2,0-0.3,0C96.1,62.5,96,62.4,96.1,62.2z"/>
	<path id="XMLID_296_" d="M48.1,2.2c-0.5,0.3-1.2,0.4-1.8,0.6C46.2,2.8,46,2.9,46,3.2c-0.2,0-0.4,0.1-0.5-0.2c0-0.2,0.2-0.3,0.3-0.3
		c0.6-0.2,1.2-0.4,1.8-0.6C47.9,2.1,48,2.1,48.1,2.2z"/>
	<path id="XMLID_295_" d="M2.3,76.6c0.1-0.3,0.3-0.2,0.5-0.2c1,0.1,1,0.1,0.8-0.9c0-0.1,0-0.3,0-0.4C4.1,75.4,4,76,3.9,76.4
		c0,0.2-0.3,0.3-0.4,0.2C3.1,76.7,2.7,76.6,2.3,76.6z"/>
	<path id="XMLID_294_" d="M30.6,84.8c0.2,0.1,0.5,0.1,0.7,0c0.2-0.1,0.5-0.2,0.6,0.1c0.1,0.3-0.2,0.4-0.4,0.4c-0.2,0-0.4,0-0.4,0.3
		C30.8,85.3,30.7,85.1,30.6,84.8z"/>
	<path id="XMLID_293_" d="M117.3,103.6c0.5-0.9,1.1-1.7,1.7-2.5C118.6,102.1,118.1,102.9,117.3,103.6z"/>
	<path id="XMLID_292_" d="M110.8,98.4c0-0.3-0.2-0.2-0.4-0.1c-0.4,0.2-0.8,0.3-1.2,0.4c0.5-0.6,1.4-0.5,2-1.2
		C111.2,98,111,98.2,110.8,98.4z"/>
	<path id="XMLID_291_" d="M84.7,3c-1-0.2-1.9-0.5-2.8-0.8c0.4-0.3,0.7,0.1,1.1,0.2C83.5,2.5,84.2,2.6,84.7,3z"/>
	<path id="XMLID_290_" d="M12.4,103.1c0.5,0,1,0.5,1.6,0.1c-0.1,0.6-0.6,0.6-1,0.6C12.6,103.9,12.4,103.6,12.4,103.1z"/>
	<path id="XMLID_289_" d="M58.6,129.5c0.6,0.3,1.2,0.2,1.8,0.3c0.3,0,0.6,0,0.9,0.2c-0.8,0-1.7,0.2-2.5-0.2
		C58.8,129.7,58.7,129.6,58.6,129.5z"/>
	<path id="XMLID_288_" d="M47.1,5c0.7,0.3,1.3-0.1,2-0.2c0.2,0,0.5-0.2,0.7-0.1c-0.6,0.5-1.4,0.6-2.2,0.7C47.4,5.4,47.2,5.3,47.1,5z
		"/>
	<path id="XMLID_287_" d="M19.1,107.8c0.2,0,0.5,0.2,0.6-0.2c0.5,0.2,0.8,0.5,0.9,0.9c-0.1,0.1-0.3,0.1-0.4,0.2
		c0-0.3-0.1-0.6-0.5-0.5C19.4,108.2,19.2,108.1,19.1,107.8z"/>
	<path id="XMLID_286_" d="M12.3,31.5c0.4-0.1,0.5-0.6,0.8-0.9c0.3-0.4,0.5-0.8,0.9-1.1c-0.2,0.8-0.8,1.4-1.3,2.1
		C12.5,31.8,12.3,31.7,12.3,31.5z"/>
	<path id="XMLID_285_" d="M101.5,118.7c-0.3,0.5-0.8,0.7-1.4,0.9c0.4-0.3,0.5-1,1.2-1C101.4,118.6,101.5,118.7,101.5,118.7z"/>
	<path id="XMLID_284_" d="M79.3,86.8c0.1,0.1,0.1,0.3,0.2,0.4c0.1,0.2,0,0.4-0.3,0.5c-0.3,0-0.4-0.1-0.5-0.4c0-0.3-0.1-0.5-0.1-0.8
		C78.8,86.6,79.1,86.6,79.3,86.8z"/>
	<path id="XMLID_283_" d="M105.9,112.7c-0.3,0.5-0.8,1-0.9,1.6c0,0.2-0.2,0.4-0.5,0.3c0.3-0.3,0.4-0.6,0.5-1
		C105.2,113.1,105.5,112.9,105.9,112.7z"/>
	<path id="XMLID_282_" d="M24.5,114.1c0.4-0.1,0.7-0.5,1.1-0.3c0.2,0.1,0.4,0.2,0.4,0.4c0,0.3-0.3,0.2-0.4,0.1c-0.3,0-0.5,0-0.7,0.2
		C24.6,114.4,24.5,114.3,24.5,114.1z"/>
	<path id="XMLID_281_" d="M115.1,101.8c-0.4,0.8-1,1.5-1.6,2.1C113.8,103.1,114.4,102.4,115.1,101.8z"/>
	<path id="XMLID_280_" d="M3.3,73c-0.2-0.7-0.3-1.4-0.2-2.2C3.5,71.5,3.5,72.2,3.3,73z"/>
	<path id="XMLID_279_" d="M25.2,13.6c-0.6,0.6-1.2,1.1-1.8,1.5C23.8,14.4,24.4,13.9,25.2,13.6z"/>
	<path id="XMLID_278_" d="M113.2,108.6c0.4-0.6,0.9-1.2,1.5-1.7C114.4,107.6,113.9,108.2,113.2,108.6z"/>
	<path id="XMLID_277_" d="M113.2,25c-0.5-0.3-0.5-0.3,0.1-0.6c0-0.3-0.3-0.1-0.4-0.3c0.1,0,0.2-0.1,0.3-0.1c0.2-0.1,0.3-0.1,0.4,0.1
		c0.1,0.2,0,0.3-0.1,0.5C113.4,24.6,113.2,24.7,113.2,25z"/>
	<path id="XMLID_276_" d="M12.2,82.6c-0.2-0.1-0.3,0-0.4,0.1c-0.2,0.1-0.4,0.1-0.5-0.1c0-0.1-0.1-0.2,0-0.2c0.1-0.2,0.3-0.2,0.5-0.2
		c0.1,0,0.2,0,0.3,0.1C12.1,82.3,12.2,82.4,12.2,82.6z"/>
	<path id="XMLID_275_" d="M19.7,96c0-0.1,0-0.1,0.1-0.2c0.1-0.3,0.2-0.5,0.6-0.5c0.2,0,0.3,0.1,0.3,0.3c-0.1,0.3-0.4,0.4-0.6,0.4
		c-0.1,0-0.1,0.1-0.1,0.1C19.8,96,19.8,96,19.7,96z"/>
	<path id="XMLID_274_" d="M19.1,79.2c0,0.2-0.1,0.3-0.3,0.3c-0.1,0-0.2,0-0.2-0.1c0-0.2,0.1-0.3,0.3-0.3C19,79,19,79.1,19.1,79.2z"
		/>
	<path id="XMLID_273_" d="M125.1,49.1c0.3,0.6,0.4,1.2,0.5,1.8C125.1,50.3,125.1,49.7,125.1,49.1z"/>
	<path id="XMLID_272_" d="M9.1,94.1c0.2-0.5,0.4-1,0.2-1.5C9.9,93.2,9.8,93.7,9.1,94.1z"/>
	<path id="XMLID_271_" d="M116.3,27.7c0.1-0.7,0.6-0.3,0.9-0.3l0,0c0,0.7-0.1,0.7-0.8,0.4C116.3,27.8,116.3,27.7,116.3,27.7z"/>
	<path id="XMLID_270_" d="M116.4,27.8c0.7,0.3,0.8,0.3,0.8-0.4c0.4,0.2,0.3,0.4,0.2,0.7c-0.1,0.2-0.2,0.3-0.4,0.3
		C116.6,28.3,116.5,28.1,116.4,27.8z"/>
	<path id="XMLID_269_" d="M29.6,13.8c0.6-0.4,1.1-0.8,1.7-1.1C30.9,13.2,30.4,13.8,29.6,13.8z"/>
	<path id="XMLID_268_" d="M110.5,18.6c-0.6-0.4-1-0.8-1.5-1.4C109.7,17.5,110.2,18,110.5,18.6z"/>
	<path id="XMLID_267_" d="M4.4,78.8c-0.2-0.3-0.4-0.5-0.8-0.4c-0.2,0-0.5,0.1-0.6-0.3c0.3,0,0.6-0.1,0.9,0
		C4.3,78.1,4.6,78.3,4.4,78.8z"/>
	<path id="XMLID_266_" d="M69.3,29.3c0.3-0.2,0.5-0.4,0.7-0.2c0.1,0,0.1,0.2,0.1,0.2C69.9,29.6,69.6,29.3,69.3,29.3z"/>
	<path id="XMLID_265_" d="M41.1,14.6c0.2-0.3-0.4-0.6,0-0.8c0.4-0.2,0.4,0.4,0.6,0.5C41.6,14.5,41.3,14.6,41.1,14.6z"/>
	<path id="XMLID_264_" d="M12.3,26.9c-0.3,0.6-0.7,1.1-1.1,1.6C11.4,27.9,11.7,27.3,12.3,26.9z"/>
	<path id="XMLID_263_" d="M111.5,110.4c0.3-0.5,0.8-1,1.3-1.3C112.5,109.7,112.1,110.1,111.5,110.4z"/>
	<path id="XMLID_262_" d="M101,10.9c-0.6-0.3-1.1-0.6-1.6-1.1C100.1,10,100.6,10.3,101,10.9z"/>
	<path id="XMLID_261_" d="M101.4,14.6c0.6,0.3,1.1,0.6,1.5,1.1C102.2,15.5,101.7,15.2,101.4,14.6z"/>
	<path id="XMLID_260_" d="M60.7,102.1c-0.1,0.1-0.2,0.3,0.1,0.4c0.1,0,0.2,0.1,0.1,0.2c0,0.1-0.1,0.1-0.2,0.1
		c-0.1,0-0.3-0.1-0.2-0.2c0.1-0.3-0.1-0.4-0.2-0.6C60.4,102.1,60.6,102.1,60.7,102.1z"/>
	<path id="XMLID_259_" d="M3.1,59.2c-0.1-0.6,0-1.1,0.2-1.7C3.6,58.1,3.4,58.6,3.1,59.2z"/>
	<path id="XMLID_258_" d="M51.5,126.8c0.6-0.5,0.9-0.5,1.1,0.1C52.3,127.1,51.9,127.1,51.5,126.8z"/>
	<path id="XMLID_257_" d="M17.5,109.3c-0.1-0.6,0.3-0.4,0.5-0.3c0,0,0,0.1,0,0.1c0,0.1-0.1,0.2,0,0.3c0,0,0,0,0,0.1
		c-0.1,0-0.2,0-0.3,0C17.6,109.5,17.5,109.4,17.5,109.3z"/>
	<path id="XMLID_256_" d="M31.9,12.4c0.4-0.4,0.9-0.7,1.5-0.9C33,11.9,32.6,12.3,31.9,12.4z"/>
	<path id="XMLID_255_" d="M10.8,96.3c-0.3-0.1-0.8,0-0.4-0.6c0-0.1-0.1-0.3-0.2-0.4C10.7,95.5,10.8,95.9,10.8,96.3z"/>
	<path id="XMLID_254_" d="M3.9,53.4c0-0.5-0.3-0.6-0.7-0.5c0.1-0.4,0.5-0.4,0.7-0.3C4.2,52.8,4.2,53.2,3.9,53.4z"/>
	<path id="XMLID_253_" d="M122.4,34.5c-0.4-0.3-0.8-0.5-1.4-0.4C121.5,33.6,122.1,33.8,122.4,34.5z"/>
	<path id="XMLID_252_" d="M101.5,118.7c-0.1-0.1-0.1-0.1-0.2-0.2c0.2-0.1,0.3-0.6,0.5-0.5c0.4,0.1,0.1,0.3-0.1,0.5
		C101.7,118.6,101.6,118.7,101.5,118.7z"/>
	<path id="XMLID_251_" d="M3.1,70.6c-0.1-0.5-0.2-1-0.1-1.5C3.3,69.5,3.2,70,3.1,70.6z"/>
	<path id="XMLID_250_" d="M3.6,74.7c-0.2-0.5-0.3-0.9-0.2-1.4C3.8,73.7,3.8,74.2,3.6,74.7z"/>
	<path id="XMLID_249_" d="M15.8,27c0.2-0.5,0.6-0.9,1-1.2C16.6,26.4,16.3,26.8,15.8,27z"/>
	<path id="XMLID_248_" d="M75,3.6c0.5-0.1,0.9,0.1,1.3,0.2C75.8,4,75.4,4.1,75,3.6z"/>
	<path id="XMLID_247_" d="M102.9,15.8c0.5,0.2,0.9,0.6,1.2,1C103.6,16.6,103.2,16.3,102.9,15.8z"/>
	<path id="XMLID_246_" d="M1.1,73.6c0.3,0.5,0.2,1-0.2,1.5C0.9,74.5,1,74.1,1.1,73.6z"/>
	<path id="XMLID_245_" d="M106,18.3c0.5,0.2,0.9,0.6,1.2,1C106.6,19.3,106.3,18.8,106,18.3z"/>
	<path id="XMLID_244_" d="M71.5,25c0.2,0.1,0.3,0.3,0.4,0.5C71.4,25.6,71.3,25.5,71.5,25z"/>
	<path id="XMLID_243_" d="M122.4,40.9c0.2,0,0.4,0,0.4,0.2c-0.1,0.4,0.2,0.7,0.4,1c-0.3,0-0.5-0.2-0.6-0.5
		C122.5,41.4,122.5,41.1,122.4,40.9z"/>
	<path id="XMLID_242_" d="M9.9,99.6c0.4,0.4,0.7,0.8,0.9,1.3C10.3,100.6,10,100.1,9.9,99.6z"/>
	<path id="XMLID_241_" d="M1.3,76.2c0,0.3-0.1,0.7-0.1,1C1,76.9,0.5,76.4,1.3,76.2z"/>
	<path id="XMLID_240_" d="M116,100.5c-0.2,0.5-0.5,0.9-0.9,1.2C115.3,101.2,115.5,100.8,116,100.5z"/>
	<path id="XMLID_239_" d="M103.1,12.3c-0.5-0.2-0.9-0.5-1.2-0.9C102.4,11.6,102.8,11.8,103.1,12.3z"/>
	<path id="XMLID_238_" d="M59,121.3c0-0.1,0-0.1,0-0.1c0.3-0.2,0.5-0.1,0.8,0.1c0,0,0,0.1,0,0.2C59.5,121.6,59.3,121.4,59,121.3z"/>
	<path id="XMLID_237_" d="M6.1,85.4c-0.4-0.1-0.9,0.1-1.3-0.1C5.3,85.2,5.8,84.9,6.1,85.4z"/>
	<path id="XMLID_236_" d="M19.2,107c-0.4-0.2-0.7-0.6-0.9-1C18.7,106.2,19.1,106.5,19.2,107z"/>
	<path id="XMLID_235_" d="M86.3,124.7c-0.4,0.1-0.8,0.1-1.2-0.2C85.6,124.4,86,124.4,86.3,124.7z"/>
	<path id="XMLID_234_" d="M7.4,95.2c0.3,0.4,0.5,0.8,0.7,1.2C7.6,96.1,7.4,95.7,7.4,95.2z"/>
	<path id="XMLID_233_" d="M18.1,24.2c0.2-0.4,0.5-0.7,0.8-1C18.8,23.8,18.5,24,18.1,24.2z"/>
	<path id="XMLID_232_" d="M111.9,105.8c-0.2,0.4-0.5,0.7-0.8,1C111.1,106.2,111.5,106,111.9,105.8z"/>
	<path id="XMLID_231_" d="M66.8,130c0.3-0.2,0.1-1,0.8-0.5C67.2,129.4,67.2,130,66.8,130z"/>
	<path id="XMLID_230_" d="M3.4,56.7c-0.1-0.4,0-0.8,0.2-1.2C3.8,56,3.7,56.4,3.4,56.7z"/>
	<path id="XMLID_229_" d="M77.2,128.9c0.3-0.2,0.7-0.3,1-0.2C78,128.9,77.6,129,77.2,128.9z"/>
	<path id="XMLID_228_" d="M128.9,52.8c-0.2-0.3-0.3-0.7-0.2-1C128.9,52,129,52.4,128.9,52.8z"/>
	<path id="XMLID_227_" d="M128.6,78.3c-0.1-0.4,0-0.7,0.2-1C129,77.6,128.9,78,128.6,78.3z"/>
	<path id="XMLID_226_" d="M12.3,98.1c-0.3-0.3-0.5-0.7-0.7-1.1C12.1,97.2,12.3,97.5,12.3,98.1z"/>
	<path id="XMLID_225_" d="M99.2,9.7c-0.4-0.1-0.8-0.4-1.1-0.7C98.6,9.1,99,9.3,99.2,9.7z"/>
	<path id="XMLID_224_" d="M76.6,3.9c0.4-0.1,0.7,0,1,0.2C77.2,4.3,76.8,4.3,76.6,3.9z"/>
	<path id="XMLID_223_" d="M31.8,9.1c-0.3,0.3-0.7,0.5-1.1,0.7C31,9.3,31.4,9.1,31.8,9.1z"/>
	<path id="XMLID_222_" d="M116.4,104.8c0.1-0.4,0.4-0.7,0.7-0.9C117,104.2,116.8,104.6,116.4,104.8z"/>
	<path id="XMLID_221_" d="M78.4,1.4c-0.4,0-0.8,0-1.1-0.2C77.7,1,78,1.1,78.4,1.4z"/>
	<path id="XMLID_220_" d="M106.4,14.9c-0.4-0.2-0.7-0.4-0.9-0.7C105.9,14.2,106.2,14.4,106.4,14.9z"/>
	<path id="XMLID_219_" d="M39.6,124.8c0.4,0.1,0.8,0.2,1.2,0.5C40.2,125.4,39.8,125.3,39.6,124.8z"/>
	<path id="XMLID_218_" d="M52.6,1.2c-0.3,0.2-0.7,0.3-1,0.2C51.9,1.1,52.2,1,52.6,1.2z"/>
	<path id="XMLID_217_" d="M105,17.4c0.4,0.2,0.7,0.4,0.9,0.8C105.4,18.2,105.2,17.8,105,17.4z"/>
	<path id="XMLID_216_" d="M9.2,92.4c-0.3-0.4-0.5-0.8-0.6-1.2C9,91.5,9.2,91.9,9.2,92.4z"/>
	<path id="XMLID_215_" d="M51.3,1.4c-0.3,0.2-0.6,0.3-0.9,0.2C50.7,1.3,51,1.2,51.3,1.4z"/>
	<path id="XMLID_214_" d="M79.5,1.6c-0.3,0.1-0.6,0-0.9-0.2C79,1.2,79.3,1.3,79.5,1.6z"/>
	<path id="XMLID_213_" d="M8.9,97.8c0.3,0.3,0.5,0.6,0.6,1C9.1,98.6,8.9,98.3,8.9,97.8z"/>
	<path id="XMLID_212_" d="M78.5,128.6c0.3-0.2,0.6-0.3,0.9-0.2C79.2,128.7,78.9,128.8,78.5,128.6z"/>
	<path id="XMLID_211_" d="M108.3,16.5c-0.4-0.2-0.6-0.4-0.8-0.7C107.9,15.8,108.2,16.2,108.3,16.5z"/>
	<path id="XMLID_210_" d="M3,61c-0.1-0.4-0.1-0.7,0.1-1C3.2,60.3,3.3,60.6,3,61z"/>
	<path id="XMLID_209_" d="M57.9,129.2c-0.2,0.5-0.5,0.3-0.7,0.1c0,0,0-0.1,0-0.1c0.1,0,0.2,0,0.2-0.2
		C57.7,129,57.8,129.1,57.9,129.2z"/>
	<path id="XMLID_208_" d="M6.8,93.9C7,94.2,7.2,94.6,7.3,95C6.9,94.8,6.7,94.4,6.8,93.9z"/>
	<path id="XMLID_207_" d="M77.8,4.2c0.3-0.1,0.6,0,0.9,0.2C78.4,4.6,78.1,4.5,77.8,4.2z"/>
	<path id="XMLID_206_" d="M124.3,42.5c0.1-0.3,0.4-0.3,0.6-0.3c0.3,0.1,0.5,0.3,0.1,0.5C124.9,42.3,124.5,42.5,124.3,42.5z"/>
	<path id="XMLID_205_" d="M3,78c-0.2-0.3-0.7,0.1-0.9-0.4C2.5,77.7,3,77.4,3,78z"/>
	<path id="XMLID_204_" d="M14.6,102.2c0.2-0.2,0.1-0.5,0-0.7c0.3,0.1,0.4,0.4,0.5,0.6l0,0C14.9,102.1,14.7,102.1,14.6,102.2z"/>
	<path id="XMLID_203_" d="M54,127.9c0.3-0.2,0.2-0.7,0.5-0.9C54.5,127.4,54.7,127.9,54,127.9z"/>
	<path id="XMLID_202_" d="M49.2,1.9c-0.2,0.2-0.5,0.3-0.8,0.2C48.6,1.8,48.8,1.8,49.2,1.9z"/>
	<path id="XMLID_201_" d="M1.2,77.5c0.2,0.3,0.2,0.6,0.2,0.9C1.1,78.1,1,77.8,1.2,77.5z"/>
	<path id="XMLID_200_" d="M10.1,95.3c-0.3-0.1-0.7,0-0.8-0.4C9.6,95,10.1,94.7,10.1,95.3z"/>
	<path id="XMLID_199_" d="M104.2,16.8c0.3,0.1,0.6,0.3,0.8,0.6C104.6,17.4,104.3,17.2,104.2,16.8z"/>
	<path id="XMLID_198_" d="M14,29.5c0.1-0.3,0.3-0.6,0.6-0.8C14.5,29,14.4,29.3,14,29.5z"/>
	<path id="XMLID_197_" d="M3.6,55c-0.1-0.3,0-0.6,0.2-0.9C4.1,54.4,3.9,54.7,3.6,55z"/>
	<path id="XMLID_196_" d="M53.4,126.1c-0.3,0.1-0.6-0.1-0.9-0.1C52.8,125.6,53.1,125.8,53.4,126.1z"/>
	<path id="XMLID_195_" d="M81.6,2.2c-0.3,0-0.5-0.1-0.8-0.2C81.1,1.8,81.4,1.8,81.6,2.2z"/>
	<path id="XMLID_194_" d="M1.7,79.9c0.2,0.2,0.3,0.5,0.2,0.8C1.6,80.5,1.5,80.2,1.7,79.9z"/>
	<path id="XMLID_193_" d="M20,111.9c0.2,0,0.3,0,0.5-0.1c0.2,0.2,0,0.4-0.2,0.4C20.1,112.3,20,112.1,20,111.9z"/>
	<path id="XMLID_192_" d="M13.7,100.3c-0.4-0.2-0.3-0.6-0.5-0.9C13.6,99.6,13.6,100,13.7,100.3z"/>
	<path id="XMLID_191_" d="M113.3,104.1c-0.1,0.3-0.3,0.5-0.6,0.7C112.7,104.4,113,104.2,113.3,104.1z"/>
	<path id="XMLID_190_" d="M112.7,104.9c-0.1,0.3-0.3,0.5-0.6,0.7C112.1,105.2,112.3,105,112.7,104.9z"/>
	<path id="XMLID_189_" d="M50.2,1.7c-0.2,0.2-0.5,0.3-0.8,0.2C49.6,1.6,49.9,1.5,50.2,1.7z"/>
	<path id="XMLID_188_" d="M80.6,1.9c-0.3,0.1-0.6,0-0.8-0.2C80.1,1.5,80.3,1.6,80.6,1.9z"/>
	<path id="XMLID_187_" d="M46.1,3.2c0.4,0.2,0.2,0.6,0.3,0.8C45.9,3.9,46.2,3.5,46.1,3.2z"/>
	<path id="XMLID_186_" d="M52.7,127.4c0,0.2,0.3,0.3,0.3,0.5c-0.2,0.1-0.4,0.1-0.5-0.2C52.4,127.6,52.4,127.5,52.7,127.4z"/>
	<path id="XMLID_185_" d="M51.2,4.4c0.2-0.2,0.5-0.3,0.8-0.2C51.8,4.4,51.6,4.6,51.2,4.4z"/>
	<path id="XMLID_184_" d="M50.1,4.7c0.2-0.2,0.5-0.3,0.8-0.2C50.6,4.7,50.4,4.8,50.1,4.7z"/>
	<path id="XMLID_183_" d="M19.9,18.2c-0.2,0.2-0.4,0.5-0.7,0.6C19.3,18.5,19.5,18.3,19.9,18.2z"/>
	<path id="XMLID_182_" d="M114.3,25.1c-0.3,0.3-0.7,0.2-1,0C113.7,25,114,25,114.3,25.1z"/>
	<path id="XMLID_181_" d="M120.4,35.9c-0.1,0.1-0.2,0.1-0.3,0.2c-0.2-0.1-0.3-0.3-0.1-0.4C120.2,35.6,120.3,35.8,120.4,35.9z"/>
	<path id="XMLID_180_" d="M125.4,40.9c-0.2-0.3-0.4-0.6-0.4-1C125.3,40.2,125.4,40.5,125.4,40.9z"/>
	<path id="XMLID_179_" d="M114.9,106.7c0.1-0.3,0.3-0.5,0.6-0.7C115.4,106.4,115.2,106.6,114.9,106.7z"/>
	<path id="XMLID_178_" d="M1.4,78.8c0.2,0.2,0.3,0.5,0.2,0.8C1.4,79.3,1.2,79.1,1.4,78.8z"/>
	<path id="XMLID_177_" d="M2.2,81.8c0.2,0.2,0.3,0.5,0.2,0.8C2.1,82.4,2,82.2,2.2,81.8z"/>
	<path id="XMLID_176_" d="M5.8,91.9c0.3,0.2,0.3,0.5,0.4,0.8C5.9,92.5,5.7,92.3,5.8,91.9z"/>
	<path id="XMLID_175_" d="M4.6,79.8c-0.2-0.2-0.3-0.5-0.2-0.8C4.6,79.2,4.8,79.5,4.6,79.8z"/>
	<path id="XMLID_174_" d="M61.2,128.3c-0.3,0.4-0.5,0.3-0.8,0C60.7,128.3,61,128.3,61.2,128.3z"/>
	<path id="XMLID_173_" d="M6.5,86.4c-0.6-0.1-0.1-0.5-0.2-0.8C6.6,85.8,6.5,86.2,6.5,86.4z"/>
	<path id="XMLID_172_" d="M126.4,43.8c-0.1-0.2-0.2-0.5-0.2-0.8C126.5,43.2,126.6,43.5,126.4,43.8z"/>
	<path id="XMLID_171_" d="M1.9,80.9c0.2,0.2,0.3,0.4,0.2,0.7C1.8,81.4,1.7,81.2,1.9,80.9z"/>
	<path id="XMLID_170_" d="M14.4,105.8c0.3,0.1,0.4,0.4,0.5,0.6C14.5,106.3,14.4,106.1,14.4,105.8z"/>
	<path id="XMLID_169_" d="M54.8,126.4c-0.3,0-0.6,0-0.8-0.2C54.4,126,54.6,126.1,54.8,126.4z"/>
	<path id="XMLID_168_" d="M14.2,102.9c0.1-0.2,0.2-0.5,0.3-0.7C14.6,102.5,14.7,102.9,14.2,102.9z"/>
	<path id="XMLID_167_" d="M4.9,80.8c-0.2-0.2-0.2-0.4-0.2-0.7C4.9,80.3,5.1,80.5,4.9,80.8z"/>
	<path id="XMLID_166_" d="M17.4,25c0.1-0.3,0.2-0.4,0.5-0.6C17.9,24.7,17.7,24.9,17.4,25z"/>
	<path id="XMLID_165_" d="M2.1,77.4C2,77.1,2,76.8,2.2,76.6C2.3,76.9,2.3,77.1,2.1,77.4z"/>
	<path id="XMLID_164_" d="M126.1,42.8c-0.2-0.1-0.3-0.3-0.3-0.5C126.1,42.3,126.3,42.5,126.1,42.8z"/>
	<path id="XMLID_163_" d="M120.9,34.9c0.2,0,0.5,0.1,0.6,0.3C121.2,35.4,121,35.3,120.9,34.9z"/>
	<path id="XMLID_162_" d="M16.8,25.8c0.1-0.3,0.2-0.5,0.5-0.6C17.3,25.5,17.1,25.7,16.8,25.8z"/>
	<path id="XMLID_161_" d="M46.7,4.5c0.2,0.1,0.4,0.2,0.4,0.5C46.8,5,46.6,4.9,46.7,4.5z"/>
	<path id="XMLID_160_" d="M86.2,3.5c-0.2,0.1-0.4,0-0.5-0.2C85.9,3.2,86.1,3.3,86.2,3.5z"/>
	<path id="XMLID_159_" d="M14.6,101.4c-0.2-0.1-0.4-0.2-0.5-0.4C14.3,100.9,14.6,101,14.6,101.4z"/>
	<path id="XMLID_158_" d="M44.7,126.8c0.3,0,0.4,0.1,0.6,0.2C45,127.2,44.8,127.1,44.7,126.8z"/>
	<path id="XMLID_157_" d="M48.5,125c-0.3,0-0.5-0.1-0.6-0.2C48.2,124.6,48.4,124.7,48.5,125z"/>
	<path id="XMLID_156_" d="M47.6,124.7c-0.3,0-0.5,0-0.6-0.2C47.3,124.3,47.5,124.4,47.6,124.7z"/>
	<path id="XMLID_155_" d="M24.4,113.3c-0.1,0.1-0.1,0.3-0.2,0.4c-0.1,0-0.3-0.1-0.2-0.2C24,113.3,24.2,113.3,24.4,113.3z"/>
	<path id="XMLID_154_" d="M46.7,124.5c-0.2,0.1-0.4,0-0.5-0.2C46.5,124.1,46.6,124.2,46.7,124.5z"/>
	<path id="XMLID_153_" d="M124.3,38.4c-0.2-0.1-0.4-0.2-0.5-0.4C124,38,124.3,38,124.3,38.4z"/>
	<path id="XMLID_152_" d="M115.5,105.9c0-0.2,0.2-0.4,0.4-0.5C115.9,105.7,115.8,105.9,115.5,105.9z"/>
	<path id="XMLID_151_" d="M50.6,127.1c0.2-0.1,0.3-0.1,0.5,0C50.9,127.5,50.8,127.5,50.6,127.1z"/>
	<path id="XMLID_150_" d="M53.2,128.1c0.2,0,0.3,0,0.5,0.1C53.5,128.5,53.3,128.5,53.2,128.1z"/>
	<path id="XMLID_149_" d="M14.5,24.1c0,0.2-0.2,0.4-0.4,0.5C14.1,24.3,14.2,24.1,14.5,24.1z"/>
	<path id="XMLID_148_" d="M85.4,3.3c-0.2,0.1-0.4,0-0.5-0.2C85.1,2.9,85.3,3.1,85.4,3.3z"/>
	<path id="XMLID_147_" d="M11.4,96.7c-0.2-0.1-0.5-0.1-0.6-0.3C11.1,96.3,11.3,96.4,11.4,96.7z"/>
	<path id="XMLID_146_" d="M20.5,111.4c-0.1-0.2,0-0.4,0.2-0.4c0.2,0,0.3,0.2,0.2,0.4C20.8,111.4,20.7,111.4,20.5,111.4z"/>
	<path id="XMLID_145_" d="M98,9c-0.2,0-0.4-0.1-0.6-0.3C97.6,8.6,97.9,8.7,98,9z"/>
	<path id="XMLID_144_" d="M32.6,8.6C32.4,8.8,32.2,8.9,32,9C32.1,8.7,32.3,8.6,32.6,8.6z"/>
	<path id="XMLID_143_" d="M105.3,14c-0.2,0-0.3-0.2-0.4-0.3C105.1,13.6,105.2,13.7,105.3,14z"/>
	<path id="XMLID_142_" d="M17.9,105.6c-0.2-0.1-0.3-0.2-0.4-0.4C17.8,105.2,17.9,105.3,17.9,105.6z"/>
	<path id="XMLID_141_" d="M14,24.7c0,0.2-0.2,0.3-0.3,0.4C13.6,24.9,13.7,24.8,14,24.7z"/>
	<path id="XMLID_140_" d="M9.3,94.8c-0.1-0.1-0.3-0.2-0.3-0.5C9.2,94.4,9.4,94.6,9.3,94.8z"/>
	<path id="XMLID_139_" d="M12.7,26.4c0,0.2-0.1,0.4-0.3,0.5C12.3,26.6,12.4,26.4,12.7,26.4z"/>
	<path id="XMLID_138_" d="M16.2,103.5c-0.2-0.1-0.3-0.2-0.3-0.4C16.1,103.1,16.3,103.3,16.2,103.5z"/>
	<path id="XMLID_137_" d="M15.8,107.5c0.2,0.1,0.3,0.2,0.4,0.4C15.9,107.9,15.8,107.8,15.8,107.5z"/>
	<path id="XMLID_136_" d="M16.7,104.2c-0.2-0.1-0.3-0.2-0.3-0.4C16.6,103.8,16.8,103.9,16.7,104.2z"/>
	<path id="XMLID_135_" d="M25.8,13.1c-0.1,0.2-0.2,0.3-0.4,0.3C25.4,13.2,25.5,13.1,25.8,13.1z"/>
	<path id="XMLID_134_" d="M104.1,13.1c-0.2,0-0.4-0.1-0.4-0.3C103.9,12.7,104.1,12.8,104.1,13.1z"/>
	<path id="XMLID_133_" d="M17.3,104.8c-0.2-0.1-0.3-0.2-0.4-0.4C17.1,104.4,17.3,104.5,17.3,104.8z"/>
	<path id="XMLID_132_" d="M12,102.6c0.2,0.1,0.3,0.2,0.3,0.5C12.1,103,11.9,102.9,12,102.6z"/>
	<path id="XMLID_131_" d="M116,105.3c0-0.2,0.2-0.3,0.3-0.4C116.4,105.1,116.2,105.2,116,105.3z"/>
	<path id="XMLID_130_" d="M22.2,19.8c0.1-0.2,0.2-0.3,0.4-0.3C22.6,19.7,22.5,19.8,22.2,19.8z"/>
	<path id="XMLID_129_" d="M14.9,23.6c0,0.2-0.2,0.4-0.4,0.4C14.5,23.8,14.6,23.6,14.9,23.6z"/>
	<path id="XMLID_128_" d="M13.4,25.4c0,0.2-0.1,0.4-0.3,0.5C13.1,25.6,13.2,25.4,13.4,25.4z"/>
	<path id="XMLID_127_" d="M104.6,13.5c-0.2,0-0.4-0.1-0.4-0.3C104.4,13.1,104.6,13.2,104.6,13.5z"/>
	<path id="XMLID_126_" d="M15.3,106.9c0.2,0.1,0.3,0.2,0.3,0.4C15.4,107.3,15.3,107.1,15.3,106.9z"/>
	<path id="XMLID_125_" d="M15,28.1c0-0.2,0.1-0.4,0.3-0.5C15.4,27.9,15.2,28,15,28.1z"/>
	<path id="XMLID_124_" d="M23.1,15.3c-0.1,0.2-0.2,0.3-0.4,0.4C22.7,15.4,22.8,15.3,23.1,15.3z"/>
	<path id="XMLID_123_" d="M107.3,15.6c-0.2,0-0.3-0.2-0.4-0.4C107.1,15.3,107.3,15.4,107.3,15.6z"/>
	<path id="XMLID_122_" d="M120.9,34.1c0,0.2-0.1,0.3-0.3,0.3C120.5,34.1,120.7,34.1,120.9,34.1z"/>
	<path id="XMLID_121_" d="M15.6,22.7c0,0.2-0.2,0.3-0.4,0.4C15.3,22.9,15.4,22.7,15.6,22.7z"/>
	<path id="XMLID_120_" d="M15.4,27.5c0-0.2,0.2-0.4,0.3-0.4C15.7,27.4,15.6,27.5,15.4,27.5z"/>
	<path id="XMLID_119_" d="M0.9,75.3c0.1,0.1,0.2,0.2,0.2,0.3C0.8,75.6,0.8,75.5,0.9,75.3z"/>
	<path id="XMLID_118_" d="M122,36.5c-0.1,0.3-0.2,0.4-0.5,0.1C121.7,36.6,121.9,36.5,122,36.5z"/>
	<path id="XMLID_117_" d="M122.2,35.9c0.1,0.2,0.1,0.3-0.1,0.5C122,36.2,122.1,36,122.2,35.9z"/>
	<path id="XMLID_116_" d="M46.6,127.4c0.2,0,0.3,0,0.4,0.1C46.8,127.7,46.7,127.6,46.6,127.4z"/>
	<path id="XMLID_115_" d="M52.1,126c-0.2,0.1-0.3,0-0.4-0.1C51.9,125.7,52,125.8,52.1,126z"/>
	<path id="XMLID_114_" d="M64,18.6c0,0.1,0.1,0.2,0.1,0.3c-0.1,0-0.2,0.1-0.3,0.1c-0.1,0-0.1,0-0.2,0C63.7,18.8,63.8,18.7,64,18.6z"
		/>
	<path id="XMLID_113_" d="M123.8,42.5c0.1,0,0.3,0,0.4,0C124.1,42.8,123.9,42.8,123.8,42.5z"/>
	<path id="XMLID_112_" d="M17.7,109.6c0.1,0,0.2,0,0.3,0c0,0.1,0,0.3-0.1,0.3C17.7,109.8,17.7,109.7,17.7,109.6z"/>
	<path id="XMLID_111_" d="M30.5,116.7c-0.2,0-0.3-0.1-0.4-0.3C30.3,116.4,30.4,116.4,30.5,116.7z"/>
	<path id="XMLID_110_" d="M125.7,42.1c-0.2-0.1-0.3-0.2-0.1-0.4C125.7,41.9,125.8,42,125.7,42.1z"/>
	<path id="XMLID_109_" d="M26.7,117.5c0.2,0,0.3,0.1,0.4,0.3C26.8,117.8,26.7,117.8,26.7,117.5z"/>
	<path id="XMLID_108_" d="M125.6,41.4c-0.1-0.1-0.1-0.1-0.1-0.3C125.6,41.1,125.7,41.2,125.6,41.4z"/>
	<path id="XMLID_107_" d="M122.1,40.4c0.2,0.1,0.2,0.2,0.2,0.3C122.1,40.7,122,40.6,122.1,40.4z"/>
	<path id="XMLID_106_" d="M21.1,111.6c0.1,0,0.2,0.1,0.2,0.2c-0.1,0-0.2,0-0.2,0C21,111.8,21,111.7,21.1,111.6z"/>
	<path id="XMLID_105_" d="M21.3,111.9c0.2,0,0.3,0,0.3,0.2C21.4,112.1,21.3,112.1,21.3,111.9z"/>
	<path id="XMLID_104_" d="M22.6,112.5c0.1,0,0.2,0.1,0.1,0.2C22.5,112.8,22.4,112.7,22.6,112.5z"/>
	<path id="XMLID_103_" d="M23.4,113.2c0-0.1,0.1-0.2,0.2-0.1C23.7,113.2,23.6,113.3,23.4,113.2z"/>
	<path id="XMLID_102_" d="M121.8,39.7c0.1,0,0.2,0.1,0.1,0.2C121.7,39.9,121.6,39.9,121.8,39.7z"/>
	<path id="XMLID_101_" d="M121.2,38.5c0.1,0.1,0.2,0.2,0.2,0.3C121.2,38.8,121.2,38.6,121.2,38.5z"/>
	<path id="XMLID_100_" d="M124.5,38.8c-0.1-0.1-0.2-0.2-0.2-0.3C124.5,38.5,124.6,38.6,124.5,38.8z"/>
	<path id="XMLID_99_" d="M30.1,116.4c-0.1,0-0.2-0.1-0.3-0.2C29.9,116.2,30,116.2,30.1,116.4z"/>
	<path id="XMLID_98_" d="M121,38c0.1,0.1,0.2,0.2,0.2,0.3C121,38.2,120.9,38.1,121,38z"/>
	<path id="XMLID_97_" d="M6.5,93.4c0.1,0.1,0.2,0.2,0.2,0.3C6.5,93.7,6.4,93.6,6.5,93.4z"/>
	<path id="XMLID_96_" d="M33.5,118.6c-0.1,0-0.2,0-0.2-0.1C33.5,118.3,33.5,118.4,33.5,118.6z"/>
	<path id="XMLID_95_" d="M33.9,118.9c-0.1,0-0.3,0-0.3-0.2C33.8,118.6,33.9,118.7,33.9,118.9z"/>
	<path id="XMLID_94_" d="M123.7,37.9c-0.2-0.1-0.2-0.2-0.1-0.4C123.8,37.6,123.8,37.7,123.7,37.9z"/>
	<path id="XMLID_93_" d="M112.3,24.7c0.2,0,0.2,0.1,0.2,0.3C112.4,25,112.3,24.9,112.3,24.7z"/>
	<path id="XMLID_92_" d="M30.3,119.9c0.2,0,0.2,0.1,0.3,0.2C30.4,120.2,30.3,120.1,30.3,119.9z"/>
	<path id="XMLID_91_" d="M37,120.5c-0.1,0-0.3,0-0.3-0.2C36.8,120.3,37,120.3,37,120.5z"/>
	<path id="XMLID_90_" d="M123.5,36.6c-0.1-0.1-0.2-0.2-0.1-0.3C123.5,36.3,123.5,36.4,123.5,36.6z"/>
	<path id="XMLID_89_" d="M37.5,120.8c-0.1,0-0.3,0-0.3-0.2C37.3,120.5,37.5,120.6,37.5,120.8z"/>
	<path id="XMLID_88_" d="M31.5,120.7c0.2,0,0.3,0.1,0.3,0.2C31.7,121,31.6,120.9,31.5,120.7z"/>
	<path id="XMLID_87_" d="M32.2,121.1c0.1,0,0.3,0,0.3,0.2C32.3,121.3,32.2,121.3,32.2,121.1z"/>
	<path id="XMLID_86_" d="M4.5,85.3c0,0.1-0.1,0.2-0.2,0.2C4.3,85.3,4.3,85.2,4.5,85.3z"/>
	<path id="XMLID_85_" d="M21.8,20.1c0.1-0.1,0.2-0.2,0.3-0.2C22.1,20,22,20.1,21.8,20.1z"/>
	<path id="XMLID_84_" d="M32.6,121.3c0.1,0,0.2,0,0.2,0.1C32.6,121.6,32.6,121.5,32.6,121.3z"/>
	<path id="XMLID_83_" d="M39.9,121.9c-0.2,0-0.3-0.1-0.3-0.2C39.8,121.7,39.9,121.7,39.9,121.9z"/>
	<path id="XMLID_82_" d="M123.1,35.8c-0.1-0.1-0.2-0.2-0.2-0.3C123.1,35.5,123.2,35.6,123.1,35.8z"/>
	<path id="XMLID_81_" d="M40.6,122.2c-0.1,0-0.2,0-0.2-0.1C40.5,121.9,40.6,122,40.6,122.2z"/>
	<path id="XMLID_80_" d="M34,122.1c0.2,0,0.3,0.1,0.3,0.2C34.1,122.4,34,122.3,34,122.1z"/>
	<path id="XMLID_79_" d="M41.2,122.5c-0.1,0-0.2,0-0.2-0.1C41.1,122.2,41.2,122.3,41.2,122.5z"/>
	<path id="XMLID_78_" d="M1.1,75.6c0.2,0.1,0.2,0.2,0.1,0.3C1.1,75.9,1.1,75.8,1.1,75.6z"/>
	<path id="XMLID_77_" d="M42.4,122.9c-0.1,0-0.3,0-0.4-0.1C42.2,122.7,42.3,122.7,42.4,122.9z"/>
	<path id="XMLID_76_" d="M43.4,123.3c-0.1,0-0.2,0-0.3-0.1C43.3,123.1,43.4,123.2,43.4,123.3z"/>
	<path id="XMLID_75_" d="M36,123.2c0.2,0,0.3,0,0.3,0.2C36.1,123.4,36,123.3,36,123.2z"/>
	<path id="XMLID_74_" d="M44.8,123.8c-0.1,0-0.2,0-0.3-0.1C44.7,123.6,44.8,123.7,44.8,123.8z"/>
	<path id="XMLID_73_" d="M45.7,124.1c-0.1,0-0.2,0-0.2-0.1C45.6,123.9,45.7,123.9,45.7,124.1z"/>
	<path id="XMLID_72_" d="M37.8,124c0.2,0,0.3,0.1,0.3,0.2C37.9,124.3,37.8,124.2,37.8,124z"/>
	<path id="XMLID_71_" d="M8.2,96.6c0.1,0.1,0.2,0.2,0.2,0.3C8.2,96.9,8.1,96.8,8.2,96.6z"/>
	<path id="XMLID_70_" d="M31.3,85.8c0.2,0,0.2,0.1,0.1,0.3C31.3,86,31.3,85.9,31.3,85.8z"/>
	<path id="XMLID_69_" d="M8.4,97c0.1,0.1,0.2,0.2,0.2,0.3C8.4,97.3,8.4,97.2,8.4,97z"/>
	<path id="XMLID_68_" d="M122.8,35.3c-0.1-0.1-0.2-0.2-0.2-0.3C122.8,35,122.9,35.1,122.8,35.3z"/>
	<path id="XMLID_67_" d="M49.1,125.1c-0.1,0.1-0.2,0-0.3-0.1C48.9,124.9,49,124.9,49.1,125.1z"/>
	<path id="XMLID_66_" d="M49.6,125.2c-0.1,0.1-0.2,0-0.3-0.1C49.4,125,49.5,125.1,49.6,125.2z"/>
	<path id="XMLID_65_" d="M50.6,125.5c-0.1,0.1-0.2,0-0.3-0.1C50.5,125.2,50.5,125.3,50.6,125.5z"/>
	<path id="XMLID_64_" d="M41.1,125.5c0.1,0,0.2,0,0.3,0.1C41.2,125.7,41.1,125.7,41.1,125.5z"/>
	<path id="XMLID_63_" d="M51.5,125.8c-0.1,0-0.2,0-0.2-0.1C51.4,125.5,51.4,125.6,51.5,125.8z"/>
	<path id="XMLID_62_" d="M41.8,125.7c0.1,0,0.2,0,0.2,0.1C41.8,126,41.8,125.9,41.8,125.7z"/>
	<path id="XMLID_61_" d="M12.9,98.9c-0.1-0.1-0.2-0.2-0.2-0.3C12.9,98.6,12.9,98.7,12.9,98.9z"/>
	<path id="XMLID_60_" d="M13.1,99.3c-0.1-0.1-0.2-0.2-0.2-0.3C13.1,99,13.2,99.1,13.1,99.3z"/>
	<path id="XMLID_59_" d="M42.4,126c0.1,0,0.2,0,0.2,0.1C42.5,126.2,42.4,126.1,42.4,126z"/>
	<path id="XMLID_58_" d="M13.9,100.7c-0.1-0.1-0.2-0.2-0.2-0.3C13.9,100.4,13.9,100.6,13.9,100.7z"/>
	<path id="XMLID_57_" d="M43.2,126.2c0.1,0,0.2,0,0.2,0.1C43.2,126.5,43.2,126.4,43.2,126.2z"/>
	<path id="XMLID_56_" d="M54.9,126.6c0-0.1,0-0.1,0-0.2c0.1,0,0.2,0,0.2,0.1C55.1,126.6,55,126.6,54.9,126.6z"/>
	<path id="XMLID_55_" d="M43.9,126.5c0.2,0,0.3,0,0.3,0.2C44.1,126.7,44,126.7,43.9,126.5z"/>
	<path id="XMLID_54_" d="M103.6,12.7c-0.2,0-0.3-0.1-0.3-0.2C103.4,12.5,103.6,12.5,103.6,12.7z"/>
	<path id="XMLID_53_" d="M31.5,12.7c0.1-0.1,0.2-0.2,0.3-0.2C31.7,12.6,31.6,12.7,31.5,12.7z"/>
	<path id="XMLID_52_" d="M51.3,127c0-0.1,0.2-0.2,0.3-0.2C51.5,127,51.4,127.1,51.3,127z"/>
	<path id="XMLID_51_" d="M14.6,28.6c0-0.2,0.1-0.2,0.2-0.3C14.9,28.4,14.8,28.5,14.6,28.6z"/>
	<path id="XMLID_50_" d="M101.8,11.4c-0.2,0-0.3-0.1-0.3-0.2C101.7,11.2,101.8,11.2,101.8,11.4z"/>
	<path id="XMLID_49_" d="M45.8,127.1c0.1,0,0.2,0,0.3,0.1C46,127.4,45.9,127.3,45.8,127.1z"/>
	<path id="XMLID_48_" d="M49.7,127.3c0.1-0.2,0.2-0.2,0.3-0.2C50,127.3,49.9,127.4,49.7,127.3z"/>
	<path id="XMLID_47_" d="M101.4,11.2c-0.2,0-0.2-0.1-0.3-0.2C101.3,10.9,101.4,11,101.4,11.2z"/>
	<path id="XMLID_46_" d="M15.1,102.1c0,0,0.1,0.1,0.1,0.1C15.1,102.2,15.2,102.1,15.1,102.1L15.1,102.1z"/>
	<path id="XMLID_45_" d="M11.7,102.2c0.1,0.1,0.2,0.2,0.2,0.3C11.7,102.5,11.7,102.4,11.7,102.2z"/>
	<path id="XMLID_44_" d="M114.9,25c-0.1,0-0.2,0-0.3,0C114.7,24.9,114.8,24.9,114.9,25z"/>
	<path id="XMLID_43_" d="M47.6,127.7c0.1-0.1,0.2,0,0.3,0.1C47.7,127.9,47.7,127.8,47.6,127.7z"/>
	<path id="XMLID_42_" d="M48.7,127.8c0.1-0.1,0.2-0.1,0.3-0.1C48.9,127.9,48.8,127.9,48.7,127.8z"/>
	<path id="XMLID_41_" d="M13.1,25.9c0,0.2-0.1,0.2-0.2,0.3C12.8,26,12.9,25.9,13.1,25.9z"/>
	<path id="XMLID_40_" d="M46.4,4.1c0.2,0,0.2,0.1,0.2,0.3C46.4,4.3,46.4,4.2,46.4,4.1z"/>
	<path id="XMLID_39_" d="M52.4,4c0.1-0.1,0.2-0.2,0.3-0.2C52.7,4,52.6,4.1,52.4,4z"/>
	<path id="XMLID_38_" d="M125.1,43.6c0.2,0,0.2,0.1,0.2,0.3C125.2,43.9,125.1,43.8,125.1,43.6z"/>
	<path id="XMLID_37_" d="M57.5,129.1c0,0.1-0.1,0.2-0.2,0.2C57.3,129.1,57.3,128.9,57.5,129.1z"/>
	<path id="XMLID_36_" d="M124.7,43.3c0.1,0,0.2,0.1,0.2,0.2C124.7,43.5,124.6,43.5,124.7,43.3z"/>
	<path id="XMLID_35_" d="M124.9,42.8c0,0.1-0.1,0.2-0.2,0.2C124.6,42.8,124.7,42.8,124.9,42.8z"/>
	<path id="XMLID_34_" d="M6.3,92.9c0.1,0.1,0.2,0.2,0.2,0.3C6.2,93.2,6.2,93,6.3,92.9z"/>
	<path id="XMLID_33_" d="M34.5,122.4c0.2,0,0.3,0.1,0.3,0.2C34.6,122.6,34.5,122.6,34.5,122.4z"/>
	<path id="XMLID_32_" d="M105,68.9c-0.1,0-0.3,0-0.3-0.2c0-0.1,0.1-0.2,0.3-0.2c0.1,0,0.2,0,0.2,0.2C105.2,68.8,105.1,68.8,105,68.9
		z"/>
	<path id="XMLID_31_" d="M4.3,49.1c0,0.2-0.2,0.3-0.4,0.3c0,0-0.1-0.1-0.1-0.1c0-0.2,0.1-0.4,0.3-0.5C4.2,49,4.3,49,4.3,49.1z"/>
	<path id="XMLID_30_" d="M4.2,48.9c0.1-0.1,0.2-0.1,0.2,0c0.1,0.1,0,0.2-0.1,0.3C4.3,49,4.2,49,4.2,48.9z"/>
	<path id="XMLID_29_" d="M77.2,3.5c-0.3,0-0.5-0.1-0.6-0.4c-0.1-0.4,0.1-0.6,0.4-0.7c0.1-0.1,0.2-0.1,0.4-0.1
		c0.3-0.1,0.5-0.6,0.7-0.4c0.2,0.3,0,0.8-0.1,1.2C77.8,3.5,77.5,3.5,77.2,3.5z"/>
	<path id="XMLID_28_" d="M68.9,1.2c0.2-0.1,0-0.4,0.3-0.5c0.2,0,0.4-0.1,0.6,0.1c0.2,0.1,0.1,0.4,0.1,0.5c0,0.2-0.2,0.3-0.4,0.3
		c-0.1,0-0.3,0-0.4,0C68.9,1.4,68.9,1.3,68.9,1.2z"/>
	<path id="XMLID_27_" d="M75.2,1.8c0.3-0.1,0.9-0.4,0.9-0.1c0.1,0.4-0.5,0.4-0.8,0.5c0,0,0,0-0.1,0C75.1,2.1,75.1,2,75.2,1.8z"/>
	<path id="XMLID_26_" d="M82.3,39.2c0.2,0.2,0.8,0.1,0.7,0.5c-0.1,0.3-0.5,0.6-0.9,0.6c-0.3,0-0.5-0.3-0.4-0.7
		C81.8,39.3,82,39.3,82.3,39.2z"/>
	<path id="XMLID_25_" d="M92.8,91.8C92.8,91.8,92.8,91.8,92.8,91.8C92.8,91.9,92.8,91.9,92.8,91.8C92.8,92,92.8,92,92.8,91.8
		C92.7,91.9,92.7,91.9,92.8,91.8z"/>
	<path id="XMLID_24_" d="M92.9,92.1C92.9,92.1,92.9,92.1,92.9,92.1C92.9,92.1,92.9,92.1,92.9,92.1C92.9,92.2,92.9,92.2,92.9,92.1
		C92.8,92.1,92.9,92.1,92.9,92.1z"/>
	<path id="XMLID_23_" d="M128.2,56.1c0,0.2-0.1,0.4-0.3,0.4c-0.2,0-0.4-0.1-0.4-0.3c0-0.3,0.2-0.3,0.4-0.3
		C128.1,55.7,128.2,55.9,128.2,56.1z"/>
	<path id="XMLID_22_" d="M31,82.8c-0.2,0-0.3-0.2-0.2-0.3c0.3-0.4,0.2-0.8,0.5-1.2c0.1-0.2,0.2-0.4,0.5-0.3c0.3,0.1,0.3,0.3,0.3,0.5
		C32,82,31.4,82.8,31,82.8z"/>
	<path id="XMLID_21_" d="M30.3,79.8c0.1-0.1,0-0.4,0.3-0.4c0.3,0.1,0.6,0.2,0.6,0.5c0,0.2-0.2,0.2-0.4,0.2
		C30.6,80.1,30.3,80.2,30.3,79.8z"/>
	<path id="XMLID_20_" d="M28.2,66c-0.1,0.3,0,0.6-0.4,0.7c-0.1,0-0.2-0.1-0.2-0.2C27.6,66.1,28,66.1,28.2,66z"/>
	<path id="XMLID_19_" d="M41,35c0.2,0.1,0.3,0.2,0.3,0.4c0,0.2-0.1,0.4-0.4,0.3c-0.2,0-0.3-0.1-0.2-0.3C40.8,35.3,40.8,35.1,41,35z"
		/>
	<path id="XMLID_18_" d="M32.5,49.1c0,0.2-0.1,0.2-0.3,0.3c-0.1,0-0.2,0-0.2-0.2c0-0.2,0.1-0.3,0.3-0.3
		C32.4,48.9,32.5,48.9,32.5,49.1z"/>
	<path id="XMLID_17_" d="M63.8,19c0.1,0,0.2-0.1,0.3-0.1c0.2,0.1,0.2,0.2,0.3,0.3c0,0.1,0,0.2,0,0.3c-0.1,0-0.1,0.1-0.2,0.1
		c-0.1,0-0.2-0.1-0.3-0.1C63.7,19.3,63.6,19.2,63.8,19z"/>
	<path id="XMLID_16_" d="M63.9,19.5c0.1,0,0.2,0.1,0.3,0.1C64.1,19.7,64,19.7,63.9,19.5z"/>
	<path id="XMLID_15_" d="M64.4,19.5c0-0.1,0-0.2,0-0.3C64.6,19.3,64.6,19.4,64.4,19.5z"/>
	<path id="XMLID_14_" d="M18,109.1C18,109.1,18,109.1,18,109.1c-0.2-0.7,0.2-1.1,0.6-1.4c0.2,0,0.3,0,0.4,0.1
		c0.1,0.3,0.3,0.4,0.6,0.4c0.4-0.1,0.5,0.2,0.5,0.5c0,0.1-0.1,0.1-0.1,0.2c-0.4,0.2-0.3,0.4,0.1,0.6c0,0,0,0.1,0,0.1
		C19.4,109.9,18.8,109.2,18,109.1z"/>
	<path id="XMLID_13_" d="M20.2,109.4c-0.3-0.2-0.4-0.3-0.1-0.6C20.1,109,20.2,109.2,20.2,109.4z"/>
	<path id="XMLID_12_" d="M77.6,42c0,0.2-0.2,0.2-0.3,0.1c-0.2-0.1-0.5,0-0.6-0.3c0-0.2,0.2-0.3,0.4-0.3C77.4,41.6,77.6,41.8,77.6,42
		z"/>
	<path id="XMLID_11_" d="M80,91.8c0.3,0.1,0.8-0.1,0.8,0.5c0,0.3-0.3,0.5-0.4,0.4c-0.3-0.2-0.9,0.1-1-0.4C79.4,92,79.7,91.8,80,91.8
		z"/>
	<path id="XMLID_10_" d="M93.6,76.3c-0.1,0.3-0.2,0.6-0.6,0.7c-0.2,0-0.4-0.1-0.3-0.3c0.1-0.3,0.2-0.6,0.6-0.7
		C93.5,76,93.6,76,93.6,76.3z"/>
	<path id="XMLID_9_" d="M93.5,74.2c0,0.2-0.1,0.4-0.4,0.3c-0.3,0-0.3-0.3-0.3-0.5c0-0.2,0.1-0.3,0.3-0.3
		C93.3,73.8,93.5,74,93.5,74.2z"/>
	<path id="XMLID_8_" d="M85.1,87.8c0,0.2-0.1,0.4-0.3,0.3c-0.3,0-0.5-0.2-0.5-0.5c0-0.2,0.1-0.2,0.3-0.2
		C84.8,87.5,85.1,87.5,85.1,87.8z"/>
	<path id="XMLID_7_" d="M24.9,15c0.4,0.2,0.9,0.3,1.2,0.5c0.2,0.2-0.1,0.4-0.3,0.5c-0.2,0.2-0.5,0.4-0.7,0.1
		c-0.2-0.3-0.3-0.6-0.5-0.9C24.5,15.1,24.7,15,24.9,15z"/>
	<path id="XMLID_6_" d="M67.5,128.1c0.1,0,0.3,0.1,0.3,0.2c0,0.2-0.1,0.2-0.2,0.2c-0.2,0-0.3-0.1-0.3-0.3
		C67.3,128.1,67.4,128.1,67.5,128.1z"/>
	<path id="XMLID_5_" d="M19,82.8c0,0.3,0,0.6-0.3,0.6c-0.5,0-0.4-0.5-0.5-0.8c0-0.2,0-0.5,0.3-0.5C19,82.1,18.9,82.6,19,82.8z"/>
	<path id="XMLID_4_" d="M69,95.7c0,0.2-0.1,0.3-0.3,0.3c-0.2,0-0.2-0.1-0.2-0.2c0-0.2,0.1-0.3,0.3-0.3C68.9,95.5,68.9,95.6,69,95.7z
		"/>
	<path id="XMLID_3_" d="M100.4,108.9c-0.2,0-0.4-0.1-0.4-0.4c0-0.2,0.1-0.3,0.3-0.3c0.2,0,0.4,0.1,0.4,0.3
		C100.7,108.8,100.5,108.8,100.4,108.9z"/>
	<path id="XMLID_2_" d="M69.7,0.3c-0.1,0.1-0.3,0.1-0.4,0C69.4,0.3,69.6,0.3,69.7,0.3z"/>
	<path id="XMLID_1_" d="M83.3,34.5c0.2-0.2,0.4-0.3,0.7-0.2C83.8,34.6,83.6,34.6,83.3,34.5z"/>
</g>
</svg>
