<?xml version="1.0" encoding="utf-8"?>
<!-- Generator: Adobe Illustrator 19.0.0, SVG Export Plug-In . SVG Version: 6.00 Build 0)  -->
<svg version="1.1" id="Layer_1" xmlns="http://www.w3.org/2000/svg" xmlns:xlink="http://www.w3.org/1999/xlink" x="0px" y="0px"
	 viewBox="0 0 960 40" style="enable-background:new 0 0 960 40;" xml:space="preserve">
<g>
	<g>
		<path d="M13.1,20.1C8.5,22.2,5,25.2,3.1,30c-1.1,2.7-1.4,5.5-1.1,8.4c2,0.1,4-0.2,5.9-0.7c1.3-0.3,2.5-0.8,3.8-1.2
			c0.2-0.1,0.4,0,0.6,0.1c0.6,0.4,1.1,0.8,1.6,1.2C11.8,39.5,4.3,41,0,40.5c-1-6.1,0.2-15.8,8.6-20.4c-7.8-4.7-9.5-12-8.8-20.3
			c3-0.7,11.2,0.6,14.1,2.7c-0.6,0.4-1.1,0.9-1.7,1.2c-0.2,0.1-0.5,0-0.8-0.1c-2.8-1-5.6-1.7-8.6-1.8c-0.3,0-0.5,0-0.8,0
			C1.2,7.3,3.4,15.8,13.1,20.1z"/>
		<path d="M89.6,8.6c2.1,6.8,4.4,9.2,11.3,11.4c-6,1.5-9.8,5.3-11.2,11.3c-1.5-6-5.2-9.8-11.4-11.4c3-0.6,5.4-1.9,7.5-4
			C87.8,14,89.1,11.6,89.6,8.6z M83.4,20.1c2.8,1.2,4.9,3.2,6.2,6c1.3-2.8,3.4-4.7,6-5.9c-1.1-0.8-2.4-1.5-3.4-2.5
			c-1-1-1.8-2.2-2.7-3.3C88.3,16.9,86.2,18.8,83.4,20.1z"/>
		<path d="M176.3,31.4c-1.5-6-5.2-9.8-11.2-11.3c6-1.5,9.8-5.3,11.2-11.3c1.5,6,5.2,9.8,11.3,11.3C181.5,21.6,177.8,25.4,176.3,31.4
			z M176.3,14.1c-1.3,2.8-3.4,4.7-6.2,5.9c2.8,1.3,4.9,3.2,6.2,5.9c2-3.4,2.6-3.9,6.2-6C179.8,18.8,177.7,16.9,176.3,14.1z"/>
		<path d="M35.1,20.1c6.1-1.5,9.8-5.3,11.3-11.3c1.5,6,5.2,9.8,11.2,11.3c-6,1.5-9.8,5.3-11.2,11.4C44.9,25.4,41.1,21.6,35.1,20.1z
			 M46.3,14.1c-1.3,2.8-3.4,4.7-6.2,5.9c2.8,1.2,4.9,3.2,6.2,5.9c1.4-2.8,3.5-4.7,6.2-5.9C49.8,18.8,47.7,16.9,46.3,14.1z"/>
		<path d="M121.6,20c2.9-0.6,5.4-1.9,7.5-4c2-2.1,3.3-4.5,3.9-7.4c1.5,6.1,5.2,9.9,11.2,11.4c-1,0.4-2.1,0.6-3.1,1.1
			c-1,0.5-2,1.1-2.9,1.8c-0.9,0.7-1.7,1.5-2.3,2.4c-0.7,0.9-1.3,1.9-1.8,2.9c-0.5,1-0.8,2.1-1.1,3.1C131.5,25.4,127.8,21.6,121.6,20
			z M126.7,20.1c2.8,1.2,4.9,3.2,6.3,6c1.3-2.8,3.4-4.7,6.2-6c-2.8-1.2-4.9-3.2-6.2-5.9C131.6,16.9,129.5,18.8,126.7,20.1z"/>
		<path d="M81.7,10.6c-1.4-1.2-2.8-2.3-4.2-3.4c-2.7-2.1-5.7-3.8-8.9-4.9c-0.3-0.1-0.8-0.1-1.2,0c-4.5,1.6-8.4,4.2-11.9,7.3
			c-0.3,0.3-0.7,0.6-1,0.9c0,0-0.1,0-0.2,0.1c-0.4-0.6-0.9-1.2-1.4-1.9c1.1-0.9,2.1-1.9,3.3-2.8c3.5-2.6,7.2-4.8,11.4-6.2
			c0.3-0.1,0.6-0.1,0.9-0.1c5.5,1.9,10.4,4.8,14.6,8.9c0,0,0.1,0.1,0.1,0.2C82.6,9.4,82.2,10,81.7,10.6z"/>
		<path d="M97.6,10.6c-0.5-0.7-0.9-1.3-1.5-2c1.7-1.4,3.4-2.8,5.1-4c2.9-2.1,6.1-3.7,9.5-4.9c0.3-0.1,0.7-0.1,1,0
			c5.4,1.9,10.2,4.8,14.4,8.7c0.1,0.1,0.2,0.2,0.3,0.3c-0.3,0.4-0.5,0.7-0.8,1.1c-0.2,0.3-0.4,0.5-0.6,0.8c-0.9-0.8-1.8-1.6-2.8-2.4
			c-3.2-2.5-6.6-4.6-10.4-6c-0.3-0.1-0.8-0.1-1.1,0c-4.5,1.6-8.4,4.2-12,7.4C98.4,9.9,98.1,10.2,97.6,10.6z"/>
		<path d="M213.1,8.8c-0.5,0.6-0.9,1.2-1.3,1.7c-2.1-1.6-4.1-3.2-6.1-4.6c-2.2-1.5-4.6-2.8-7.1-3.7c-0.3-0.1-0.7-0.1-1,0
			c-4.6,1.7-8.6,4.3-12.2,7.5c-0.3,0.3-0.6,0.5-1,0.9c-0.5-0.7-0.9-1.2-1.5-2c1.8-1.4,3.4-2.8,5.2-4.1c2.9-2,6.1-3.7,9.5-4.8
			c0.3-0.1,0.6-0.1,0.9,0c5.5,1.9,10.3,4.8,14.5,8.8C212.9,8.6,213,8.6,213.1,8.8z"/>
		<path d="M9.6,31.4c0.5-0.6,0.9-1.2,1.4-1.9c0.4,0.4,0.8,0.8,1.2,1.1c3.6,3.1,7.5,5.7,11.9,7.3c0.3,0.1,0.8,0.1,1.1,0
			c4.6-1.6,8.5-4.3,12.1-7.5c0.3-0.3,0.6-0.6,1-0.9c0.3,0.3,0.5,0.6,0.7,0.9c0.2,0.3,0.4,0.6,0.8,1.1c-1.7,1.4-3.4,2.8-5.2,4
			c-2.9,2.1-6.1,3.7-9.5,4.8c-0.3,0.1-0.7,0.2-1,0.1c-5.4-1.9-10.2-4.8-14.4-8.7C9.8,31.7,9.7,31.5,9.6,31.4z"/>
		<path d="M169.7,8.7c-0.2,0.3-0.4,0.7-0.7,1c-0.2,0.3-0.5,0.6-0.7,0.9c-0.7-0.6-1.4-1.3-2.1-1.9c-3.3-2.7-6.9-5.1-11-6.5
			c-0.3-0.1-0.8-0.1-1.1,0c-4.6,1.6-8.5,4.3-12.1,7.5c-0.3,0.3-0.6,0.5-0.9,0.8c0,0-0.1,0-0.2,0.1c-0.2-0.3-0.5-0.6-0.7-0.9
			c-0.2-0.3-0.4-0.6-0.8-1.1c1.7-1.4,3.4-2.8,5.2-4c2.9-2,6.1-3.7,9.5-4.8c0.3-0.1,0.7-0.2,1-0.1c5.4,1.9,10.2,4.8,14.4,8.7
			C169.6,8.5,169.6,8.6,169.7,8.7z"/>
		<path d="M182.9,31.5c0.3-0.5,0.6-0.9,0.9-1.2c0.2-0.2,0.4-0.4,0.5-0.6c2,1.5,4,3.1,6,4.5c2.2,1.6,4.6,2.8,7.2,3.7
			c0.3,0.1,0.8,0.1,1.2,0c4.5-1.6,8.3-4.2,11.9-7.3c0.4-0.3,0.8-0.7,1.2-1.1c0.5,0.6,0.9,1.2,1.5,2c-1.7,1.4-3.4,2.8-5.1,4
			c-2.9,2.1-6.1,3.7-9.5,4.9c-0.3,0.1-0.7,0.1-1,0c-5.4-1.9-10.2-4.8-14.3-8.7C183.1,31.7,183,31.6,182.9,31.5z"/>
		<path d="M96.2,31.4c0.5-0.6,0.9-1.2,1.3-1.8c1.5,1.2,2.9,2.4,4.3,3.5c2.7,2,5.7,3.7,8.9,4.9c0.3,0.1,0.8,0.1,1.1,0
			c4.5-1.6,8.4-4.2,12-7.4c0.4-0.3,0.7-0.6,1.1-1c0.5,0.6,0.9,1.2,1.5,2c-1.7,1.4-3.4,2.8-5.2,4c-2.9,2.1-6.1,3.7-9.5,4.9
			c-0.3,0.1-0.6,0.1-0.9,0c-5.5-1.9-10.3-4.8-14.5-8.8C96.4,31.6,96.3,31.5,96.2,31.4z"/>
		<path d="M139.6,31.4c0.5-0.6,0.9-1.2,1.3-1.8c1.5,1.2,2.9,2.4,4.4,3.5c2.7,2,5.6,3.7,8.7,4.8c0.3,0.1,0.8,0.1,1.1,0
			c4.5-1.6,8.4-4.2,11.9-7.3c0.4-0.3,0.8-0.7,1.2-1.1c0.3,0.3,0.5,0.6,0.7,0.9c0.2,0.3,0.4,0.6,0.8,1.1c-1.7,1.4-3.4,2.8-5.2,4.1
			c-2.9,2-6,3.7-9.4,4.8c-0.3,0.1-0.7,0.2-1,0.1c-5.5-1.9-10.3-4.8-14.5-8.8C139.7,31.6,139.7,31.5,139.6,31.4z"/>
		<path d="M52.9,31.4c0.5-0.6,0.9-1.2,1.3-1.7c2.1,1.6,4.1,3.2,6.3,4.7c2.2,1.5,4.6,2.7,7.1,3.6c0.3,0.1,0.7,0.1,1,0
			c4.6-1.7,8.5-4.3,12.2-7.5c0.3-0.3,0.6-0.6,1-0.9c0.5,0.6,0.9,1.3,1.5,2c-1.7,1.4-3.4,2.8-5.2,4c-2.9,2-6.1,3.7-9.5,4.8
			c-0.3,0.1-0.7,0.2-1,0.1c-5.4-1.9-10.3-4.8-14.5-8.8C53.1,31.6,53,31.5,52.9,31.4z"/>
		<path d="M39.8,8.7c-0.5,0.6-0.9,1.2-1.4,1.8c-1.5-1.2-3-2.5-4.5-3.6c-2.7-2-5.5-3.6-8.6-4.7c-0.3-0.1-0.8-0.1-1.2,0
			c-4.5,1.6-8.4,4.2-11.9,7.3c-0.3,0.3-0.7,0.6-1,0.9c0,0-0.1,0-0.2,0.1c-0.4-0.6-0.9-1.2-1.5-2c1.7-1.4,3.3-2.8,5.1-4
			c3-2.1,6.2-3.7,9.6-4.9c0.3-0.1,0.7-0.1,1,0c5.4,1.9,10.2,4.8,14.4,8.8C39.6,8.5,39.6,8.6,39.8,8.7z"/>
		<path d="M208.5,26.4c0.6,0.4,1.2,0.8,1.9,1.4c-1.4,1.2-2.8,2.3-4.2,3.4c-2.4,1.8-4.9,3.3-7.7,4.3c-0.3,0.1-0.6,0.2-0.9,0.1
			c-4.5-1.7-8.4-4.4-11.9-7.7c0-0.1,0-0.1,0.1-0.2c1.5-1.3,1.5-1.3,3.1-0.1c2.6,2.2,5.4,4,8.5,5.3c0.3,0.1,0.8,0.1,1.2,0
			c3.4-1.3,6.4-3.4,9.2-5.8C207.9,26.9,208.2,26.7,208.5,26.4z"/>
		<path d="M37,12.4c-0.7,0.5-1.3,0.9-1.8,1.2c-1.7-1.3-3.2-2.5-4.8-3.6C28.8,9,27,8.1,25.2,7.3c-0.3-0.2-0.8-0.1-1.1,0
			c-3.4,1.3-6.4,3.4-9.2,5.8c-0.2,0.2-0.4,0.4-0.6,0.5c0,0-0.1,0-0.2,0.1c-0.6-0.4-1.1-0.8-1.8-1.3c1-0.8,1.8-1.6,2.7-2.4
			c2.8-2.2,5.8-4.1,9.1-5.4c0.3-0.1,0.7-0.2,1-0.1C29.5,6.4,33.4,9,37,12.4z"/>
		<path d="M123.7,12.4c-0.7,0.5-1.3,0.9-1.8,1.3c-1.6-1.2-3.1-2.5-4.8-3.6c-1.6-1.1-3.4-1.9-5.2-2.8c-0.3-0.2-0.9-0.2-1.3,0
			c-3.4,1.3-6.4,3.4-9.1,5.8c-0.2,0.2-0.4,0.4-0.6,0.5c0,0-0.1,0-0.2,0.1c-0.6-0.4-1.1-0.8-1.8-1.3c0.9-0.8,1.7-1.6,2.6-2.3
			c2.8-2.2,5.8-4.2,9.2-5.5c0.3-0.1,0.7-0.2,1-0.1C116.2,6.4,120.1,9,123.7,12.4z"/>
		<path d="M167,12.4c-0.7,0.5-1.3,0.9-1.8,1.3c-1.7-1.2-3.2-2.5-4.8-3.6c-1.6-1.1-3.4-1.9-5.2-2.8c-0.3-0.2-0.9-0.1-1.2,0
			c-3.5,1.4-6.5,3.4-9.2,5.9c-0.5,0.4-0.8,0.5-1.3,0.1c-0.4-0.3-0.8-0.6-1.2-0.9c3.6-3.3,7.5-6,12-7.8c0.2-0.1,0.5-0.1,0.8,0
			C159.5,6.4,163.4,9,167,12.4z"/>
		<path d="M55.8,27.8c0,0,0-0.1,0.1-0.1c1.4-1.3,1.5-1.3,2.9-0.1c2.6,2.2,5.4,4.1,8.6,5.3c0.4,0.1,0.9,0.1,1.2,0
			c3.4-1.4,6.4-3.4,9.1-5.8c0.2-0.2,0.4-0.4,0.7-0.6c0.6,0.4,1.2,0.9,1.9,1.3c-1.8,1.8-3.7,3.3-5.8,4.6c-1.9,1.2-4,2.1-6,3.2
			c-0.2,0.1-0.6,0.2-0.8,0.1C64.3,34.5,58.1,30.4,55.8,27.8z"/>
		<path d="M187.4,13.7c-0.6-0.4-1.1-0.8-1.9-1.3c1.4-1.1,2.6-2.2,3.9-3.2c2.4-1.8,5.1-3.4,7.9-4.5c0.3-0.1,0.6-0.2,0.9-0.1
			c4.5,1.7,8.4,4.4,12,7.8c-0.7,0.5-1.3,0.9-1.7,1.2c-2.2-1.5-4.2-3.1-6.3-4.4c-1.2-0.8-2.5-1.3-3.8-1.9c-0.3-0.1-0.8-0.1-1.1,0
			c-3.4,1.3-6.4,3.4-9.1,5.7c-0.2,0.2-0.4,0.4-0.7,0.6C187.6,13.6,187.6,13.6,187.4,13.7z"/>
		<path d="M12.3,27.7c0.7-0.5,1.3-0.9,1.8-1.2c1.6,1.2,3.1,2.5,4.8,3.6c1.7,1.1,3.5,1.9,5.3,2.8c0.3,0.1,0.7,0.1,1,0
			c3.5-1.4,6.5-3.4,9.3-5.9c0.5-0.5,0.9-0.6,1.4-0.1c0.3,0.3,0.7,0.5,1.2,0.9c-1.4,1.2-2.7,2.3-4.2,3.3c-2.4,1.8-4.9,3.3-7.7,4.3
			c-0.3,0.1-0.6,0.2-0.9,0.1C19.8,33.8,15.9,31.1,12.3,27.7z"/>
		<path d="M55.7,12.4c2.3-2.3,4.9-4.2,7.7-5.8c1.3-0.7,2.7-1.4,4.1-2c0.3-0.1,0.6-0.1,0.9,0c4.5,1.7,8.3,4.4,11.8,7.7
			c0,0,0,0.1,0.1,0.2c-0.6,0.4-1.2,0.8-1.7,1.2c-1.2-0.9-2.3-1.9-3.4-2.7c-2-1.5-4.2-2.8-6.6-3.7c-0.3-0.1-0.8-0.1-1.1,0
			c-3.5,1.4-6.5,3.4-9.3,5.9c-0.5,0.4-0.8,0.5-1.3,0.1C56.5,13,56.1,12.7,55.7,12.4z"/>
		<path d="M167,27.8c-3.6,3.3-7.5,6-12,7.8c-0.2,0.1-0.5,0.1-0.8,0c-4.5-1.8-8.4-4.4-11.9-7.8c0.6-0.5,1.2-0.9,1.8-1.3
			c1.2,1,2.3,1.9,3.5,2.8c2,1.5,4.1,2.8,6.4,3.6c0.4,0.1,0.9,0.2,1.3,0c3.4-1.4,6.5-3.4,9.2-5.9c0.5-0.5,0.9-0.5,1.4-0.1
			C166.2,27.2,166.6,27.4,167,27.8z"/>
		<path d="M121.8,26.4c0.6,0.4,1.2,0.9,1.9,1.4c-1.4,1.2-2.7,2.3-4.1,3.3c-2.4,1.8-5,3.3-7.8,4.4c-0.3,0.1-0.6,0.2-0.9,0.1
			c-4.5-1.7-8.4-4.4-11.9-7.7c0.1-0.1,0.1-0.2,0.1-0.2c1.5-1.3,1.5-1.3,3,0c2.6,2.2,5.4,4,8.5,5.3c0.4,0.1,0.9,0.1,1.3,0
			c3.4-1.4,6.4-3.4,9.1-5.8C121.3,26.9,121.5,26.7,121.8,26.4z"/>
		<path d="M4.2,36.1c0-7.4,5.3-12.9,10.7-14.3c0,0.7,0,1.4,0,2c0,0.2-0.3,0.4-0.5,0.5C10.5,25.9,8,28.8,7,32.9
			c-0.1,0.2-0.1,0.5-0.1,0.7c0.6,0.3,1.2-0.6,1.8,0c0.4,0.5,0.8,1,1.2,1.4C8.8,35.6,5.7,36.2,4.2,36.1z"/>
		<path d="M14.9,18.4C9.2,16.8,4.2,11,4.2,4.1C5.4,3.9,8.4,4.5,10,5.2C9.5,5.7,9,6.2,8.5,6.7C8.4,6.8,8.2,6.8,8,6.7
			C7.7,6.7,7.3,6.6,6.8,6.4c0.3,1,0.4,1.9,0.8,2.7c1.4,3.2,3.7,5.6,7,6.9c0.2,0.1,0.4,0.3,0.4,0.5C15,17,14.9,17.7,14.9,18.4z"/>
		<path d="M23.6,30.1c-0.7-0.3-1.4-0.6-2-1c-0.2-0.1-0.3-0.5-0.3-0.7c0-4.6,0-9.2,0-13.7c0-1,0-2,0-3c0-0.4,0.1-0.7,0.5-0.8
			c0.6-0.2,1.1-0.5,1.8-0.8C23.6,16.8,23.6,23.4,23.6,30.1z"/>
		<path d="M110.2,30.1c-0.7-0.3-1.4-0.6-2-1c-0.2-0.1-0.3-0.5-0.3-0.7c0-4.3,0-8.6,0-12.9c0-1.2,0-2.5,0-3.7c0-0.5,0.1-0.8,0.6-0.9
			c0.6-0.2,1.1-0.5,1.7-0.8C110.2,16.8,110.2,23.4,110.2,30.1z"/>
		<path d="M199.1,10c0.7,0.3,1.4,0.6,2,1c0.2,0.1,0.3,0.5,0.3,0.7c0,4.8,0,9.7,0,14.5c0,0.8,0,1.5,0,2.2c0,0.3-0.2,0.6-0.4,0.7
			c-0.6,0.3-1.2,0.6-1.8,0.9C199.1,23.4,199.1,16.8,199.1,10z"/>
		<path d="M66.9,30.1c-0.7-0.3-1.4-0.6-2-1c-0.2-0.1-0.3-0.5-0.3-0.7c0-4.4,0-8.9,0-13.3c0-1.1,0-2.3,0-3.4c0-0.4,0.1-0.7,0.5-0.8
			c0.6-0.2,1.1-0.5,1.8-0.8C66.9,16.8,66.9,23.4,66.9,30.1z"/>
		<path d="M155.8,10c0.7,0.3,1.3,0.6,1.9,1c0.2,0.1,0.3,0.4,0.3,0.6c0,5.7,0,11.3,0,17c0,0.2-0.2,0.5-0.3,0.6
			c-0.6,0.3-1.2,0.6-1.9,0.9C155.8,23.4,155.8,16.8,155.8,10z"/>
		<path d="M153.5,30.1c-0.7-0.3-1.3-0.6-1.9-1c-0.2-0.1-0.3-0.4-0.3-0.6c0-5.7,0-11.3,0-17c0-0.2,0.1-0.5,0.3-0.6
			c0.6-0.3,1.2-0.6,2-1C153.5,16.7,153.5,23.3,153.5,30.1z"/>
		<path d="M112.4,30.1c0-6.7,0-13.4,0-20.1c0.7,0.4,1.4,0.7,2.1,1c0.1,0.1,0.2,0.4,0.2,0.6c0,5.6,0,11.3,0,16.9
			c0,0.2-0.1,0.5-0.3,0.6C113.8,29.5,113.2,29.8,112.4,30.1z"/>
		<path d="M122.4,37.6c0.5-0.4,1-0.8,1.6-1.2c0.2-0.1,0.6,0,0.8,0.1c2.8,1.4,5.8,2.2,9,2.1c2.4-0.1,4.8-0.8,7-1.9
			c0.8-0.4,1.4-0.5,2.1,0.2c0.2,0.2,0.5,0.4,0.8,0.6C139,41.5,127.2,41.5,122.4,37.6z"/>
		<path d="M35.7,2.5c7-4,14.3-4,21.3,0c-0.6,0.4-1.1,0.9-1.7,1.3c-0.2,0.1-0.5,0-0.8-0.2c-2.8-1.4-5.8-2.2-8.9-2.1
			c-2.5,0.1-4.8,0.8-7,1.9c-0.8,0.4-1.3,0.4-1.9-0.2C36.4,3,36,2.8,35.7,2.5z"/>
		<path d="M35.7,37.6c0.5-0.4,1-0.9,1.6-1.2c0.2-0.1,0.6,0,0.8,0.1c2.8,1.4,5.8,2.2,9,2.1c2.6-0.1,5-0.9,7.3-2.1
			c0.5-0.3,0.9-0.3,1.3,0.1c0.4,0.3,0.8,0.6,1.2,1C50.4,41.6,42.7,41.7,35.7,37.6z"/>
		<path d="M79.1,37.7c1-1,1.8-1.5,3.4-0.7c2.4,1.3,5.1,1.8,7.9,1.7c2.6-0.1,5.1-0.8,7.4-2c0.6-0.3,0.9-0.3,1.4,0.1
			c0.3,0.3,0.7,0.6,1.1,0.9C93.6,41.6,86.1,41.7,79.1,37.7z"/>
		<path d="M186.9,37.6c-6.7,4-14.4,4-21.2,0c0.5-0.4,1-0.9,1.6-1.2c0.2-0.1,0.6,0,0.8,0.1c2.8,1.4,5.8,2.2,9,2.1
			c2.4-0.1,4.8-0.8,6.9-1.9c0.8-0.4,1.4-0.4,2,0.2C186.3,37.2,186.6,37.4,186.9,37.6z"/>
		<path d="M187,2.5c-0.6,0.4-1,0.9-1.6,1.2c-0.2,0.1-0.6,0-0.9-0.1c-2.8-1.4-5.8-2.2-9-2.1c-2.6,0.1-5,0.9-7.4,2.1
			c-0.5,0.3-0.9,0.3-1.3-0.1c-0.4-0.3-0.8-0.6-1.2-1C172.3-1.4,179.8-1.6,187,2.5z"/>
		<path d="M79,2.5c7-4,14.3-4,21.3,0c-0.6,0.4-1.1,0.9-1.7,1.3c-0.2,0.1-0.5,0-0.8-0.2c-2.8-1.4-5.8-2.2-9-2.1
			c-2.6,0.1-5,0.9-7.4,2.1c-0.5,0.3-0.9,0.3-1.3-0.1C79.9,3.1,79.5,2.9,79,2.5z"/>
		<path d="M122.4,2.5c6.9-4,14.3-4,21.2,0c-0.6,0.4-1.1,0.9-1.6,1.2c-0.2,0.1-0.5,0-0.8-0.1c-2.8-1.4-5.8-2.2-8.9-2.1
			c-2.6,0.1-5,0.8-7.3,2c-0.6,0.3-1,0.3-1.5-0.1C123.2,3.1,122.8,2.8,122.4,2.5z"/>
		<path d="M196.9,30.1c-0.7-0.3-1.4-0.6-2-1c-0.1-0.1-0.2-0.4-0.2-0.6c0-5.7,0-11.3,0-17c0-0.2,0.2-0.5,0.3-0.6
			c0.6-0.3,1.2-0.6,1.9-0.9C196.9,16.8,196.9,23.4,196.9,30.1z"/>
		<path d="M69.1,10c0.7,0.3,1.4,0.6,2,1c0.2,0.1,0.3,0.4,0.3,0.6c0,5.7,0,11.3,0,17c0,0.2-0.2,0.5-0.4,0.7c-0.6,0.3-1.2,0.6-1.8,0.9
			C69.1,23.4,69.1,16.8,69.1,10z"/>
		<path d="M25.8,10c0.7,0.3,1.3,0.6,1.9,1c0.2,0.1,0.3,0.4,0.3,0.6c0,5.7,0,11.3,0,17c0,0.2-0.1,0.5-0.3,0.6c-0.6,0.3-1.2,0.6-2,1
			C25.8,23.4,25.8,16.8,25.8,10z"/>
		<path d="M30.1,27.8c0-5.2,0-10.2,0-15.4c0.7,0.6,1.4,1.1,2,1.6c0.1,0.1,0.2,0.4,0.2,0.6c0,3.7,0,7.4,0,11c0,0.2-0.1,0.6-0.3,0.7
			C31.4,26.8,30.8,27.2,30.1,27.8z"/>
		<path d="M19.2,27.8c-0.7-0.5-1.3-1-1.8-1.5c-0.2-0.1-0.3-0.4-0.3-0.7c0-3.7,0-7.4,0-11.1c0-0.2,0.1-0.5,0.3-0.7
			c0.6-0.5,1.2-0.9,1.8-1.5C19.2,17.5,19.2,22.6,19.2,27.8z"/>
		<path d="M203.4,27.8c0-5.2,0-10.2,0-15.4c0.7,0.6,1.4,1.1,2.1,1.7c0.1,0.1,0.1,0.4,0.1,0.6c0,3.6,0,7.2,0,10.8
			c0,0.3-0.2,0.7-0.4,1C204.7,26.9,204.1,27.3,203.4,27.8z"/>
		<path d="M62.5,27.8c-0.7-0.5-1.3-1-1.8-1.5c-0.2-0.1-0.3-0.4-0.3-0.7c0-3.7,0-7.4,0-11.1c0-0.2,0.1-0.5,0.3-0.7
			c0.6-0.5,1.2-0.9,1.8-1.5C62.5,17.5,62.5,22.6,62.5,27.8z"/>
		<path d="M160.1,27.8c0-5.2,0-10.2,0-15.4c0.7,0.6,1.4,1,1.9,1.5c0.1,0.1,0.2,0.4,0.2,0.6c0,3.7,0,7.4,0,11c0,0.2-0.1,0.6-0.3,0.7
			C161.4,26.8,160.8,27.2,160.1,27.8z"/>
		<path d="M105.8,27.8c-0.7-0.5-1.3-1-1.9-1.5c-0.2-0.1-0.2-0.4-0.2-0.6c0-3.7,0-7.4,0-11.1c0-0.2,0.1-0.5,0.3-0.7
			c0.6-0.5,1.2-0.9,1.9-1.5C105.8,17.5,105.8,22.6,105.8,27.8z"/>
		<path d="M149.2,12.4c0,5.2,0,10.2,0,15.4c-0.7-0.6-1.4-1.1-2-1.6c-0.1-0.1-0.2-0.4-0.2-0.6c0-3.7,0-7.4,0-11
			c0-0.2,0.1-0.6,0.3-0.7C147.9,13.3,148.5,12.9,149.2,12.4z"/>
		<path d="M116.8,12.5c0.1,0,0.1,0.1,0.1,0.1c2,1.3,2,1.3,2,3.7c0,3,0,6,0,9c0,0.6-0.2,1-0.7,1.4c-0.5,0.3-0.9,0.7-1.5,1.1
			C116.8,22.6,116.8,17.6,116.8,12.5z"/>
		<path d="M73.4,27.8c0-5.2,0-10.2,0-15.4c0.7,0.6,1.4,1.1,2,1.6c0.1,0.1,0.2,0.4,0.2,0.6c0,3.7,0,7.4,0,11c0,0.2-0.1,0.6-0.3,0.7
			C74.8,26.8,74.2,27.2,73.4,27.8z"/>
		<path d="M192.5,27.8c-0.7-0.6-1.3-1-1.9-1.5c-0.2-0.1-0.3-0.4-0.3-0.7c0-3.7,0-7.4,0-11c0-0.2,0.1-0.6,0.3-0.7
			c0.6-0.5,1.2-0.9,1.8-1.4C192.5,17.6,192.5,22.6,192.5,27.8z"/>
		<path d="M91.8,32.1c0.5-4.6,4.9-9.1,9.9-10.2c0,0.6,0,1.2,0,1.9c0,0.2-0.3,0.4-0.5,0.5c-2.8,1.1-4.9,3-6.4,5.6
			c-0.1,0.1-0.2,0.2-0.2,0.4C94.3,31.8,93,31.8,91.8,32.1z"/>
		<path d="M174.2,32.2c-0.7-0.3-1.4-0.4-2.1-0.7c-0.2-0.1-0.3-0.3-0.4-0.5c-1.3-3.1-3.6-5.2-6.7-6.5c-0.6-0.2-0.8-0.5-0.7-1.1
			c0-0.4,0-0.9,0-1.3C168.9,22.7,173.7,27.4,174.2,32.2z"/>
		<path d="M121,18.2c0-0.1,0-0.2,0-0.2c-0.1-1.2,0-2,1.4-2.6c2.8-1.2,4.9-3.4,6-6.3c0.1-0.1,0.2-0.3,0.3-0.4
			c0.7-0.3,1.4-0.5,2.1-0.7C130.5,12.2,126.3,17.1,121,18.2z"/>
		<path d="M58.3,22c0,0.6,0,1.2,0,1.8c0,0.2-0.3,0.4-0.5,0.5c-2.8,1.1-4.9,3.1-6.5,5.7c0,0.1-0.1,0.2-0.1,0.3
			c-0.3,1.6-1.6,1.6-2.7,1.9C48.6,28.3,52.9,23.1,58.3,22z"/>
		<path d="M135.1,8c0.8,0.3,1.5,0.5,2.2,0.8c0.2,0.1,0.3,0.3,0.3,0.5c1.3,3.1,3.6,5.2,6.6,6.5c0.6,0.3,0.8,0.5,0.8,1.1
			c-0.1,0.4,0,0.9,0,1.3C140.4,17.3,135.8,13,135.1,8z"/>
		<path d="M87.5,8c-0.6,4.7-5.1,9.3-9.9,10.2c0-0.6,0-1.2,0-1.8c0-0.2,0.3-0.4,0.5-0.5c2.8-1.1,4.9-3.1,6.5-5.7
			c0-0.1,0.1-0.2,0.1-0.3c0.2-0.4,0.3-1,0.6-1.2C86,8.4,86.7,8.2,87.5,8z"/>
		<path d="M101.7,18.2C96.1,17,92.1,12,91.8,8c0.7,0.2,1.4,0.5,2.1,0.7c0.2,0.1,0.3,0.3,0.3,0.5c1.3,3,3.5,5.2,6.5,6.5
			c0.7,0.3,1,0.6,0.9,1.3C101.6,17.4,101.7,17.8,101.7,18.2z"/>
		<path d="M130.8,32.2c-0.7-0.2-1.4-0.4-2-0.7c-0.2-0.1-0.4-0.3-0.5-0.5c-1.3-3.1-3.7-5.3-6.8-6.6c-0.4-0.2-0.7-0.4-0.6-0.9
			c0.1-0.5,0-1,0-1.5C125.6,22.7,130.6,27.8,130.8,32.2z"/>
		<path d="M178.4,8c0.8,0.3,1.5,0.5,2.2,0.8c0.2,0.1,0.3,0.3,0.3,0.5c1.3,3.1,3.6,5.2,6.6,6.5c0.6,0.3,0.8,0.5,0.8,1.1
			c-0.1,0.4,0,0.9,0,1.3C183.7,17.3,179.1,13,178.4,8z"/>
		<path d="M178.4,32.2c0.4-4.6,5.1-9.3,9.9-10.2c0,0.6,0,1.3,0,1.9c0,0.2-0.3,0.4-0.4,0.4c-2.8,1.1-5,3.1-6.5,5.7
			c0,0.1-0.1,0.1-0.1,0.2c-0.2,0.4-0.3,1-0.6,1.2C180,31.8,179.2,31.9,178.4,32.2z"/>
		<path d="M48.5,8c0.7,0.2,1.4,0.4,2,0.7C50.7,8.7,50.9,9,51,9.2c1.3,3.1,3.6,5.2,6.7,6.5c0.6,0.2,0.8,0.5,0.7,1.1
			c0,0.4,0,0.9,0,1.3C53.8,17.4,48.9,12.7,48.5,8z"/>
		<path d="M174.2,8c-0.3,4.1-4.4,9.1-9.8,10.2c0-0.1,0-0.1-0.1-0.2c-0.1-1.2,0-2,1.4-2.6c2.8-1.2,4.9-3.4,6-6.3
			c0.1-0.1,0.2-0.3,0.3-0.4C172.7,8.4,173.4,8.2,174.2,8z"/>
		<path d="M144.9,22c0,0.1,0,0.1,0,0.1c0.1,1.2,0,2-1.4,2.7c-2.8,1.2-4.9,3.4-6,6.3c-0.1,0.1-0.2,0.3-0.3,0.4
			c-0.7,0.3-1.4,0.5-2.1,0.7C135.5,27.8,139.8,23,144.9,22z"/>
		<path d="M87.5,32.2c-0.7-0.2-1.5-0.5-2.1-0.7c-0.2-0.1-0.3-0.4-0.4-0.6c-1.3-3-3.5-5.1-6.5-6.4c-0.7-0.3-1-0.6-0.9-1.3
			c0.1-0.4,0-0.8,0-1.2C82.2,22.8,87,27.3,87.5,32.2z"/>
		<path d="M44.2,8c-0.7,5.1-5.3,9.3-9.9,10.2c0-0.6,0-1.2,0-1.8c0-0.2,0.3-0.4,0.5-0.5c2.8-1.1,4.9-3.1,6.5-5.7
			c0-0.1,0.1-0.2,0.1-0.3c0.2-0.4,0.3-1,0.6-1.2C42.7,8.4,43.4,8.2,44.2,8z"/>
		<path d="M44.2,32.2c-0.8-0.3-1.4-0.4-2.1-0.7c-0.2-0.1-0.4-0.4-0.5-0.6c-1.3-3.1-3.6-5.1-6.5-6.5c-0.6-0.3-0.9-0.5-0.8-1.2
			c0.1-0.4,0-0.8,0-1.2C38.4,22.6,43.5,26.9,44.2,32.2z"/>
		<path d="M140,5.4c-0.1,0.1-0.1,0.1-0.1,0.2c-0.9,1.1-1.8,1.3-3.2,0.8c-2.7-1-5.5-0.7-8.2,0.3c-0.6,0.2-1.1,0.2-1.5-0.3
			c-0.3-0.3-0.6-0.6-0.9-0.8C129.1,3.1,136.1,3.1,140,5.4z"/>
		<path d="M82.6,5.4c4.7-2.3,9.3-2.3,14,0c-0.5,0.5-0.9,0.9-1.4,1.3c-0.2,0.1-0.5,0.1-0.8,0c-1.9-0.6-3.9-1.2-5.9-0.9
			c-1.2,0.2-2.4,0.5-3.6,0.9c-0.5,0.1-0.8,0.2-1.1-0.2C83.5,6,83.1,5.7,82.6,5.4z"/>
		<path d="M140,34.7c-3.3,2.3-10.4,2.3-13.9,0c0.4-0.4,0.9-0.9,1.3-1.2c0.2-0.1,0.5-0.1,0.8-0.1c1.3,0.3,2.5,0.7,3.8,0.9
			c1.9,0.3,3.8-0.1,5.5-0.8c0.7-0.3,1.2-0.2,1.6,0.4C139.4,34.3,139.7,34.5,140,34.7z"/>
		<path d="M53.3,5.4c-0.4,0.4-0.9,0.8-1.3,1.2c-0.2,0.1-0.5,0.1-0.7,0.1c-3.3-1.3-6.6-1.3-9.8,0c-0.2,0.1-0.6,0-0.8-0.2
			c-0.4-0.3-0.8-0.7-1.2-1.1C42.8,3.1,49.8,3.1,53.3,5.4z"/>
		<path d="M169.3,5.4c4.7-2.3,9.3-2.3,14,0c-0.5,0.5-0.9,0.9-1.4,1.3c-0.2,0.1-0.5,0.1-0.8,0c-1.9-0.7-3.9-1.1-5.9-0.8
			c-1.2,0.2-2.4,0.5-3.6,0.9c-0.5,0.1-0.8,0.2-1.2-0.2C170.1,6,169.7,5.7,169.3,5.4z"/>
		<path d="M82.7,34.8c0.9-1.2,1.9-1.5,3.4-0.9c2.7,1,5.5,0.7,8.2-0.3c0.7-0.2,1.1-0.2,1.5,0.3c0.3,0.3,0.6,0.6,0.9,0.8
			C93.4,37.1,86.3,37.1,82.7,34.8z"/>
		<path d="M183.3,34.8c-4.8,2.4-9.4,2.3-14,0c0.5-0.4,0.9-0.9,1.4-1.2c0.2-0.1,0.5-0.1,0.8,0c1.9,0.7,3.9,1.2,6,0.8
			c1.2-0.2,2.4-0.5,3.6-0.9c0.5-0.1,0.8-0.1,1.1,0.3C182.5,34.1,182.9,34.4,183.3,34.8z"/>
		<path d="M53.3,34.7c-3.4,2.3-10.5,2.3-13.9,0c0.4-0.4,0.9-0.9,1.3-1.2c0.2-0.1,0.5-0.1,0.8,0c1.3,0.3,2.5,0.7,3.8,0.9
			c1.9,0.3,3.8-0.1,5.5-0.8c0.7-0.2,1.1-0.2,1.6,0.3C52.7,34.2,53,34.5,53.3,34.7z"/>
	</g>
	<g>
		<path d="M960,40.4c-3.6,0.6-11.1-0.7-14.1-2.7c0.6-0.4,1.2-0.9,1.8-1.3c0.2-0.1,0.5,0,0.7,0.1c2.8,1,5.6,1.7,8.6,1.8
			c0.3,0,0.5,0,0.8,0c0.4-4-0.3-7.7-2.4-11.1c-2.1-3.3-5.1-5.6-8.7-7.2c4.3-1.9,7.7-4.8,9.7-9.1c1.3-2.9,1.7-6,1.4-9.3
			c-1.5,0.2-2.9,0.2-4.3,0.5c-1.8,0.4-3.5,1-5.2,1.5c-0.2,0.1-0.5,0.1-0.7-0.1c-0.5-0.3-1.1-0.8-1.7-1.2c4.5-2.3,9.2-2.9,14-2.7
			c1,6.3-0.3,15.9-8.6,20.5C959.1,24.8,960.7,32.1,960,40.4z"/>
		<path d="M826.9,8.6c2.1,6.8,4.4,9.2,11.3,11.4c-6,1.5-9.8,5.3-11.2,11.3c-1.5-6-5.2-9.8-11.4-11.4c3-0.6,5.4-1.9,7.5-4
			C825,14,826.3,11.6,826.9,8.6z M820.6,20.1c2.8,1.2,4.9,3.2,6.2,6c1.3-2.8,3.4-4.7,6-5.9c-1.1-0.8-2.4-1.5-3.4-2.5
			c-1-1-1.8-2.2-2.7-3.3C825.5,16.9,823.4,18.8,820.6,20.1z"/>
		<path d="M913.5,31.4c-1.5-6-5.2-9.8-11.2-11.3c6-1.5,9.8-5.3,11.2-11.3c1.5,6,5.2,9.8,11.3,11.3C918.7,21.6,915,25.4,913.5,31.4z
			 M913.6,14.1c-1.3,2.8-3.4,4.7-6.2,5.9c2.8,1.3,4.9,3.2,6.2,5.9c2-3.4,2.6-3.9,6.2-6C917,18.8,914.9,16.9,913.6,14.1z"/>
		<path d="M772.3,20.1c6.1-1.5,9.8-5.3,11.3-11.3c1.5,6,5.2,9.8,11.2,11.3c-6,1.5-9.8,5.3-11.2,11.4
			C782.1,25.4,778.4,21.6,772.3,20.1z M783.6,14.1c-1.3,2.8-3.4,4.7-6.2,5.9c2.8,1.2,4.9,3.2,6.2,5.9c1.4-2.8,3.5-4.7,6.2-5.9
			C787,18.8,784.9,16.9,783.6,14.1z"/>
		<path d="M858.9,20c2.9-0.6,5.4-1.9,7.5-4c2-2.1,3.3-4.5,3.9-7.4c1.5,6.1,5.2,9.9,11.2,11.4c-1,0.4-2.1,0.6-3.1,1.1
			c-1,0.5-2,1.1-2.9,1.8c-0.9,0.7-1.7,1.5-2.3,2.4c-0.7,0.9-1.3,1.9-1.8,2.9c-0.5,1-0.8,2.1-1.1,3.1C868.8,25.4,865,21.6,858.9,20z
			 M864,20.1c2.8,1.2,4.9,3.2,6.3,6c1.3-2.8,3.4-4.7,6.2-6c-2.8-1.2-4.9-3.2-6.2-5.9C868.9,16.9,866.8,18.8,864,20.1z"/>
		<path d="M819,10.6c-1.4-1.2-2.8-2.3-4.2-3.4c-2.7-2.1-5.7-3.8-8.9-4.9c-0.3-0.1-0.8-0.1-1.2,0c-4.5,1.6-8.4,4.2-11.9,7.3
			c-0.3,0.3-0.7,0.6-1,0.9c0,0-0.1,0-0.2,0.1c-0.4-0.6-0.9-1.2-1.4-1.9c1.1-0.9,2.1-1.9,3.3-2.8c3.5-2.6,7.2-4.8,11.4-6.2
			c0.3-0.1,0.6-0.1,0.9-0.1c5.5,1.9,10.4,4.8,14.6,8.9c0,0,0.1,0.1,0.1,0.2C819.9,9.4,819.4,10,819,10.6z"/>
		<path d="M834.9,10.6c-0.5-0.7-0.9-1.3-1.5-2c1.7-1.4,3.4-2.8,5.1-4c2.9-2.1,6.1-3.7,9.5-4.9c0.3-0.1,0.7-0.1,1,0
			c5.4,1.9,10.2,4.8,14.4,8.7c0.1,0.1,0.2,0.2,0.3,0.3c-0.3,0.4-0.5,0.7-0.8,1.1c-0.2,0.3-0.4,0.5-0.6,0.8c-0.9-0.8-1.8-1.6-2.8-2.4
			c-3.2-2.5-6.6-4.6-10.4-6c-0.3-0.1-0.8-0.1-1.1,0c-4.5,1.6-8.4,4.2-12,7.4C835.6,9.9,835.3,10.2,834.9,10.6z"/>
		<path d="M950.3,8.8c-0.5,0.6-0.9,1.2-1.3,1.7c-2.1-1.6-4.1-3.2-6.1-4.6c-2.2-1.5-4.6-2.8-7.1-3.7c-0.3-0.1-0.7-0.1-1,0
			c-4.6,1.7-8.6,4.3-12.2,7.5c-0.3,0.3-0.6,0.5-1,0.9c-0.5-0.7-0.9-1.2-1.5-2c1.8-1.4,3.4-2.8,5.2-4.1c2.9-2,6.1-3.7,9.5-4.8
			c0.3-0.1,0.6-0.1,0.9,0c5.5,1.9,10.3,4.8,14.5,8.8C950.2,8.6,950.2,8.6,950.3,8.8z"/>
		<path d="M907,8.7c-0.2,0.3-0.4,0.7-0.7,1c-0.2,0.3-0.5,0.6-0.7,0.9c-0.7-0.6-1.4-1.3-2.1-1.9c-3.3-2.7-6.9-5.1-11-6.5
			c-0.3-0.1-0.8-0.1-1.1,0c-4.6,1.6-8.5,4.3-12.1,7.5c-0.3,0.3-0.6,0.5-0.9,0.8c0,0-0.1,0-0.2,0.1c-0.2-0.3-0.5-0.6-0.7-0.9
			c-0.2-0.3-0.4-0.6-0.8-1.1c1.7-1.4,3.4-2.8,5.2-4c2.9-2,6.1-3.7,9.5-4.8c0.3-0.1,0.7-0.2,1-0.1c5.4,1.9,10.2,4.8,14.4,8.7
			C906.8,8.5,906.9,8.6,907,8.7z"/>
		<path d="M920.1,31.5c0.3-0.5,0.6-0.9,0.9-1.2c0.2-0.2,0.4-0.4,0.5-0.6c2,1.5,4,3.1,6,4.5c2.2,1.6,4.6,2.8,7.2,3.7
			c0.3,0.1,0.8,0.1,1.2,0c4.5-1.6,8.3-4.2,11.9-7.3c0.4-0.3,0.8-0.7,1.2-1.1c0.5,0.6,0.9,1.2,1.5,2c-1.7,1.4-3.4,2.8-5.1,4
			c-2.9,2.1-6.1,3.7-9.5,4.9c-0.3,0.1-0.7,0.1-1,0c-5.4-1.9-10.2-4.8-14.3-8.7C920.4,31.7,920.2,31.6,920.1,31.5z"/>
		<path d="M833.5,31.4c0.5-0.6,0.9-1.2,1.3-1.8c1.5,1.2,2.9,2.4,4.3,3.5c2.7,2,5.7,3.7,8.9,4.9c0.3,0.1,0.8,0.1,1.1,0
			c4.5-1.6,8.4-4.2,12-7.4c0.4-0.3,0.7-0.6,1.1-1c0.5,0.6,0.9,1.2,1.5,2c-1.7,1.4-3.4,2.8-5.2,4c-2.9,2.1-6.1,3.7-9.5,4.9
			c-0.3,0.1-0.6,0.1-0.9,0c-5.5-1.9-10.3-4.8-14.5-8.8C833.6,31.6,833.6,31.5,833.5,31.4z"/>
		<path d="M876.8,31.4c0.5-0.6,0.9-1.2,1.3-1.8c1.5,1.2,2.9,2.4,4.4,3.5c2.7,2,5.6,3.7,8.7,4.8c0.3,0.1,0.8,0.1,1.1,0
			c4.5-1.6,8.4-4.2,11.9-7.3c0.4-0.3,0.8-0.7,1.2-1.1c0.3,0.3,0.5,0.6,0.7,0.9c0.2,0.3,0.4,0.6,0.8,1.1c-1.7,1.4-3.4,2.8-5.2,4.1
			c-2.9,2-6,3.7-9.4,4.8c-0.3,0.1-0.7,0.2-1,0.1c-5.5-1.9-10.3-4.8-14.5-8.8C876.9,31.6,876.9,31.5,876.8,31.4z"/>
		<path d="M790.1,31.4c0.5-0.6,0.9-1.2,1.3-1.7c2.1,1.6,4.1,3.2,6.3,4.7c2.2,1.5,4.6,2.7,7.1,3.6c0.3,0.1,0.7,0.1,1,0
			c4.6-1.7,8.5-4.3,12.2-7.5c0.3-0.3,0.6-0.6,1-0.9c0.5,0.6,0.9,1.3,1.5,2c-1.7,1.4-3.4,2.8-5.2,4c-2.9,2-6.1,3.7-9.5,4.8
			c-0.3,0.1-0.7,0.2-1,0.1c-5.4-1.9-10.3-4.8-14.5-8.8C790.3,31.6,790.2,31.5,790.1,31.4z"/>
		<path d="M945.7,26.4c0.6,0.4,1.2,0.8,1.9,1.4c-1.4,1.2-2.8,2.3-4.2,3.4c-2.4,1.8-4.9,3.3-7.7,4.3c-0.3,0.1-0.6,0.2-0.9,0.1
			c-4.5-1.7-8.4-4.4-11.9-7.7c0-0.1,0-0.1,0.1-0.2c1.5-1.3,1.5-1.3,3.1-0.1c2.6,2.2,5.4,4,8.5,5.3c0.3,0.1,0.8,0.1,1.2,0
			c3.4-1.3,6.4-3.4,9.2-5.8C945.2,26.9,945.4,26.7,945.7,26.4z"/>
		<path d="M860.9,12.4c-0.7,0.5-1.3,0.9-1.8,1.3c-1.6-1.2-3.1-2.5-4.8-3.6c-1.6-1.1-3.4-1.9-5.2-2.8c-0.3-0.2-0.9-0.2-1.3,0
			c-3.4,1.3-6.4,3.4-9.1,5.8c-0.2,0.2-0.4,0.4-0.6,0.5c0,0-0.1,0-0.2,0.1c-0.6-0.4-1.1-0.8-1.8-1.3c0.9-0.8,1.7-1.6,2.6-2.3
			c2.8-2.2,5.8-4.2,9.2-5.5c0.3-0.1,0.7-0.2,1-0.1C853.4,6.4,857.3,9,860.9,12.4z"/>
		<path d="M904.2,12.4c-0.7,0.5-1.3,0.9-1.8,1.3c-1.7-1.2-3.2-2.5-4.8-3.6c-1.6-1.1-3.4-1.9-5.2-2.8c-0.3-0.2-0.9-0.1-1.2,0
			c-3.5,1.4-6.5,3.4-9.2,5.9c-0.5,0.4-0.8,0.5-1.3,0.1c-0.4-0.3-0.8-0.6-1.2-0.9c3.6-3.3,7.5-6,12-7.8c0.2-0.1,0.5-0.1,0.8,0
			C896.8,6.4,900.6,9,904.2,12.4z"/>
		<path d="M793,27.8c0,0,0-0.1,0.1-0.1c1.4-1.3,1.5-1.3,2.9-0.1c2.6,2.2,5.4,4.1,8.6,5.3c0.4,0.1,0.9,0.1,1.2,0
			c3.4-1.4,6.4-3.4,9.1-5.8c0.2-0.2,0.4-0.4,0.7-0.6c0.6,0.4,1.2,0.9,1.9,1.3c-1.8,1.8-3.7,3.3-5.8,4.6c-1.9,1.2-4,2.1-6,3.2
			c-0.2,0.1-0.6,0.2-0.8,0.1C801.5,34.5,795.4,30.4,793,27.8z"/>
		<path d="M924.7,13.7c-0.6-0.4-1.1-0.8-1.9-1.3c1.4-1.1,2.6-2.2,3.9-3.2c2.4-1.8,5.1-3.4,7.9-4.5c0.3-0.1,0.6-0.2,0.9-0.1
			c4.5,1.7,8.4,4.4,12,7.8c-0.7,0.5-1.3,0.9-1.7,1.2c-2.2-1.5-4.2-3.1-6.3-4.4c-1.2-0.8-2.5-1.3-3.8-1.9c-0.3-0.1-0.8-0.1-1.1,0
			c-3.4,1.3-6.4,3.4-9.1,5.7c-0.2,0.2-0.4,0.4-0.7,0.6C924.8,13.6,924.8,13.6,924.7,13.7z"/>
		<path d="M792.9,12.4c2.3-2.3,4.9-4.2,7.7-5.8c1.3-0.7,2.7-1.4,4.1-2c0.3-0.1,0.6-0.1,0.9,0c4.5,1.7,8.3,4.4,11.8,7.7
			c0,0,0,0.1,0.1,0.2c-0.6,0.4-1.2,0.8-1.7,1.2c-1.2-0.9-2.3-1.9-3.4-2.7c-2-1.5-4.2-2.8-6.6-3.7c-0.3-0.1-0.8-0.1-1.1,0
			c-3.5,1.4-6.5,3.4-9.3,5.9c-0.5,0.4-0.8,0.5-1.3,0.1C793.7,13,793.3,12.7,792.9,12.4z"/>
		<path d="M904.2,27.8c-3.6,3.3-7.5,6-12,7.8c-0.2,0.1-0.5,0.1-0.8,0c-4.5-1.8-8.4-4.4-11.9-7.8c0.6-0.5,1.2-0.9,1.8-1.3
			c1.2,1,2.3,1.9,3.5,2.8c2,1.5,4.1,2.8,6.4,3.6c0.4,0.1,0.9,0.2,1.3,0c3.4-1.4,6.5-3.4,9.2-5.9c0.5-0.5,0.9-0.5,1.4-0.1
			C903.4,27.2,903.8,27.4,904.2,27.8z"/>
		<path d="M859,26.4c0.6,0.4,1.2,0.9,1.9,1.4c-1.4,1.2-2.7,2.3-4.1,3.3c-2.4,1.8-5,3.3-7.8,4.4c-0.3,0.1-0.6,0.2-0.9,0.1
			c-4.5-1.7-8.4-4.4-11.9-7.7c0.1-0.1,0.1-0.2,0.1-0.2c1.5-1.3,1.5-1.3,3,0c2.6,2.2,5.4,4,8.5,5.3c0.4,0.1,0.9,0.1,1.3,0
			c3.4-1.4,6.4-3.4,9.1-5.8C858.6,26.9,858.8,26.7,859,26.4z"/>
		<path d="M955.7,4c-0.1,6.7-4.5,12.7-10.7,14.4c0-0.7,0-1.5,0-2.2c0-0.1,0.3-0.3,0.5-0.4c3.9-1.7,6.5-4.6,7.4-8.8
			c0-0.2,0-0.4,0.1-0.5c-0.6-0.3-1.2,0.7-1.8,0c-0.4-0.5-0.8-0.9-1.3-1.4C951.7,4.5,953.6,4.1,955.7,4z"/>
		<path d="M950,35c0.4-0.5,0.8-1,1.3-1.4c0.1-0.1,0.4-0.2,0.6-0.2c0.3,0,0.7,0.2,1,0.3c0.1,0,0.1-0.1,0.2-0.1c-0.3-1-0.5-2.1-1-3
			c-1.5-2.9-3.7-5.2-6.8-6.4c-0.2-0.1-0.3-0.3-0.4-0.4c-0.1-0.1,0-0.3,0-0.4c0-0.5,0-1,0-1.5c5.2,1.2,10.8,6.9,10.7,14.3
			C954.5,36.3,951.4,35.6,950,35z"/>
		<path d="M847.4,30.1c-0.7-0.3-1.4-0.6-2-1c-0.2-0.1-0.3-0.5-0.3-0.7c0-4.3,0-8.6,0-12.9c0-1.2,0-2.5,0-3.7c0-0.5,0.1-0.8,0.6-0.9
			c0.6-0.2,1.1-0.5,1.7-0.8C847.4,16.8,847.4,23.4,847.4,30.1z"/>
		<path d="M936.3,10c0.7,0.3,1.4,0.6,2,1c0.2,0.1,0.3,0.5,0.3,0.7c0,4.8,0,9.7,0,14.5c0,0.8,0,1.5,0,2.2c0,0.3-0.2,0.6-0.4,0.7
			c-0.6,0.3-1.2,0.6-1.8,0.9C936.3,23.4,936.3,16.8,936.3,10z"/>
		<path d="M804.1,30.1c-0.7-0.3-1.4-0.6-2-1c-0.2-0.1-0.3-0.5-0.3-0.7c0-4.4,0-8.9,0-13.3c0-1.1,0-2.3,0-3.4c0-0.4,0.1-0.7,0.5-0.8
			c0.6-0.2,1.1-0.5,1.8-0.8C804.1,16.8,804.1,23.4,804.1,30.1z"/>
		<path d="M893,10c0.7,0.3,1.3,0.6,1.9,1c0.2,0.1,0.3,0.4,0.3,0.6c0,5.7,0,11.3,0,17c0,0.2-0.2,0.5-0.3,0.6
			c-0.6,0.3-1.2,0.6-1.9,0.9C893,23.4,893,16.8,893,10z"/>
		<path d="M890.8,30.1c-0.7-0.3-1.3-0.6-1.9-1c-0.2-0.1-0.3-0.4-0.3-0.6c0-5.7,0-11.3,0-17c0-0.2,0.1-0.5,0.3-0.6
			c0.6-0.3,1.2-0.6,2-1C890.8,16.7,890.8,23.3,890.8,30.1z"/>
		<path d="M849.7,30.1c0-6.7,0-13.4,0-20.1c0.7,0.4,1.4,0.7,2.1,1c0.1,0.1,0.2,0.4,0.2,0.6c0,5.6,0,11.3,0,16.9
			c0,0.2-0.1,0.5-0.3,0.6C851,29.5,850.4,29.8,849.7,30.1z"/>
		<path d="M859.6,37.6c0.5-0.4,1-0.8,1.6-1.2c0.2-0.1,0.6,0,0.8,0.1c2.8,1.4,5.8,2.2,9,2.1c2.4-0.1,4.8-0.8,7-1.9
			c0.8-0.4,1.4-0.5,2.1,0.2c0.2,0.2,0.5,0.4,0.8,0.6C876.2,41.5,864.5,41.5,859.6,37.6z"/>
		<path d="M772.9,2.5c7-4,14.3-4,21.3,0c-0.6,0.4-1.1,0.9-1.7,1.3c-0.2,0.1-0.5,0-0.8-0.2c-2.8-1.4-5.8-2.2-8.9-2.1
			c-2.5,0.1-4.8,0.8-7,1.9c-0.8,0.4-1.3,0.4-1.9-0.2C773.6,3,773.3,2.8,772.9,2.5z"/>
		<path d="M772.9,37.6c0.5-0.4,1-0.9,1.6-1.2c0.2-0.1,0.6,0,0.8,0.1c2.8,1.4,5.8,2.2,9,2.1c2.6-0.1,5-0.9,7.3-2.1
			c0.5-0.3,0.9-0.3,1.3,0.1c0.4,0.3,0.8,0.6,1.2,1C787.6,41.6,779.9,41.7,772.9,37.6z"/>
		<path d="M816.3,37.7c1-1,1.8-1.5,3.4-0.7c2.4,1.3,5.1,1.8,7.9,1.7c2.6-0.1,5.1-0.8,7.4-2c0.6-0.3,0.9-0.3,1.4,0.1
			c0.3,0.3,0.7,0.6,1.1,0.9C830.8,41.6,823.3,41.7,816.3,37.7z"/>
		<path d="M924.2,37.6c-6.7,4-14.4,4-21.2,0c0.5-0.4,1-0.9,1.6-1.2c0.2-0.1,0.6,0,0.8,0.1c2.8,1.4,5.8,2.2,9,2.1
			c2.4-0.1,4.8-0.8,6.9-1.9c0.8-0.4,1.4-0.4,2,0.2C923.5,37.2,923.9,37.4,924.2,37.6z"/>
		<path d="M924.2,2.5c-0.6,0.4-1,0.9-1.6,1.2c-0.2,0.1-0.6,0-0.9-0.1c-2.8-1.4-5.8-2.2-9-2.1c-2.6,0.1-5,0.9-7.4,2.1
			c-0.5,0.3-0.9,0.3-1.3-0.1c-0.4-0.3-0.8-0.6-1.2-1C909.5-1.4,917-1.6,924.2,2.5z"/>
		<path d="M816.3,2.5c7-4,14.3-4,21.3,0c-0.6,0.4-1.1,0.9-1.7,1.3c-0.2,0.1-0.5,0-0.8-0.2c-2.8-1.4-5.8-2.2-9-2.1
			c-2.6,0.1-5,0.9-7.4,2.1c-0.5,0.3-0.9,0.3-1.3-0.1C817.1,3.1,816.7,2.9,816.3,2.5z"/>
		<path d="M859.6,2.5c6.9-4,14.3-4,21.2,0c-0.6,0.4-1.1,0.9-1.6,1.2c-0.2,0.1-0.5,0-0.8-0.1c-2.8-1.4-5.8-2.2-8.9-2.1
			c-2.6,0.1-5,0.8-7.3,2c-0.6,0.3-1,0.3-1.5-0.1C860.4,3.1,860,2.8,859.6,2.5z"/>
		<path d="M934.1,30.1c-0.7-0.3-1.4-0.6-2-1c-0.1-0.1-0.2-0.4-0.2-0.6c0-5.7,0-11.3,0-17c0-0.2,0.2-0.5,0.3-0.6
			c0.6-0.3,1.2-0.6,1.9-0.9C934.1,16.8,934.1,23.4,934.1,30.1z"/>
		<path d="M806.3,10c0.7,0.3,1.4,0.6,2,1c0.2,0.1,0.3,0.4,0.3,0.6c0,5.7,0,11.3,0,17c0,0.2-0.2,0.5-0.4,0.7
			c-0.6,0.3-1.2,0.6-1.8,0.9C806.3,23.4,806.3,16.8,806.3,10z"/>
		<path d="M940.7,27.8c0-5.2,0-10.2,0-15.4c0.7,0.6,1.4,1.1,2.1,1.7c0.1,0.1,0.1,0.4,0.1,0.6c0,3.6,0,7.2,0,10.8
			c0,0.3-0.2,0.7-0.4,1C941.9,26.9,941.3,27.3,940.7,27.8z"/>
		<path d="M799.7,27.8c-0.7-0.5-1.3-1-1.8-1.5c-0.2-0.1-0.3-0.4-0.3-0.7c0-3.7,0-7.4,0-11.1c0-0.2,0.1-0.5,0.3-0.7
			c0.6-0.5,1.2-0.9,1.8-1.5C799.7,17.5,799.7,22.6,799.7,27.8z"/>
		<path d="M897.3,27.8c0-5.2,0-10.2,0-15.4c0.7,0.6,1.4,1,2,1.5c0.1,0.1,0.2,0.4,0.2,0.6c0,3.7,0,7.4,0,11c0,0.2-0.1,0.6-0.3,0.7
			C898.6,26.8,898,27.2,897.3,27.8z"/>
		<path d="M843.1,27.8c-0.7-0.5-1.3-1-1.9-1.5c-0.2-0.1-0.2-0.4-0.2-0.6c0-3.7,0-7.4,0-11.1c0-0.2,0.1-0.5,0.3-0.7
			c0.6-0.5,1.2-0.9,1.9-1.5C843.1,17.5,843.1,22.6,843.1,27.8z"/>
		<path d="M886.4,12.4c0,5.2,0,10.2,0,15.4c-0.7-0.6-1.4-1.1-2-1.6c-0.1-0.1-0.2-0.4-0.2-0.6c0-3.7,0-7.4,0-11
			c0-0.2,0.1-0.6,0.3-0.7C885.1,13.3,885.7,12.9,886.4,12.4z"/>
		<path d="M854,12.5c0.1,0,0.1,0.1,0.1,0.1c2,1.3,2,1.3,2,3.7c0,3,0,6,0,9c0,0.6-0.2,1-0.7,1.4c-0.5,0.3-0.9,0.7-1.5,1.1
			C854,22.6,854,17.6,854,12.5z"/>
		<path d="M810.7,27.8c0-5.2,0-10.2,0-15.4c0.7,0.6,1.4,1.1,2,1.6c0.1,0.1,0.2,0.4,0.2,0.6c0,3.7,0,7.4,0,11c0,0.2-0.1,0.6-0.3,0.7
			C812,26.8,811.4,27.2,810.7,27.8z"/>
		<path d="M929.8,27.8c-0.7-0.6-1.3-1-1.9-1.5c-0.2-0.1-0.3-0.4-0.3-0.7c0-3.7,0-7.4,0-11c0-0.2,0.1-0.6,0.3-0.7
			c0.6-0.5,1.2-0.9,1.8-1.4C929.8,17.6,929.8,22.6,929.8,27.8z"/>
		<path d="M829,32.1c0.5-4.6,4.9-9.1,9.9-10.2c0,0.6,0,1.2,0,1.9c0,0.2-0.3,0.4-0.5,0.5c-2.8,1.1-4.9,3-6.4,5.6
			c-0.1,0.1-0.2,0.2-0.2,0.4C831.5,31.8,830.2,31.8,829,32.1z"/>
		<path d="M911.4,32.2c-0.7-0.3-1.4-0.4-2.1-0.7c-0.2-0.1-0.3-0.3-0.4-0.5c-1.3-3.1-3.6-5.2-6.7-6.5c-0.6-0.2-0.8-0.5-0.7-1.1
			c0-0.4,0-0.9,0-1.3C906.1,22.7,910.9,27.4,911.4,32.2z"/>
		<path d="M858.3,18.2c0-0.1,0-0.2,0-0.2c-0.1-1.2,0-2,1.4-2.6c2.8-1.2,4.9-3.4,6-6.3c0.1-0.1,0.2-0.3,0.3-0.4
			c0.7-0.3,1.4-0.5,2.1-0.7C867.7,12.2,863.5,17.1,858.3,18.2z"/>
		<path d="M795.6,22c0,0.6,0,1.2,0,1.8c0,0.2-0.3,0.4-0.5,0.5c-2.8,1.1-4.9,3.1-6.5,5.7c0,0.1-0.1,0.2-0.1,0.3
			c-0.3,1.6-1.6,1.6-2.7,1.9C785.9,28.3,790.1,23.1,795.6,22z"/>
		<path d="M872.3,8c0.8,0.3,1.5,0.5,2.2,0.8c0.2,0.1,0.3,0.3,0.3,0.5c1.3,3.1,3.6,5.2,6.6,6.5c0.6,0.3,0.8,0.5,0.8,1.1
			c-0.1,0.4,0,0.9,0,1.3C877.6,17.3,873,13,872.3,8z"/>
		<path d="M824.8,8c-0.6,4.7-5.1,9.3-9.9,10.2c0-0.6,0-1.2,0-1.8c0-0.2,0.3-0.4,0.5-0.5c2.8-1.1,4.9-3.1,6.5-5.7
			c0-0.1,0.1-0.2,0.1-0.3c0.2-0.4,0.3-1,0.6-1.2C823.2,8.4,824,8.2,824.8,8z"/>
		<path d="M838.9,18.2c-5.5-1.2-9.6-6.2-9.8-10.2c0.7,0.2,1.4,0.5,2.1,0.7c0.2,0.1,0.3,0.3,0.3,0.5c1.3,3,3.5,5.2,6.5,6.5
			c0.7,0.3,1,0.6,0.9,1.3C838.9,17.4,838.9,17.8,838.9,18.2z"/>
		<path d="M868.1,32.2c-0.7-0.2-1.4-0.4-2-0.7c-0.2-0.1-0.4-0.3-0.5-0.5c-1.3-3.1-3.7-5.3-6.8-6.6c-0.4-0.2-0.7-0.4-0.6-0.9
			c0.1-0.5,0-1,0-1.5C862.9,22.7,867.8,27.8,868.1,32.2z"/>
		<path d="M915.6,8c0.8,0.3,1.5,0.5,2.2,0.8c0.2,0.1,0.3,0.3,0.3,0.5c1.3,3.1,3.6,5.2,6.6,6.5c0.6,0.3,0.8,0.5,0.8,1.1
			c-0.1,0.4,0,0.9,0,1.3C920.9,17.3,916.4,13,915.6,8z"/>
		<path d="M915.7,32.2c0.4-4.6,5.1-9.3,9.9-10.2c0,0.6,0,1.3,0,1.9c0,0.2-0.3,0.4-0.4,0.4c-2.8,1.1-5,3.1-6.5,5.7
			c0,0.1-0.1,0.1-0.1,0.2c-0.2,0.4-0.3,1-0.6,1.2C917.2,31.8,916.5,31.9,915.7,32.2z"/>
		<path d="M785.7,8c0.7,0.2,1.4,0.4,2,0.7c0.2,0.1,0.4,0.3,0.5,0.6c1.3,3.1,3.6,5.2,6.7,6.5c0.6,0.2,0.8,0.5,0.7,1.1
			c0,0.4,0,0.9,0,1.3C791,17.4,786.1,12.7,785.7,8z"/>
		<path d="M911.4,8c-0.3,4.1-4.4,9.1-9.8,10.2c0-0.1,0-0.1-0.1-0.2c-0.1-1.2,0-2,1.4-2.6c2.8-1.2,4.9-3.4,6-6.3
			c0.1-0.1,0.2-0.3,0.3-0.4C909.9,8.4,910.6,8.2,911.4,8z"/>
		<path d="M882.2,22c0,0.1,0,0.1,0,0.1c0.1,1.2,0,2-1.4,2.7c-2.8,1.2-4.9,3.4-6,6.3c-0.1,0.1-0.2,0.3-0.3,0.4
			c-0.7,0.3-1.4,0.5-2.1,0.7C872.8,27.8,877.1,23,882.2,22z"/>
		<path d="M824.7,32.2c-0.7-0.2-1.5-0.5-2.1-0.7c-0.2-0.1-0.3-0.4-0.4-0.6c-1.3-3-3.5-5.1-6.5-6.4c-0.7-0.3-1-0.6-0.9-1.3
			c0.1-0.4,0-0.8,0-1.2C819.5,22.8,824.2,27.3,824.7,32.2z"/>
		<path d="M781.5,8c-0.7,5.1-5.3,9.3-9.9,10.2c0-0.6,0-1.2,0-1.8c0-0.2,0.3-0.4,0.5-0.5c2.8-1.1,4.9-3.1,6.5-5.7
			c0-0.1,0.1-0.2,0.1-0.3c0.2-0.4,0.3-1,0.6-1.2C779.9,8.4,780.6,8.2,781.5,8z"/>
		<path d="M781.4,32.2c-0.8-0.3-1.4-0.4-2.1-0.7c-0.2-0.1-0.4-0.4-0.5-0.6c-1.3-3.1-3.6-5.1-6.5-6.5c-0.6-0.3-0.9-0.5-0.8-1.2
			c0.1-0.4,0-0.8,0-1.2C775.6,22.6,780.8,26.9,781.4,32.2z"/>
		<path d="M877.2,5.4c-0.1,0.1-0.1,0.1-0.1,0.2c-0.9,1.1-1.8,1.3-3.2,0.8c-2.7-1-5.5-0.7-8.2,0.3c-0.6,0.2-1.1,0.2-1.5-0.3
			c-0.3-0.3-0.6-0.6-0.9-0.8C866.3,3.1,873.3,3.1,877.2,5.4z"/>
		<path d="M819.9,5.4c4.7-2.3,9.3-2.3,14,0c-0.5,0.5-0.9,0.9-1.4,1.3c-0.2,0.1-0.5,0.1-0.8,0c-1.9-0.6-3.9-1.2-5.9-0.9
			c-1.2,0.2-2.4,0.5-3.6,0.9c-0.5,0.1-0.8,0.2-1.1-0.2C820.7,6,820.3,5.7,819.9,5.4z"/>
		<path d="M877.2,34.7c-3.3,2.3-10.4,2.3-13.9,0c0.4-0.4,0.9-0.9,1.3-1.2c0.2-0.1,0.5-0.1,0.8-0.1c1.3,0.3,2.5,0.7,3.8,0.9
			c1.9,0.3,3.8-0.1,5.5-0.8c0.7-0.3,1.2-0.2,1.6,0.4C876.6,34.3,876.9,34.5,877.2,34.7z"/>
		<path d="M790.5,5.4c-0.4,0.4-0.9,0.8-1.3,1.2c-0.2,0.1-0.5,0.1-0.7,0.1c-3.3-1.3-6.6-1.3-9.8,0c-0.2,0.1-0.6,0-0.8-0.2
			c-0.4-0.3-0.8-0.7-1.2-1.1C780,3.1,787,3.1,790.5,5.4z"/>
		<path d="M906.5,5.4c4.7-2.3,9.3-2.3,14,0c-0.5,0.5-0.9,0.9-1.4,1.3c-0.2,0.1-0.5,0.1-0.8,0c-1.9-0.7-3.9-1.1-5.9-0.8
			c-1.2,0.2-2.4,0.5-3.6,0.9c-0.5,0.1-0.8,0.2-1.2-0.2C907.3,6,906.9,5.7,906.5,5.4z"/>
		<path d="M819.9,34.8c0.9-1.2,1.9-1.5,3.4-0.9c2.7,1,5.5,0.7,8.2-0.3c0.7-0.2,1.1-0.2,1.5,0.3c0.3,0.3,0.6,0.6,0.9,0.8
			C830.7,37.1,823.6,37.1,819.9,34.8z"/>
		<path d="M920.6,34.8c-4.8,2.4-9.4,2.3-14,0c0.5-0.4,0.9-0.9,1.4-1.2c0.2-0.1,0.5-0.1,0.8,0c1.9,0.7,3.9,1.2,6,0.8
			c1.2-0.2,2.4-0.5,3.6-0.9c0.5-0.1,0.8-0.1,1.1,0.3C919.8,34.1,920.2,34.4,920.6,34.8z"/>
		<path d="M790.5,34.7c-3.4,2.3-10.5,2.3-13.9,0c0.4-0.4,0.9-0.9,1.3-1.2c0.2-0.1,0.5-0.1,0.8,0c1.3,0.3,2.5,0.7,3.8,0.9
			c1.9,0.3,3.8-0.1,5.5-0.8c0.7-0.2,1.1-0.2,1.6,0.3C789.9,34.2,790.2,34.5,790.5,34.7z"/>
		<path d="M913.5,31.4c-1.5-6-5.2-9.8-11.2-11.3c6-1.5,9.8-5.3,11.2-11.3c1.5,6,5.2,9.8,11.3,11.3C918.7,21.6,915,25.4,913.5,31.4z
			 M913.6,14.1c-1.3,2.8-3.4,4.7-6.2,5.9c2.8,1.3,4.9,3.2,6.2,5.9c2-3.4,2.6-3.9,6.2-6C917,18.8,914.9,16.9,913.6,14.1z"/>
		<path d="M924.2,37.6c-6.7,4-14.4,4-21.2,0c0.5-0.4,1-0.9,1.6-1.2c0.2-0.1,0.6,0,0.8,0.1c2.8,1.4,5.8,2.2,9,2.1
			c2.4-0.1,4.8-0.8,6.9-1.9c0.8-0.4,1.4-0.4,2,0.2C923.5,37.2,923.9,37.4,924.2,37.6z"/>
		<path d="M924.2,2.5c-0.6,0.4-1,0.9-1.6,1.2c-0.2,0.1-0.6,0-0.9-0.1c-2.8-1.4-5.8-2.2-9-2.1c-2.6,0.1-5,0.9-7.4,2.1
			c-0.5,0.3-0.9,0.3-1.3-0.1c-0.4-0.3-0.8-0.6-1.2-1C909.5-1.4,917-1.6,924.2,2.5z"/>
		<path d="M911.4,32.2c-0.7-0.3-1.4-0.4-2.1-0.7c-0.2-0.1-0.3-0.3-0.4-0.5c-1.3-3.1-3.6-5.2-6.7-6.5c-0.6-0.2-0.8-0.5-0.7-1.1
			c0-0.4,0-0.9,0-1.3C906.1,22.7,910.9,27.4,911.4,32.2z"/>
		<path d="M915.6,8c0.8,0.3,1.5,0.5,2.2,0.8c0.2,0.1,0.3,0.3,0.3,0.5c1.3,3.1,3.6,5.2,6.6,6.5c0.6,0.3,0.8,0.5,0.8,1.1
			c-0.1,0.4,0,0.9,0,1.3C920.9,17.3,916.4,13,915.6,8z"/>
		<path d="M915.7,32.2c0.4-4.6,5.1-9.3,9.9-10.2c0,0.6,0,1.3,0,1.9c0,0.2-0.3,0.4-0.4,0.4c-2.8,1.1-5,3.1-6.5,5.7
			c0,0.1-0.1,0.1-0.1,0.2c-0.2,0.4-0.3,1-0.6,1.2C917.2,31.8,916.5,31.9,915.7,32.2z"/>
		<path d="M911.4,8c-0.3,4.1-4.4,9.1-9.8,10.2c0-0.1,0-0.1-0.1-0.2c-0.1-1.2,0-2,1.4-2.6c2.8-1.2,4.9-3.4,6-6.3
			c0.1-0.1,0.2-0.3,0.3-0.4C909.9,8.4,910.6,8.2,911.4,8z"/>
		<path d="M906.5,5.4c4.7-2.3,9.3-2.3,14,0c-0.5,0.5-0.9,0.9-1.4,1.3c-0.2,0.1-0.5,0.1-0.8,0c-1.9-0.7-3.9-1.1-5.9-0.8
			c-1.2,0.2-2.4,0.5-3.6,0.9c-0.5,0.1-0.8,0.2-1.2-0.2C907.3,6,906.9,5.7,906.5,5.4z"/>
		<path d="M920.6,34.8c-4.8,2.4-9.4,2.3-14,0c0.5-0.4,0.9-0.9,1.4-1.2c0.2-0.1,0.5-0.1,0.8,0c1.9,0.7,3.9,1.2,6,0.8
			c1.2-0.2,2.4-0.5,3.6-0.9c0.5-0.1,0.8-0.1,1.1,0.3C919.8,34.1,920.2,34.4,920.6,34.8z"/>
	</g>
	<g>
		<path d="M263,8.6c2.1,6.8,4.4,9.2,11.3,11.4c-6,1.5-9.8,5.3-11.2,11.3c-1.5-6-5.2-9.8-11.4-11.4c3-0.6,5.4-1.9,7.5-4
			C261.2,14,262.4,11.6,263,8.6z M256.8,20.1c2.8,1.2,4.9,3.2,6.2,6c1.3-2.8,3.4-4.7,6-5.9c-1.1-0.8-2.4-1.5-3.4-2.5
			c-1-1-1.8-2.2-2.7-3.3C261.7,16.9,259.6,18.8,256.8,20.1z"/>
		<path d="M349.7,31.4c-1.5-6-5.2-9.8-11.2-11.3c6-1.5,9.8-5.3,11.2-11.3c1.5,6,5.2,9.8,11.3,11.3C354.9,21.6,351.2,25.4,349.7,31.4
			z M349.7,14.1c-1.3,2.8-3.4,4.7-6.2,5.9c2.8,1.3,4.9,3.2,6.2,5.9c2-3.4,2.6-3.9,6.2-6C353.1,18.8,351,16.9,349.7,14.1z"/>
		<path d="M208.5,20.1c6.1-1.5,9.8-5.3,11.3-11.3c1.5,6,5.2,9.8,11.2,11.3c-6,1.5-9.8,5.3-11.2,11.4
			C218.2,25.4,214.5,21.6,208.5,20.1z M219.7,14.1c-1.3,2.8-3.4,4.7-6.2,5.9c2.8,1.2,4.9,3.2,6.2,5.9c1.4-2.8,3.5-4.7,6.2-5.9
			C223.1,18.8,221,16.9,219.7,14.1z"/>
		<path d="M295,20c2.9-0.6,5.4-1.9,7.5-4c2-2.1,3.3-4.5,3.9-7.4c1.5,6.1,5.2,9.9,11.2,11.4c-1,0.4-2.1,0.6-3.1,1.1
			c-1,0.5-2,1.1-2.9,1.8c-0.9,0.7-1.7,1.5-2.3,2.4c-0.7,0.9-1.3,1.9-1.8,2.9c-0.5,1-0.8,2.1-1.1,3.1C304.9,25.4,301.2,21.6,295,20z
			 M300.1,20.1c2.8,1.2,4.9,3.2,6.3,6c1.3-2.8,3.4-4.7,6.2-6c-2.8-1.2-4.9-3.2-6.2-5.9C305,16.9,302.9,18.8,300.1,20.1z"/>
		<path d="M255.1,10.6c-1.4-1.2-2.8-2.3-4.2-3.4c-2.7-2.1-5.7-3.8-8.9-4.9c-0.3-0.1-0.8-0.1-1.2,0c-4.5,1.6-8.4,4.2-11.9,7.3
			c-0.3,0.3-0.7,0.6-1,0.9c0,0-0.1,0-0.2,0.1c-0.4-0.6-0.9-1.2-1.4-1.9c1.1-0.9,2.1-1.9,3.3-2.8c3.5-2.6,7.2-4.8,11.4-6.2
			c0.3-0.1,0.6-0.1,0.9-0.1c5.5,1.9,10.4,4.8,14.6,8.9c0,0,0.1,0.1,0.1,0.2C256,9.4,255.6,10,255.1,10.6z"/>
		<path d="M271,10.6c-0.5-0.7-0.9-1.3-1.5-2c1.7-1.4,3.4-2.8,5.1-4c2.9-2.1,6.1-3.7,9.5-4.9c0.3-0.1,0.7-0.1,1,0
			c5.4,1.9,10.2,4.8,14.4,8.7c0.1,0.1,0.2,0.2,0.3,0.3c-0.3,0.4-0.5,0.7-0.8,1.1c-0.2,0.3-0.4,0.5-0.6,0.8c-0.9-0.8-1.8-1.6-2.8-2.4
			c-3.2-2.5-6.6-4.6-10.4-6c-0.3-0.1-0.8-0.1-1.1,0c-4.5,1.6-8.4,4.2-12,7.4C271.8,9.9,271.4,10.2,271,10.6z"/>
		<path d="M386.5,8.8c-0.5,0.6-0.9,1.2-1.3,1.7c-2.1-1.6-4.1-3.2-6.1-4.6c-2.2-1.5-4.6-2.8-7.1-3.7c-0.3-0.1-0.7-0.1-1,0
			c-4.6,1.7-8.6,4.3-12.2,7.5c-0.3,0.3-0.6,0.5-1,0.9c-0.5-0.7-0.9-1.2-1.5-2c1.8-1.4,3.4-2.8,5.2-4.1c2.9-2,6.1-3.7,9.5-4.8
			c0.3-0.1,0.6-0.1,0.9,0c5.5,1.9,10.3,4.8,14.5,8.8C386.3,8.6,386.4,8.6,386.5,8.8z"/>
		<path d="M343.1,8.7c-0.2,0.3-0.4,0.7-0.7,1c-0.2,0.3-0.5,0.6-0.7,0.9c-0.7-0.6-1.4-1.3-2.1-1.9c-3.3-2.7-6.9-5.1-11-6.5
			c-0.3-0.1-0.8-0.1-1.1,0c-4.6,1.6-8.5,4.3-12.1,7.5c-0.3,0.3-0.6,0.5-0.9,0.8c0,0-0.1,0-0.2,0.1c-0.2-0.3-0.5-0.6-0.7-0.9
			c-0.2-0.3-0.4-0.6-0.8-1.1c1.7-1.4,3.4-2.8,5.2-4c2.9-2,6.1-3.7,9.5-4.8c0.3-0.1,0.7-0.2,1-0.1c5.4,1.9,10.2,4.8,14.4,8.7
			C342.9,8.5,343,8.6,343.1,8.7z"/>
		<path d="M356.2,31.5c0.3-0.5,0.6-0.9,0.9-1.2c0.2-0.2,0.4-0.4,0.5-0.6c2,1.5,4,3.1,6,4.5c2.2,1.6,4.6,2.8,7.2,3.7
			c0.3,0.1,0.8,0.1,1.2,0c4.5-1.6,8.3-4.2,11.9-7.3c0.4-0.3,0.8-0.7,1.2-1.1c0.5,0.6,0.9,1.2,1.5,2c-1.7,1.4-3.4,2.8-5.1,4
			c-2.9,2.1-6.1,3.7-9.5,4.9c-0.3,0.1-0.7,0.1-1,0c-5.4-1.9-10.2-4.8-14.3-8.7C356.5,31.7,356.4,31.6,356.2,31.5z"/>
		<path d="M269.6,31.4c0.5-0.6,0.9-1.2,1.3-1.8c1.5,1.2,2.9,2.4,4.3,3.5c2.7,2,5.7,3.7,8.9,4.9c0.3,0.1,0.8,0.1,1.1,0
			c4.5-1.6,8.4-4.2,12-7.4c0.4-0.3,0.7-0.6,1.1-1c0.5,0.6,0.9,1.2,1.5,2c-1.7,1.4-3.4,2.8-5.2,4c-2.9,2.1-6.1,3.7-9.5,4.9
			c-0.3,0.1-0.6,0.1-0.9,0c-5.5-1.9-10.3-4.8-14.5-8.8C269.8,31.6,269.7,31.5,269.6,31.4z"/>
		<path d="M313,31.4c0.5-0.6,0.9-1.2,1.3-1.8c1.5,1.2,2.9,2.4,4.4,3.5c2.7,2,5.6,3.7,8.7,4.8c0.3,0.1,0.8,0.1,1.1,0
			c4.5-1.6,8.4-4.2,11.9-7.3c0.4-0.3,0.8-0.7,1.2-1.1c0.3,0.3,0.5,0.6,0.7,0.9c0.2,0.3,0.4,0.6,0.8,1.1c-1.7,1.4-3.4,2.8-5.2,4.1
			c-2.9,2-6,3.7-9.4,4.8c-0.3,0.1-0.7,0.2-1,0.1c-5.5-1.9-10.3-4.8-14.5-8.8C313.1,31.6,313,31.5,313,31.4z"/>
		<path d="M226.3,31.4c0.5-0.6,0.9-1.2,1.3-1.7c2.1,1.6,4.1,3.2,6.3,4.7c2.2,1.5,4.6,2.7,7.1,3.6c0.3,0.1,0.7,0.1,1,0
			c4.6-1.7,8.5-4.3,12.2-7.5c0.3-0.3,0.6-0.6,1-0.9c0.5,0.6,0.9,1.3,1.5,2c-1.7,1.4-3.4,2.8-5.2,4c-2.9,2-6.1,3.7-9.5,4.8
			c-0.3,0.1-0.7,0.2-1,0.1c-5.4-1.9-10.3-4.8-14.5-8.8C226.5,31.6,226.4,31.5,226.3,31.4z"/>
		<path d="M381.8,26.4c0.6,0.4,1.2,0.8,1.9,1.4c-1.4,1.2-2.8,2.3-4.2,3.4c-2.4,1.8-4.9,3.3-7.7,4.3c-0.3,0.1-0.6,0.2-0.9,0.1
			c-4.5-1.7-8.4-4.4-11.9-7.7c0-0.1,0-0.1,0.1-0.2c1.5-1.3,1.5-1.3,3.1-0.1c2.6,2.2,5.4,4,8.5,5.3c0.3,0.1,0.8,0.1,1.2,0
			c3.4-1.3,6.4-3.4,9.2-5.8C381.3,26.9,381.6,26.7,381.8,26.4z"/>
		<path d="M297.1,12.4c-0.7,0.5-1.3,0.9-1.8,1.3c-1.6-1.2-3.1-2.5-4.8-3.6c-1.6-1.1-3.4-1.9-5.2-2.8c-0.3-0.2-0.9-0.2-1.3,0
			c-3.4,1.3-6.4,3.4-9.1,5.8c-0.2,0.2-0.4,0.4-0.6,0.5c0,0-0.1,0-0.2,0.1c-0.6-0.4-1.1-0.8-1.8-1.3c0.9-0.8,1.7-1.6,2.6-2.3
			c2.8-2.2,5.8-4.2,9.2-5.5c0.3-0.1,0.7-0.2,1-0.1C289.6,6.4,293.5,9,297.1,12.4z"/>
		<path d="M340.4,12.4c-0.7,0.5-1.3,0.9-1.8,1.3c-1.7-1.2-3.2-2.5-4.8-3.6c-1.6-1.1-3.4-1.9-5.2-2.8c-0.3-0.2-0.9-0.1-1.2,0
			c-3.5,1.4-6.5,3.4-9.2,5.9c-0.5,0.4-0.8,0.5-1.3,0.1c-0.4-0.3-0.8-0.6-1.2-0.9c3.6-3.3,7.5-6,12-7.8c0.2-0.1,0.5-0.1,0.8,0
			C332.9,6.4,336.8,9,340.4,12.4z"/>
		<path d="M229.1,27.8c0,0,0-0.1,0.1-0.1c1.4-1.3,1.5-1.3,2.9-0.1c2.6,2.2,5.4,4.1,8.6,5.3c0.4,0.1,0.9,0.1,1.2,0
			c3.4-1.4,6.4-3.4,9.1-5.8c0.2-0.2,0.4-0.4,0.7-0.6c0.6,0.4,1.2,0.9,1.9,1.3c-1.8,1.8-3.7,3.3-5.8,4.6c-1.9,1.2-4,2.1-6,3.2
			c-0.2,0.1-0.6,0.2-0.8,0.1C237.7,34.5,231.5,30.4,229.1,27.8z"/>
		<path d="M360.8,13.7c-0.6-0.4-1.1-0.8-1.9-1.3c1.4-1.1,2.6-2.2,3.9-3.2c2.4-1.8,5.1-3.4,7.9-4.5c0.3-0.1,0.6-0.2,0.9-0.1
			c4.5,1.7,8.4,4.4,12,7.8c-0.7,0.5-1.3,0.9-1.7,1.2c-2.2-1.5-4.2-3.1-6.3-4.4c-1.2-0.8-2.5-1.3-3.8-1.9c-0.3-0.1-0.8-0.1-1.1,0
			c-3.4,1.3-6.4,3.4-9.1,5.7c-0.2,0.2-0.4,0.4-0.7,0.6C361,13.6,360.9,13.6,360.8,13.7z"/>
		<path d="M229.1,12.4c2.3-2.3,4.9-4.2,7.7-5.8c1.3-0.7,2.7-1.4,4.1-2c0.3-0.1,0.6-0.1,0.9,0c4.5,1.7,8.3,4.4,11.8,7.7
			c0,0,0,0.1,0.1,0.2c-0.6,0.4-1.2,0.8-1.7,1.2c-1.2-0.9-2.3-1.9-3.4-2.7c-2-1.5-4.2-2.8-6.6-3.7c-0.3-0.1-0.8-0.1-1.1,0
			c-3.5,1.4-6.5,3.4-9.3,5.9c-0.5,0.4-0.8,0.5-1.3,0.1C229.9,13,229.5,12.7,229.1,12.4z"/>
		<path d="M340.4,27.8c-3.6,3.3-7.5,6-12,7.8c-0.2,0.1-0.5,0.1-0.8,0c-4.5-1.8-8.4-4.4-11.9-7.8c0.6-0.5,1.2-0.9,1.8-1.3
			c1.2,1,2.3,1.9,3.5,2.8c2,1.5,4.1,2.8,6.4,3.6c0.4,0.1,0.9,0.2,1.3,0c3.4-1.4,6.5-3.4,9.2-5.9c0.5-0.5,0.9-0.5,1.4-0.1
			C339.6,27.2,339.9,27.4,340.4,27.8z"/>
		<path d="M295.2,26.4c0.6,0.4,1.2,0.9,1.9,1.4c-1.4,1.2-2.7,2.3-4.1,3.3c-2.4,1.8-5,3.3-7.8,4.4c-0.3,0.1-0.6,0.2-0.9,0.1
			c-4.5-1.7-8.4-4.4-11.9-7.7c0.1-0.1,0.1-0.2,0.1-0.2c1.5-1.3,1.5-1.3,3,0c2.6,2.2,5.4,4,8.5,5.3c0.4,0.1,0.9,0.1,1.3,0
			c3.4-1.4,6.4-3.4,9.1-5.8C294.7,26.9,294.9,26.7,295.2,26.4z"/>
		<path d="M283.6,30.1c-0.7-0.3-1.4-0.6-2-1c-0.2-0.1-0.3-0.5-0.3-0.7c0-4.3,0-8.6,0-12.9c0-1.2,0-2.5,0-3.7c0-0.5,0.1-0.8,0.6-0.9
			c0.6-0.2,1.1-0.5,1.7-0.8C283.6,16.8,283.6,23.4,283.6,30.1z"/>
		<path d="M372.5,10c0.7,0.3,1.4,0.6,2,1c0.2,0.1,0.3,0.5,0.3,0.7c0,4.8,0,9.7,0,14.5c0,0.8,0,1.5,0,2.2c0,0.3-0.2,0.6-0.4,0.7
			c-0.6,0.3-1.2,0.6-1.8,0.9C372.5,23.4,372.5,16.8,372.5,10z"/>
		<path d="M240.3,30.1c-0.7-0.3-1.4-0.6-2-1c-0.2-0.1-0.3-0.5-0.3-0.7c0-4.4,0-8.9,0-13.3c0-1.1,0-2.3,0-3.4c0-0.4,0.1-0.7,0.5-0.8
			c0.6-0.2,1.1-0.5,1.8-0.8C240.3,16.8,240.3,23.4,240.3,30.1z"/>
		<path d="M329.2,10c0.7,0.3,1.3,0.6,1.9,1c0.2,0.1,0.3,0.4,0.3,0.6c0,5.7,0,11.3,0,17c0,0.2-0.2,0.5-0.3,0.6
			c-0.6,0.3-1.2,0.6-1.9,0.9C329.2,23.4,329.2,16.8,329.2,10z"/>
		<path d="M326.9,30.1c-0.7-0.3-1.3-0.6-1.9-1c-0.2-0.1-0.3-0.4-0.3-0.6c0-5.7,0-11.3,0-17c0-0.2,0.1-0.5,0.3-0.6
			c0.6-0.3,1.2-0.6,2-1C326.9,16.7,326.9,23.3,326.9,30.1z"/>
		<path d="M285.8,30.1c0-6.7,0-13.4,0-20.1c0.7,0.4,1.4,0.7,2.1,1c0.1,0.1,0.2,0.4,0.2,0.6c0,5.6,0,11.3,0,16.9
			c0,0.2-0.1,0.5-0.3,0.6C287.2,29.5,286.5,29.8,285.8,30.1z"/>
		<path d="M295.8,37.6c0.5-0.4,1-0.8,1.6-1.2c0.2-0.1,0.6,0,0.8,0.1c2.8,1.4,5.8,2.2,9,2.1c2.4-0.1,4.8-0.8,7-1.9
			c0.8-0.4,1.4-0.5,2.1,0.2c0.2,0.2,0.5,0.4,0.8,0.6C312.3,41.5,300.6,41.5,295.8,37.6z"/>
		<path d="M209.1,2.5c7-4,14.3-4,21.3,0c-0.6,0.4-1.1,0.9-1.7,1.3c-0.2,0.1-0.5,0-0.8-0.2c-2.8-1.4-5.8-2.2-8.9-2.1
			c-2.5,0.1-4.8,0.8-7,1.9c-0.8,0.4-1.3,0.4-1.9-0.2C209.7,3,209.4,2.8,209.1,2.5z"/>
		<path d="M209.1,37.6c0.5-0.4,1-0.9,1.6-1.2c0.2-0.1,0.6,0,0.8,0.1c2.8,1.4,5.8,2.2,9,2.1c2.6-0.1,5-0.9,7.3-2.1
			c0.5-0.3,0.9-0.3,1.3,0.1c0.4,0.3,0.8,0.6,1.2,1C223.7,41.6,216.1,41.7,209.1,37.6z"/>
		<path d="M252.5,37.7c1-1,1.8-1.5,3.4-0.7c2.4,1.3,5.1,1.8,7.9,1.7c2.6-0.1,5.1-0.8,7.4-2c0.6-0.3,0.9-0.3,1.4,0.1
			c0.3,0.3,0.7,0.6,1.1,0.9C267,41.6,259.4,41.7,252.5,37.7z"/>
		<path d="M360.3,37.6c-6.7,4-14.4,4-21.2,0c0.5-0.4,1-0.9,1.6-1.2c0.2-0.1,0.6,0,0.8,0.1c2.8,1.4,5.8,2.2,9,2.1
			c2.4-0.1,4.8-0.8,6.9-1.9c0.8-0.4,1.4-0.4,2,0.2C359.7,37.2,360,37.4,360.3,37.6z"/>
		<path d="M360.3,2.5c-0.6,0.4-1,0.9-1.6,1.2c-0.2,0.1-0.6,0-0.9-0.1c-2.8-1.4-5.8-2.2-9-2.1c-2.6,0.1-5,0.9-7.4,2.1
			c-0.5,0.3-0.9,0.3-1.3-0.1c-0.4-0.3-0.8-0.6-1.2-1C345.7-1.4,353.2-1.6,360.3,2.5z"/>
		<path d="M252.4,2.5c7-4,14.3-4,21.3,0c-0.6,0.4-1.1,0.9-1.7,1.3c-0.2,0.1-0.5,0-0.8-0.2c-2.8-1.4-5.8-2.2-9-2.1
			c-2.6,0.1-5,0.9-7.4,2.1c-0.5,0.3-0.9,0.3-1.3-0.1C253.3,3.1,252.9,2.9,252.4,2.5z"/>
		<path d="M295.8,2.5c6.9-4,14.3-4,21.2,0c-0.6,0.4-1.1,0.9-1.6,1.2c-0.2,0.1-0.5,0-0.8-0.1c-2.8-1.4-5.8-2.2-8.9-2.1
			c-2.6,0.1-5,0.8-7.3,2c-0.6,0.3-1,0.3-1.5-0.1C296.6,3.1,296.2,2.8,295.8,2.5z"/>
		<path d="M370.3,30.1c-0.7-0.3-1.4-0.6-2-1c-0.1-0.1-0.2-0.4-0.2-0.6c0-5.7,0-11.3,0-17c0-0.2,0.2-0.5,0.3-0.6
			c0.6-0.3,1.2-0.6,1.9-0.9C370.3,16.8,370.3,23.4,370.3,30.1z"/>
		<path d="M242.5,10c0.7,0.3,1.4,0.6,2,1c0.2,0.1,0.3,0.4,0.3,0.6c0,5.7,0,11.3,0,17c0,0.2-0.2,0.5-0.4,0.7
			c-0.6,0.3-1.2,0.6-1.8,0.9C242.5,23.4,242.5,16.8,242.5,10z"/>
		<path d="M376.8,27.8c0-5.2,0-10.2,0-15.4c0.7,0.6,1.4,1.1,2.1,1.7c0.1,0.1,0.1,0.4,0.1,0.6c0,3.6,0,7.2,0,10.8
			c0,0.3-0.2,0.7-0.4,1C378.1,26.9,377.5,27.3,376.8,27.8z"/>
		<path d="M235.9,27.8c-0.7-0.5-1.3-1-1.8-1.5c-0.2-0.1-0.3-0.4-0.3-0.7c0-3.7,0-7.4,0-11.1c0-0.2,0.1-0.5,0.3-0.7
			c0.6-0.5,1.2-0.9,1.8-1.5C235.9,17.5,235.9,22.6,235.9,27.8z"/>
		<path d="M333.5,27.8c0-5.2,0-10.2,0-15.4c0.7,0.6,1.4,1,1.9,1.5c0.1,0.1,0.2,0.4,0.2,0.6c0,3.7,0,7.4,0,11c0,0.2-0.1,0.6-0.3,0.7
			C334.8,26.8,334.2,27.2,333.5,27.8z"/>
		<path d="M279.2,27.8c-0.7-0.5-1.3-1-1.9-1.5c-0.2-0.1-0.2-0.4-0.2-0.6c0-3.7,0-7.4,0-11.1c0-0.2,0.1-0.5,0.3-0.7
			c0.6-0.5,1.2-0.9,1.9-1.5C279.2,17.5,279.2,22.6,279.2,27.8z"/>
		<path d="M322.6,12.4c0,5.2,0,10.2,0,15.4c-0.7-0.6-1.4-1.1-2-1.6c-0.1-0.1-0.2-0.4-0.2-0.6c0-3.7,0-7.4,0-11
			c0-0.2,0.1-0.6,0.3-0.7C321.3,13.3,321.9,12.9,322.6,12.4z"/>
		<path d="M290.2,12.5c0.1,0,0.1,0.1,0.1,0.1c2,1.3,2,1.3,2,3.7c0,3,0,6,0,9c0,0.6-0.2,1-0.7,1.4c-0.5,0.3-0.9,0.7-1.5,1.1
			C290.2,22.6,290.2,17.6,290.2,12.5z"/>
		<path d="M246.8,27.8c0-5.2,0-10.2,0-15.4c0.7,0.6,1.4,1.1,2,1.6c0.1,0.1,0.2,0.4,0.2,0.6c0,3.7,0,7.4,0,11c0,0.2-0.1,0.6-0.3,0.7
			C248.1,26.8,247.5,27.2,246.8,27.8z"/>
		<path d="M365.9,27.8c-0.7-0.6-1.3-1-1.9-1.5c-0.2-0.1-0.3-0.4-0.3-0.7c0-3.7,0-7.4,0-11c0-0.2,0.1-0.6,0.3-0.7
			c0.6-0.5,1.2-0.9,1.8-1.4C365.9,17.6,365.9,22.6,365.9,27.8z"/>
		<path d="M265.2,32.1c0.5-4.6,4.9-9.1,9.9-10.2c0,0.6,0,1.2,0,1.9c0,0.2-0.3,0.4-0.5,0.5c-2.8,1.1-4.9,3-6.4,5.6
			c-0.1,0.1-0.2,0.2-0.2,0.4C267.7,31.8,266.4,31.8,265.2,32.1z"/>
		<path d="M347.6,32.2c-0.7-0.3-1.4-0.4-2.1-0.7c-0.2-0.1-0.3-0.3-0.4-0.5c-1.3-3.1-3.6-5.2-6.7-6.5c-0.6-0.2-0.8-0.5-0.7-1.1
			c0-0.4,0-0.9,0-1.3C342.3,22.7,347.1,27.4,347.6,32.2z"/>
		<path d="M294.4,18.2c0-0.1,0-0.2,0-0.2c-0.1-1.2,0-2,1.4-2.6c2.8-1.2,4.9-3.4,6-6.3c0.1-0.1,0.2-0.3,0.3-0.4
			c0.7-0.3,1.4-0.5,2.1-0.7C303.8,12.2,299.7,17.1,294.4,18.2z"/>
		<path d="M231.7,22c0,0.6,0,1.2,0,1.8c0,0.2-0.3,0.4-0.5,0.5c-2.8,1.1-4.9,3.1-6.5,5.7c0,0.1-0.1,0.2-0.1,0.3
			c-0.3,1.6-1.6,1.6-2.7,1.9C222,28.3,226.2,23.1,231.7,22z"/>
		<path d="M308.5,8c0.8,0.3,1.5,0.5,2.2,0.8c0.2,0.1,0.3,0.3,0.3,0.5c1.3,3.1,3.6,5.2,6.6,6.5c0.6,0.3,0.8,0.5,0.8,1.1
			c-0.1,0.4,0,0.9,0,1.3C313.7,17.3,309.2,13,308.5,8z"/>
		<path d="M260.9,8c-0.6,4.7-5.1,9.3-9.9,10.2c0-0.6,0-1.2,0-1.8c0-0.2,0.3-0.4,0.5-0.5c2.8-1.1,4.9-3.1,6.5-5.7
			c0-0.1,0.1-0.2,0.1-0.3c0.2-0.4,0.3-1,0.6-1.2C259.4,8.4,260.1,8.2,260.9,8z"/>
		<path d="M275.1,18.2c-5.5-1.2-9.6-6.2-9.8-10.2c0.7,0.2,1.4,0.5,2.1,0.7c0.2,0.1,0.3,0.3,0.3,0.5c1.3,3,3.5,5.2,6.5,6.5
			c0.7,0.3,1,0.6,0.9,1.3C275,17.4,275.1,17.8,275.1,18.2z"/>
		<path d="M304.2,32.2c-0.7-0.2-1.4-0.4-2-0.7c-0.2-0.1-0.4-0.3-0.5-0.5c-1.3-3.1-3.7-5.3-6.8-6.6c-0.4-0.2-0.7-0.4-0.6-0.9
			c0.1-0.5,0-1,0-1.5C299,22.7,304,27.8,304.2,32.2z"/>
		<path d="M351.8,8c0.8,0.3,1.5,0.5,2.2,0.8c0.2,0.1,0.3,0.3,0.3,0.5c1.3,3.1,3.6,5.2,6.6,6.5c0.6,0.3,0.8,0.5,0.8,1.1
			c-0.1,0.4,0,0.9,0,1.3C357,17.3,352.5,13,351.8,8z"/>
		<path d="M351.8,32.2c0.4-4.6,5.1-9.3,9.9-10.2c0,0.6,0,1.3,0,1.9c0,0.2-0.3,0.4-0.4,0.4c-2.8,1.1-5,3.1-6.5,5.7
			c0,0.1-0.1,0.1-0.1,0.2c-0.2,0.4-0.3,1-0.6,1.2C353.4,31.8,352.6,31.9,351.8,32.2z"/>
		<path d="M221.9,8c0.7,0.2,1.4,0.4,2,0.7c0.2,0.1,0.4,0.3,0.5,0.6c1.3,3.1,3.6,5.2,6.7,6.5c0.6,0.2,0.8,0.5,0.7,1.1
			c0,0.4,0,0.9,0,1.3C227.2,17.4,222.3,12.7,221.9,8z"/>
		<path d="M347.5,8c-0.3,4.1-4.4,9.1-9.8,10.2c0-0.1,0-0.1-0.1-0.2c-0.1-1.2,0-2,1.4-2.6c2.8-1.2,4.9-3.4,6-6.3
			c0.1-0.1,0.2-0.3,0.3-0.4C346.1,8.4,346.8,8.2,347.5,8z"/>
		<path d="M318.3,22c0,0.1,0,0.1,0,0.1c0.1,1.2,0,2-1.4,2.7c-2.8,1.2-4.9,3.4-6,6.3c-0.1,0.1-0.2,0.3-0.3,0.4
			c-0.7,0.3-1.4,0.5-2.1,0.7C308.9,27.8,313.2,23,318.3,22z"/>
		<path d="M260.9,32.2c-0.7-0.2-1.5-0.5-2.1-0.7c-0.2-0.1-0.3-0.4-0.4-0.6c-1.3-3-3.5-5.1-6.5-6.4c-0.7-0.3-1-0.6-0.9-1.3
			c0.1-0.4,0-0.8,0-1.2C255.6,22.8,260.4,27.3,260.9,32.2z"/>
		<path d="M217.6,8c-0.7,5.1-5.3,9.3-9.9,10.2c0-0.6,0-1.2,0-1.8c0-0.2,0.3-0.4,0.5-0.5c2.8-1.1,4.9-3.1,6.5-5.7
			c0-0.1,0.1-0.2,0.1-0.3c0.2-0.4,0.3-1,0.6-1.2C216,8.4,216.8,8.2,217.6,8z"/>
		<path d="M217.6,32.2c-0.8-0.3-1.4-0.4-2.1-0.7c-0.2-0.1-0.4-0.4-0.5-0.6c-1.3-3.1-3.6-5.1-6.5-6.5c-0.6-0.3-0.9-0.5-0.8-1.2
			c0.1-0.4,0-0.8,0-1.2C211.8,22.6,216.9,26.9,217.6,32.2z"/>
		<path d="M313.3,5.4c-0.1,0.1-0.1,0.1-0.1,0.2c-0.9,1.1-1.8,1.3-3.2,0.8c-2.7-1-5.5-0.7-8.2,0.3c-0.6,0.2-1.1,0.2-1.5-0.3
			c-0.3-0.3-0.6-0.6-0.9-0.8C302.4,3.1,309.5,3.1,313.3,5.4z"/>
		<path d="M256,5.4c4.7-2.3,9.3-2.3,14,0c-0.5,0.5-0.9,0.9-1.4,1.3c-0.2,0.1-0.5,0.1-0.8,0C265.9,6,264,5.5,262,5.8
			c-1.2,0.2-2.4,0.5-3.6,0.9c-0.5,0.1-0.8,0.2-1.1-0.2C256.8,6,256.5,5.7,256,5.4z"/>
		<path d="M313.3,34.7c-3.3,2.3-10.4,2.3-13.9,0c0.4-0.4,0.9-0.9,1.3-1.2c0.2-0.1,0.5-0.1,0.8-0.1c1.3,0.3,2.5,0.7,3.8,0.9
			c1.9,0.3,3.8-0.1,5.5-0.8c0.7-0.3,1.2-0.2,1.6,0.4C312.7,34.3,313.1,34.5,313.3,34.7z"/>
		<path d="M226.7,5.4c-0.4,0.4-0.9,0.8-1.3,1.2c-0.2,0.1-0.5,0.1-0.7,0.1c-3.3-1.3-6.6-1.3-9.8,0c-0.2,0.1-0.6,0-0.8-0.2
			c-0.4-0.3-0.8-0.7-1.2-1.1C216.2,3.1,223.2,3.1,226.7,5.4z"/>
		<path d="M342.7,5.4c4.7-2.3,9.3-2.3,14,0c-0.5,0.5-0.9,0.9-1.4,1.3c-0.2,0.1-0.5,0.1-0.8,0c-1.9-0.7-3.9-1.1-5.9-0.8
			c-1.2,0.2-2.4,0.5-3.6,0.9c-0.5,0.1-0.8,0.2-1.2-0.2C343.5,6,343.1,5.7,342.7,5.4z"/>
		<path d="M256.1,34.8c0.9-1.2,1.9-1.5,3.4-0.9c2.7,1,5.5,0.7,8.2-0.3c0.7-0.2,1.1-0.2,1.5,0.3c0.3,0.3,0.6,0.6,0.9,0.8
			C266.8,37.1,259.7,37.1,256.1,34.8z"/>
		<path d="M356.7,34.8c-4.8,2.4-9.4,2.3-14,0c0.5-0.4,0.9-0.9,1.4-1.2c0.2-0.1,0.5-0.1,0.8,0c1.9,0.7,3.9,1.2,6,0.8
			c1.2-0.2,2.4-0.5,3.6-0.9c0.5-0.1,0.8-0.1,1.1,0.3C355.9,34.1,356.3,34.4,356.7,34.8z"/>
		<path d="M226.7,34.7c-3.4,2.3-10.5,2.3-13.9,0c0.4-0.4,0.9-0.9,1.3-1.2c0.2-0.1,0.5-0.1,0.8,0c1.3,0.3,2.5,0.7,3.8,0.9
			c1.9,0.3,3.8-0.1,5.5-0.8c0.7-0.2,1.1-0.2,1.6,0.3C226,34.2,226.4,34.5,226.7,34.7z"/>
	</g>
	<g>
		<path d="M436.6,8.6c2.1,6.8,4.4,9.2,11.3,11.4c-6,1.5-9.8,5.3-11.2,11.3c-1.5-6-5.2-9.8-11.4-11.4c3-0.6,5.4-1.9,7.5-4
			C434.7,14,436,11.6,436.6,8.6z M430.3,20.1c2.8,1.2,4.9,3.2,6.2,6c1.3-2.8,3.4-4.7,6-5.9c-1.1-0.8-2.4-1.5-3.4-2.5
			c-1-1-1.8-2.2-2.7-3.3C435.2,16.9,433.1,18.8,430.3,20.1z"/>
		<path d="M523.2,31.4c-1.5-6-5.2-9.8-11.2-11.3c6-1.5,9.8-5.3,11.2-11.3c1.5,6,5.2,9.8,11.3,11.3C528.4,21.6,524.7,25.4,523.2,31.4
			z M523.2,14.1c-1.3,2.8-3.4,4.7-6.2,5.9c2.8,1.3,4.9,3.2,6.2,5.9c2-3.4,2.6-3.9,6.2-6C526.7,18.8,524.6,16.9,523.2,14.1z"/>
		<path d="M382,20.1c6.1-1.5,9.8-5.3,11.3-11.3c1.5,6,5.2,9.8,11.2,11.3c-6,1.5-9.8,5.3-11.2,11.4C391.8,25.4,388.1,21.6,382,20.1z
			 M393.2,14.1c-1.3,2.8-3.4,4.7-6.2,5.9c2.8,1.2,4.9,3.2,6.2,5.9c1.4-2.8,3.5-4.7,6.2-5.9C396.7,18.8,394.6,16.9,393.2,14.1z"/>
		<path d="M468.6,20c2.9-0.6,5.4-1.9,7.5-4c2-2.1,3.3-4.5,3.9-7.4c1.5,6.1,5.2,9.9,11.2,11.4c-1,0.4-2.1,0.6-3.1,1.1
			c-1,0.5-2,1.1-2.9,1.8c-0.9,0.7-1.7,1.5-2.3,2.4c-0.7,0.9-1.3,1.9-1.8,2.9c-0.5,1-0.8,2.1-1.1,3.1C478.5,25.4,474.7,21.6,468.6,20
			z M473.7,20.1c2.8,1.2,4.9,3.2,6.3,6c1.3-2.8,3.4-4.7,6.2-6c-2.8-1.2-4.9-3.2-6.2-5.9C478.6,16.9,476.5,18.8,473.7,20.1z"/>
		<path d="M428.7,10.6c-1.4-1.2-2.8-2.3-4.2-3.4c-2.7-2.1-5.7-3.8-8.9-4.9c-0.3-0.1-0.8-0.1-1.2,0c-4.5,1.6-8.4,4.2-11.9,7.3
			c-0.3,0.3-0.7,0.6-1,0.9c0,0-0.1,0-0.2,0.1c-0.4-0.6-0.9-1.2-1.4-1.9c1.1-0.9,2.1-1.9,3.3-2.8c3.5-2.6,7.2-4.8,11.4-6.2
			c0.3-0.1,0.6-0.1,0.9-0.1c5.5,1.9,10.4,4.8,14.6,8.9c0,0,0.1,0.1,0.1,0.2C429.6,9.4,429.1,10,428.7,10.6z"/>
		<path d="M444.5,10.6c-0.5-0.7-0.9-1.3-1.5-2c1.7-1.4,3.4-2.8,5.1-4c2.9-2.1,6.1-3.7,9.5-4.9c0.3-0.1,0.7-0.1,1,0
			c5.4,1.9,10.2,4.8,14.4,8.7c0.1,0.1,0.2,0.2,0.3,0.3c-0.3,0.4-0.5,0.7-0.8,1.1c-0.2,0.3-0.4,0.5-0.6,0.8c-0.9-0.8-1.8-1.6-2.8-2.4
			c-3.2-2.5-6.6-4.6-10.4-6c-0.3-0.1-0.8-0.1-1.1,0c-4.5,1.6-8.4,4.2-12,7.4C445.3,9.9,445,10.2,444.5,10.6z"/>
		<path d="M560,8.8c-0.5,0.6-0.9,1.2-1.3,1.7c-2.1-1.6-4.1-3.2-6.1-4.6c-2.2-1.5-4.6-2.8-7.1-3.7c-0.3-0.1-0.7-0.1-1,0
			c-4.6,1.7-8.6,4.3-12.2,7.5c-0.3,0.3-0.6,0.5-1,0.9c-0.5-0.7-0.9-1.2-1.5-2c1.8-1.4,3.4-2.8,5.2-4.1c2.9-2,6.1-3.7,9.5-4.8
			c0.3-0.1,0.6-0.1,0.9,0c5.5,1.9,10.3,4.8,14.5,8.8C559.9,8.6,559.9,8.6,560,8.8z"/>
		<path d="M516.7,8.7c-0.2,0.3-0.4,0.7-0.7,1c-0.2,0.3-0.5,0.6-0.7,0.9c-0.7-0.6-1.4-1.3-2.1-1.9c-3.3-2.7-6.9-5.1-11-6.5
			c-0.3-0.1-0.8-0.1-1.1,0c-4.6,1.6-8.5,4.3-12.1,7.5c-0.3,0.3-0.6,0.5-0.9,0.8c0,0-0.1,0-0.2,0.1c-0.2-0.3-0.5-0.6-0.7-0.9
			c-0.2-0.3-0.4-0.6-0.8-1.1c1.7-1.4,3.4-2.8,5.2-4c2.9-2,6.1-3.7,9.5-4.8c0.3-0.1,0.7-0.2,1-0.1c5.4,1.9,10.2,4.8,14.4,8.7
			C516.5,8.5,516.6,8.6,516.7,8.7z"/>
		<path d="M529.8,31.5c0.3-0.5,0.6-0.9,0.9-1.2c0.2-0.2,0.4-0.4,0.5-0.6c2,1.5,4,3.1,6,4.5c2.2,1.6,4.6,2.8,7.2,3.7
			c0.3,0.1,0.8,0.1,1.2,0c4.5-1.6,8.3-4.2,11.9-7.3c0.4-0.3,0.8-0.7,1.2-1.1c0.5,0.6,0.9,1.2,1.5,2c-1.7,1.4-3.4,2.8-5.1,4
			c-2.9,2.1-6.1,3.7-9.5,4.9c-0.3,0.1-0.7,0.1-1,0c-5.4-1.9-10.2-4.8-14.3-8.7C530,31.7,529.9,31.6,529.8,31.5z"/>
		<path d="M443.2,31.4c0.5-0.6,0.9-1.2,1.3-1.8c1.5,1.2,2.9,2.4,4.3,3.5c2.7,2,5.7,3.7,8.9,4.9c0.3,0.1,0.8,0.1,1.1,0
			c4.5-1.6,8.4-4.2,12-7.4c0.4-0.3,0.7-0.6,1.1-1c0.5,0.6,0.9,1.2,1.5,2c-1.7,1.4-3.4,2.8-5.2,4c-2.9,2.1-6.1,3.7-9.5,4.9
			c-0.3,0.1-0.6,0.1-0.9,0c-5.5-1.9-10.3-4.8-14.5-8.8C443.3,31.6,443.3,31.5,443.2,31.4z"/>
		<path d="M486.5,31.4c0.5-0.6,0.9-1.2,1.3-1.8c1.5,1.2,2.9,2.4,4.4,3.5c2.7,2,5.6,3.7,8.7,4.8c0.3,0.1,0.8,0.1,1.1,0
			c4.5-1.6,8.4-4.2,11.9-7.3c0.4-0.3,0.8-0.7,1.2-1.1c0.3,0.3,0.5,0.6,0.7,0.9c0.2,0.3,0.4,0.6,0.8,1.1c-1.7,1.4-3.4,2.8-5.2,4.1
			c-2.9,2-6,3.7-9.4,4.8c-0.3,0.1-0.7,0.2-1,0.1c-5.5-1.9-10.3-4.8-14.5-8.8C486.6,31.6,486.6,31.5,486.5,31.4z"/>
		<path d="M399.8,31.4c0.5-0.6,0.9-1.2,1.3-1.7c2.1,1.6,4.1,3.2,6.3,4.7c2.2,1.5,4.6,2.7,7.1,3.6c0.3,0.1,0.7,0.1,1,0
			c4.6-1.7,8.5-4.3,12.2-7.5c0.3-0.3,0.6-0.6,1-0.9c0.5,0.6,0.9,1.3,1.5,2c-1.7,1.4-3.4,2.8-5.2,4c-2.9,2-6.1,3.7-9.5,4.8
			c-0.3,0.1-0.7,0.2-1,0.1c-5.4-1.9-10.3-4.8-14.5-8.8C400,31.6,399.9,31.5,399.8,31.4z"/>
		<path d="M555.4,26.4c0.6,0.4,1.2,0.8,1.9,1.4c-1.4,1.2-2.8,2.3-4.2,3.4c-2.4,1.8-4.9,3.3-7.7,4.3c-0.3,0.1-0.6,0.2-0.9,0.1
			c-4.5-1.7-8.4-4.4-11.9-7.7c0-0.1,0-0.1,0.1-0.2c1.5-1.3,1.5-1.3,3.1-0.1c2.6,2.2,5.4,4,8.5,5.3c0.3,0.1,0.8,0.1,1.2,0
			c3.4-1.3,6.4-3.4,9.2-5.8C554.9,26.9,555.1,26.7,555.4,26.4z"/>
		<path d="M470.6,12.4c-0.7,0.5-1.3,0.9-1.8,1.3c-1.6-1.2-3.1-2.5-4.8-3.6c-1.6-1.1-3.4-1.9-5.2-2.8c-0.3-0.2-0.9-0.2-1.3,0
			c-3.4,1.3-6.4,3.4-9.1,5.8c-0.2,0.2-0.4,0.4-0.6,0.5c0,0-0.1,0-0.2,0.1c-0.6-0.4-1.1-0.8-1.8-1.3c0.9-0.8,1.7-1.6,2.6-2.3
			c2.8-2.2,5.8-4.2,9.2-5.5c0.3-0.1,0.7-0.2,1-0.1C463.1,6.4,467,9,470.6,12.4z"/>
		<path d="M513.9,12.4c-0.7,0.5-1.3,0.9-1.8,1.3c-1.7-1.2-3.2-2.5-4.8-3.6c-1.6-1.1-3.4-1.9-5.2-2.8c-0.3-0.2-0.9-0.1-1.2,0
			c-3.5,1.4-6.5,3.4-9.2,5.9c-0.5,0.4-0.8,0.5-1.3,0.1c-0.4-0.3-0.8-0.6-1.2-0.9c3.6-3.3,7.5-6,12-7.8c0.2-0.1,0.5-0.1,0.8,0
			C506.4,6.4,510.3,9,513.9,12.4z"/>
		<path d="M402.7,27.8c0,0,0-0.1,0.1-0.1c1.4-1.3,1.5-1.3,2.9-0.1c2.6,2.2,5.4,4.1,8.6,5.3c0.4,0.1,0.9,0.1,1.2,0
			c3.4-1.4,6.4-3.4,9.1-5.8c0.2-0.2,0.4-0.4,0.7-0.6c0.6,0.4,1.2,0.9,1.9,1.3c-1.8,1.8-3.7,3.3-5.8,4.6c-1.9,1.2-4,2.1-6,3.2
			c-0.2,0.1-0.6,0.2-0.8,0.1C411.2,34.5,405.1,30.4,402.7,27.8z"/>
		<path d="M534.4,13.7c-0.6-0.4-1.1-0.8-1.9-1.3c1.4-1.1,2.6-2.2,3.9-3.2c2.4-1.8,5.1-3.4,7.9-4.5c0.3-0.1,0.6-0.2,0.9-0.1
			c4.5,1.7,8.4,4.4,12,7.8c-0.7,0.5-1.3,0.9-1.7,1.2c-2.2-1.5-4.2-3.1-6.3-4.4c-1.2-0.8-2.5-1.3-3.8-1.9c-0.3-0.1-0.8-0.1-1.1,0
			c-3.4,1.3-6.4,3.4-9.1,5.7c-0.2,0.2-0.4,0.4-0.7,0.6C534.5,13.6,534.5,13.6,534.4,13.7z"/>
		<path d="M402.6,12.4c2.3-2.3,4.9-4.2,7.7-5.8c1.3-0.7,2.7-1.4,4.1-2c0.3-0.1,0.6-0.1,0.9,0c4.5,1.7,8.3,4.4,11.8,7.7
			c0,0,0,0.1,0.1,0.2c-0.6,0.4-1.2,0.8-1.7,1.2c-1.2-0.9-2.3-1.9-3.4-2.7c-2-1.5-4.2-2.8-6.6-3.7c-0.3-0.1-0.8-0.1-1.1,0
			c-3.5,1.4-6.5,3.4-9.3,5.9c-0.5,0.4-0.8,0.5-1.3,0.1C403.4,13,403,12.7,402.6,12.4z"/>
		<path d="M513.9,27.8c-3.6,3.3-7.5,6-12,7.8c-0.2,0.1-0.5,0.1-0.8,0c-4.5-1.8-8.4-4.4-11.9-7.8c0.6-0.5,1.2-0.9,1.8-1.3
			c1.2,1,2.3,1.9,3.5,2.8c2,1.5,4.1,2.8,6.4,3.6c0.4,0.1,0.9,0.2,1.3,0c3.4-1.4,6.5-3.4,9.2-5.9c0.5-0.5,0.9-0.5,1.4-0.1
			C513.1,27.2,513.5,27.4,513.9,27.8z"/>
		<path d="M468.7,26.4c0.6,0.4,1.2,0.9,1.9,1.4c-1.4,1.2-2.7,2.3-4.1,3.3c-2.4,1.8-5,3.3-7.8,4.4c-0.3,0.1-0.6,0.2-0.9,0.1
			c-4.5-1.7-8.4-4.4-11.9-7.7c0.1-0.1,0.1-0.2,0.1-0.2c1.5-1.3,1.5-1.3,3,0c2.6,2.2,5.4,4,8.5,5.3c0.4,0.1,0.9,0.1,1.3,0
			c3.4-1.4,6.4-3.4,9.1-5.8C468.3,26.9,468.5,26.7,468.7,26.4z"/>
		<path d="M457.1,30.1c-0.7-0.3-1.4-0.6-2-1c-0.2-0.1-0.3-0.5-0.3-0.7c0-4.3,0-8.6,0-12.9c0-1.2,0-2.5,0-3.7c0-0.5,0.1-0.8,0.6-0.9
			c0.6-0.2,1.1-0.5,1.7-0.8C457.1,16.8,457.1,23.4,457.1,30.1z"/>
		<path d="M546,10c0.7,0.3,1.4,0.6,2,1c0.2,0.1,0.3,0.5,0.3,0.7c0,4.8,0,9.7,0,14.5c0,0.8,0,1.5,0,2.2c0,0.3-0.2,0.6-0.4,0.7
			c-0.6,0.3-1.2,0.6-1.8,0.9C546,23.4,546,16.8,546,10z"/>
		<path d="M413.8,30.1c-0.7-0.3-1.4-0.6-2-1c-0.2-0.1-0.3-0.5-0.3-0.7c0-4.4,0-8.9,0-13.3c0-1.1,0-2.3,0-3.4c0-0.4,0.1-0.7,0.5-0.8
			c0.6-0.2,1.1-0.5,1.8-0.8C413.8,16.8,413.8,23.4,413.8,30.1z"/>
		<path d="M502.7,10c0.7,0.3,1.3,0.6,1.9,1c0.2,0.1,0.3,0.4,0.3,0.6c0,5.7,0,11.3,0,17c0,0.2-0.2,0.5-0.3,0.6
			c-0.6,0.3-1.2,0.6-1.9,0.9C502.7,23.4,502.7,16.8,502.7,10z"/>
		<path d="M500.5,30.1c-0.7-0.3-1.3-0.6-1.9-1c-0.2-0.1-0.3-0.4-0.3-0.6c0-5.7,0-11.3,0-17c0-0.2,0.1-0.5,0.3-0.6
			c0.6-0.3,1.2-0.6,2-1C500.5,16.7,500.5,23.3,500.5,30.1z"/>
		<path d="M459.3,30.1c0-6.7,0-13.4,0-20.1c0.7,0.4,1.4,0.7,2.1,1c0.1,0.1,0.2,0.4,0.2,0.6c0,5.6,0,11.3,0,16.9
			c0,0.2-0.1,0.5-0.3,0.6C460.7,29.5,460.1,29.8,459.3,30.1z"/>
		<path d="M469.3,37.6c0.5-0.4,1-0.8,1.6-1.2c0.2-0.1,0.6,0,0.8,0.1c2.8,1.4,5.8,2.2,9,2.1c2.4-0.1,4.8-0.8,7-1.9
			c0.8-0.4,1.4-0.5,2.1,0.2c0.2,0.2,0.5,0.4,0.8,0.6C485.9,41.5,474.2,41.5,469.3,37.6z"/>
		<path d="M382.6,2.5c7-4,14.3-4,21.3,0c-0.6,0.4-1.1,0.9-1.7,1.3c-0.2,0.1-0.5,0-0.8-0.2c-2.8-1.4-5.8-2.2-8.9-2.1
			c-2.5,0.1-4.8,0.8-7,1.9c-0.8,0.4-1.3,0.4-1.9-0.2C383.3,3,383,2.8,382.6,2.5z"/>
		<path d="M382.6,37.6c0.5-0.4,1-0.9,1.6-1.2c0.2-0.1,0.6,0,0.8,0.1c2.8,1.4,5.8,2.2,9,2.1c2.6-0.1,5-0.9,7.3-2.1
			c0.5-0.3,0.9-0.3,1.3,0.1c0.4,0.3,0.8,0.6,1.2,1C397.3,41.6,389.6,41.7,382.6,37.6z"/>
		<path d="M426,37.7c1-1,1.8-1.5,3.4-0.7c2.4,1.3,5.1,1.8,7.9,1.7c2.6-0.1,5.1-0.8,7.4-2c0.6-0.3,0.9-0.3,1.4,0.1
			c0.3,0.3,0.7,0.6,1.1,0.9C440.5,41.6,433,41.7,426,37.7z"/>
		<path d="M533.8,37.6c-6.7,4-14.4,4-21.2,0c0.5-0.4,1-0.9,1.6-1.2c0.2-0.1,0.6,0,0.8,0.1c2.8,1.4,5.8,2.2,9,2.1
			c2.4-0.1,4.8-0.8,6.9-1.9c0.8-0.4,1.4-0.4,2,0.2C533.2,37.2,533.6,37.4,533.8,37.6z"/>
		<path d="M533.9,2.5c-0.6,0.4-1,0.9-1.6,1.2c-0.2,0.1-0.6,0-0.9-0.1c-2.8-1.4-5.8-2.2-9-2.1c-2.6,0.1-5,0.9-7.4,2.1
			c-0.5,0.3-0.9,0.3-1.3-0.1c-0.4-0.3-0.8-0.6-1.2-1C519.2-1.4,526.7-1.6,533.9,2.5z"/>
		<path d="M426,2.5c7-4,14.3-4,21.3,0c-0.6,0.4-1.1,0.9-1.7,1.3c-0.2,0.1-0.5,0-0.8-0.2c-2.8-1.4-5.8-2.2-9-2.1
			c-2.6,0.1-5,0.9-7.4,2.1c-0.5,0.3-0.9,0.3-1.3-0.1C426.8,3.1,426.4,2.9,426,2.5z"/>
		<path d="M469.3,2.5c6.9-4,14.3-4,21.2,0c-0.6,0.4-1.1,0.9-1.6,1.2c-0.2,0.1-0.5,0-0.8-0.1c-2.8-1.4-5.8-2.2-8.9-2.1
			c-2.6,0.1-5,0.8-7.3,2c-0.6,0.3-1,0.3-1.5-0.1C470.1,3.1,469.7,2.8,469.3,2.5z"/>
		<path d="M543.8,30.1c-0.7-0.3-1.4-0.6-2-1c-0.1-0.1-0.2-0.4-0.2-0.6c0-5.7,0-11.3,0-17c0-0.2,0.2-0.5,0.3-0.6
			c0.6-0.3,1.2-0.6,1.9-0.9C543.8,16.8,543.8,23.4,543.8,30.1z"/>
		<path d="M416,10c0.7,0.3,1.4,0.6,2,1c0.2,0.1,0.3,0.4,0.3,0.6c0,5.7,0,11.3,0,17c0,0.2-0.2,0.5-0.4,0.7c-0.6,0.3-1.2,0.6-1.8,0.9
			C416,23.4,416,16.8,416,10z"/>
		<path d="M550.4,27.8c0-5.2,0-10.2,0-15.4c0.7,0.6,1.4,1.1,2.1,1.7c0.1,0.1,0.1,0.4,0.1,0.6c0,3.6,0,7.2,0,10.8
			c0,0.3-0.2,0.7-0.4,1C551.6,26.9,551,27.3,550.4,27.8z"/>
		<path d="M409.4,27.8c-0.7-0.5-1.3-1-1.8-1.5c-0.2-0.1-0.3-0.4-0.3-0.7c0-3.7,0-7.4,0-11.1c0-0.2,0.1-0.5,0.3-0.7
			c0.6-0.5,1.2-0.9,1.8-1.5C409.4,17.5,409.4,22.6,409.4,27.8z"/>
		<path d="M507,27.8c0-5.2,0-10.2,0-15.4c0.7,0.6,1.4,1,1.9,1.5c0.1,0.1,0.2,0.4,0.2,0.6c0,3.7,0,7.4,0,11c0,0.2-0.1,0.6-0.3,0.7
			C508.3,26.8,507.7,27.2,507,27.8z"/>
		<path d="M452.8,27.8c-0.7-0.5-1.3-1-1.9-1.5c-0.2-0.1-0.2-0.4-0.2-0.6c0-3.7,0-7.4,0-11.1c0-0.2,0.1-0.5,0.3-0.7
			c0.6-0.5,1.2-0.9,1.9-1.5C452.8,17.5,452.8,22.6,452.8,27.8z"/>
		<path d="M496.1,12.4c0,5.2,0,10.2,0,15.4c-0.7-0.6-1.4-1.1-2-1.6c-0.1-0.1-0.2-0.4-0.2-0.6c0-3.7,0-7.4,0-11
			c0-0.2,0.1-0.6,0.3-0.7C494.8,13.3,495.4,12.9,496.1,12.4z"/>
		<path d="M463.7,12.5c0.1,0,0.1,0.1,0.1,0.1c2,1.3,2,1.3,2,3.7c0,3,0,6,0,9c0,0.6-0.2,1-0.7,1.4c-0.5,0.3-0.9,0.7-1.5,1.1
			C463.7,22.6,463.7,17.6,463.7,12.5z"/>
		<path d="M420.4,27.8c0-5.2,0-10.2,0-15.4c0.7,0.6,1.4,1.1,2,1.6c0.1,0.1,0.2,0.4,0.2,0.6c0,3.7,0,7.4,0,11c0,0.2-0.1,0.6-0.3,0.7
			C421.7,26.8,421.1,27.2,420.4,27.8z"/>
		<path d="M539.5,27.8c-0.7-0.6-1.3-1-1.9-1.5c-0.2-0.1-0.3-0.4-0.3-0.7c0-3.7,0-7.4,0-11c0-0.2,0.1-0.6,0.3-0.7
			c0.6-0.5,1.2-0.9,1.8-1.4C539.5,17.6,539.5,22.6,539.5,27.8z"/>
		<path d="M438.7,32.1c0.5-4.6,4.9-9.1,9.9-10.2c0,0.6,0,1.2,0,1.9c0,0.2-0.3,0.4-0.5,0.5c-2.8,1.1-4.9,3-6.4,5.6
			c-0.1,0.1-0.2,0.2-0.2,0.4C441.2,31.8,439.9,31.8,438.7,32.1z"/>
		<path d="M521.1,32.2c-0.7-0.3-1.4-0.4-2.1-0.7c-0.2-0.1-0.3-0.3-0.4-0.5c-1.3-3.1-3.6-5.2-6.7-6.5c-0.6-0.2-0.8-0.5-0.7-1.1
			c0-0.4,0-0.9,0-1.3C515.8,22.7,520.6,27.4,521.1,32.2z"/>
		<path d="M468,18.2c0-0.1,0-0.2,0-0.2c-0.1-1.2,0-2,1.4-2.6c2.8-1.2,4.9-3.4,6-6.3c0.1-0.1,0.2-0.3,0.3-0.4
			c0.7-0.3,1.4-0.5,2.1-0.7C477.4,12.2,473.2,17.1,468,18.2z"/>
		<path d="M405.3,22c0,0.6,0,1.2,0,1.8c0,0.2-0.3,0.4-0.5,0.5c-2.8,1.1-4.9,3.1-6.5,5.7c0,0.1-0.1,0.2-0.1,0.3
			c-0.3,1.6-1.6,1.6-2.7,1.9C395.5,28.3,399.8,23.1,405.3,22z"/>
		<path d="M482,8c0.8,0.3,1.5,0.5,2.2,0.8c0.2,0.1,0.3,0.3,0.3,0.5c1.3,3.1,3.6,5.2,6.6,6.5c0.6,0.3,0.8,0.5,0.8,1.1
			c-0.1,0.4,0,0.9,0,1.3C487.3,17.3,482.7,13,482,8z"/>
		<path d="M434.5,8c-0.6,4.7-5.1,9.3-9.9,10.2c0-0.6,0-1.2,0-1.8c0-0.2,0.3-0.4,0.5-0.5c2.8-1.1,4.9-3.1,6.5-5.7
			c0-0.1,0.1-0.2,0.1-0.3c0.2-0.4,0.3-1,0.6-1.2C432.9,8.4,433.7,8.2,434.5,8z"/>
		<path d="M448.6,18.2C443.1,17,439,12,438.8,8c0.7,0.2,1.4,0.5,2.1,0.7c0.2,0.1,0.3,0.3,0.3,0.5c1.3,3,3.5,5.2,6.5,6.5
			c0.7,0.3,1,0.6,0.9,1.3C448.5,17.4,448.6,17.8,448.6,18.2z"/>
		<path d="M477.8,32.2c-0.7-0.2-1.4-0.4-2-0.7c-0.2-0.1-0.4-0.3-0.5-0.5c-1.3-3.1-3.7-5.3-6.8-6.6c-0.4-0.2-0.7-0.4-0.6-0.9
			c0.1-0.5,0-1,0-1.5C472.6,22.7,477.5,27.8,477.8,32.2z"/>
		<path d="M525.3,8c0.8,0.3,1.5,0.5,2.2,0.8c0.2,0.1,0.3,0.3,0.3,0.5c1.3,3.1,3.6,5.2,6.6,6.5c0.6,0.3,0.8,0.5,0.8,1.1
			c-0.1,0.4,0,0.9,0,1.3C530.6,17.3,526.1,13,525.3,8z"/>
		<path d="M525.4,32.2c0.4-4.6,5.1-9.3,9.9-10.2c0,0.6,0,1.3,0,1.9c0,0.2-0.3,0.4-0.4,0.4c-2.8,1.1-5,3.1-6.5,5.7
			c0,0.1-0.1,0.1-0.1,0.2c-0.2,0.4-0.3,1-0.6,1.2C526.9,31.8,526.2,31.9,525.4,32.2z"/>
		<path d="M395.4,8c0.7,0.2,1.4,0.4,2,0.7c0.2,0.1,0.4,0.3,0.5,0.6c1.3,3.1,3.6,5.2,6.7,6.5c0.6,0.2,0.8,0.5,0.7,1.1
			c0,0.4,0,0.9,0,1.3C400.7,17.4,395.8,12.7,395.4,8z"/>
		<path d="M521.1,8c-0.3,4.1-4.4,9.1-9.8,10.2c0-0.1,0-0.1-0.1-0.2c-0.1-1.2,0-2,1.4-2.6c2.8-1.2,4.9-3.4,6-6.3
			c0.1-0.1,0.2-0.3,0.3-0.4C519.6,8.4,520.3,8.2,521.1,8z"/>
		<path d="M491.9,22c0,0.1,0,0.1,0,0.1c0.1,1.2,0,2-1.4,2.7c-2.8,1.2-4.9,3.4-6,6.3c-0.1,0.1-0.2,0.3-0.3,0.4
			c-0.7,0.3-1.4,0.5-2.1,0.7C482.5,27.8,486.7,23,491.9,22z"/>
		<path d="M434.4,32.2c-0.7-0.2-1.5-0.5-2.1-0.7c-0.2-0.1-0.3-0.4-0.4-0.6c-1.3-3-3.5-5.1-6.5-6.4c-0.7-0.3-1-0.6-0.9-1.3
			c0.1-0.4,0-0.8,0-1.2C429.2,22.8,433.9,27.3,434.4,32.2z"/>
		<path d="M391.2,8c-0.7,5.1-5.3,9.3-9.9,10.2c0-0.6,0-1.2,0-1.8c0-0.2,0.3-0.4,0.5-0.5c2.8-1.1,4.9-3.1,6.5-5.7
			c0-0.1,0.1-0.2,0.1-0.3c0.2-0.4,0.3-1,0.6-1.2C389.6,8.4,390.3,8.2,391.2,8z"/>
		<path d="M391.1,32.2c-0.8-0.3-1.4-0.4-2.1-0.7c-0.2-0.1-0.4-0.4-0.5-0.6c-1.3-3.1-3.6-5.1-6.5-6.5c-0.6-0.3-0.9-0.5-0.8-1.2
			c0.1-0.4,0-0.8,0-1.2C385.3,22.6,390.5,26.9,391.1,32.2z"/>
		<path d="M486.9,5.4c-0.1,0.1-0.1,0.1-0.1,0.2c-0.9,1.1-1.8,1.3-3.2,0.8c-2.7-1-5.5-0.7-8.2,0.3c-0.6,0.2-1.1,0.2-1.5-0.3
			c-0.3-0.3-0.6-0.6-0.9-0.8C476,3.1,483,3.1,486.9,5.4z"/>
		<path d="M429.6,5.4c4.7-2.3,9.3-2.3,14,0c-0.5,0.5-0.9,0.9-1.4,1.3c-0.2,0.1-0.5,0.1-0.8,0c-1.9-0.6-3.9-1.2-5.9-0.9
			c-1.2,0.2-2.4,0.5-3.6,0.9c-0.5,0.1-0.8,0.2-1.1-0.2C430.4,6,430,5.7,429.6,5.4z"/>
		<path d="M486.9,34.7c-3.3,2.3-10.4,2.3-13.9,0c0.4-0.4,0.9-0.9,1.3-1.2c0.2-0.1,0.5-0.1,0.8-0.1c1.3,0.3,2.5,0.7,3.8,0.9
			c1.9,0.3,3.8-0.1,5.5-0.8c0.7-0.3,1.2-0.2,1.6,0.4C486.3,34.3,486.6,34.5,486.9,34.7z"/>
		<path d="M400.2,5.4c-0.4,0.4-0.9,0.8-1.3,1.2c-0.2,0.1-0.5,0.1-0.7,0.1c-3.3-1.3-6.6-1.3-9.8,0c-0.2,0.1-0.6,0-0.8-0.2
			c-0.4-0.3-0.8-0.7-1.2-1.1C389.7,3.1,396.7,3.1,400.2,5.4z"/>
		<path d="M516.2,5.4c4.7-2.3,9.3-2.3,14,0c-0.5,0.5-0.9,0.9-1.4,1.3c-0.2,0.1-0.5,0.1-0.8,0c-1.9-0.7-3.9-1.1-5.9-0.8
			c-1.2,0.2-2.4,0.5-3.6,0.9c-0.5,0.1-0.8,0.2-1.2-0.2C517,6,516.6,5.7,516.2,5.4z"/>
		<path d="M429.6,34.8c0.9-1.2,1.9-1.5,3.4-0.9c2.7,1,5.5,0.7,8.2-0.3c0.7-0.2,1.1-0.2,1.5,0.3c0.3,0.3,0.6,0.6,0.9,0.8
			C440.3,37.1,433.3,37.1,429.6,34.8z"/>
		<path d="M530.2,34.8c-4.8,2.4-9.4,2.3-14,0c0.5-0.4,0.9-0.9,1.4-1.2c0.2-0.1,0.5-0.1,0.8,0c1.9,0.7,3.9,1.2,6,0.8
			c1.2-0.2,2.4-0.5,3.6-0.9c0.5-0.1,0.8-0.1,1.1,0.3C529.5,34.1,529.8,34.4,530.2,34.8z"/>
		<path d="M400.2,34.7c-3.4,2.3-10.5,2.3-13.9,0c0.4-0.4,0.9-0.9,1.3-1.2c0.2-0.1,0.5-0.1,0.8,0c1.3,0.3,2.5,0.7,3.8,0.9
			c1.9,0.3,3.8-0.1,5.5-0.8c0.7-0.2,1.1-0.2,1.6,0.3C399.6,34.2,399.9,34.5,400.2,34.7z"/>
	</g>
	<g>
		<path d="M609.7,8.6c2.1,6.8,4.4,9.2,11.3,11.4c-6,1.5-9.8,5.3-11.2,11.3c-1.5-6-5.2-9.8-11.4-11.4c3-0.6,5.4-1.9,7.5-4
			C607.9,14,609.2,11.6,609.7,8.6z M603.5,20.1c2.8,1.2,4.9,3.2,6.2,6c1.3-2.8,3.4-4.7,6-5.9c-1.1-0.8-2.4-1.5-3.4-2.5
			c-1-1-1.8-2.2-2.7-3.3C608.4,16.9,606.3,18.8,603.5,20.1z"/>
		<path d="M696.4,31.4c-1.5-6-5.2-9.8-11.2-11.3c6-1.5,9.8-5.3,11.2-11.3c1.5,6,5.2,9.8,11.3,11.3C701.6,21.6,697.9,25.4,696.4,31.4
			z M696.4,14.1c-1.3,2.8-3.4,4.7-6.2,5.9c2.8,1.3,4.9,3.2,6.2,5.9c2-3.4,2.6-3.9,6.2-6C699.9,18.8,697.8,16.9,696.4,14.1z"/>
		<path d="M555.2,20.1c6.1-1.5,9.8-5.3,11.3-11.3c1.5,6,5.2,9.8,11.2,11.3c-6,1.5-9.8,5.3-11.2,11.4C565,25.4,561.3,21.6,555.2,20.1
			z M566.4,14.1c-1.3,2.8-3.4,4.7-6.2,5.9c2.8,1.2,4.9,3.2,6.2,5.9c1.4-2.8,3.5-4.7,6.2-5.9C569.9,18.8,567.8,16.9,566.4,14.1z"/>
		<path d="M641.7,20c2.9-0.6,5.4-1.9,7.5-4c2-2.1,3.3-4.5,3.9-7.4c1.5,6.1,5.2,9.9,11.2,11.4c-1,0.4-2.1,0.6-3.1,1.1
			c-1,0.5-2,1.1-2.9,1.8c-0.9,0.7-1.7,1.5-2.3,2.4c-0.7,0.9-1.3,1.9-1.8,2.9c-0.5,1-0.8,2.1-1.1,3.1C651.6,25.4,647.9,21.6,641.7,20
			z M646.9,20.1c2.8,1.2,4.9,3.2,6.3,6c1.3-2.8,3.4-4.7,6.2-6c-2.8-1.2-4.9-3.2-6.2-5.9C651.8,16.9,649.7,18.8,646.9,20.1z"/>
		<path d="M601.9,10.6c-1.4-1.2-2.8-2.3-4.2-3.4c-2.7-2.1-5.7-3.8-8.9-4.9c-0.3-0.1-0.8-0.1-1.2,0c-4.5,1.6-8.4,4.2-11.9,7.3
			c-0.3,0.3-0.7,0.6-1,0.9c0,0-0.1,0-0.2,0.1c-0.4-0.6-0.9-1.2-1.4-1.9c1.1-0.9,2.1-1.9,3.3-2.8c3.5-2.6,7.2-4.8,11.4-6.2
			c0.3-0.1,0.6-0.1,0.9-0.1c5.5,1.9,10.4,4.8,14.6,8.9c0,0,0.1,0.1,0.1,0.2C602.7,9.4,602.3,10,601.9,10.6z"/>
		<path d="M617.7,10.6c-0.5-0.7-0.9-1.3-1.5-2c1.7-1.4,3.4-2.8,5.1-4c2.9-2.1,6.1-3.7,9.5-4.9c0.3-0.1,0.7-0.1,1,0
			c5.4,1.9,10.2,4.8,14.4,8.7c0.1,0.1,0.2,0.2,0.3,0.3c-0.3,0.4-0.5,0.7-0.8,1.1c-0.2,0.3-0.4,0.5-0.6,0.8c-0.9-0.8-1.8-1.6-2.8-2.4
			c-3.2-2.5-6.6-4.6-10.4-6c-0.3-0.1-0.8-0.1-1.1,0c-4.5,1.6-8.4,4.2-12,7.4C618.5,9.9,618.2,10.2,617.7,10.6z"/>
		<path d="M733.2,8.8c-0.5,0.6-0.9,1.2-1.3,1.7c-2.1-1.6-4.1-3.2-6.1-4.6c-2.2-1.5-4.6-2.8-7.1-3.7c-0.3-0.1-0.7-0.1-1,0
			c-4.6,1.7-8.6,4.3-12.2,7.5c-0.3,0.3-0.6,0.5-1,0.9c-0.5-0.7-0.9-1.2-1.5-2c1.8-1.4,3.4-2.8,5.2-4.1c2.9-2,6.1-3.7,9.5-4.8
			c0.3-0.1,0.6-0.1,0.9,0c5.5,1.9,10.3,4.8,14.5,8.8C733.1,8.6,733.1,8.6,733.2,8.8z"/>
		<path d="M689.8,8.7c-0.2,0.3-0.4,0.7-0.7,1c-0.2,0.3-0.5,0.6-0.7,0.9c-0.7-0.6-1.4-1.3-2.1-1.9c-3.3-2.7-6.9-5.1-11-6.5
			c-0.3-0.1-0.8-0.1-1.1,0c-4.6,1.6-8.5,4.3-12.1,7.5c-0.3,0.3-0.6,0.5-0.9,0.8c0,0-0.1,0-0.2,0.1c-0.2-0.3-0.5-0.6-0.7-0.9
			c-0.2-0.3-0.4-0.6-0.8-1.1c1.7-1.4,3.4-2.8,5.2-4c2.9-2,6.1-3.7,9.5-4.8c0.3-0.1,0.7-0.2,1-0.1c5.4,1.9,10.2,4.8,14.4,8.7
			C689.7,8.5,689.7,8.6,689.8,8.7z"/>
		<path d="M703,31.5c0.3-0.5,0.6-0.9,0.9-1.2c0.2-0.2,0.4-0.4,0.5-0.6c2,1.5,4,3.1,6,4.5c2.2,1.6,4.6,2.8,7.2,3.7
			c0.3,0.1,0.8,0.1,1.2,0c4.5-1.6,8.3-4.2,11.9-7.3c0.4-0.3,0.8-0.7,1.2-1.1c0.5,0.6,0.9,1.2,1.5,2c-1.7,1.4-3.4,2.8-5.1,4
			c-2.9,2.1-6.1,3.7-9.5,4.9c-0.3,0.1-0.7,0.1-1,0c-5.4-1.9-10.2-4.8-14.3-8.7C703.2,31.7,703.1,31.6,703,31.5z"/>
		<path d="M616.4,31.4c0.5-0.6,0.9-1.2,1.3-1.8c1.5,1.2,2.9,2.4,4.3,3.5c2.7,2,5.7,3.7,8.9,4.9c0.3,0.1,0.8,0.1,1.1,0
			c4.5-1.6,8.4-4.2,12-7.4c0.4-0.3,0.7-0.6,1.1-1c0.5,0.6,0.9,1.2,1.5,2c-1.7,1.4-3.4,2.8-5.2,4c-2.9,2.1-6.1,3.7-9.5,4.9
			c-0.3,0.1-0.6,0.1-0.9,0c-5.5-1.9-10.3-4.8-14.5-8.8C616.5,31.6,616.4,31.5,616.4,31.4z"/>
		<path d="M659.7,31.4c0.5-0.6,0.9-1.2,1.3-1.8c1.5,1.2,2.9,2.4,4.4,3.5c2.7,2,5.6,3.7,8.7,4.8c0.3,0.1,0.8,0.1,1.1,0
			c4.5-1.6,8.4-4.2,11.9-7.3c0.4-0.3,0.8-0.7,1.2-1.1c0.3,0.3,0.5,0.6,0.7,0.9c0.2,0.3,0.4,0.6,0.8,1.1c-1.7,1.4-3.4,2.8-5.2,4.1
			c-2.9,2-6,3.7-9.4,4.8c-0.3,0.1-0.7,0.2-1,0.1c-5.5-1.9-10.3-4.8-14.5-8.8C659.8,31.6,659.8,31.5,659.7,31.4z"/>
		<path d="M573,31.4c0.5-0.6,0.9-1.2,1.3-1.7c2.1,1.6,4.1,3.2,6.3,4.7c2.2,1.5,4.6,2.7,7.1,3.6c0.3,0.1,0.7,0.1,1,0
			c4.6-1.7,8.5-4.3,12.2-7.5c0.3-0.3,0.6-0.6,1-0.9c0.5,0.6,0.9,1.3,1.5,2c-1.7,1.4-3.4,2.8-5.2,4c-2.9,2-6.1,3.7-9.5,4.8
			c-0.3,0.1-0.7,0.2-1,0.1c-5.4-1.9-10.3-4.8-14.5-8.8C573.2,31.6,573.1,31.5,573,31.4z"/>
		<path d="M728.6,26.4c0.6,0.4,1.2,0.8,1.9,1.4c-1.4,1.2-2.8,2.3-4.2,3.4c-2.4,1.8-4.9,3.3-7.7,4.3c-0.3,0.1-0.6,0.2-0.9,0.1
			c-4.5-1.7-8.4-4.4-11.9-7.7c0-0.1,0-0.1,0.1-0.2c1.5-1.3,1.5-1.3,3.1-0.1c2.6,2.2,5.4,4,8.5,5.3c0.3,0.1,0.8,0.1,1.2,0
			c3.4-1.3,6.4-3.4,9.2-5.8C728.1,26.9,728.3,26.7,728.6,26.4z"/>
		<path d="M643.8,12.4c-0.7,0.5-1.3,0.9-1.8,1.3c-1.6-1.2-3.1-2.5-4.8-3.6c-1.6-1.1-3.4-1.9-5.2-2.8c-0.3-0.2-0.9-0.2-1.3,0
			c-3.4,1.3-6.4,3.4-9.1,5.8c-0.2,0.2-0.4,0.4-0.6,0.5c0,0-0.1,0-0.2,0.1c-0.6-0.4-1.1-0.8-1.8-1.3c0.9-0.8,1.7-1.6,2.6-2.3
			c2.8-2.2,5.8-4.2,9.2-5.5c0.3-0.1,0.7-0.2,1-0.1C636.3,6.4,640.2,9,643.8,12.4z"/>
		<path d="M687.1,12.4c-0.7,0.5-1.3,0.9-1.8,1.3c-1.7-1.2-3.2-2.5-4.8-3.6c-1.6-1.1-3.4-1.9-5.2-2.8c-0.3-0.2-0.9-0.1-1.2,0
			c-3.5,1.4-6.5,3.4-9.2,5.9c-0.5,0.4-0.8,0.5-1.3,0.1c-0.4-0.3-0.8-0.6-1.2-0.9c3.6-3.3,7.5-6,12-7.8c0.2-0.1,0.5-0.1,0.8,0
			C679.6,6.4,683.5,9,687.1,12.4z"/>
		<path d="M575.9,27.8c0,0,0-0.1,0.1-0.1c1.4-1.3,1.5-1.3,2.9-0.1c2.6,2.2,5.4,4.1,8.6,5.3c0.4,0.1,0.9,0.1,1.2,0
			c3.4-1.4,6.4-3.4,9.1-5.8c0.2-0.2,0.4-0.4,0.7-0.6c0.6,0.4,1.2,0.9,1.9,1.3c-1.8,1.8-3.7,3.3-5.8,4.6c-1.9,1.2-4,2.1-6,3.2
			c-0.2,0.1-0.6,0.2-0.8,0.1C584.4,34.5,578.2,30.4,575.9,27.8z"/>
		<path d="M707.6,13.7c-0.6-0.4-1.1-0.8-1.9-1.3c1.4-1.1,2.6-2.2,3.9-3.2c2.4-1.8,5.1-3.4,7.9-4.5c0.3-0.1,0.6-0.2,0.9-0.1
			c4.5,1.7,8.4,4.4,12,7.8c-0.7,0.5-1.3,0.9-1.7,1.2c-2.2-1.5-4.2-3.1-6.3-4.4c-1.2-0.8-2.5-1.3-3.8-1.9c-0.3-0.1-0.8-0.1-1.1,0
			c-3.4,1.3-6.4,3.4-9.1,5.7c-0.2,0.2-0.4,0.4-0.7,0.6C707.7,13.6,707.7,13.6,707.6,13.7z"/>
		<path d="M575.8,12.4c2.3-2.3,4.9-4.2,7.7-5.8c1.3-0.7,2.7-1.4,4.1-2c0.3-0.1,0.6-0.1,0.9,0c4.5,1.7,8.3,4.4,11.8,7.7
			c0,0,0,0.1,0.1,0.2c-0.6,0.4-1.2,0.8-1.7,1.2c-1.2-0.9-2.3-1.9-3.4-2.7c-2-1.5-4.2-2.8-6.6-3.7c-0.3-0.1-0.8-0.1-1.1,0
			c-3.5,1.4-6.5,3.4-9.3,5.9c-0.5,0.4-0.8,0.5-1.3,0.1C576.6,13,576.2,12.7,575.8,12.4z"/>
		<path d="M687.1,27.8c-3.6,3.3-7.5,6-12,7.8c-0.2,0.1-0.5,0.1-0.8,0c-4.5-1.8-8.4-4.4-11.9-7.8c0.6-0.5,1.2-0.9,1.8-1.3
			c1.2,1,2.3,1.9,3.5,2.8c2,1.5,4.1,2.8,6.4,3.6c0.4,0.1,0.9,0.2,1.3,0c3.4-1.4,6.5-3.4,9.2-5.9c0.5-0.5,0.9-0.5,1.4-0.1
			C686.3,27.2,686.7,27.4,687.1,27.8z"/>
		<path d="M641.9,26.4c0.6,0.4,1.2,0.9,1.9,1.4c-1.4,1.2-2.7,2.3-4.1,3.3c-2.4,1.8-5,3.3-7.8,4.4c-0.3,0.1-0.6,0.2-0.9,0.1
			c-4.5-1.7-8.4-4.4-11.9-7.7c0.1-0.1,0.1-0.2,0.1-0.2c1.5-1.3,1.5-1.3,3,0c2.6,2.2,5.4,4,8.5,5.3c0.4,0.1,0.9,0.1,1.3,0
			c3.4-1.4,6.4-3.4,9.1-5.8C641.4,26.9,641.7,26.7,641.9,26.4z"/>
		<path d="M630.3,30.1c-0.7-0.3-1.4-0.6-2-1c-0.2-0.1-0.3-0.5-0.3-0.7c0-4.3,0-8.6,0-12.9c0-1.2,0-2.5,0-3.7c0-0.5,0.1-0.8,0.6-0.9
			c0.6-0.2,1.1-0.5,1.7-0.8C630.3,16.8,630.3,23.4,630.3,30.1z"/>
		<path d="M719.2,10c0.7,0.3,1.4,0.6,2,1c0.2,0.1,0.3,0.5,0.3,0.7c0,4.8,0,9.7,0,14.5c0,0.8,0,1.5,0,2.2c0,0.3-0.2,0.6-0.4,0.7
			c-0.6,0.3-1.2,0.6-1.8,0.9C719.2,23.4,719.2,16.8,719.2,10z"/>
		<path d="M587,30.1c-0.7-0.3-1.4-0.6-2-1c-0.2-0.1-0.3-0.5-0.3-0.7c0-4.4,0-8.9,0-13.3c0-1.1,0-2.3,0-3.4c0-0.4,0.1-0.7,0.5-0.8
			c0.6-0.2,1.1-0.5,1.8-0.8C587,16.8,587,23.4,587,30.1z"/>
		<path d="M675.9,10c0.7,0.3,1.3,0.6,1.9,1c0.2,0.1,0.3,0.4,0.3,0.6c0,5.7,0,11.3,0,17c0,0.2-0.2,0.5-0.3,0.6
			c-0.6,0.3-1.2,0.6-1.9,0.9C675.9,23.4,675.9,16.8,675.9,10z"/>
		<path d="M673.6,30.1c-0.7-0.3-1.3-0.6-1.9-1c-0.2-0.1-0.3-0.4-0.3-0.6c0-5.7,0-11.3,0-17c0-0.2,0.1-0.5,0.3-0.6
			c0.6-0.3,1.2-0.6,2-1C673.6,16.7,673.6,23.3,673.6,30.1z"/>
		<path d="M632.5,30.1c0-6.7,0-13.4,0-20.1c0.7,0.4,1.4,0.7,2.1,1c0.1,0.1,0.2,0.4,0.2,0.6c0,5.6,0,11.3,0,16.9
			c0,0.2-0.1,0.5-0.3,0.6C633.9,29.5,633.3,29.8,632.5,30.1z"/>
		<path d="M642.5,37.6c0.5-0.4,1-0.8,1.6-1.2c0.2-0.1,0.6,0,0.8,0.1c2.8,1.4,5.8,2.2,9,2.1c2.4-0.1,4.8-0.8,7-1.9
			c0.8-0.4,1.4-0.5,2.1,0.2c0.2,0.2,0.5,0.4,0.8,0.6C659.1,41.5,647.3,41.5,642.5,37.6z"/>
		<path d="M555.8,2.5c7-4,14.3-4,21.3,0c-0.6,0.4-1.1,0.9-1.7,1.3c-0.2,0.1-0.5,0-0.8-0.2c-2.8-1.4-5.8-2.2-8.9-2.1
			c-2.5,0.1-4.8,0.8-7,1.9c-0.8,0.4-1.3,0.4-1.9-0.2C556.5,3,556.2,2.8,555.8,2.5z"/>
		<path d="M555.8,37.6c0.5-0.4,1-0.9,1.6-1.2c0.2-0.1,0.6,0,0.8,0.1c2.8,1.4,5.8,2.2,9,2.1c2.6-0.1,5-0.9,7.3-2.1
			c0.5-0.3,0.9-0.3,1.3,0.1c0.4,0.3,0.8,0.6,1.2,1C570.5,41.6,562.8,41.7,555.8,37.6z"/>
		<path d="M599.2,37.7c1-1,1.8-1.5,3.4-0.7c2.4,1.3,5.1,1.8,7.9,1.7c2.6-0.1,5.1-0.8,7.4-2c0.6-0.3,0.9-0.3,1.4,0.1
			c0.3,0.3,0.7,0.6,1.1,0.9C613.7,41.6,606.2,41.7,599.2,37.7z"/>
		<path d="M707,37.6c-6.7,4-14.4,4-21.2,0c0.5-0.4,1-0.9,1.6-1.2c0.2-0.1,0.6,0,0.8,0.1c2.8,1.4,5.8,2.2,9,2.1
			c2.4-0.1,4.8-0.8,6.9-1.9c0.8-0.4,1.4-0.4,2,0.2C706.4,37.2,706.7,37.4,707,37.6z"/>
		<path d="M707.1,2.5c-0.6,0.4-1,0.9-1.6,1.2c-0.2,0.1-0.6,0-0.9-0.1c-2.8-1.4-5.8-2.2-9-2.1c-2.6,0.1-5,0.9-7.4,2.1
			c-0.5,0.3-0.9,0.3-1.3-0.1c-0.4-0.3-0.8-0.6-1.2-1C692.4-1.4,699.9-1.6,707.1,2.5z"/>
		<path d="M599.1,2.5c7-4,14.3-4,21.3,0c-0.6,0.4-1.1,0.9-1.7,1.3c-0.2,0.1-0.5,0-0.8-0.2c-2.8-1.4-5.8-2.2-9-2.1
			c-2.6,0.1-5,0.9-7.4,2.1c-0.5,0.3-0.9,0.3-1.3-0.1C600,3.1,599.6,2.9,599.1,2.5z"/>
		<path d="M642.5,2.5c6.9-4,14.3-4,21.2,0c-0.6,0.4-1.1,0.9-1.6,1.2c-0.2,0.1-0.5,0-0.8-0.1c-2.8-1.4-5.8-2.2-8.9-2.1
			c-2.6,0.1-5,0.8-7.3,2c-0.6,0.3-1,0.3-1.5-0.1C643.3,3.1,642.9,2.8,642.5,2.5z"/>
		<path d="M717,30.1c-0.7-0.3-1.4-0.6-2-1c-0.1-0.1-0.2-0.4-0.2-0.6c0-5.7,0-11.3,0-17c0-0.2,0.2-0.5,0.3-0.6
			c0.6-0.3,1.2-0.6,1.9-0.9C717,16.8,717,23.4,717,30.1z"/>
		<path d="M589.2,10c0.7,0.3,1.4,0.6,2,1c0.2,0.1,0.3,0.4,0.3,0.6c0,5.7,0,11.3,0,17c0,0.2-0.2,0.5-0.4,0.7
			c-0.6,0.3-1.2,0.6-1.8,0.9C589.2,23.4,589.2,16.8,589.2,10z"/>
		<path d="M723.6,27.8c0-5.2,0-10.2,0-15.4c0.7,0.6,1.4,1.1,2.1,1.7c0.1,0.1,0.1,0.4,0.1,0.6c0,3.6,0,7.2,0,10.8
			c0,0.3-0.2,0.7-0.4,1C724.8,26.9,724.2,27.3,723.6,27.8z"/>
		<path d="M582.6,27.8c-0.7-0.5-1.3-1-1.8-1.5c-0.2-0.1-0.3-0.4-0.3-0.7c0-3.7,0-7.4,0-11.1c0-0.2,0.1-0.5,0.3-0.7
			c0.6-0.5,1.2-0.9,1.8-1.5C582.6,17.5,582.6,22.6,582.6,27.8z"/>
		<path d="M680.2,27.8c0-5.2,0-10.2,0-15.4c0.7,0.6,1.4,1,2,1.5c0.1,0.1,0.2,0.4,0.2,0.6c0,3.7,0,7.4,0,11c0,0.2-0.1,0.6-0.3,0.7
			C681.5,26.8,680.9,27.2,680.2,27.8z"/>
		<path d="M626,27.8c-0.7-0.5-1.3-1-1.9-1.5c-0.2-0.1-0.2-0.4-0.2-0.6c0-3.7,0-7.4,0-11.1c0-0.2,0.1-0.5,0.3-0.7
			c0.6-0.5,1.2-0.9,1.9-1.5C626,17.5,626,22.6,626,27.8z"/>
		<path d="M669.3,12.4c0,5.2,0,10.2,0,15.4c-0.7-0.6-1.4-1.1-2-1.6c-0.1-0.1-0.2-0.4-0.2-0.6c0-3.7,0-7.4,0-11
			c0-0.2,0.1-0.6,0.3-0.7C668,13.3,668.6,12.9,669.3,12.4z"/>
		<path d="M636.9,12.5c0.1,0,0.1,0.1,0.1,0.1c2,1.3,2,1.3,2,3.7c0,3,0,6,0,9c0,0.6-0.2,1-0.7,1.4c-0.5,0.3-0.9,0.7-1.5,1.1
			C636.9,22.6,636.9,17.6,636.9,12.5z"/>
		<path d="M593.6,27.8c0-5.2,0-10.2,0-15.4c0.7,0.6,1.4,1.1,2,1.6c0.1,0.1,0.2,0.4,0.2,0.6c0,3.7,0,7.4,0,11c0,0.2-0.1,0.6-0.3,0.7
			C594.9,26.8,594.3,27.2,593.6,27.8z"/>
		<path d="M712.6,27.8c-0.7-0.6-1.3-1-1.9-1.5c-0.2-0.1-0.3-0.4-0.3-0.7c0-3.7,0-7.4,0-11c0-0.2,0.1-0.6,0.3-0.7
			c0.6-0.5,1.2-0.9,1.8-1.4C712.6,17.6,712.6,22.6,712.6,27.8z"/>
		<path d="M611.9,32.1c0.5-4.6,4.9-9.1,9.9-10.2c0,0.6,0,1.2,0,1.9c0,0.2-0.3,0.4-0.5,0.5c-2.8,1.1-4.9,3-6.4,5.6
			c-0.1,0.1-0.2,0.2-0.2,0.4C614.4,31.8,613.1,31.8,611.9,32.1z"/>
		<path d="M694.3,32.2c-0.7-0.3-1.4-0.4-2.1-0.7c-0.2-0.1-0.3-0.3-0.4-0.5c-1.3-3.1-3.6-5.2-6.7-6.5c-0.6-0.2-0.8-0.5-0.7-1.1
			c0-0.4,0-0.9,0-1.3C689,22.7,693.8,27.4,694.3,32.2z"/>
		<path d="M641.1,18.2c0-0.1,0-0.2,0-0.2c-0.1-1.2,0-2,1.4-2.6c2.8-1.2,4.9-3.4,6-6.3c0.1-0.1,0.2-0.3,0.3-0.4
			c0.7-0.3,1.4-0.5,2.1-0.7C650.6,12.2,646.4,17.1,641.1,18.2z"/>
		<path d="M578.5,22c0,0.6,0,1.2,0,1.8c0,0.2-0.3,0.4-0.5,0.5c-2.8,1.1-4.9,3.1-6.5,5.7c0,0.1-0.1,0.2-0.1,0.3
			c-0.3,1.6-1.6,1.6-2.7,1.9C568.7,28.3,573,23.1,578.5,22z"/>
		<path d="M655.2,8c0.8,0.3,1.5,0.5,2.2,0.8c0.2,0.1,0.3,0.3,0.3,0.5c1.3,3.1,3.6,5.2,6.6,6.5c0.6,0.3,0.8,0.5,0.8,1.1
			c-0.1,0.4,0,0.9,0,1.3C660.5,17.3,655.9,13,655.2,8z"/>
		<path d="M607.7,8c-0.6,4.7-5.1,9.3-9.9,10.2c0-0.6,0-1.2,0-1.8c0-0.2,0.3-0.4,0.5-0.5c2.8-1.1,4.9-3.1,6.5-5.7
			c0-0.1,0.1-0.2,0.1-0.3c0.2-0.4,0.3-1,0.6-1.2C606.1,8.4,606.9,8.2,607.7,8z"/>
		<path d="M621.8,18.2c-5.5-1.2-9.6-6.2-9.8-10.2c0.7,0.2,1.4,0.5,2.1,0.7c0.2,0.1,0.3,0.3,0.3,0.5c1.3,3,3.5,5.2,6.5,6.5
			c0.7,0.3,1,0.6,0.9,1.3C621.7,17.4,621.8,17.8,621.8,18.2z"/>
		<path d="M651,32.2c-0.7-0.2-1.4-0.4-2-0.7c-0.2-0.1-0.4-0.3-0.5-0.5c-1.3-3.1-3.7-5.3-6.8-6.6c-0.4-0.2-0.7-0.4-0.6-0.9
			c0.1-0.5,0-1,0-1.5C645.7,22.7,650.7,27.8,651,32.2z"/>
		<path d="M698.5,8c0.8,0.3,1.5,0.5,2.2,0.8c0.2,0.1,0.3,0.3,0.3,0.5c1.3,3.1,3.6,5.2,6.6,6.5c0.6,0.3,0.8,0.5,0.8,1.1
			c-0.1,0.4,0,0.9,0,1.3C703.8,17.3,699.2,13,698.5,8z"/>
		<path d="M698.6,32.2c0.4-4.6,5.1-9.3,9.9-10.2c0,0.6,0,1.3,0,1.9c0,0.2-0.3,0.4-0.4,0.4c-2.8,1.1-5,3.1-6.5,5.7
			c0,0.1-0.1,0.1-0.1,0.2c-0.2,0.4-0.3,1-0.6,1.2C700.1,31.8,699.4,31.9,698.6,32.2z"/>
		<path d="M568.6,8c0.7,0.2,1.4,0.4,2,0.7c0.2,0.1,0.4,0.3,0.5,0.6c1.3,3.1,3.6,5.2,6.7,6.5c0.6,0.2,0.8,0.5,0.7,1.1
			c0,0.4,0,0.9,0,1.3C573.9,17.4,569,12.7,568.6,8z"/>
		<path d="M694.3,8c-0.3,4.1-4.4,9.1-9.8,10.2c0-0.1,0-0.1-0.1-0.2c-0.1-1.2,0-2,1.4-2.6c2.8-1.2,4.9-3.4,6-6.3
			c0.1-0.1,0.2-0.3,0.3-0.4C692.8,8.4,693.5,8.2,694.3,8z"/>
		<path d="M665,22c0,0.1,0,0.1,0,0.1c0.1,1.2,0,2-1.4,2.7c-2.8,1.2-4.9,3.4-6,6.3c-0.1,0.1-0.2,0.3-0.3,0.4
			c-0.7,0.3-1.4,0.5-2.1,0.7C655.6,27.8,659.9,23,665,22z"/>
		<path d="M607.6,32.2c-0.7-0.2-1.5-0.5-2.1-0.7c-0.2-0.1-0.3-0.4-0.4-0.6c-1.3-3-3.5-5.1-6.5-6.4c-0.7-0.3-1-0.6-0.9-1.3
			c0.1-0.4,0-0.8,0-1.2C602.4,22.8,607.1,27.3,607.6,32.2z"/>
		<path d="M564.3,8c-0.7,5.1-5.3,9.3-9.9,10.2c0-0.6,0-1.2,0-1.8c0-0.2,0.3-0.4,0.5-0.5c2.8-1.1,4.9-3.1,6.5-5.7
			c0-0.1,0.1-0.2,0.1-0.3c0.2-0.4,0.3-1,0.6-1.2C562.8,8.4,563.5,8.2,564.3,8z"/>
		<path d="M564.3,32.2c-0.8-0.3-1.4-0.4-2.1-0.7c-0.2-0.1-0.4-0.4-0.5-0.6c-1.3-3.1-3.6-5.1-6.5-6.5c-0.6-0.3-0.9-0.5-0.8-1.2
			c0.1-0.4,0-0.8,0-1.2C558.5,22.6,563.7,26.9,564.3,32.2z"/>
		<path d="M660.1,5.4C660,5.4,660,5.5,660,5.5c-0.9,1.1-1.8,1.3-3.2,0.8c-2.7-1-5.5-0.7-8.2,0.3c-0.6,0.2-1.1,0.2-1.5-0.3
			c-0.3-0.3-0.6-0.6-0.9-0.8C649.2,3.1,656.2,3.1,660.1,5.4z"/>
		<path d="M602.7,5.4c4.7-2.3,9.3-2.3,14,0c-0.5,0.5-0.9,0.9-1.4,1.3c-0.2,0.1-0.5,0.1-0.8,0c-1.9-0.6-3.9-1.2-5.9-0.9
			c-1.2,0.2-2.4,0.5-3.6,0.9c-0.5,0.1-0.8,0.2-1.1-0.2C603.6,6,603.2,5.7,602.7,5.4z"/>
		<path d="M660.1,34.7c-3.3,2.3-10.4,2.3-13.9,0c0.4-0.4,0.9-0.9,1.3-1.2c0.2-0.1,0.5-0.1,0.8-0.1c1.3,0.3,2.5,0.7,3.8,0.9
			c1.9,0.3,3.8-0.1,5.5-0.8c0.7-0.3,1.2-0.2,1.6,0.4C659.5,34.3,659.8,34.5,660.1,34.7z"/>
		<path d="M573.4,5.4c-0.4,0.4-0.9,0.8-1.3,1.2c-0.2,0.1-0.5,0.1-0.7,0.1c-3.3-1.3-6.6-1.3-9.8,0c-0.2,0.1-0.6,0-0.8-0.2
			c-0.4-0.3-0.8-0.7-1.2-1.1C562.9,3.1,569.9,3.1,573.4,5.4z"/>
		<path d="M689.4,5.4c4.7-2.3,9.3-2.3,14,0c-0.5,0.5-0.9,0.9-1.4,1.3c-0.2,0.1-0.5,0.1-0.8,0c-1.9-0.7-3.9-1.1-5.9-0.8
			c-1.2,0.2-2.4,0.5-3.6,0.9c-0.5,0.1-0.8,0.2-1.2-0.2C690.2,6,689.8,5.7,689.4,5.4z"/>
		<path d="M602.8,34.8c0.9-1.2,1.9-1.5,3.4-0.9c2.7,1,5.5,0.7,8.2-0.3c0.7-0.2,1.1-0.2,1.5,0.3c0.3,0.3,0.6,0.6,0.9,0.8
			C613.5,37.1,606.4,37.1,602.8,34.8z"/>
		<path d="M703.4,34.8c-4.8,2.4-9.4,2.3-14,0c0.5-0.4,0.9-0.9,1.4-1.2c0.2-0.1,0.5-0.1,0.8,0c1.9,0.7,3.9,1.2,6,0.8
			c1.2-0.2,2.4-0.5,3.6-0.9c0.5-0.1,0.8-0.1,1.1,0.3C702.7,34.1,703,34.4,703.4,34.8z"/>
		<path d="M573.4,34.7c-3.4,2.3-10.5,2.3-13.9,0c0.4-0.4,0.9-0.9,1.3-1.2c0.2-0.1,0.5-0.1,0.8,0c1.3,0.3,2.5,0.7,3.8,0.9
			c1.9,0.3,3.8-0.1,5.5-0.8c0.7-0.2,1.1-0.2,1.6,0.3C572.8,34.2,573.1,34.5,573.4,34.7z"/>
	</g>
	<g>
		<path d="M728.4,20.1c6.1-1.5,9.8-5.3,11.3-11.3c1.5,6,5.2,9.8,11.2,11.3c-6,1.5-9.8,5.3-11.2,11.4
			C738.2,25.4,734.5,21.6,728.4,20.1z M739.7,14.1c-1.3,2.8-3.4,4.7-6.2,5.9c2.8,1.2,4.9,3.2,6.2,5.9c1.4-2.8,3.5-4.7,6.2-5.9
			C743.1,18.8,741,16.9,739.7,14.1z"/>
		<path d="M775.1,10.6c-1.4-1.2-2.8-2.3-4.2-3.4c-2.7-2.1-5.7-3.8-8.9-4.9c-0.3-0.1-0.8-0.1-1.2,0c-4.5,1.6-8.4,4.2-11.9,7.3
			c-0.3,0.3-0.7,0.6-1,0.9c0,0-0.1,0-0.2,0.1c-0.4-0.6-0.9-1.2-1.4-1.9c1.1-0.9,2.1-1.9,3.3-2.8c3.5-2.6,7.2-4.8,11.4-6.2
			c0.3-0.1,0.6-0.1,0.9-0.1c5.5,1.9,10.4,4.8,14.6,8.9c0,0,0.1,0.1,0.1,0.2C776,9.4,775.5,10,775.1,10.6z"/>
		<path d="M746.3,31.4c0.5-0.6,0.9-1.2,1.3-1.7c2.1,1.6,4.1,3.2,6.3,4.7c2.2,1.5,4.6,2.7,7.1,3.6c0.3,0.1,0.7,0.1,1,0
			c4.6-1.7,8.5-4.3,12.2-7.5c0.3-0.3,0.6-0.6,1-0.9c0.5,0.6,0.9,1.3,1.5,2c-1.7,1.4-3.4,2.8-5.2,4c-2.9,2-6.1,3.7-9.5,4.8
			c-0.3,0.1-0.7,0.2-1,0.1c-5.4-1.9-10.3-4.8-14.5-8.8C746.4,31.6,746.4,31.5,746.3,31.4z"/>
		<path d="M749.1,27.8c0,0,0-0.1,0.1-0.1c1.4-1.3,1.5-1.3,2.9-0.1c2.6,2.2,5.4,4.1,8.6,5.3c0.4,0.1,0.9,0.1,1.2,0
			c3.4-1.4,6.4-3.4,9.1-5.8c0.2-0.2,0.4-0.4,0.7-0.6c0.6,0.4,1.2,0.9,1.9,1.3c-1.8,1.8-3.7,3.3-5.8,4.6c-1.9,1.2-4,2.1-6,3.2
			c-0.2,0.1-0.6,0.2-0.8,0.1C757.7,34.5,751.5,30.4,749.1,27.8z"/>
		<path d="M749,12.4c2.3-2.3,4.9-4.2,7.7-5.8c1.3-0.7,2.7-1.4,4.1-2c0.3-0.1,0.6-0.1,0.9,0c4.5,1.7,8.3,4.4,11.8,7.7
			c0,0,0,0.1,0.1,0.2c-0.6,0.4-1.2,0.8-1.7,1.2c-1.2-0.9-2.3-1.9-3.4-2.7c-2-1.5-4.2-2.8-6.6-3.7c-0.3-0.1-0.8-0.1-1.1,0
			c-3.5,1.4-6.5,3.4-9.3,5.9c-0.5,0.4-0.8,0.5-1.3,0.1C749.9,13,749.5,12.7,749,12.4z"/>
		<path d="M760.2,30.1c-0.7-0.3-1.4-0.6-2-1c-0.2-0.1-0.3-0.5-0.3-0.7c0-4.4,0-8.9,0-13.3c0-1.1,0-2.3,0-3.4c0-0.4,0.1-0.7,0.5-0.8
			c0.6-0.2,1.1-0.5,1.8-0.8C760.2,16.8,760.2,23.4,760.2,30.1z"/>
		<path d="M729.1,2.5c7-4,14.3-4,21.3,0c-0.6,0.4-1.1,0.9-1.7,1.3c-0.2,0.1-0.5,0-0.8-0.2c-2.8-1.4-5.8-2.2-8.9-2.1
			c-2.5,0.1-4.8,0.8-7,1.9c-0.8,0.4-1.3,0.4-1.9-0.2C729.7,3,729.4,2.8,729.1,2.5z"/>
		<path d="M729.1,37.6c0.5-0.4,1-0.9,1.6-1.2c0.2-0.1,0.6,0,0.8,0.1c2.8,1.4,5.8,2.2,9,2.1c2.6-0.1,5-0.9,7.3-2.1
			c0.5-0.3,0.9-0.3,1.3,0.1c0.4,0.3,0.8,0.6,1.2,1C743.7,41.6,736,41.7,729.1,37.6z"/>
		<path d="M762.5,10c0.7,0.3,1.4,0.6,2,1c0.2,0.1,0.3,0.4,0.3,0.6c0,5.7,0,11.3,0,17c0,0.2-0.2,0.5-0.4,0.7
			c-0.6,0.3-1.2,0.6-1.8,0.9C762.5,23.4,762.5,16.8,762.5,10z"/>
		<path d="M755.9,27.8c-0.7-0.5-1.3-1-1.8-1.5c-0.2-0.1-0.3-0.4-0.3-0.7c0-3.7,0-7.4,0-11.1c0-0.2,0.1-0.5,0.3-0.7
			c0.6-0.5,1.2-0.9,1.8-1.5C755.9,17.5,755.9,22.6,755.9,27.8z"/>
		<path d="M766.8,27.8c0-5.2,0-10.2,0-15.4c0.7,0.6,1.4,1.1,2,1.6c0.1,0.1,0.2,0.4,0.2,0.6c0,3.7,0,7.4,0,11c0,0.2-0.1,0.6-0.3,0.7
			C768.1,26.8,767.5,27.2,766.8,27.8z"/>
		<path d="M751.7,22c0,0.6,0,1.2,0,1.8c0,0.2-0.3,0.4-0.5,0.5c-2.8,1.1-4.9,3.1-6.5,5.7c0,0.1-0.1,0.2-0.1,0.3
			c-0.3,1.6-1.6,1.6-2.7,1.9C742,28.3,746.2,23.1,751.7,22z"/>
		<path d="M741.8,8c0.7,0.2,1.4,0.4,2,0.7c0.2,0.1,0.4,0.3,0.5,0.6c1.3,3.1,3.6,5.2,6.7,6.5c0.6,0.2,0.8,0.5,0.7,1.1
			c0,0.4,0,0.9,0,1.3C747.1,17.4,742.2,12.7,741.8,8z"/>
		<path d="M737.6,8c-0.7,5.1-5.3,9.3-9.9,10.2c0-0.6,0-1.2,0-1.8c0-0.2,0.3-0.4,0.5-0.5c2.8-1.1,4.9-3.1,6.5-5.7
			c0-0.1,0.1-0.2,0.1-0.3c0.2-0.4,0.3-1,0.6-1.2C736,8.4,736.8,8.2,737.6,8z"/>
		<path d="M737.6,32.2c-0.8-0.3-1.4-0.4-2.1-0.7c-0.2-0.1-0.4-0.4-0.5-0.6c-1.3-3.1-3.6-5.1-6.5-6.5c-0.6-0.3-0.9-0.5-0.8-1.2
			c0.1-0.4,0-0.8,0-1.2C731.8,22.6,736.9,26.9,737.6,32.2z"/>
		<path d="M746.7,5.4c-0.4,0.4-0.9,0.8-1.3,1.2c-0.2,0.1-0.5,0.1-0.7,0.1c-3.3-1.3-6.6-1.3-9.8,0c-0.2,0.1-0.6,0-0.8-0.2
			c-0.4-0.3-0.8-0.7-1.2-1.1C736.2,3.1,743.1,3.1,746.7,5.4z"/>
		<path d="M746.7,34.7c-3.4,2.3-10.5,2.3-13.9,0c0.4-0.4,0.9-0.9,1.3-1.2c0.2-0.1,0.5-0.1,0.8,0c1.3,0.3,2.5,0.7,3.8,0.9
			c1.9,0.3,3.8-0.1,5.5-0.8c0.7-0.2,1.1-0.2,1.6,0.3C746,34.2,746.3,34.5,746.7,34.7z"/>
	</g>
</g>
</svg>
