<?xml version="1.0" encoding="utf-8"?>
<!-- Generator: Adobe Illustrator 19.0.0, SVG Export Plug-In . SVG Version: 6.00 Build 0)  -->
<svg version="1.1" id="Layer_1" xmlns="http://www.w3.org/2000/svg" xmlns:xlink="http://www.w3.org/1999/xlink" x="0px" y="0px"
	 viewBox="0 0 240 14" style="enable-background:new 0 0 240 14;" xml:space="preserve">
<style type="text/css">
	.st0{fill:#0D0D0D;}
	.st1{fill:#F4F4F4;}
	.st2{fill:#FDFDFD;}
</style>
<g id="XMLID_169_">
	<path id="XMLID_272_" class="st0" d="M3.9,12.1c-1-1.6-1.8-3-2.7-4.3c-0.4-0.6-0.4-1,0-1.6C2.1,4.9,3,3.5,4,1.8c-1.2,0-2.1,0-3.1,0
		C0.6,1.8,0,2.1,0,1.5c0-0.6,0.6-0.4,0.9-0.4c5.3,0,10.6,0,15.9,0c10.1,0,20.2,0,30.3,0c16.7,0,33.3,0,50,0c12,0,24.1,0,36.1,0
		c20.9,0,41.8,0,62.7,0c3.9,0,7.7,0.2,11.6,0.1c10.4-0.2,20.8,0,31.2-0.1c0.2,0,0.4,0,0.6,0c0.3,0,0.5,0,0.5,0.4
		c0,0.4-0.3,0.3-0.5,0.3c-1.1,0-2.2,0-3.4,0c1,1.6,1.8,3,2.7,4.3c0.4,0.6,0.4,1.1,0,1.7c-0.9,1.3-1.7,2.7-2.7,4.3c1.1,0,2.1,0,3,0
		c0.3,0,0.9-0.3,0.9,0.3c0,0.7-0.6,0.4-1,0.4c-5.1,0-10.1,0-15.2,0c-8.1,0-16.2,0-24.2,0c-23.7,0-47.3,0-71,0c-22,0-44,0-66,0
		c-5.6,0-11.1-0.1-16.7-0.1c-14.9,0-29.8,0.1-44.7,0.1c-0.2,0-0.4,0-0.6,0C0.4,12.9,0,13,0,12.6c0-0.4,0.2-0.5,0.6-0.5
		C1.6,12.1,2.7,12.1,3.9,12.1z M181.1,10.7c0-0.5,0-0.8,0-1.1c0-2.4,0-4.7,0-7.1c0-0.7-0.4-0.7-0.9-0.7c-2,0-4,0-6.1,0
		c-0.7,0-0.9,0.2-0.9,0.9c0,1.9,0,3.8,0,5.7c0,1.2-0.6,2.9,0.2,3.5c0.7,0.6,2.3,0.2,3.5,0.2c1.2,0,2.4,0,3.9,0
		c-0.7-0.8-1.3-1.4-1.8-2c-0.2-0.2-0.4-0.4,0-0.7c0.3-0.2,0.5-0.5,0.8-0.1C180.2,9.7,180.5,10.1,181.1,10.7z M59.1,12.1
		c2.5,0,4.8,0,7.1,0c0.6,0,0.4-0.5,0.4-0.8c0-2.9,0-5.7,0-8.6c0-0.7-0.3-0.9-1-0.9c-1.9,0-3.9,0.1-5.8,0c-0.9,0-1.2,0.3-1.2,1.2
		c0.1,2.1,0.1,4.3,0.1,6.4c0,0.3-0.1,0.6,0.3,0.8c0.3,0.1,0.4-0.2,0.6-0.4c0.5-0.6,0.9-0.7,1.4,0C60.5,10.5,59.9,11.2,59.1,12.1z
		 M97.8,9.1c-0.7,0.8-1.2,1.4-1.7,2c-0.2,0.2-0.4,0.8-0.9,0.4c-0.6-0.5,0.1-0.7,0.3-1c0.7-0.9,1.9-1.7,1.9-2.5c0-1-1.5-1.5-2.3-2.2
		c-0.5-0.4-0.5-0.7-0.1-1.2c0.7-0.8,1.5-1.6,2.1-2.8c-0.6,0-1.2,0.1-1.6,0c-3-0.6-4.8,0.6-5.9,3.4c-0.6,1.3-0.6,2.2,0,3.5
		c1.1,2.8,2.8,3.8,5.8,3.4C97.9,11.9,97.9,12.1,97.8,9.1z M142.1,9.1c0,0.9,0.1,1.5,0,2c-0.1,0.9,0.2,1.1,1,1c1.3-0.1,2.5-0.1,3.8,0
		c1.1,0.1,1.9-0.2,2.3-1.3c0.5-1.1,1.1-2.2,1.7-3.2c0.2-0.4,0.3-0.7,0-1.2c-0.8-1.3-1.5-2.6-2.2-4c-0.2-0.3-0.3-0.7-0.7-0.7
		c-1.7,0-3.5,0-5.3,0c0.2,0.3,0.2,0.5,0.3,0.5c0.7,0.9,2,1.8,2,2.8c0,1-1.6,1.6-2.5,2.3c-0.6,0.5-0.4,0.7,0,1.1
		c0.7,0.7,1.3,1.4,1.9,2.2c0.2,0.2,0.5,0.5,0.1,0.8c-0.4,0.3-0.5-0.1-0.7-0.3C143.5,10.7,142.9,10,142.1,9.1z M186.3,3.4
		c0,2.5,0,5,0,7.7c0.6-0.7,1-1.4,1.6-1.7c0.9-0.5,1.1,0.7,1.7,1c0.3,0.2,1,0.4,0.4,1c-0.5,0.6-0.8,0-1.1-0.3
		c-0.5-0.6-0.9-0.5-1.2,0.1c-0.2,0.3-0.6,0.4-0.5,0.9c1.7,0,3.3,0,4.9,0c0.4,0,0.7,0,0.7-0.6c0-2.2,0-4.4,0-6.6c0-0.2,0-0.3-0.1-0.5
		c-1.1-2-3.5-3.1-6-2.5c0.9,0.4,1,2.4,2.5,0.8c0.2-0.3,0.4,0,0.6,0.2c0.3,0.3,0.2,0.5,0,0.7c-1.2,1.6-1.5,1.6-2.9,0.1
		C186.7,3.7,186.6,3.4,186.3,3.4z M53.7,3.2c-2,2-2,2-3.4,0.6c-0.2-0.2-0.7-0.4-0.2-0.8c0.3-0.3,0.6-0.3,1,0
		c0.3,0.3,0.6,0.8,1.1,0.1c0.3-0.4,0.7-0.7,1-1.1c0,0-0.1-0.2-0.1-0.3c-0.3-0.2-3,0-3.3,0.2c-0.7,0.7-1.5,1.4-2.2,2.1
		C47.3,4.3,47,4.6,47,5c0,2.1,0.1,4.3,0.1,6.4c0,0.3,0,0.7,0.4,0.7c1.8,0,3.6,0.3,5.5,0c-1-1.3-1-1.3-2.3-0.7
		c-0.3,0.1-0.5,0.1-0.7-0.1c-0.2-0.2-0.3-0.3-0.1-0.5c0.6-0.6,1.1-1.3,1.7-1.6c0.5-0.2,0.8,0.6,1.1,1.1c0.2,0.3,0.3,0.5,0.5,0.8
		c0.1-0.1,0.2-0.2,0.4-0.3C53.7,8.4,53.7,5.9,53.7,3.2z M227.9,6.9C227.9,6.9,227.9,6.9,227.9,6.9c0,1.4,0.1,2.9,0,4.3
		c0,0.7,0.1,1,0.9,0.9c2,0,4,0,5.9,0c0.7,0,0.8-0.3,0.8-0.9c0-2.9,0-5.7,0-8.6c0-0.8-0.3-0.9-1-0.9c-1.9,0-3.8,0.1-5.7,0
		c-0.9,0-1,0.3-1,1.1C227.9,4.2,227.9,5.6,227.9,6.9z M12,7c0-1.4,0-2.9,0-4.3c0-0.7-0.2-0.9-0.9-0.9c-2,0-4,0-5.9,0
		C4.6,1.8,4.4,2,4.4,2.7c0,2.9,0,5.8,0,8.7c0,0.6,0.2,0.8,0.8,0.8c2,0,4,0,6.1,0c0.7,0,0.8-0.3,0.8-0.9C12,9.8,12,8.4,12,7z
		 M158.2,1.8c0.5,0.4,0.7,0.6,0.9,0.8c0.8,0.8,2.5,1.3,2.4,2.3c-0.1,0.9-1.5,1.7-2.5,2.3c-1.7,1-1.9,2.5-1.8,4.2
		c0,0.5,0.2,0.7,0.7,0.7c1.3,0,2.7,0,4,0c0.5,0,0.8-0.1,0.7-0.7c0-3,0-6,0-9c0-0.5-0.2-0.7-0.7-0.7C161,1.8,159.8,1.8,158.2,1.8z
		 M81.5,2.1c0-0.1-0.1-0.2-0.1-0.3c-1.2,0-2.3,0-3.5,0c-0.6,0-0.8,0.2-0.8,0.8c0,2.9,0,5.9,0,8.8c0,0.6,0.2,0.7,0.7,0.7
		c1.3,0,2.6,0,3.9,0c0.2,0,0.6,0,0.7-0.2c0.4-0.4-0.1-3.3-0.5-3.8c-1.3-1.1-2.6-2.2-3.9-3.3C79.3,3.9,80.4,3,81.5,2.1z M105.9,1.8
		C105.9,1.8,105.9,1.8,105.9,1.8c-0.3,0-0.7,0-1,0c-1.1-0.2-1.6,0.2-1.5,1.5c0.1,1.8,0,3.5,0,5.3c0,1.2-0.5,2.7,0.2,3.4
		c0.7,0.6,2.2,0.1,3.4,0.2c1.3,0.2,1.3-0.6,1.2-1.5c0-0.4-0.3-0.7-0.6-0.9c-0.9-0.8-1.8-1.7-2.8-2.6c-0.5-0.4-0.4-0.7,0-1.1
		c1-0.9,1.9-1.8,2.9-2.6c0.5-0.4,0.6-0.9,0.4-1.3c-0.1-0.6-0.7-0.3-1.1-0.3C106.8,1.8,106.3,1.8,105.9,1.8z M136.6,6.9
		C136.6,6.9,136.6,6.9,136.6,6.9c0.1-1.5,0.1-2.9,0.1-4.4c0-0.5-0.1-0.8-0.7-0.7c-1,0.1-2.1,0-3.1,0.1c-0.4,0-0.9-0.3-1.1,0.5
		c-0.1,0.6,0,1,0.5,1.4c1,0.8,1.9,1.7,2.8,2.5c0.5,0.4,0.5,0.7,0,1.1c-0.9,0.8-1.8,1.8-2.8,2.5c-0.7,0.6-0.6,1.4-0.5,2.1
		c0.1,0.6,0.9,0.3,1.3,0.3c0.9,0.1,1.8,0,2.6,0c0.7,0,0.9-0.2,0.8-0.9C136.6,9.8,136.6,8.3,136.6,6.9z M140.4,5.6
		c-1.2-0.8-1.8-1.9-2.9-2.5c-0.3,1,0,1.6,0.7,2.2c0.6,0.5,1.1,1.1,1.7,1.6c0.4,0.4,0.6,0.8,0.1,1.8c-0.8-1.1-1.6-2.1-2.3-3
		c-0.1,0.1-0.2,0.2-0.3,0.3c0,1.8,0,3.6,0,5.4c0,1,0.7,0.8,1.1,0.7c0.9-0.3,2.6,0.9,2.7-0.6c0.3-3,0.1-6,0.1-9.1
		c0-0.3-0.1-0.6-0.4-0.6c-1,0-2,0-3.1,0C138.6,3.3,140.3,3.7,140.4,5.6z M41,1.9c0.9,0.8,1.6,1.6,2.4,2.3c1.2,1.1,1.2,1.1,0,2.2
		c-0.9,0.9-1.9,1.7-2.8,2.6c-0.2,0.2-0.7,0.4-0.2,0.8c1.4,1.3,2.5,2.8,4.8,2.5c0.8-0.1,1-0.4,0.9-1.1c-0.1-1-0.2-2.1,0-3.2
		c0.3-2.2-0.2-3.9-2.1-5.3C43.1,2,42.4,1.7,41,1.9z M41.3,12.1c-0.8-0.7-1.4-1.4-2.1-1.9c-0.6-0.5-0.7-0.8,0-1.4
		c1.1-0.9,2.1-1.9,3.2-2.9c0.5-0.4,0.6-0.7,0-1.2c-0.8-0.6-1.6-1.3-2.2-2.1c-0.8-0.9-1.7-0.9-2.9-0.7c0.5,0.5,0.9,0.9,1.3,1.2
		c0.2,0.2,0.8,0.4,0.3,0.9c-0.3,0.3-0.6,0.4-1,0c-0.1-0.2-0.2-0.5-0.6-0.3c0,1.6,0,3.2,0,4.8c0,1.2-0.5,2.8,0.2,3.4
		C38.3,12.5,39.8,12.1,41.3,12.1z M102.2,1.8c-0.9,0-1.7,0.1-2.5,0c-0.8-0.1-1,0.2-1,1c0,2.1,0,4.3,0,6.4c0,3.1,0,3.1,3.1,2.9
		c0,0,0.1,0,0.1,0c0.5,0,0.7-0.1,0.7-0.6c0-1.8,0-3.7,0-5.8c-1.1,1-1.9,1.8-2.8,2.6c-0.2-0.7-0.1-1.1,0.3-1.5c0.6-0.5,1.1-1,1.6-1.6
		c0.9-0.8,0.9-0.8,0.6-2.2c-0.9,0.8-1.7,1.6-2.7,2.5C99.6,3.7,101.5,3.3,102.2,1.8z M199.1,2c-1.2-0.2-2.2-0.4-2.9,0.6
		c-0.5,0.6-1.1,1.1-1.7,1.7c-0.3,0.3-0.5,0.6-0.5,1.1c0,2,0,4,0,6.1c0,0.3-0.1,0.6,0.3,0.8c0.9,0.4,2.9,0,3.6-0.7
		c0.6-0.7,1.3-1.3,1.7-1.7c-1.2-1.3-2.3-2.8-3.5-4c-0.6-0.6-0.4-0.7,0.1-1.2C197,3.8,198,3,199.1,2z M123.9,3.6
		c0.2,0.7,0.1,1-0.4,1.3c-0.8,0.5-1.5,1-2.2,1.5c-0.4,0.3-0.7,0.5-0.7,1.1c0.1,1.3,0,2.6,0,3.9c0,0.3-0.1,0.7,0.4,0.7
		c1,0,2.1,0,3.1,0c0.6,0,0.5-0.4,0.5-0.8c0-1.3,0-2.7,0-4c0-1.6,0-3.3,0-4.9c0-0.2,0-0.4-0.2-0.5c-0.2-0.1-0.3,0-0.4,0.1
		c-0.6,1.2-1.9,1.6-2.8,2.3c-0.5,0.4-0.8,0.7-0.5,1.4C121.8,5.1,122.8,4.4,123.9,3.6z M201.3,9.4c-0.8,0.9-1.8,1.6-2.5,2.7
		c0.5,0,0.9,0,1.3,0c2.6,0,2.6,0,2.6-2.6c0-1.9,0.4-3.9-0.1-5.8c-0.1,0.1-0.2,0.1-0.3,0.1c-0.3,0.3-0.6,0.8-1.1,0.2
		c-0.5-0.6,0.2-0.6,0.4-0.9c0.3-0.5,1-0.6,1.1-1.4c-0.9,0-1.7-0.4-2.4,0.3c-0.9,0.8-1.6,1.7-2.6,2.4c-0.9,0.7-0.7,1.2,0.1,1.7
		C199.1,7.1,200.1,8.3,201.3,9.4z M119.2,5.8c0.3-0.7-0.1-1.1-0.6-1.4c-0.9-0.6-1.8-1.2-2.7-1.9c-0.2-0.2,0-0.8-0.5-0.6
		c-0.4,0.1-0.2,0.6-0.2,0.9c0,2.3,0,4.5,0,6.8c0,2.6,0,2.5,2.5,2.6c1.3,0.1,1.6-0.3,1.7-1.6c0.2-2.6-0.3-4.6-2.9-5.6
		c-0.5-0.2-0.8-0.6-0.4-1.2C117.2,4.4,118.2,5.1,119.2,5.8z M203.9,3.7c-0.4,2.6,0.2,4.9-0.1,7.3c-0.1,1.2,0.4,1.4,1.4,1.3
		c0.2,0,0.5-0.1,0.7-0.1c0.8,0.1,1-0.3,1-1c-0.1-2.4,0-4.9,0-7.3c0-2.3,0-2.3-2.4-2.1c-0.2,0-0.5-0.1-0.6,0.2
		c-0.1,0.3,0.2,0.4,0.4,0.6c0.2,0.1,0.4,0.3,0.5,0.4c0.2,0.3,0.9,0.5,0.5,1.1C204.8,4.7,204.3,4.1,203.9,3.7z M36.3,2.2
		C36.2,2.1,36.1,2,36,1.8c-0.5,0-1,0.1-1.5,0c-1-0.1-1.4,0.2-1.3,1.3c0.1,2.3,0,4.6,0,6.9c0,2.3,0,2.3,2.3,2.2
		c0.5,0,0.8-0.1,0.7-0.7c0-2.5,0-5.1,0-7.6c-0.2,0-0.3,0-0.3,0.1c-0.3,0.4-0.7,0.6-1.1,0.1c-0.4-0.5,0.2-0.7,0.4-0.9
		C35.4,2.8,35.9,2.5,36.3,2.2z M156.5,7C156.5,7,156.5,7,156.5,7c0-1.4,0-2.8,0-4.2c0-0.4,0.2-0.9-0.4-1c-0.5-0.1-0.9,0-1.2,0.6
		c-0.7,1.3-1.4,2.7-2.2,4c-0.2,0.4-0.3,0.7-0.1,1.2c0.8,1.4,1.6,2.8,2.3,4.2c0.3,0.6,0.8,0.4,1.2,0.4c0.5,0,0.3-0.5,0.3-0.8
		C156.5,9.9,156.5,8.5,156.5,7z M83.4,7C83.5,7,83.5,7,83.4,7c0,1.4,0,2.8,0,4.2c0,0.3-0.3,0.9,0.4,1c0.5,0.1,0.9,0,1.2-0.6
		c0.7-1.3,1.4-2.6,2.2-4c0.2-0.3,0.3-0.5,0.1-0.9c-0.9-1.5-1.7-3-2.5-4.5c-0.2-0.5-0.6-0.3-1-0.3c-0.5,0-0.4,0.4-0.4,0.7
		C83.4,4,83.4,5.5,83.4,7z M226.8,4.5c-0.6-0.4-0.6,1-1.3,0.2c-0.6-0.7-0.1-1,0.3-1.5c0.3-0.4,0.8-0.7,1-1.4c-0.6,0-1.2,0-1.7,0
		c-0.8-0.1-1,0.2-1,1c0,2.8,0,5.5,0,8.3c0,1.9,1.4,0.7,2.1,1c0.4,0.2,0.7-0.1,0.7-0.6C226.8,9.1,226.8,6.7,226.8,4.5z M182.3,3.3
		c0,2.9,0,5.6,0,8.3c0,0.5,0.2,0.6,0.6,0.6c0.4,0,0.8,0,1.3,0c0.8,0.1,1-0.2,1-1c-0.1-2.4,0-4.9,0-7.3c0-2.1,0-2.1-2.1-2
		c-0.1,0-0.1,0.1-0.2,0.2c0.3,0.4,0.6,0.9,1,1.4c0.2,0.3,0.3,0.5,0,0.7c-0.3,0.2-0.5,0.3-0.8,0C182.8,4,182.6,3.8,182.3,3.3z
		 M208.1,12.2c1.7,0,3.1,0,4.5,0c0.5,0,0.5-0.3,0.5-0.6c0-3.1-0.1-6.1-0.1-9.2c0-0.3,0-0.5-0.4-0.6c-1.3,0-2.5,0-4.1,0
		c1.4,1,2.4,1.7,3.5,2.5c-1,0.9-2,1.7-3,2.5c0.8,0.6,1.5,1.2,2.3,1.7c0.7,0.5,0.9,0.8,0,1.4C210.3,10.6,209.2,11.1,208.1,12.2z
		 M57.8,3.5c-0.1-0.1-0.2-0.2-0.2-0.2c-0.3,0.5-0.8,1-1.3,0.6c-0.3-0.3,0.2-0.8,0.5-1.1c0.2-0.3,0.6-0.6,0.3-0.8
		c-0.5-0.4-1.2-0.2-1.8-0.2c-0.4,0-0.5,0.4-0.5,0.7c0,3,0.1,5.9,0.1,8.9c0,0.6,0.1,0.9,0.8,0.8c0.4,0,0.8,0,1.1,0.1
		c0.8,0.1,1.1-0.1,1.1-1C57.8,8.7,57.8,6.1,57.8,3.5z M27.8,9.3c1.1-0.9,2.1-1.7,3.1-2.5c-1.1-0.9-2.1-1.7-3.1-2.5
		c1.1-0.9,2.2-1.4,3.3-2.5c-1.3,0-2.3,0-3.4,0C27.2,1.8,27,2,27,2.6c0,3,0,6,0,9c0,0.4,0.1,0.6,0.5,0.6c1.3,0,2.6,0,3.9,0
		c0-0.1,0-0.2,0-0.2C30.3,11.1,29.1,10.2,27.8,9.3z M13.2,4.4c0,2.3,0,4.6,0,6.9c0,1.4,1,0.7,1.5,0.8c0.6,0.1,1.2,0.2,1.2-0.8
		c-0.1-2.3,0-4.7,0-7c0-2.5,0-2.5-2.5-2.4c-0.1,0-0.1,0.1-0.2,0.2c0.4,0.4,0.7,0.8,1.1,1.2c0.5,0.5,0.7,0.9,0.1,1.5
		C13.8,5.3,13.7,4.2,13.2,4.4z M114.2,1.8c-1.6,0-3,0-4.4,0c-0.6,0-0.7,0.2-0.7,0.8c0,2.9,0,5.9,0,8.8c0,0.7,0.8,1.1,1.3,0.7
		c0.4-0.3,0.2-0.7,0.2-1c-0.5-3.6,0.2-6.7,3.4-8.8C114,2.2,114,2.1,114.2,1.8z M17,8.8c0,0.3,0,0.6,0,0.9c0,2.7,0,2.6,2.6,2.5
		c0.6,0,0.7-0.2,0.7-0.7c0-1.6,0-3.2,0-4.8c0-0.9-1-2.2-1.7-2.1c-0.7,0-1.6,1.3-1.6,2.2C17,7.4,17,8.1,17,8.8z M223,8.7
		c0-0.8,0-1.6,0-2.4c0-1.2-0.9-1.4-1.7-1.8c-0.4-0.2-1.6,1.1-1.7,1.7c0,1.7,0,3.4,0,5.2c0,0.3-0.1,0.7,0.3,0.7
		c0.9,0,1.9,0.2,2.7-0.1c0.6-0.2,0.2-1.2,0.3-1.8C223.1,9.7,223,9.2,223,8.7z M125.9,3.1c-0.1,0.1-0.3,0.1-0.4,0.2
		c0,2.3,0,4.5,0,6.8c0,2.2,0,2.1,2.1,2.1c1,0,1.1-0.4,1.1-1.2c-0.1-0.8,0-1.7,0-2.5c-0.1-0.9,0.3-2-0.3-2.8
		C127.5,4.8,126.7,4,125.9,3.1z M114.4,3c-3,2.9-3,2.9-3,6.7c0,0.1,0,0.3,0,0.4c0,2.3,0.1,2.3,2.4,2.1c0.4,0,0.6-0.1,0.6-0.6
		C114.4,8.8,114.4,6.1,114.4,3z M214.1,4.3c0,2.7-0.1,5,0,7.3c0.1,1,1.1,0.3,1.7,0.5c0.4,0.1,0.9,0.1,0.9-0.6c0-2.3,0-4.5,0-6.8
		C215.6,6.6,214.9,5.4,214.1,4.3z M126,1.8c0,0.1-0.1,0.2-0.1,0.4c0.9,0.8,1.7,1.7,2.6,2.5c0.7,0.6,1,1.3,1,2.2c-0.1,1.5,0,3,0,4.5
		c0,0.5,0.1,0.8,0.7,0.8c0.5,0,0.7-0.1,0.7-0.7c0-3,0-6,0-8.9c0-0.4-0.1-0.7-0.6-0.7C128.8,1.8,127.4,1.8,126,1.8z M23.3,4.9
		c0,1.9,0,3.7,0,5.6c0,1.8,0,1.8,1.9,1.7c0.5,0,0.7-0.1,0.7-0.6c0-2.3,0-4.6,0-7.2C25.1,5.5,24.4,6.6,23.3,4.9z M172.4,6.9
		C172.5,6.9,172.5,6.9,172.4,6.9c0-1.3,0-2.6,0-3.9c0-0.6,0.2-1.3-0.9-1.2c-1,0-0.8,0.6-0.8,1.2c0,1.1,0,2.3,0,3.4
		c0,0.4-0.1,0.8,0.3,1.1c0.7,0.6,1.4,1.1-0.2,1.5c-0.1,0-0.1,0.4-0.1,0.6c0,0.6,0,1.3,0,1.9c0,0.6,0.2,0.8,0.8,0.8
		c0.6,0,0.9-0.1,0.9-0.8C172.4,9.9,172.4,8.4,172.4,6.9z M163.9,5.9c0,1.8,0.1,3.3,0,4.8c-0.1,1.1,0.2,1.5,1.4,1.5
		c1.7-0.1,1.7,0,1.7-1.7c0-0.7,0-1.3,0-2c0-0.4,0-0.7-0.4-1C165.7,7.1,164.9,6.5,163.9,5.9z M76,5.9C74.3,7,72.6,7.5,72.9,10
		c0.3,2.3,0.1,2.3,2.4,2.2c0.6,0,0.8-0.2,0.8-0.8C76,9.6,76,7.9,76,5.9z M71.9,7c0-1.4,0-2.9,0-4.3c0-0.6-0.2-0.9-0.8-0.9
		c-0.7,0-0.7,0.3-0.7,0.9c0,0.9,0.1,1.8,0,2.6c-0.2,0.9,1.1,0.8,1,1.4c-0.1,0.6-1.1,0.7-1,1.6c0.1,1,0.1,2,0,3
		c0,0.6,0.2,0.8,0.8,0.8c0.6,0,0.8-0.1,0.8-0.8C71.8,9.9,71.9,8.4,71.9,7z M67.5,7.1C67.5,7.1,67.5,7.1,67.5,7.1c0,1.4,0,2.9,0,4.3
		c0,0.6,0.1,0.8,0.7,0.8c0.6,0,0.9-0.1,0.9-0.8c-0.1-0.6-0.1-1.2,0-1.8c0.2-0.9-1.1-0.7-1-1.3c0.1-0.6,1.1-0.7,1-1.6
		c-0.1-1.3-0.1-2.7,0-4c0-0.7-0.3-0.8-0.9-0.8c-0.7,0-0.7,0.3-0.7,0.9C67.5,4.1,67.5,5.6,67.5,7.1z M168.1,7c0,1.5,0,2.9,0,4.4
		c0,0.5,0.1,0.7,0.7,0.7c0.7,0,1-0.2,0.9-0.9c-0.1-1.2,0.1-2.4-0.2-3.5c-0.2-0.7-1.7-1.2,0.1-1.8c0.1,0,0-0.3,0-0.5c0-1,0-1.9,0-2.9
		c0-0.6-0.2-0.8-0.8-0.8c-0.6,0-0.8,0.2-0.8,0.8C168.1,4.1,168.1,5.5,168.1,7z M73,6.5c0.8-0.5,1.4-0.8,1.9-1.2
		C76,4.7,76.5,3.6,76,2.3c-0.4-1-1.3-0.3-2-0.5c-0.8-0.2-1.1,0.1-1.1,1C73,4,73,5.2,73,6.5z M167,6.5c0-1,0-1.8,0-2.6
		c0-2.2-0.3-2.4-2.5-2.1c-0.3,0.1-0.5,0.1-0.6,0.5c-0.3,1.6,0,2.4,1.4,3.2C165.8,5.8,166.3,6.1,167,6.5z M22.3,6.9
		C22.3,6.9,22.3,6.9,22.3,6.9c0-1.3,0-2.7,0-4c0-0.4,0.3-1.1-0.5-1.1c-0.6,0-0.4,0.6-0.4,1c0,2.8,0,5.6,0,8.3c0,0.4-0.2,1,0.5,0.9
		c0.6,0,0.4-0.5,0.4-0.9C22.3,9.8,22.3,8.4,22.3,6.9z M154.2,1.8c-1.4,0-2.6,0-3.9,0c-0.6,0-0.7,0.2-0.4,0.7
		c0.6,1.1,1.2,2.3,1.9,3.5C152.7,4.6,153.4,3.3,154.2,1.8z M88.1,6c0.7-1.3,1.3-2.4,2-3.5c0.3-0.6,0.1-0.7-0.5-0.7c-1,0-2.1,0-3.1,0
		c-0.4,0-0.7,0.1-0.4,0.6C86.7,3.5,87.3,4.7,88.1,6z M154.2,12.1c-0.8-1.4-1.5-2.7-2.3-4.1c-0.8,1.4-1.5,2.7-2.3,4.1
		C151.2,12.1,152.6,12.1,154.2,12.1z M88.1,8c-0.8,1.3-1.5,2.5-2.1,3.7c-0.2,0.5,0.2,0.4,0.5,0.4c1.2,0,2.5,0,3.9,0
		C89.6,10.7,88.9,9.4,88.1,8z M217.7,7c0,1.5,0,2.9,0,4.4c0,0.3-0.2,0.7,0.4,0.8c0.5,0,0.4-0.4,0.4-0.7c0-2.9,0-5.9,0-8.8
		c0-0.3,0.1-0.8-0.4-0.8c-0.6,0-0.4,0.5-0.4,0.8C217.7,4.1,217.7,5.5,217.7,7z M160.2,4.9c-0.9-0.7-1.8-1.4-2.8-2.2c0,1.6,0,3,0,4.5
		C158.4,6.4,159.3,5.7,160.2,4.9z M108.2,4.2c-1,0.9-1.8,1.7-2.6,2.4c0.9,0.8,1.7,1.6,2.6,2.4C108.2,7.4,108.2,6,108.2,4.2z
		 M82.5,2.7c-0.9,0.7-1.6,1.3-2.4,1.9c-0.3,0.2-0.3,0.5,0,0.7c0.8,0.6,1.4,1.4,2.4,1.8C82.5,5.6,82.5,4.2,82.5,2.7z M131.6,4.2
		c0.3,1.8-0.3,3.3,0.3,4.8c0.7-0.7,1.4-1.3,2-1.9c0.3-0.2,0.5-0.4,0.1-0.8C133.3,5.7,132.6,5.1,131.6,4.2z M207.6,9.1
		c0.4,0.5-0.5,1.6,0.5,1.6c0.8,0,1.7-0.6,2.2-1.4c0.1-0.2-1.9-1.9-2.2-1.8C207.1,7.8,207.9,8.6,207.6,9.1z M210.6,4.3
		c-0.8-0.5-1.5-1-2.2-1.4c-0.2-0.1-0.4-0.4-0.7-0.2c-0.3,0.2-0.1,0.4-0.1,0.7c0,0.3,0,0.5,0,0.8c0.1,0.6-0.4,1.4,0.2,1.8
		c0.6,0.4,1-0.6,1.5-0.8C209.8,4.9,210.1,4.7,210.6,4.3z M97.8,2.6C97,3.5,96,4.2,95.9,5.1c0,0.6,1,1.2,1.9,1.5
		C97.8,5.3,97.8,4.1,97.8,2.6z M29.5,9.3c0.9,0.6,1.7,1.1,2.8,1.7c0-1.1,0-1.9,0-2.8c0-0.7-0.4-0.7-0.9-0.3
		C30.8,8.3,30.2,8.8,29.5,9.3z M29.5,4.3c0.8,0.6,1.4,1,2,1.5c0.5,0.4,0.8,0.3,0.8-0.3c0-0.9,0-1.8,0-2.8
		C31.2,3.3,30.4,3.7,29.5,4.3z M142.2,6.6c2.2-1,2.3-1.2,0.9-3c-0.2-0.3-0.5-0.6-0.9-1.1C142.2,4.1,142.2,5.3,142.2,6.6z M213.9,1.9
		c0.5,0.8,0.9,1.8,1.5,1.8c0.5,0,1-1,1.6-1.8C215.9,1.9,215,1.9,213.9,1.9z M26,1.9c-1,0-1.9,0-2.9,0C24.5,4.1,24.5,4.1,26,1.9z
		 M119.3,3.8c0-2.3-0.1-2.4-2.7-1.8C117.5,2.6,118.4,3.2,119.3,3.8z M120.7,3.8c0.9-0.6,1.8-1.1,2.6-1.9
		C120.6,1.7,120.6,1.7,120.7,3.8z M220.4,1.8c1,0.9,1,0.9,1.7,0C221.5,1.8,221.1,1.8,220.4,1.8z M48.4,1.9c-1.4-0.2-1.5-0.1-1.1,1.3
		C47.7,2.7,48.2,2.4,48.4,1.9z M46,3.1c0.1-1.4,0.1-1.4-1.3-1.1C45.2,2.4,45.6,2.7,46,3.1z M195.2,2c-0.4-0.3-0.9-0.3-1.2-0.1
		c-0.2,0.2-0.2,0.7,0,1.1C194.5,2.7,194.8,2.4,195.2,2z M192.6,3.1c0.2-1.5,0.2-1.5-0.8-1.1C192,2.3,192.3,2.6,192.6,3.1z M19.6,1.8
		c-0.7,0-1.1,0.1-1.7,0.1C18.5,2.8,19,2.6,19.6,1.8z"/>
	<path id="XMLID_268_" class="st1" d="M181.1,10.7c-0.6-0.6-0.9-1-1.3-1.3c-0.3-0.4-0.5-0.2-0.8,0.1c-0.3,0.3-0.2,0.5,0,0.7
		c0.6,0.6,1.1,1.2,1.8,2c-1.4,0-2.6,0-3.9,0c-1.2,0-2.8,0.4-3.5-0.2c-0.8-0.6-0.2-2.3-0.2-3.5c0-1.9,0-3.8,0-5.7
		c0-0.7,0.2-1,0.9-0.9c2,0,4,0,6.1,0c0.5,0,0.9,0,0.9,0.7c0,2.4,0,4.7,0,7.1C181.1,9.9,181.1,10.2,181.1,10.7z M176.5,6.3
		c-0.2-0.4,0-1.5-0.9-1c-0.7,0.4-1.5,1.1-1.8,1.8c-0.2,0.6,0.9,1,1.3,1.5c0.1,0.1,0.2,0.2,0.4,0.3c0.3,0.3,0.5,0,0.7-0.2
		c0.3-0.2,0.2-0.4,0-0.6c-0.2-0.2-0.5-0.4-0.7-0.7c-0.2-0.2-0.3-0.4-0.1-0.5c0.2-0.1,0.3-0.6,0.6-0.1c0.1,0.2,0.1,0.4,0.2,0.5
		c1.1,0.8,1.6,1.5,0.1,2.4c-0.3,0.2-0.1,0.4,0.1,0.6c0.2,0.3,0.4,0.4,0.7,0.1c0.5-0.5,1.1-1,1.7-1.5c0.2-0.2,0.3-0.4,0-0.6
		C178,7.6,177.5,6.7,176.5,6.3z"/>
	<path id="XMLID_264_" class="st1" d="M59.1,12.1c0.8-0.9,1.4-1.7,2-2.4c-0.5-0.7-0.9-0.5-1.4,0c-0.1,0.2-0.3,0.5-0.6,0.4
		c-0.4-0.1-0.3-0.5-0.3-0.8c-0.1-2.1-0.1-4.3-0.1-6.4c0-0.8,0.3-1.2,1.2-1.2c1.9,0.1,3.9,0.1,5.8,0c0.7,0,1,0.2,1,0.9
		c0,2.9,0,5.7,0,8.6c0,0.3,0.2,0.8-0.4,0.8C63.9,12.1,61.6,12.1,59.1,12.1z M63.2,6.4c-0.9,0.6-1.4,1.4-2.1,2.1c0,0,0.1,0.3,0.2,0.4
		c0.5,0.5,1,0.9,1.4,1.4c0.4,0.4,0.6,0.2,0.9-0.1c0.4-0.3,0.1-0.5-0.1-0.7c-1.2-0.7-0.9-1.4,0.1-2.1c0.2-0.2,0.4-0.3,0.2-0.6
		C63.6,6.7,63.4,6.5,63.2,6.4z M64.2,9.1C64.3,9,64.4,9,64.4,9c0.6-0.6,1.5-1,1.7-1.7c0.2-0.5-0.8-0.9-1.2-1.4
		c-0.1-0.1-0.2-0.2-0.4-0.3c-0.3-0.3-0.5-0.4-0.9-0.1c-0.5,0.5-0.1,0.7,0.2,0.9c0.9,0.6,0.9,1.1,0,1.7c-0.2,0.1-0.6,0.3-0.3,0.6
		C63.8,8.8,64,8.9,64.2,9.1z"/>
	<path id="XMLID_261_" class="st1" d="M97.8,9.1c0.1,3,0.1,2.8-2.5,3.1c-3,0.4-4.7-0.6-5.8-3.4c-0.5-1.3-0.5-2.2,0-3.5
		c1.2-2.8,2.9-4.1,5.9-3.4c0.5,0.1,1,0,1.6,0c-0.6,1.2-1.4,2-2.1,2.8c-0.4,0.5-0.4,0.8,0.1,1.2C96,6.5,97.4,7.1,97.4,8
		c0,0.8-1.3,1.7-1.9,2.5c-0.2,0.3-0.9,0.5-0.3,1c0.5,0.4,0.6-0.2,0.9-0.4C96.6,10.5,97.1,9.9,97.8,9.1z M91.5,9.1
		c0.1-0.1,0.2-0.1,0.3-0.1c0.8-0.7,1.5-1.4,2.3-2.1c0.4-0.3,0.1-0.5-0.1-0.7c-0.8-0.6-1.5-1.3-2.3-1.9c-0.2-0.2-0.4-0.4-0.6-0.1
		c-0.3,0.3,0,0.5,0.2,0.7c0.5,0.4,0.9,0.9,1.4,1.2c0.7,0.4,0.5,0.7,0,1.1c-0.5,0.4-0.9,0.8-1.4,1.3c-0.2,0.2-0.2,0.4,0,0.5
		C91.3,9.1,91.4,9.1,91.5,9.1z"/>
	<path id="XMLID_258_" class="st1" d="M142.1,9.1c0.8,0.9,1.3,1.5,1.9,2.2c0.2,0.2,0.3,0.5,0.7,0.3c0.4-0.3,0.1-0.6-0.1-0.8
		c-0.6-0.7-1.2-1.5-1.9-2.2c-0.4-0.4-0.5-0.6,0-1.1c0.9-0.7,2.5-1.3,2.5-2.3c0-0.9-1.3-1.9-2-2.8c-0.1-0.1-0.1-0.2-0.3-0.5
		c1.9,0,3.6,0,5.3,0c0.4,0,0.5,0.4,0.7,0.7c0.7,1.3,1.4,2.7,2.2,4c0.3,0.4,0.2,0.8,0,1.2c-0.6,1.1-1.3,2.1-1.7,3.2
		c-0.5,1.1-1.2,1.4-2.3,1.3c-1.3-0.1-2.5-0.1-3.8,0c-0.8,0-1.2-0.2-1-1C142.2,10.6,142.1,10,142.1,9.1z M145.6,6.6
		c0.9,0.8,1.7,1.6,2.5,2.3c0.2,0.2,0.5,0.4,0.7,0.1c0.2-0.3-0.1-0.4-0.2-0.6c-0.5-0.7-1.7-1-1.6-1.8c0.1-0.6,1.1-1.1,1.7-1.7
		c0.2-0.2,0.6-0.3,0.2-0.7c-0.3-0.3-0.5-0.1-0.7,0.1C147.5,5,146.6,5.8,145.6,6.6z"/>
	<path id="XMLID_84_" class="st1" d="M186.3,3.4c0.3,0,0.4,0.3,0.6,0.4c1.4,1.5,1.6,1.4,2.9-0.1c0.2-0.3,0.4-0.5,0-0.7
		c-0.2-0.2-0.4-0.4-0.6-0.2c-1.4,1.6-1.6-0.3-2.5-0.8c2.5-0.6,4.9,0.5,6,2.5c0.1,0.1,0.1,0.3,0.1,0.5c0,2.2,0,4.4,0,6.6
		c0,0.6-0.3,0.6-0.7,0.6c-1.6,0-3.3,0-4.9,0c-0.1-0.5,0.4-0.6,0.5-0.9c0.3-0.6,0.7-0.7,1.2-0.1c0.3,0.3,0.6,0.8,1.1,0.3
		c0.6-0.6-0.1-0.9-0.4-1c-0.6-0.3-0.8-1.5-1.7-1c-0.6,0.3-1,1-1.6,1.7C186.3,8.3,186.3,5.9,186.3,3.4z"/>
	<path id="XMLID_83_" class="st1" d="M53.7,3.2c0,2.7,0,5.2,0,7.7c-0.1,0.1-0.2,0.2-0.4,0.3c-0.2-0.3-0.3-0.6-0.5-0.8
		c-0.3-0.5-0.6-1.3-1.1-1.1c-0.7,0.3-1.2,1-1.7,1.6c-0.2,0.2-0.1,0.4,0.1,0.5c0.2,0.2,0.4,0.2,0.7,0.1c1.3-0.6,1.3-0.6,2.3,0.7
		c-1.9,0.3-3.7,0-5.5,0c-0.4,0-0.4-0.4-0.4-0.7c0-2.1-0.1-4.3-0.1-6.4c0-0.4,0.2-0.7,0.5-1C48.3,3.4,49,2.7,49.7,2
		c0.3-0.3,3-0.5,3.3-0.2c0.1,0.1,0.2,0.3,0.1,0.3c-0.3,0.4-0.7,0.7-1,1.1c-0.5,0.7-0.8,0.1-1.1-0.1c-0.4-0.3-0.6-0.3-1,0
		c-0.4,0.4,0,0.6,0.2,0.8C51.7,5.2,51.7,5.2,53.7,3.2z"/>
	<path id="XMLID_253_" class="st1" d="M227.9,6.9c0-1.3,0-2.7,0-4c0-0.8,0.1-1.1,1-1.1c1.9,0.1,3.8,0,5.7,0c0.7,0,1,0.1,1,0.9
		c0,2.9,0,5.7,0,8.6c0,0.6-0.1,0.9-0.8,0.9c-2,0-4-0.1-5.9,0c-0.8,0-0.9-0.3-0.9-0.9C228,9.8,227.9,8.4,227.9,6.9
		C227.9,6.9,227.9,6.9,227.9,6.9z M231.5,11.2c1.1-1.3,2.1-2.6,3.1-3.9c0.3-0.3,0.4-0.6,0-1c-0.9-1.2-1.8-2.4-2.8-3.6
		c-1,1.4-2,2.8-3,4.1c-0.3,0.4-0.2,0.7,0,1C229.8,8.9,230.6,10,231.5,11.2z"/>
	<path id="XMLID_250_" class="st1" d="M12,7c0,1.4,0,2.9,0,4.3c0,0.6-0.1,0.9-0.8,0.9c-2,0-4,0-6.1,0c-0.6,0-0.8-0.2-0.8-0.8
		c0-2.9,0-5.8,0-8.7c0-0.7,0.2-0.9,0.9-0.9c2,0,4,0,5.9,0C11.8,1.8,12,2,12,2.7C12,4.1,12,5.5,12,7z M8.1,2.7C8,2.9,7.9,3,7.8,3.2
		C7,4.2,6.2,5.3,5.4,6.2C5,6.7,5.1,7,5.4,7.3c0.9,1.1,1.7,2.2,2.5,3.3c0.4,0.6,0.6,0.4,1,0c0.7-1,1.4-1.9,2.2-2.8
		c0.4-0.4,0.3-0.7,0-1.1c-0.8-1.2-1.7-2.3-2.5-3.5C8.4,3.1,8.3,2.9,8.1,2.7z"/>
	<path id="XMLID_78_" class="st1" d="M158.2,1.8c1.5,0,2.8,0,4,0c0.5,0,0.7,0.2,0.7,0.7c0,3,0,6,0,9c0,0.6-0.2,0.7-0.7,0.7
		c-1.3,0-2.7,0-4,0c-0.5,0-0.7-0.2-0.7-0.7c-0.1-1.7,0-3.2,1.8-4.2c1-0.6,2.4-1.5,2.5-2.3c0.1-0.9-1.6-1.5-2.4-2.3
		C158.9,2.4,158.7,2.3,158.2,1.8z"/>
	<path id="XMLID_77_" class="st1" d="M81.5,2.1c-1.1,0.9-2.3,1.9-3.4,2.8C79.4,6,80.7,7.1,82,8.2c0.5,0.4,0.9,3.4,0.5,3.8
		c-0.1,0.1-0.5,0.2-0.7,0.2c-1.3,0-2.6,0-3.9,0c-0.5,0-0.7-0.1-0.7-0.7c0-2.9,0-5.9,0-8.8c0-0.6,0.2-0.8,0.8-0.8c1.2,0,2.3,0,3.5,0
		C81.5,1.9,81.5,2,81.5,2.1z"/>
	<path id="XMLID_76_" class="st1" d="M105.9,1.8c0.4,0,0.8,0,1.3,0c0.4,0,0.9-0.3,1.1,0.3c0.1,0.5,0,1-0.4,1.3
		c-1,0.8-1.9,1.8-2.9,2.6c-0.5,0.4-0.5,0.6,0,1.1c1,0.8,1.8,1.7,2.8,2.6c0.3,0.3,0.6,0.5,0.6,0.9c0.1,0.9,0.1,1.7-1.2,1.5
		c-1.2-0.2-2.7,0.3-3.4-0.2c-0.7-0.6-0.2-2.2-0.2-3.4c0-1.8,0.1-3.5,0-5.3c-0.1-1.3,0.4-1.6,1.5-1.5C105.2,1.9,105.6,1.8,105.9,1.8
		C105.9,1.8,105.9,1.8,105.9,1.8z"/>
	<path id="XMLID_75_" class="st1" d="M136.6,6.9c0,1.5,0,2.9,0,4.4c0,0.6-0.2,0.9-0.8,0.9c-0.9,0-1.8,0.1-2.6,0
		c-0.4,0-1.2,0.3-1.3-0.3c-0.1-0.7-0.3-1.5,0.5-2.1c1-0.8,1.9-1.7,2.8-2.5c0.4-0.4,0.5-0.7,0-1.1c-1-0.8-1.9-1.7-2.8-2.5
		c-0.5-0.4-0.6-0.8-0.5-1.4c0.2-0.7,0.7-0.4,1.1-0.5c1-0.1,2.1,0,3.1-0.1c0.6,0,0.7,0.2,0.7,0.7C136.6,3.9,136.6,5.4,136.6,6.9
		C136.6,6.9,136.6,6.9,136.6,6.9z"/>
	<path id="XMLID_74_" class="st1" d="M140.4,5.6c-0.1-1.9-1.8-2.4-2.7-3.8c1.1,0,2.1,0,3.1,0c0.4,0,0.4,0.3,0.4,0.6
		c0,3,0.2,6.1-0.1,9.1c-0.2,1.5-1.8,0.3-2.7,0.6c-0.4,0.1-1.1,0.3-1.1-0.7c0.1-1.8,0-3.6,0-5.4c0.1-0.1,0.2-0.2,0.3-0.3
		c0.7,1,1.4,1.9,2.3,3c0.5-1,0.3-1.4-0.1-1.8c-0.6-0.5-1.1-1.1-1.7-1.6c-0.7-0.6-1-1.2-0.7-2.2C138.6,3.8,139.2,4.9,140.4,5.6z"/>
	<path id="XMLID_73_" class="st1" d="M41,1.9c1.3-0.3,2.1,0.1,3,0.8c1.9,1.4,2.4,3.1,2.1,5.3c-0.2,1,0,2.1,0,3.2
		c0,0.7-0.1,1-0.9,1.1c-2.3,0.3-3.4-1.3-4.8-2.5c-0.4-0.4,0-0.6,0.2-0.8c0.9-0.9,1.9-1.7,2.8-2.6c1.2-1.1,1.1-1.1,0-2.2
		C42.7,3.5,41.9,2.8,41,1.9z"/>
	<path id="XMLID_72_" class="st1" d="M41.3,12.1c-1.5,0-3,0.4-3.8-0.1c-0.8-0.6-0.2-2.2-0.2-3.4c0-1.6,0-3.2,0-4.8
		c0.4-0.2,0.5,0.1,0.6,0.3c0.3,0.4,0.6,0.3,1,0c0.5-0.5-0.1-0.6-0.3-0.9c-0.4-0.4-0.8-0.7-1.3-1.2c1.2-0.2,2.1-0.2,2.9,0.7
		c0.6,0.8,1.4,1.4,2.2,2.1c0.5,0.4,0.5,0.7,0,1.2c-1.1,0.9-2.1,2-3.2,2.9c-0.7,0.6-0.6,0.9,0,1.4C39.9,10.7,40.5,11.3,41.3,12.1z"/>
	<path id="XMLID_71_" class="st1" d="M102.2,1.8c-0.7,1.5-2.6,1.8-2.6,3.8c1-0.9,1.8-1.7,2.7-2.5c0.3,1.4,0.3,1.4-0.6,2.2
		c-0.5,0.5-1.1,1.1-1.6,1.6c-0.4,0.4-0.6,0.8-0.3,1.5c0.9-0.8,1.7-1.6,2.8-2.6c0,2.1,0,3.9,0,5.8c0,0.5-0.2,0.7-0.7,0.6
		c0,0-0.1,0-0.1,0c-3.1,0.2-3.1,0.2-3.1-2.9c0-2.1,0-4.3,0-6.4c0-0.8,0.2-1,1-1C100.5,1.9,101.3,1.8,102.2,1.8z"/>
	<path id="XMLID_70_" class="st1" d="M199.1,2c-1.1,1-2.1,1.9-3,2.7c-0.5,0.4-0.7,0.5-0.1,1.2c1.3,1.2,2.4,2.6,3.5,4
		c-0.4,0.4-1,1-1.7,1.7c-0.7,0.7-2.7,1.1-3.6,0.7c-0.4-0.2-0.3-0.5-0.3-0.8c0-2,0-4,0-6.1c0-0.5,0.1-0.8,0.5-1.1
		c0.6-0.5,1.3-1,1.7-1.7C196.9,1.5,197.8,1.8,199.1,2z"/>
	<path id="XMLID_69_" class="st1" d="M123.9,3.6c-1.1,0.8-2.1,1.4-3.1,2.1c-0.3-0.7,0-1,0.5-1.4c1-0.7,2.3-1.1,2.8-2.3
		c0.1-0.2,0.2-0.2,0.4-0.1c0.2,0.1,0.2,0.3,0.2,0.5c0,1.6,0,3.3,0,4.9c0,1.3,0,2.7,0,4c0,0.4,0.1,0.8-0.5,0.8c-1,0-2.1,0-3.1,0
		c-0.5,0-0.4-0.4-0.4-0.7c0-1.3,0-2.6,0-3.9c0-0.6,0.3-0.8,0.7-1.1c0.7-0.5,1.4-1,2.2-1.5C124,4.6,124.1,4.3,123.9,3.6z"/>
	<path id="XMLID_68_" class="st1" d="M201.3,9.4c-1.2-1.1-2.2-2.4-3.5-3.3c-0.8-0.5-1-1-0.1-1.7c0.9-0.7,1.7-1.6,2.6-2.4
		c0.7-0.7,1.5-0.2,2.4-0.3c-0.1,0.8-0.8,0.9-1.1,1.4c-0.2,0.3-1,0.3-0.4,0.9c0.5,0.6,0.8,0.1,1.1-0.2c0.1,0,0.1-0.1,0.3-0.1
		c0.5,1.9,0.1,3.9,0.1,5.8c0,2.6,0,2.6-2.6,2.6c-0.4,0-0.7,0-1.3,0C199.5,11,200.4,10.3,201.3,9.4z"/>
	<path id="XMLID_67_" class="st1" d="M119.2,5.8c-1-0.7-2.1-1.4-3.1-2.1c-0.4,0.6-0.1,1,0.4,1.2c2.6,1.1,3.1,3,2.9,5.6
		c-0.1,1.3-0.4,1.7-1.7,1.6c-2.5-0.1-2.5,0-2.5-2.6c0-2.3,0-4.5,0-6.8c0-0.3-0.2-0.8,0.2-0.9c0.6-0.2,0.3,0.4,0.5,0.6
		c0.9,0.7,1.8,1.3,2.7,1.9C119.2,4.7,119.6,5,119.2,5.8z"/>
	<path id="XMLID_66_" class="st1" d="M203.9,3.7c0.5,0.4,0.9,1,1.4,0.3c0.4-0.6-0.3-0.7-0.5-1.1c-0.1-0.2-0.3-0.3-0.5-0.4
		c-0.2-0.2-0.5-0.3-0.4-0.6c0.1-0.3,0.4-0.2,0.6-0.2c2.4-0.2,2.4-0.2,2.4,2.1c0,2.4,0,4.9,0,7.3c0,0.8-0.2,1.1-1,1
		c-0.2,0-0.5,0-0.7,0.1c-1,0.1-1.5-0.1-1.4-1.3C204,8.6,203.5,6.3,203.9,3.7z"/>
	<path id="XMLID_65_" class="st1" d="M36.3,2.2c-0.4,0.3-0.9,0.5-1.2,0.9c-0.2,0.2-0.8,0.4-0.4,0.9c0.4,0.5,0.8,0.3,1.1-0.1
		c0,0,0.1,0,0.3-0.1c0,2.6,0,5.1,0,7.6c0,0.6-0.2,0.7-0.7,0.7c-2.3,0.1-2.3,0.1-2.3-2.2c0-2.3,0.1-4.6,0-6.9c0-1.1,0.3-1.4,1.3-1.3
		c0.5,0.1,1,0,1.5,0C36.1,2,36.2,2.1,36.3,2.2z"/>
	<path id="XMLID_64_" class="st1" d="M156.5,7c0,1.4,0,2.9,0,4.3c0,0.3,0.2,0.8-0.3,0.8c-0.4,0-0.9,0.2-1.2-0.4
		c-0.7-1.4-1.5-2.8-2.3-4.2c-0.3-0.4-0.1-0.8,0.1-1.2c0.7-1.3,1.5-2.6,2.2-4c0.3-0.6,0.7-0.7,1.2-0.6c0.6,0.1,0.4,0.7,0.4,1
		C156.5,4.3,156.5,5.6,156.5,7C156.5,7,156.5,7,156.5,7z"/>
	<path id="XMLID_63_" class="st1" d="M83.4,7c0-1.5,0-2.9,0-4.4c0-0.3-0.1-0.7,0.4-0.7c0.4,0,0.7-0.1,1,0.3c0.8,1.5,1.6,3,2.5,4.5
		c0.2,0.4,0,0.6-0.1,0.9c-0.7,1.3-1.5,2.6-2.2,4c-0.3,0.6-0.7,0.7-1.2,0.6c-0.7-0.1-0.4-0.7-0.4-1C83.4,9.7,83.5,8.4,83.4,7
		C83.5,7,83.5,7,83.4,7z"/>
	<path id="XMLID_62_" class="st1" d="M226.8,4.5c0,2.3,0,4.7,0,7c0,0.5-0.2,0.8-0.7,0.6c-0.7-0.3-2.1,0.9-2.1-1c0-2.8,0-5.5,0-8.3
		c0-0.8,0.2-1.1,1-1c0.5,0.1,1.1,0,1.7,0c-0.2,0.6-0.7,1-1,1.4c-0.4,0.4-0.9,0.8-0.3,1.5C226.2,5.4,226.3,4.1,226.8,4.5z"/>
	<path id="XMLID_61_" class="st1" d="M182.3,3.3c0.4,0.4,0.5,0.6,0.7,0.8c0.3,0.3,0.5,0.2,0.8,0c0.3-0.2,0.2-0.5,0-0.7
		c-0.3-0.5-0.7-0.9-1-1.4c0.1-0.1,0.2-0.2,0.2-0.2c2.1-0.1,2.1-0.1,2.1,2c0,2.4,0,4.9,0,7.3c0,0.8-0.2,1.2-1,1c-0.4-0.1-0.8,0-1.3,0
		c-0.4,0-0.6-0.1-0.6-0.6C182.3,8.9,182.3,6.3,182.3,3.3z"/>
	<path id="XMLID_60_" class="st1" d="M208.1,12.2c1.1-1.1,2.2-1.6,3.2-2.3c0.9-0.6,0.7-0.9,0-1.4c-0.8-0.5-1.5-1.1-2.3-1.7
		c1-0.8,2-1.7,3-2.5c-1.1-0.8-2.2-1.5-3.5-2.5c1.6,0,2.9,0,4.1,0c0.3,0,0.4,0.3,0.4,0.6c0,3.1,0.1,6.1,0.1,9.2
		c0,0.4-0.1,0.6-0.5,0.6C211.1,12.2,209.8,12.2,208.1,12.2z"/>
	<path id="XMLID_59_" class="st1" d="M57.8,3.5c0,2.6,0,5.1,0,7.7c0,0.9-0.3,1.1-1.1,1c-0.4,0-0.8-0.1-1.1-0.1
		c-0.6,0.1-0.8-0.2-0.8-0.8c0-3-0.1-5.9-0.1-8.9c0-0.4,0.1-0.7,0.5-0.7c0.6,0,1.3-0.2,1.8,0.2c0.3,0.3-0.1,0.6-0.3,0.8
		c-0.2,0.4-0.8,0.8-0.5,1.1c0.4,0.4,0.9-0.1,1.3-0.6C57.7,3.4,57.7,3.5,57.8,3.5z"/>
	<path id="XMLID_58_" class="st1" d="M27.8,9.3c1.3,0.9,2.5,1.7,3.7,2.6c0,0.1,0,0.2,0,0.2c-1.3,0-2.6,0-3.9,0
		c-0.5,0-0.5-0.2-0.5-0.6c0-3,0-6,0-9c0-0.5,0.2-0.8,0.7-0.7c1,0,2.1,0,3.4,0c-1,1.1-2.2,1.6-3.3,2.5c1,0.8,2,1.6,3.1,2.5
		C29.9,7.6,28.9,8.4,27.8,9.3z"/>
	<path id="XMLID_57_" class="st1" d="M13.2,4.4c0.6-0.2,0.6,0.9,1.2,0.3c0.5-0.5,0.4-1-0.1-1.5c-0.4-0.4-0.7-0.8-1.1-1.2
		c0.1-0.1,0.2-0.2,0.2-0.2c2.4-0.1,2.5-0.1,2.5,2.4c0,2.3-0.1,4.7,0,7c0,1.1-0.6,0.9-1.2,0.8c-0.5-0.1-1.5,0.6-1.5-0.8
		C13.2,9,13.2,6.7,13.2,4.4z"/>
	<path id="XMLID_56_" class="st1" d="M114.2,1.8C114,2.1,114,2.2,114,2.2c-3.3,2.1-3.9,5.2-3.4,8.8c0,0.3,0.2,0.8-0.2,1
		c-0.5,0.4-1.3-0.1-1.3-0.7c0-2.9,0-5.9,0-8.8c0-0.5,0.1-0.8,0.7-0.8C111.2,1.8,112.6,1.8,114.2,1.8z"/>
	<path id="XMLID_55_" class="st2" d="M17,8.8c0-0.7,0-1.4,0-2.1c0-0.9,0.9-2.2,1.6-2.2c0.7,0,1.7,1.3,1.7,2.1c0,1.6,0,3.2,0,4.8
		c0,0.5-0.1,0.7-0.7,0.7C17,12.3,17,12.4,17,9.7C17,9.4,17,9.1,17,8.8z"/>
	<path id="XMLID_54_" class="st1" d="M223,8.7c0,0.5,0,1,0,1.5c-0.1,0.6,0.4,1.6-0.3,1.8c-0.8,0.3-1.8,0.1-2.7,0.1
		c-0.4,0-0.3-0.4-0.3-0.7c0-1.7,0-3.4,0-5.2c0-0.7,1.2-2,1.7-1.7c0.7,0.4,1.7,0.6,1.7,1.8C223,7.1,223,7.9,223,8.7z"/>
	<path id="XMLID_53_" class="st1" d="M125.9,3.1c0.8,0.9,1.6,1.7,2.4,2.6c0.6,0.8,0.3,1.9,0.3,2.8c0.1,0.8-0.1,1.7,0,2.5
		c0.1,0.8-0.1,1.2-1.1,1.2c-2.1,0-2.1,0.1-2.1-2.1c0-2.3,0-4.5,0-6.8C125.6,3.3,125.7,3.2,125.9,3.1z"/>
	<path id="XMLID_52_" class="st1" d="M114.4,3c0,3,0,5.8,0,8.5c0,0.4-0.2,0.5-0.6,0.6c-2.3,0.3-2.4,0.2-2.4-2.1c0-0.1,0-0.3,0-0.4
		C111.4,5.9,111.4,5.9,114.4,3z"/>
	<path id="XMLID_51_" class="st1" d="M214.1,4.3c0.8,1.1,1.5,2.2,2.5,0.5c0,2.3,0,4.5,0,6.8c0,0.7-0.5,0.7-0.9,0.6
		c-0.6-0.1-1.6,0.6-1.7-0.5C214,9.3,214.1,7,214.1,4.3z"/>
	<path id="XMLID_50_" class="st1" d="M126,1.8c1.4,0,2.8,0,4.2,0c0.5,0,0.6,0.3,0.6,0.7c0,3,0,6,0,8.9c0,0.6-0.2,0.7-0.7,0.7
		c-0.6,0-0.7-0.3-0.7-0.8c0-1.5,0-3,0-4.5c0-0.9-0.3-1.6-1-2.2c-0.9-0.8-1.8-1.7-2.6-2.5C125.9,2.1,125.9,1.9,126,1.8z"/>
	<path id="XMLID_49_" class="st1" d="M23.3,4.9c1,1.7,1.7,0.6,2.5-0.5c0,2.6,0,4.9,0,7.2c0,0.5-0.2,0.6-0.7,0.6
		c-1.9,0.1-1.9,0.2-1.9-1.7C23.3,8.6,23.3,6.7,23.3,4.9z"/>
	<path id="XMLID_48_" class="st1" d="M172.4,6.9c0,1.5,0,2.9,0,4.4c0,0.7-0.3,0.8-0.9,0.8c-0.6,0-0.8-0.2-0.8-0.8c0-0.6,0-1.3,0-1.9
		c0-0.2,0-0.6,0.1-0.6c1.5-0.3,0.9-0.9,0.2-1.5c-0.3-0.3-0.3-0.7-0.3-1.1c0-1.1,0-2.3,0-3.4c0-0.6-0.2-1.2,0.8-1.2
		c1.1,0,0.9,0.6,0.9,1.2C172.5,4.3,172.5,5.6,172.4,6.9C172.5,6.9,172.5,6.9,172.4,6.9z"/>
	<path id="XMLID_47_" class="st1" d="M163.9,5.9c1,0.6,1.8,1.2,2.6,1.6c0.4,0.2,0.4,0.6,0.4,1c0,0.7,0,1.3,0,2c0,1.6,0,1.5-1.7,1.7
		c-1.2,0.1-1.5-0.4-1.4-1.5C164,9.2,163.9,7.7,163.9,5.9z"/>
	<path id="XMLID_46_" class="st1" d="M76,5.9c0,2,0,3.7,0,5.4c0,0.6-0.1,0.8-0.8,0.8c-2.3,0.1-2.1,0.1-2.4-2.2
		C72.6,7.5,74.3,7,76,5.9z"/>
	<path id="XMLID_45_" class="st1" d="M71.9,7c0,1.5,0,2.9,0,4.4c0,0.6-0.2,0.8-0.8,0.8c-0.6,0-0.8-0.2-0.8-0.8c0-1,0.1-2,0-3
		c-0.1-0.9,0.9-1,1-1.6c0.1-0.6-1.1-0.5-1-1.4c0.1-0.9,0-1.8,0-2.6c0-0.5,0-0.9,0.7-0.9c0.7,0,0.9,0.2,0.8,0.9
		C71.8,4.1,71.9,5.5,71.9,7z"/>
	<path id="XMLID_44_" class="st1" d="M67.5,7.1c0-1.5,0-2.9,0-4.4c0-0.5,0-0.9,0.7-0.9c0.6,0,0.9,0.1,0.9,0.8c-0.1,1.3-0.1,2.7,0,4
		c0.1,0.9-0.9,1-1,1.6c-0.1,0.6,1.2,0.4,1,1.3c-0.1,0.6-0.1,1.2,0,1.8c0.1,0.7-0.2,0.8-0.9,0.8c-0.7,0-0.7-0.3-0.7-0.8
		C67.6,9.9,67.6,8.5,67.5,7.1C67.5,7.1,67.5,7.1,67.5,7.1z"/>
	<path id="XMLID_43_" class="st1" d="M168.1,7c0-1.5,0-2.9,0-4.4c0-0.6,0.2-0.8,0.8-0.8c0.6,0,0.8,0.2,0.8,0.8c0,1,0,1.9,0,2.9
		c0,0.2,0,0.5,0,0.5c-1.8,0.6-0.3,1.1-0.1,1.8c0.3,1.1,0.1,2.3,0.2,3.5c0.1,0.7-0.2,0.9-0.9,0.9c-0.6,0-0.7-0.2-0.7-0.7
		C168.1,9.9,168.1,8.5,168.1,7z"/>
	<path id="XMLID_42_" class="st1" d="M73,6.5C73,5.2,73,4,73,2.8c0-0.9,0.3-1.2,1.1-1c0.7,0.2,1.6-0.5,2,0.5c0.5,1.3,0,2.4-1.1,3.1
		C74.3,5.7,73.8,6.1,73,6.5z"/>
	<path id="XMLID_41_" class="st1" d="M167,6.5c-0.7-0.4-1.2-0.7-1.6-0.9c-1.4-0.8-1.8-1.7-1.4-3.2c0.1-0.4,0.2-0.5,0.6-0.5
		c2.2-0.3,2.5-0.1,2.5,2.1C167,4.7,167,5.5,167,6.5z"/>
	<path id="XMLID_40_" class="st1" d="M22.3,6.9c0,1.4,0,2.9,0,4.3c0,0.3,0.2,0.9-0.4,0.9c-0.7,0-0.5-0.6-0.5-0.9c0-2.8,0-5.6,0-8.3
		c0-0.4-0.2-1,0.4-1c0.8,0,0.5,0.7,0.5,1.1C22.3,4.3,22.3,5.6,22.3,6.9C22.3,6.9,22.3,6.9,22.3,6.9z"/>
	<path id="XMLID_39_" class="st1" d="M154.2,1.8c-0.8,1.5-1.5,2.8-2.3,4.2c-0.7-1.3-1.3-2.4-1.9-3.5c-0.3-0.5-0.3-0.7,0.4-0.7
		C151.6,1.8,152.8,1.8,154.2,1.8z"/>
	<path id="XMLID_38_" class="st1" d="M88.1,6c-0.7-1.3-1.4-2.5-2-3.6c-0.3-0.5,0-0.6,0.4-0.6c1,0,2.1,0,3.1,0c0.6,0,0.8,0.2,0.5,0.7
		C89.4,3.6,88.8,4.7,88.1,6z"/>
	<path id="XMLID_37_" class="st1" d="M154.2,12.1c-1.6,0-3,0-4.5,0c0.8-1.4,1.5-2.7,2.3-4.1C152.7,9.4,153.4,10.7,154.2,12.1z"/>
	<path id="XMLID_36_" class="st1" d="M88.1,8c0.8,1.4,1.5,2.7,2.3,4.1c-1.4,0-2.7,0-3.9,0c-0.3,0-0.7,0-0.5-0.4
		C86.6,10.5,87.3,9.3,88.1,8z"/>
	<path id="XMLID_35_" class="st1" d="M217.7,7c0-1.4,0-2.9,0-4.3c0-0.3-0.2-0.8,0.4-0.8c0.5,0,0.4,0.5,0.4,0.8c0,2.9,0,5.9,0,8.8
		c0,0.3,0.1,0.7-0.4,0.7c-0.5,0-0.4-0.5-0.4-0.8C217.7,9.9,217.7,8.4,217.7,7z"/>
	<path id="XMLID_34_" class="st1" d="M160.2,4.9c-0.9,0.8-1.8,1.5-2.8,2.3c0-1.6,0-2.9,0-4.5C158.4,3.5,159.3,4.2,160.2,4.9z"/>
	<path id="XMLID_33_" class="st1" d="M108.2,4.2c0,1.7,0,3.2,0,4.9c-0.9-0.9-1.8-1.6-2.6-2.4C106.4,5.9,107.2,5.2,108.2,4.2z"/>
	<path id="XMLID_32_" class="st1" d="M82.5,2.7c0,1.6,0,2.9,0,4.4c-1-0.5-1.6-1.2-2.4-1.8c-0.3-0.2-0.3-0.5,0-0.7
		C80.9,4,81.7,3.4,82.5,2.7z"/>
	<path id="XMLID_31_" class="st1" d="M131.6,4.2c1,0.9,1.7,1.5,2.4,2.1c0.4,0.3,0.2,0.5-0.1,0.8c-0.7,0.6-1.3,1.2-2,1.9
		C131.3,7.5,132,6,131.6,4.2z"/>
	<path id="XMLID_30_" class="st1" d="M207.6,9.1c0.3-0.5-0.5-1.3,0.5-1.6c0.3-0.1,2.4,1.6,2.2,1.8c-0.5,0.8-1.5,1.4-2.2,1.4
		C207.1,10.7,208,9.6,207.6,9.1z"/>
	<path id="XMLID_29_" class="st1" d="M210.6,4.3c-0.5,0.3-0.9,0.6-1.3,0.8c-0.5,0.3-0.9,1.2-1.5,0.8c-0.6-0.3-0.1-1.2-0.2-1.8
		c0-0.2,0-0.5,0-0.8c0-0.2-0.2-0.5,0.1-0.7c0.3-0.2,0.5,0.1,0.7,0.2C209.1,3.4,209.8,3.8,210.6,4.3z"/>
	<path id="XMLID_28_" class="st1" d="M97.8,2.6c0,1.5,0,2.7,0,4.1c-0.8-0.3-1.9-0.9-1.9-1.5C96,4.2,97,3.5,97.8,2.6z"/>
	<path id="XMLID_27_" class="st1" d="M29.5,9.3c0.7-0.5,1.3-1,1.9-1.4c0.5-0.4,0.9-0.4,0.9,0.3c0,0.9,0,1.7,0,2.8
		C31.3,10.4,30.4,9.9,29.5,9.3z"/>
	<path id="XMLID_26_" class="st1" d="M29.5,4.3c1-0.6,1.8-1.1,2.8-1.7c0,1.1,0,1.9,0,2.8c0,0.6-0.3,0.7-0.8,0.3
		C30.8,5.3,30.2,4.9,29.5,4.3z"/>
	<path id="XMLID_25_" class="st1" d="M142.2,6.6c0-1.3,0-2.5,0-4c0.4,0.5,0.6,0.8,0.9,1.1C144.5,5.4,144.4,5.6,142.2,6.6z"/>
	<path id="XMLID_24_" class="st1" d="M213.9,1.9c1.1,0,2,0,3.2,0c-0.6,0.7-1.1,1.8-1.6,1.8C214.8,3.7,214.4,2.6,213.9,1.9z"/>
	<path id="XMLID_23_" class="st1" d="M26,1.9c-1.5,2.2-1.5,2.2-2.9,0C24.1,1.9,25,1.9,26,1.9z"/>
	<path id="XMLID_22_" class="st1" d="M119.3,3.8c-1-0.7-1.8-1.2-2.7-1.8C119.2,1.5,119.4,1.6,119.3,3.8z"/>
	<path id="XMLID_21_" class="st1" d="M120.7,3.8c-0.1-2.1-0.1-2.1,2.6-1.9C122.5,2.7,121.6,3.2,120.7,3.8z"/>
	<path id="XMLID_20_" class="st1" d="M220.4,1.8c0.7,0,1.1,0,1.7,0C221.4,2.7,221.4,2.7,220.4,1.8z"/>
	<path id="XMLID_19_" class="st1" d="M48.4,1.9c-0.2,0.6-0.7,0.9-1.1,1.3C46.9,1.8,47,1.7,48.4,1.9z"/>
	<path id="XMLID_18_" class="st1" d="M46,3.1c-0.4-0.4-0.8-0.7-1.3-1.1C46.1,1.8,46.1,1.8,46,3.1z"/>
	<path id="XMLID_17_" class="st1" d="M195.2,2c-0.4,0.4-0.7,0.7-1.1,1c-0.2-0.4-0.3-0.9,0-1.1C194.4,1.7,194.8,1.7,195.2,2z"/>
	<path id="XMLID_16_" class="st1" d="M192.6,3.1c-0.4-0.5-0.6-0.9-0.8-1.1C192.8,1.7,192.8,1.7,192.6,3.1z"/>
	<path id="XMLID_15_" class="st1" d="M19.6,1.8c-0.6,0.8-1.1,1-1.7,0.1C18.4,1.8,18.9,1.8,19.6,1.8z"/>
	<path id="XMLID_14_" class="st0" d="M176.5,6.3c1,0.4,1.5,1.3,2.3,1.9c0.3,0.2,0.2,0.4,0,0.6c-0.6,0.5-1.1,1-1.7,1.5
		c-0.3,0.3-0.5,0.2-0.7-0.1c-0.2-0.2-0.4-0.4-0.1-0.6c1.5-0.9,0.9-1.7-0.1-2.4c-0.1-0.1-0.1-0.3-0.2-0.5l0,0c0.2,0,0.3,0,0.3-0.3
		l0,0C176.5,6.6,176.6,6.5,176.5,6.3L176.5,6.3z"/>
	<path id="XMLID_13_" class="st0" d="M176,6.8c-0.3-0.5-0.5,0-0.6,0.1c-0.2,0.2-0.1,0.4,0.1,0.5c0.2,0.2,0.5,0.4,0.7,0.7
		c0.2,0.2,0.3,0.4,0,0.6c-0.2,0.2-0.4,0.5-0.7,0.2c-0.1-0.1-0.3-0.2-0.4-0.3c-0.5-0.5-1.5-0.9-1.3-1.5c0.3-0.7,1.1-1.4,1.8-1.8
		c0.9-0.4,0.7,0.6,0.9,1l0,0c-0.1,0-0.2,0-0.3,0c0,0.1,0,0.2,0,0.3l0,0c-0.1,0-0.2-0.2-0.3,0C175.9,6.6,176,6.7,176,6.8L176,6.8z"/>
	<path id="XMLID_12_" class="st0" d="M63.2,6.4c0.2,0.1,0.4,0.3,0.5,0.4c0.2,0.3,0,0.5-0.2,0.6c-1,0.7-1.3,1.3-0.1,2.1
		c0.2,0.1,0.5,0.3,0.1,0.7c-0.3,0.3-0.5,0.5-0.9,0.1c-0.4-0.5-0.9-1-1.4-1.4c-0.1-0.1-0.2-0.4-0.2-0.4C61.8,7.8,62.3,7,63.2,6.4z"/>
	<path id="XMLID_11_" class="st0" d="M64.2,9.1c-0.2-0.1-0.4-0.3-0.5-0.5c-0.3-0.4,0.1-0.5,0.3-0.6c0.9-0.6,0.9-1.1,0-1.7
		c-0.3-0.2-0.7-0.4-0.2-0.9c0.4-0.4,0.6-0.3,0.9,0.1c0.1,0.1,0.3,0.2,0.4,0.3c0.4,0.5,1.4,0.9,1.2,1.4C65.9,7.9,65,8.4,64.4,9
		C64.4,9,64.3,9,64.2,9.1z"/>
	<path id="XMLID_10_" class="st0" d="M91.5,9.1c-0.1,0-0.2-0.1-0.3-0.2c-0.2-0.2-0.1-0.4,0-0.5c0.5-0.4,0.9-0.9,1.4-1.3
		c0.5-0.4,0.7-0.7,0-1.1c-0.5-0.3-1-0.8-1.4-1.2c-0.2-0.2-0.5-0.3-0.2-0.7c0.3-0.3,0.4,0,0.6,0.1c0.8,0.6,1.5,1.3,2.3,1.9
		c0.2,0.2,0.5,0.4,0.1,0.7c-0.8,0.7-1.5,1.4-2.3,2.1C91.7,9.1,91.6,9.1,91.5,9.1z"/>
	<path id="XMLID_9_" class="st0" d="M145.6,6.6c1-0.8,1.8-1.5,2.7-2.2c0.2-0.2,0.4-0.5,0.7-0.1c0.4,0.4-0.1,0.5-0.2,0.7
		c-0.6,0.6-1.6,1-1.7,1.7c-0.1,0.7,1.1,1.1,1.6,1.8c0.1,0.2,0.5,0.3,0.2,0.6c-0.3,0.3-0.5,0.2-0.7-0.1
		C147.3,8.1,146.5,7.4,145.6,6.6z"/>
	<path id="XMLID_177_" class="st0" d="M231.5,11.2c-0.9-1.2-1.8-2.3-2.7-3.4c-0.3-0.3-0.3-0.6,0-1c1-1.3,2-2.7,3-4.1
		c1,1.3,1.9,2.5,2.8,3.6c0.3,0.4,0.2,0.7,0,1C233.6,8.6,232.6,9.9,231.5,11.2z M231.5,9.4c2.4-2.4,2.4-3.1,0.2-4.8
		C229.6,7.4,229.6,7.4,231.5,9.4z"/>
	<path id="XMLID_174_" class="st0" d="M8.1,2.7c0.2,0.2,0.3,0.3,0.5,0.5c0.8,1.2,1.7,2.3,2.5,3.5c0.3,0.4,0.4,0.7,0,1.1
		c-0.8,0.9-1.5,1.8-2.2,2.8c-0.3,0.5-0.6,0.6-1,0C7.1,9.5,6.3,8.4,5.4,7.3C5.1,7,5,6.7,5.4,6.2c0.8-1,1.6-2.1,2.4-3.1
		C7.9,3,8,2.9,8.1,2.7z M8.1,4.4C6.2,6.7,6.2,6.7,7.5,8.4c0.9,1.2,1,1.2,1.9-0.1c0.3-0.4,1.1-0.7,0.5-1.4C9.3,6.1,8.8,5.3,8.1,4.4z"
		/>
	<path id="XMLID_4_" class="st1" d="M176,6.8c0-0.1-0.2-0.2,0-0.3c0.1-0.1,0.2,0,0.3,0C176.4,6.8,176.2,6.8,176,6.8z"/>
	<path id="XMLID_3_" class="st1" d="M176.3,6.6c0-0.1,0-0.2,0-0.3c0.1,0,0.2,0,0.3,0C176.6,6.5,176.5,6.6,176.3,6.6z"/>
	<path id="XMLID_2_" class="st1" d="M231.5,9.4c-1.9-2-1.9-2,0.2-4.8C233.9,6.3,233.9,7,231.5,9.4z"/>
	<path id="XMLID_1_" class="st1" d="M8.1,4.4c0.6,0.9,1.2,1.6,1.8,2.4c0.6,0.7-0.2,1-0.5,1.4C8.5,9.5,8.4,9.5,7.5,8.4
		C6.2,6.7,6.2,6.7,8.1,4.4z"/>
</g>
</svg>
